<?xml version="1.0" encoding="utf-8"?>
<svg xmlns="http://www.w3.org/2000/svg" xmlns:xlink="http://www.w3.org/1999/xlink" width="1200" height="800" viewBox="0 0 4800 3200">
<defs>
  <clipPath id="clip2400">
    <rect x="0" y="0" width="4800" height="3200"/>
  </clipPath>
</defs>
<polygon clip-path="url(#clip2400)" points="
0,3200 4800,3200 4800,0 0,0 
  " fill="#ffffff" fill-rule="evenodd" fill-opacity="1"/>
<defs>
  <clipPath id="clip2401">
    <rect x="960" y="0" width="3361" height="3200"/>
  </clipPath>
</defs>
<polygon clip-path="url(#clip2400)" points="
982.876,2747.94 4705.51,2747.94 4705.51,306.728 982.876,306.728 
  " fill="#ffffff" fill-rule="evenodd" fill-opacity="1"/>
<defs>
  <clipPath id="clip2402">
    <rect x="982" y="306" width="3724" height="2442"/>
  </clipPath>
</defs>
<polyline clip-path="url(#clip2402)" style="stroke:#000000; stroke-width:4; stroke-opacity:0.1; fill:none" points="
  1173.58,2747.94 1173.58,306.728 
  "/>
<polyline clip-path="url(#clip2402)" style="stroke:#000000; stroke-width:4; stroke-opacity:0.1; fill:none" points="
  1709.46,2747.94 1709.46,306.728 
  "/>
<polyline clip-path="url(#clip2402)" style="stroke:#000000; stroke-width:4; stroke-opacity:0.1; fill:none" points="
  2245.33,2747.94 2245.33,306.728 
  "/>
<polyline clip-path="url(#clip2402)" style="stroke:#000000; stroke-width:4; stroke-opacity:0.1; fill:none" points="
  2781.21,2747.94 2781.21,306.728 
  "/>
<polyline clip-path="url(#clip2402)" style="stroke:#000000; stroke-width:4; stroke-opacity:0.1; fill:none" points="
  3317.09,2747.94 3317.09,306.728 
  "/>
<polyline clip-path="url(#clip2402)" style="stroke:#000000; stroke-width:4; stroke-opacity:0.1; fill:none" points="
  3852.97,2747.94 3852.97,306.728 
  "/>
<polyline clip-path="url(#clip2402)" style="stroke:#000000; stroke-width:4; stroke-opacity:0.1; fill:none" points="
  4388.85,2747.94 4388.85,306.728 
  "/>
<polyline clip-path="url(#clip2402)" style="stroke:#000000; stroke-width:4; stroke-opacity:0.1; fill:none" points="
  982.876,2664.52 4705.51,2664.52 
  "/>
<polyline clip-path="url(#clip2402)" style="stroke:#000000; stroke-width:4; stroke-opacity:0.1; fill:none" points="
  982.876,2054.06 4705.51,2054.06 
  "/>
<polyline clip-path="url(#clip2402)" style="stroke:#000000; stroke-width:4; stroke-opacity:0.1; fill:none" points="
  982.876,1443.6 4705.51,1443.6 
  "/>
<polyline clip-path="url(#clip2402)" style="stroke:#000000; stroke-width:4; stroke-opacity:0.1; fill:none" points="
  982.876,833.142 4705.51,833.142 
  "/>
<polyline clip-path="url(#clip2400)" style="stroke:#000000; stroke-width:8; stroke-opacity:1; fill:none" points="
  982.876,2747.94 4705.51,2747.94 
  "/>
<polyline clip-path="url(#clip2400)" style="stroke:#000000; stroke-width:8; stroke-opacity:1; fill:none" points="
  982.876,2747.94 982.876,306.728 
  "/>
<polyline clip-path="url(#clip2400)" style="stroke:#000000; stroke-width:8; stroke-opacity:1; fill:none" points="
  1173.58,2747.94 1173.58,2711.33 
  "/>
<polyline clip-path="url(#clip2400)" style="stroke:#000000; stroke-width:8; stroke-opacity:1; fill:none" points="
  1709.46,2747.94 1709.46,2711.33 
  "/>
<polyline clip-path="url(#clip2400)" style="stroke:#000000; stroke-width:8; stroke-opacity:1; fill:none" points="
  2245.33,2747.94 2245.33,2711.33 
  "/>
<polyline clip-path="url(#clip2400)" style="stroke:#000000; stroke-width:8; stroke-opacity:1; fill:none" points="
  2781.21,2747.94 2781.21,2711.33 
  "/>
<polyline clip-path="url(#clip2400)" style="stroke:#000000; stroke-width:8; stroke-opacity:1; fill:none" points="
  3317.09,2747.94 3317.09,2711.33 
  "/>
<polyline clip-path="url(#clip2400)" style="stroke:#000000; stroke-width:8; stroke-opacity:1; fill:none" points="
  3852.97,2747.94 3852.97,2711.33 
  "/>
<polyline clip-path="url(#clip2400)" style="stroke:#000000; stroke-width:8; stroke-opacity:1; fill:none" points="
  4388.85,2747.94 4388.85,2711.33 
  "/>
<polyline clip-path="url(#clip2400)" style="stroke:#000000; stroke-width:8; stroke-opacity:1; fill:none" points="
  982.876,2664.52 1038.72,2664.52 
  "/>
<polyline clip-path="url(#clip2400)" style="stroke:#000000; stroke-width:8; stroke-opacity:1; fill:none" points="
  982.876,2054.06 1038.72,2054.06 
  "/>
<polyline clip-path="url(#clip2400)" style="stroke:#000000; stroke-width:8; stroke-opacity:1; fill:none" points="
  982.876,1443.6 1038.72,1443.6 
  "/>
<polyline clip-path="url(#clip2400)" style="stroke:#000000; stroke-width:8; stroke-opacity:1; fill:none" points="
  982.876,833.142 1038.72,833.142 
  "/>
<g clip-path="url(#clip2400)">
<text style="fill:#000000; fill-opacity:1; font-family:Arial,Helvetica Neue,Helvetica,sans-serif; font-size:95px; text-anchor:start;" transform="rotate(0, 988.493, 2897.96)" x="988.493" y="2897.96">10</text>
</g>
<g clip-path="url(#clip2400)">
<text style="fill:#000000; fill-opacity:1; font-family:Arial,Helvetica Neue,Helvetica,sans-serif; font-size:77px; text-anchor:start;" transform="rotate(0, 1095.54, 2843.14)" x="1095.54" y="2843.14">-</text>
</g>
<g clip-path="url(#clip2400)">
<text style="fill:#000000; fill-opacity:1; font-family:Arial,Helvetica Neue,Helvetica,sans-serif; font-size:77px; text-anchor:start;" transform="rotate(0, 1141.22, 2843.14)" x="1141.22" y="2843.14">2.002 </text>
</g>
<g clip-path="url(#clip2400)">
<text style="fill:#000000; fill-opacity:1; font-family:Arial,Helvetica Neue,Helvetica,sans-serif; font-size:95px; text-anchor:start;" transform="rotate(0, 1524.37, 2897.96)" x="1524.37" y="2897.96">10</text>
</g>
<g clip-path="url(#clip2400)">
<text style="fill:#000000; fill-opacity:1; font-family:Arial,Helvetica Neue,Helvetica,sans-serif; font-size:77px; text-anchor:start;" transform="rotate(0, 1631.42, 2843.14)" x="1631.42" y="2843.14">-</text>
</g>
<g clip-path="url(#clip2400)">
<text style="fill:#000000; fill-opacity:1; font-family:Arial,Helvetica Neue,Helvetica,sans-serif; font-size:77px; text-anchor:start;" transform="rotate(0, 1677.1, 2843.14)" x="1677.1" y="2843.14">2.000 </text>
</g>
<g clip-path="url(#clip2400)">
<text style="fill:#000000; fill-opacity:1; font-family:Arial,Helvetica Neue,Helvetica,sans-serif; font-size:95px; text-anchor:start;" transform="rotate(0, 2060.25, 2897.96)" x="2060.25" y="2897.96">10</text>
</g>
<g clip-path="url(#clip2400)">
<text style="fill:#000000; fill-opacity:1; font-family:Arial,Helvetica Neue,Helvetica,sans-serif; font-size:77px; text-anchor:start;" transform="rotate(0, 2167.3, 2843.14)" x="2167.3" y="2843.14">-</text>
</g>
<g clip-path="url(#clip2400)">
<text style="fill:#000000; fill-opacity:1; font-family:Arial,Helvetica Neue,Helvetica,sans-serif; font-size:77px; text-anchor:start;" transform="rotate(0, 2212.98, 2843.14)" x="2212.98" y="2843.14">1.998 </text>
</g>
<g clip-path="url(#clip2400)">
<text style="fill:#000000; fill-opacity:1; font-family:Arial,Helvetica Neue,Helvetica,sans-serif; font-size:95px; text-anchor:start;" transform="rotate(0, 2596.13, 2897.96)" x="2596.13" y="2897.96">10</text>
</g>
<g clip-path="url(#clip2400)">
<text style="fill:#000000; fill-opacity:1; font-family:Arial,Helvetica Neue,Helvetica,sans-serif; font-size:77px; text-anchor:start;" transform="rotate(0, 2703.18, 2843.14)" x="2703.18" y="2843.14">-</text>
</g>
<g clip-path="url(#clip2400)">
<text style="fill:#000000; fill-opacity:1; font-family:Arial,Helvetica Neue,Helvetica,sans-serif; font-size:77px; text-anchor:start;" transform="rotate(0, 2748.85, 2843.14)" x="2748.85" y="2843.14">1.996 </text>
</g>
<g clip-path="url(#clip2400)">
<text style="fill:#000000; fill-opacity:1; font-family:Arial,Helvetica Neue,Helvetica,sans-serif; font-size:95px; text-anchor:start;" transform="rotate(0, 3132, 2897.96)" x="3132" y="2897.96">10</text>
</g>
<g clip-path="url(#clip2400)">
<text style="fill:#000000; fill-opacity:1; font-family:Arial,Helvetica Neue,Helvetica,sans-serif; font-size:77px; text-anchor:start;" transform="rotate(0, 3239.05, 2843.14)" x="3239.05" y="2843.14">-</text>
</g>
<g clip-path="url(#clip2400)">
<text style="fill:#000000; fill-opacity:1; font-family:Arial,Helvetica Neue,Helvetica,sans-serif; font-size:77px; text-anchor:start;" transform="rotate(0, 3284.73, 2843.14)" x="3284.73" y="2843.14">1.994 </text>
</g>
<g clip-path="url(#clip2400)">
<text style="fill:#000000; fill-opacity:1; font-family:Arial,Helvetica Neue,Helvetica,sans-serif; font-size:95px; text-anchor:start;" transform="rotate(0, 3667.88, 2897.96)" x="3667.88" y="2897.96">10</text>
</g>
<g clip-path="url(#clip2400)">
<text style="fill:#000000; fill-opacity:1; font-family:Arial,Helvetica Neue,Helvetica,sans-serif; font-size:77px; text-anchor:start;" transform="rotate(0, 3774.93, 2843.14)" x="3774.93" y="2843.14">-</text>
</g>
<g clip-path="url(#clip2400)">
<text style="fill:#000000; fill-opacity:1; font-family:Arial,Helvetica Neue,Helvetica,sans-serif; font-size:77px; text-anchor:start;" transform="rotate(0, 3820.61, 2843.14)" x="3820.61" y="2843.14">1.992 </text>
</g>
<g clip-path="url(#clip2400)">
<text style="fill:#000000; fill-opacity:1; font-family:Arial,Helvetica Neue,Helvetica,sans-serif; font-size:95px; text-anchor:start;" transform="rotate(0, 4203.76, 2897.96)" x="4203.76" y="2897.96">10</text>
</g>
<g clip-path="url(#clip2400)">
<text style="fill:#000000; fill-opacity:1; font-family:Arial,Helvetica Neue,Helvetica,sans-serif; font-size:77px; text-anchor:start;" transform="rotate(0, 4310.81, 2843.14)" x="4310.81" y="2843.14">-</text>
</g>
<g clip-path="url(#clip2400)">
<text style="fill:#000000; fill-opacity:1; font-family:Arial,Helvetica Neue,Helvetica,sans-serif; font-size:77px; text-anchor:start;" transform="rotate(0, 4356.49, 2843.14)" x="4356.49" y="2843.14">1.990 </text>
</g>
<g clip-path="url(#clip2400)">
<text style="fill:#000000; fill-opacity:1; font-family:Arial,Helvetica Neue,Helvetica,sans-serif; font-size:95px; text-anchor:start;" transform="rotate(0, 608.193, 2711.97)" x="608.193" y="2711.97">10</text>
</g>
<g clip-path="url(#clip2400)">
<text style="fill:#000000; fill-opacity:1; font-family:Arial,Helvetica Neue,Helvetica,sans-serif; font-size:77px; text-anchor:start;" transform="rotate(0, 715.242, 2657.15)" x="715.242" y="2657.15">-</text>
</g>
<g clip-path="url(#clip2400)">
<text style="fill:#000000; fill-opacity:1; font-family:Arial,Helvetica Neue,Helvetica,sans-serif; font-size:77px; text-anchor:start;" transform="rotate(0, 760.921, 2657.15)" x="760.921" y="2657.15">0.88 </text>
</g>
<g clip-path="url(#clip2400)">
<text style="fill:#000000; fill-opacity:1; font-family:Arial,Helvetica Neue,Helvetica,sans-serif; font-size:95px; text-anchor:start;" transform="rotate(0, 608.193, 2101.51)" x="608.193" y="2101.51">10</text>
</g>
<g clip-path="url(#clip2400)">
<text style="fill:#000000; fill-opacity:1; font-family:Arial,Helvetica Neue,Helvetica,sans-serif; font-size:77px; text-anchor:start;" transform="rotate(0, 715.242, 2046.69)" x="715.242" y="2046.69">-</text>
</g>
<g clip-path="url(#clip2400)">
<text style="fill:#000000; fill-opacity:1; font-family:Arial,Helvetica Neue,Helvetica,sans-serif; font-size:77px; text-anchor:start;" transform="rotate(0, 760.921, 2046.69)" x="760.921" y="2046.69">0.86 </text>
</g>
<g clip-path="url(#clip2400)">
<text style="fill:#000000; fill-opacity:1; font-family:Arial,Helvetica Neue,Helvetica,sans-serif; font-size:95px; text-anchor:start;" transform="rotate(0, 608.193, 1491.06)" x="608.193" y="1491.06">10</text>
</g>
<g clip-path="url(#clip2400)">
<text style="fill:#000000; fill-opacity:1; font-family:Arial,Helvetica Neue,Helvetica,sans-serif; font-size:77px; text-anchor:start;" transform="rotate(0, 715.242, 1436.24)" x="715.242" y="1436.24">-</text>
</g>
<g clip-path="url(#clip2400)">
<text style="fill:#000000; fill-opacity:1; font-family:Arial,Helvetica Neue,Helvetica,sans-serif; font-size:77px; text-anchor:start;" transform="rotate(0, 760.921, 1436.24)" x="760.921" y="1436.24">0.84 </text>
</g>
<g clip-path="url(#clip2400)">
<text style="fill:#000000; fill-opacity:1; font-family:Arial,Helvetica Neue,Helvetica,sans-serif; font-size:95px; text-anchor:start;" transform="rotate(0, 608.193, 880.598)" x="608.193" y="880.598">10</text>
</g>
<g clip-path="url(#clip2400)">
<text style="fill:#000000; fill-opacity:1; font-family:Arial,Helvetica Neue,Helvetica,sans-serif; font-size:77px; text-anchor:start;" transform="rotate(0, 715.242, 825.777)" x="715.242" y="825.777">-</text>
</g>
<g clip-path="url(#clip2400)">
<text style="fill:#000000; fill-opacity:1; font-family:Arial,Helvetica Neue,Helvetica,sans-serif; font-size:77px; text-anchor:start;" transform="rotate(0, 760.921, 825.777)" x="760.921" y="825.777">0.82 </text>
</g>
<g clip-path="url(#clip2400)">
<text style="fill:#000000; fill-opacity:1; font-family:Arial,Helvetica Neue,Helvetica,sans-serif; font-size:166px; text-anchor:middle;" transform="rotate(0, 2844.19, 145.2)" x="2844.19" y="145.2">ROCK4 PI_Hires_OnlySpeed</text>
</g>
<g clip-path="url(#clip2400)">
<text style="fill:#000000; fill-opacity:1; font-family:Arial,Helvetica Neue,Helvetica,sans-serif; font-size:130px; text-anchor:middle;" transform="rotate(0, 2844.19, 3015.87)" x="2844.19" y="3015.87">Error</text>
</g>
<g clip-path="url(#clip2400)">
<text style="fill:#000000; fill-opacity:1; font-family:Arial,Helvetica Neue,Helvetica,sans-serif; font-size:130px; text-anchor:middle;" transform="rotate(-90, 466.797, 1527.34)" x="466.797" y="1527.34">Time (s)</text>
</g>
<polyline clip-path="url(#clip2402)" style="stroke:#009af9; stroke-width:8; stroke-opacity:1; fill:none" points="
  4600.15,2678.85 3495.98,2498.01 3441.73,2547.7 3485.46,2537.29 
  "/>
<circle clip-path="url(#clip2402)" style="fill:#000000; stroke:none; fill-opacity:1" cx="4600.15" cy="2678.85" r="36"/>
<circle clip-path="url(#clip2402)" style="fill:#009af9; stroke:none; fill-opacity:1" cx="4600.15" cy="2678.85" r="28"/>
<circle clip-path="url(#clip2402)" style="fill:#000000; stroke:none; fill-opacity:1" cx="3495.98" cy="2498.01" r="36"/>
<circle clip-path="url(#clip2402)" style="fill:#009af9; stroke:none; fill-opacity:1" cx="3495.98" cy="2498.01" r="28"/>
<circle clip-path="url(#clip2402)" style="fill:#000000; stroke:none; fill-opacity:1" cx="3441.73" cy="2547.7" r="36"/>
<circle clip-path="url(#clip2402)" style="fill:#009af9; stroke:none; fill-opacity:1" cx="3441.73" cy="2547.7" r="28"/>
<circle clip-path="url(#clip2402)" style="fill:#000000; stroke:none; fill-opacity:1" cx="3485.46" cy="2537.29" r="36"/>
<circle clip-path="url(#clip2402)" style="fill:#009af9; stroke:none; fill-opacity:1" cx="3485.46" cy="2537.29" r="28"/>
<polyline clip-path="url(#clip2402)" style="stroke:#e26f46; stroke-width:8; stroke-opacity:1; fill:none" points="
  2981.04,2380.61 3011.85,2479.43 3262.83,2394.48 3087.65,375.819 
  "/>
<polygon clip-path="url(#clip2402)" style="fill:#000000; fill-opacity:1" points="
  2941.04,2340.61 2941.04,2420.61 3021.04,2420.61 3021.04,2340.61 2941.04,2340.61 
  "/>
<polygon clip-path="url(#clip2402)" style="fill:#e26f46; fill-opacity:1" points="
  2949.04,2348.61 2949.04,2412.61 3013.04,2412.61 3013.04,2348.61 2949.04,2348.61 
  "/>
<polygon clip-path="url(#clip2402)" style="fill:#000000; fill-opacity:1" points="
  2971.85,2439.43 2971.85,2519.43 3051.85,2519.43 3051.85,2439.43 2971.85,2439.43 
  "/>
<polygon clip-path="url(#clip2402)" style="fill:#e26f46; fill-opacity:1" points="
  2979.85,2447.43 2979.85,2511.43 3043.85,2511.43 3043.85,2447.43 2979.85,2447.43 
  "/>
<polygon clip-path="url(#clip2402)" style="fill:#000000; fill-opacity:1" points="
  3222.83,2354.48 3222.83,2434.48 3302.83,2434.48 3302.83,2354.48 3222.83,2354.48 
  "/>
<polygon clip-path="url(#clip2402)" style="fill:#e26f46; fill-opacity:1" points="
  3230.83,2362.48 3230.83,2426.48 3294.83,2426.48 3294.83,2362.48 3230.83,2362.48 
  "/>
<polygon clip-path="url(#clip2402)" style="fill:#000000; fill-opacity:1" points="
  3047.65,335.819 3047.65,415.819 3127.65,415.819 3127.65,335.819 3047.65,335.819 
  "/>
<polygon clip-path="url(#clip2402)" style="fill:#e26f46; fill-opacity:1" points="
  3055.65,343.819 3055.65,407.819 3119.65,407.819 3119.65,343.819 3055.65,343.819 
  "/>
<polyline clip-path="url(#clip2402)" style="stroke:#3da44d; stroke-width:8; stroke-opacity:1; fill:none" points="
  2604.81,2219.65 3340.63,2267.61 2910.22,2412.56 4366.78,2340.97 
  "/>
<polygon clip-path="url(#clip2402)" style="fill:#000000; fill-opacity:1" points="
  2604.81,2179.65 2595.41,2206.69 2566.77,2207.29 2589.61,2224.61 2581.29,2252.01 2604.81,2235.65 2628.33,2252.01 2620.01,2224.61 2642.85,2207.29 2614.21,2206.69 
  2604.81,2179.65 
  "/>
<polygon clip-path="url(#clip2402)" style="fill:#3da44d; fill-opacity:1" points="
  2604.81,2187.65 2597.29,2209.29 2574.38,2209.77 2592.65,2223.62 2586,2245.54 2604.81,2232.45 2623.63,2245.54 2616.97,2223.62 2635.25,2209.77 2612.33,2209.29 
  2604.81,2187.65 
  "/>
<polygon clip-path="url(#clip2402)" style="fill:#000000; fill-opacity:1" points="
  3340.63,2227.61 3331.23,2254.65 3302.59,2255.25 3325.43,2272.57 3317.11,2299.97 3340.63,2283.61 3364.15,2299.97 3355.83,2272.57 3378.67,2255.25 3350.03,2254.65 
  3340.63,2227.61 
  "/>
<polygon clip-path="url(#clip2402)" style="fill:#3da44d; fill-opacity:1" points="
  3340.63,2235.61 3333.11,2257.24 3310.2,2257.72 3328.47,2271.57 3321.82,2293.49 3340.63,2280.41 3359.45,2293.49 3352.79,2271.57 3371.06,2257.72 3348.15,2257.24 
  3340.63,2235.61 
  "/>
<polygon clip-path="url(#clip2402)" style="fill:#000000; fill-opacity:1" points="
  2910.22,2372.56 2900.82,2399.6 2872.18,2400.2 2895.02,2417.52 2886.7,2444.92 2910.22,2428.56 2933.74,2444.92 2925.42,2417.52 2948.26,2400.2 2919.62,2399.6 
  2910.22,2372.56 
  "/>
<polygon clip-path="url(#clip2402)" style="fill:#3da44d; fill-opacity:1" points="
  2910.22,2380.56 2902.7,2402.19 2879.79,2402.67 2898.06,2416.52 2891.41,2438.44 2910.22,2425.36 2929.04,2438.44 2922.38,2416.52 2940.65,2402.67 2917.74,2402.19 
  2910.22,2380.56 
  "/>
<polygon clip-path="url(#clip2402)" style="fill:#000000; fill-opacity:1" points="
  4366.78,2300.97 4357.38,2328.01 4328.74,2328.61 4351.58,2345.93 4343.26,2373.33 4366.78,2356.97 4390.3,2373.33 4381.98,2345.93 4404.82,2328.61 4376.18,2328.01 
  4366.78,2300.97 
  "/>
<polygon clip-path="url(#clip2402)" style="fill:#3da44d; fill-opacity:1" points="
  4366.78,2308.97 4359.26,2330.6 4336.35,2331.08 4354.62,2344.94 4347.96,2366.86 4366.78,2353.77 4385.59,2366.86 4378.94,2344.94 4397.21,2331.08 4374.3,2330.6 
  4366.78,2308.97 
  "/>
<polyline clip-path="url(#clip2402)" style="stroke:#c271d2; stroke-width:8; stroke-opacity:1; fill:none" points="
  3372.58,2009.1 2974.51,2117.98 2321.59,2447.37 4163.67,2190.47 
  "/>
<polygon clip-path="url(#clip2402)" style="fill:#000000; fill-opacity:1" points="
  3372.58,1969.1 3332.58,2009.1 3372.58,2049.1 3412.58,2009.1 3372.58,1969.1 
  "/>
<polygon clip-path="url(#clip2402)" style="fill:#c271d2; fill-opacity:1" points="
  3372.58,1977.1 3340.58,2009.1 3372.58,2041.1 3404.58,2009.1 3372.58,1977.1 
  "/>
<polygon clip-path="url(#clip2402)" style="fill:#000000; fill-opacity:1" points="
  2974.51,2077.98 2934.51,2117.98 2974.51,2157.98 3014.51,2117.98 2974.51,2077.98 
  "/>
<polygon clip-path="url(#clip2402)" style="fill:#c271d2; fill-opacity:1" points="
  2974.51,2085.98 2942.51,2117.98 2974.51,2149.98 3006.51,2117.98 2974.51,2085.98 
  "/>
<polygon clip-path="url(#clip2402)" style="fill:#000000; fill-opacity:1" points="
  2321.59,2407.37 2281.59,2447.37 2321.59,2487.37 2361.59,2447.37 2321.59,2407.37 
  "/>
<polygon clip-path="url(#clip2402)" style="fill:#c271d2; fill-opacity:1" points="
  2321.59,2415.37 2289.59,2447.37 2321.59,2479.37 2353.59,2447.37 2321.59,2415.37 
  "/>
<polygon clip-path="url(#clip2402)" style="fill:#000000; fill-opacity:1" points="
  4163.67,2150.47 4123.67,2190.47 4163.67,2230.47 4203.67,2190.47 4163.67,2150.47 
  "/>
<polygon clip-path="url(#clip2402)" style="fill:#c271d2; fill-opacity:1" points="
  4163.67,2158.47 4131.67,2190.47 4163.67,2222.47 4195.67,2190.47 4163.67,2158.47 
  "/>
<polyline clip-path="url(#clip2402)" style="stroke:#ac8d18; stroke-width:8; stroke-opacity:1; fill:none" points="
  2952.19,2070.65 2309.86,2282.16 1522.56,2318.24 1088.23,2138.65 
  "/>
<polygon clip-path="url(#clip2402)" style="fill:#000000; fill-opacity:1" points="
  2952.19,2110.65 2917.55,2090.65 2917.55,2050.65 2952.19,2030.65 2986.83,2050.65 2986.83,2090.65 
  "/>
<polygon clip-path="url(#clip2402)" style="fill:#ac8d18; fill-opacity:1" points="
  2952.19,2102.65 2924.48,2086.65 2924.48,2054.65 2952.19,2038.65 2979.9,2054.65 2979.9,2086.65 
  "/>
<polygon clip-path="url(#clip2402)" style="fill:#000000; fill-opacity:1" points="
  2309.86,2322.16 2275.22,2302.16 2275.22,2262.16 2309.86,2242.16 2344.5,2262.16 2344.5,2302.16 
  "/>
<polygon clip-path="url(#clip2402)" style="fill:#ac8d18; fill-opacity:1" points="
  2309.86,2314.16 2282.14,2298.16 2282.14,2266.16 2309.86,2250.16 2337.57,2266.16 2337.57,2298.16 
  "/>
<polygon clip-path="url(#clip2402)" style="fill:#000000; fill-opacity:1" points="
  1522.56,2358.24 1487.92,2338.24 1487.92,2298.24 1522.56,2278.24 1557.2,2298.24 1557.2,2338.24 
  "/>
<polygon clip-path="url(#clip2402)" style="fill:#ac8d18; fill-opacity:1" points="
  1522.56,2350.24 1494.85,2334.24 1494.85,2302.24 1522.56,2286.24 1550.27,2302.24 1550.27,2334.24 
  "/>
<polygon clip-path="url(#clip2402)" style="fill:#000000; fill-opacity:1" points="
  1088.23,2178.65 1053.59,2158.65 1053.59,2118.65 1088.23,2098.65 1122.87,2118.65 1122.87,2158.65 
  "/>
<polygon clip-path="url(#clip2402)" style="fill:#ac8d18; fill-opacity:1" points="
  1088.23,2170.65 1060.52,2154.65 1060.52,2122.65 1088.23,2106.65 1115.95,2122.65 1115.95,2154.65 
  "/>
<polygon clip-path="url(#clip2400)" points="
4041.37,897.128 4561.51,897.128 4561.51,534.248 4041.37,534.248 
  " fill="#ffffff" fill-rule="evenodd" fill-opacity="1"/>
<polyline clip-path="url(#clip2400)" style="stroke:#000000; stroke-width:8; stroke-opacity:1; fill:none" points="
  4041.37,897.128 4561.51,897.128 4561.51,534.248 4041.37,534.248 4041.37,897.128 
  "/>
<polyline clip-path="url(#clip2400)" style="stroke:#009af9; stroke-width:8; stroke-opacity:1; fill:none" points="
  4089.37,594.728 4377.37,594.728 
  "/>
<circle clip-path="url(#clip2400)" style="fill:#000000; stroke:none; fill-opacity:1" cx="4257.37" cy="594.728" r="50"/>
<circle clip-path="url(#clip2400)" style="fill:#009af9; stroke:none; fill-opacity:1" cx="4257.37" cy="594.728" r="43"/>
<g clip-path="url(#clip2400)">
<text style="fill:#000000; fill-opacity:1; font-family:Arial,Helvetica Neue,Helvetica,sans-serif; font-size:48px; text-anchor:start;" transform="rotate(0, 4425.37, 612.228)" x="4425.37" y="612.228">.9</text>
</g>
<polyline clip-path="url(#clip2400)" style="stroke:#e26f46; stroke-width:8; stroke-opacity:1; fill:none" points="
  4089.37,655.208 4377.37,655.208 
  "/>
<polygon clip-path="url(#clip2400)" style="fill:#000000; fill-opacity:1" points="
  4201.37,599.208 4201.37,711.208 4313.37,711.208 4313.37,599.208 4201.37,599.208 
  "/>
<polygon clip-path="url(#clip2400)" style="fill:#e26f46; fill-opacity:1" points="
  4209.37,607.208 4209.37,703.208 4305.37,703.208 4305.37,607.208 4209.37,607.208 
  "/>
<g clip-path="url(#clip2400)">
<text style="fill:#000000; fill-opacity:1; font-family:Arial,Helvetica Neue,Helvetica,sans-serif; font-size:48px; text-anchor:start;" transform="rotate(0, 4425.37, 672.708)" x="4425.37" y="672.708">.8</text>
</g>
<polyline clip-path="url(#clip2400)" style="stroke:#3da44d; stroke-width:8; stroke-opacity:1; fill:none" points="
  4089.37,715.688 4377.37,715.688 
  "/>
<polygon clip-path="url(#clip2400)" style="fill:#000000; fill-opacity:1" points="
  4257.37,659.688 4244.21,697.544 4204.11,698.384 4236.09,722.632 4224.44,760.992 4257.37,738.088 4290.3,760.992 4278.65,722.632 4310.62,698.384 4270.53,697.544 
  4257.37,659.688 
  "/>
<polygon clip-path="url(#clip2400)" style="fill:#3da44d; fill-opacity:1" points="
  4257.37,667.688 4246.09,700.136 4211.72,700.856 4239.13,721.64 4229.14,754.52 4257.37,734.888 4285.59,754.52 4275.61,721.64 4303.02,700.856 4268.65,700.136 
  4257.37,667.688 
  "/>
<g clip-path="url(#clip2400)">
<text style="fill:#000000; fill-opacity:1; font-family:Arial,Helvetica Neue,Helvetica,sans-serif; font-size:48px; text-anchor:start;" transform="rotate(0, 4425.37, 733.188)" x="4425.37" y="733.188">.7</text>
</g>
<polyline clip-path="url(#clip2400)" style="stroke:#c271d2; stroke-width:8; stroke-opacity:1; fill:none" points="
  4089.37,776.168 4377.37,776.168 
  "/>
<polygon clip-path="url(#clip2400)" style="fill:#000000; fill-opacity:1" points="
  4257.37,720.168 4201.37,776.168 4257.37,832.168 4313.37,776.168 4257.37,720.168 
  "/>
<polygon clip-path="url(#clip2400)" style="fill:#c271d2; fill-opacity:1" points="
  4257.37,728.168 4209.37,776.168 4257.37,824.168 4305.37,776.168 4257.37,728.168 
  "/>
<g clip-path="url(#clip2400)">
<text style="fill:#000000; fill-opacity:1; font-family:Arial,Helvetica Neue,Helvetica,sans-serif; font-size:48px; text-anchor:start;" transform="rotate(0, 4425.37, 793.668)" x="4425.37" y="793.668">.6</text>
</g>
<polyline clip-path="url(#clip2400)" style="stroke:#ac8d18; stroke-width:8; stroke-opacity:1; fill:none" points="
  4089.37,836.648 4377.37,836.648 
  "/>
<polygon clip-path="url(#clip2400)" style="fill:#000000; fill-opacity:1" points="
  4257.37,892.648 4208.87,864.648 4208.87,808.648 4257.37,780.648 4305.86,808.648 4305.86,864.648 
  "/>
<polygon clip-path="url(#clip2400)" style="fill:#ac8d18; fill-opacity:1" points="
  4257.37,884.648 4215.8,860.648 4215.8,812.648 4257.37,788.648 4298.94,812.648 4298.94,860.648 
  "/>
<g clip-path="url(#clip2400)">
<text style="fill:#000000; fill-opacity:1; font-family:Arial,Helvetica Neue,Helvetica,sans-serif; font-size:48px; text-anchor:start;" transform="rotate(0, 4425.37, 854.148)" x="4425.37" y="854.148">.5</text>
</g>
</svg>
