<?xml version="1.0" encoding="utf-8"?>
<svg xmlns="http://www.w3.org/2000/svg" xmlns:xlink="http://www.w3.org/1999/xlink" width="1200" height="800" viewBox="0 0 4800 3200">
<defs>
  <clipPath id="clip8000">
    <rect x="0" y="0" width="4800" height="3200"/>
  </clipPath>
</defs>
<polygon clip-path="url(#clip8000)" points="
0,3200 4800,3200 4800,0 0,0 
  " fill="#ffffff" fill-rule="evenodd" fill-opacity="1"/>
<defs>
  <clipPath id="clip8001">
    <rect x="960" y="0" width="3361" height="3200"/>
  </clipPath>
</defs>
<polygon clip-path="url(#clip8000)" points="
1065.3,2747.94 4705.51,2747.94 4705.51,306.728 1065.3,306.728 
  " fill="#ffffff" fill-rule="evenodd" fill-opacity="1"/>
<defs>
  <clipPath id="clip8002">
    <rect x="1065" y="306" width="3641" height="2442"/>
  </clipPath>
</defs>
<polyline clip-path="url(#clip8002)" style="stroke:#000000; stroke-width:4; stroke-opacity:0.1; fill:none" points="
  1445.34,2747.94 1445.34,306.728 
  "/>
<polyline clip-path="url(#clip8002)" style="stroke:#000000; stroke-width:4; stroke-opacity:0.1; fill:none" points="
  2237.49,2747.94 2237.49,306.728 
  "/>
<polyline clip-path="url(#clip8002)" style="stroke:#000000; stroke-width:4; stroke-opacity:0.1; fill:none" points="
  3029.65,2747.94 3029.65,306.728 
  "/>
<polyline clip-path="url(#clip8002)" style="stroke:#000000; stroke-width:4; stroke-opacity:0.1; fill:none" points="
  3821.81,2747.94 3821.81,306.728 
  "/>
<polyline clip-path="url(#clip8002)" style="stroke:#000000; stroke-width:4; stroke-opacity:0.1; fill:none" points="
  4613.97,2747.94 4613.97,306.728 
  "/>
<polyline clip-path="url(#clip8002)" style="stroke:#000000; stroke-width:4; stroke-opacity:0.1; fill:none" points="
  1065.3,2354.58 4705.51,2354.58 
  "/>
<polyline clip-path="url(#clip8002)" style="stroke:#000000; stroke-width:4; stroke-opacity:0.1; fill:none" points="
  1065.3,1906.95 4705.51,1906.95 
  "/>
<polyline clip-path="url(#clip8002)" style="stroke:#000000; stroke-width:4; stroke-opacity:0.1; fill:none" points="
  1065.3,1459.33 4705.51,1459.33 
  "/>
<polyline clip-path="url(#clip8002)" style="stroke:#000000; stroke-width:4; stroke-opacity:0.1; fill:none" points="
  1065.3,1011.7 4705.51,1011.7 
  "/>
<polyline clip-path="url(#clip8002)" style="stroke:#000000; stroke-width:4; stroke-opacity:0.1; fill:none" points="
  1065.3,564.073 4705.51,564.073 
  "/>
<polyline clip-path="url(#clip8000)" style="stroke:#000000; stroke-width:8; stroke-opacity:1; fill:none" points="
  1065.3,2747.94 4705.51,2747.94 
  "/>
<polyline clip-path="url(#clip8000)" style="stroke:#000000; stroke-width:8; stroke-opacity:1; fill:none" points="
  1065.3,2747.94 1065.3,306.728 
  "/>
<polyline clip-path="url(#clip8000)" style="stroke:#000000; stroke-width:8; stroke-opacity:1; fill:none" points="
  1445.34,2747.94 1445.34,2711.33 
  "/>
<polyline clip-path="url(#clip8000)" style="stroke:#000000; stroke-width:8; stroke-opacity:1; fill:none" points="
  2237.49,2747.94 2237.49,2711.33 
  "/>
<polyline clip-path="url(#clip8000)" style="stroke:#000000; stroke-width:8; stroke-opacity:1; fill:none" points="
  3029.65,2747.94 3029.65,2711.33 
  "/>
<polyline clip-path="url(#clip8000)" style="stroke:#000000; stroke-width:8; stroke-opacity:1; fill:none" points="
  3821.81,2747.94 3821.81,2711.33 
  "/>
<polyline clip-path="url(#clip8000)" style="stroke:#000000; stroke-width:8; stroke-opacity:1; fill:none" points="
  4613.97,2747.94 4613.97,2711.33 
  "/>
<polyline clip-path="url(#clip8000)" style="stroke:#000000; stroke-width:8; stroke-opacity:1; fill:none" points="
  1065.3,2354.58 1119.91,2354.58 
  "/>
<polyline clip-path="url(#clip8000)" style="stroke:#000000; stroke-width:8; stroke-opacity:1; fill:none" points="
  1065.3,1906.95 1119.91,1906.95 
  "/>
<polyline clip-path="url(#clip8000)" style="stroke:#000000; stroke-width:8; stroke-opacity:1; fill:none" points="
  1065.3,1459.33 1119.91,1459.33 
  "/>
<polyline clip-path="url(#clip8000)" style="stroke:#000000; stroke-width:8; stroke-opacity:1; fill:none" points="
  1065.3,1011.7 1119.91,1011.7 
  "/>
<polyline clip-path="url(#clip8000)" style="stroke:#000000; stroke-width:8; stroke-opacity:1; fill:none" points="
  1065.3,564.073 1119.91,564.073 
  "/>
<g clip-path="url(#clip8000)">
<text style="fill:#000000; fill-opacity:1; font-family:Arial,Helvetica Neue,Helvetica,sans-serif; font-size:95px; text-anchor:start;" transform="rotate(0, 1260.25, 2897.96)" x="1260.25" y="2897.96">10</text>
</g>
<g clip-path="url(#clip8000)">
<text style="fill:#000000; fill-opacity:1; font-family:Arial,Helvetica Neue,Helvetica,sans-serif; font-size:77px; text-anchor:start;" transform="rotate(0, 1367.3, 2843.14)" x="1367.3" y="2843.14">-</text>
</g>
<g clip-path="url(#clip8000)">
<text style="fill:#000000; fill-opacity:1; font-family:Arial,Helvetica Neue,Helvetica,sans-serif; font-size:77px; text-anchor:start;" transform="rotate(0, 1412.98, 2843.14)" x="1412.98" y="2843.14">1.911 </text>
</g>
<g clip-path="url(#clip8000)">
<text style="fill:#000000; fill-opacity:1; font-family:Arial,Helvetica Neue,Helvetica,sans-serif; font-size:95px; text-anchor:start;" transform="rotate(0, 2052.41, 2897.96)" x="2052.41" y="2897.96">10</text>
</g>
<g clip-path="url(#clip8000)">
<text style="fill:#000000; fill-opacity:1; font-family:Arial,Helvetica Neue,Helvetica,sans-serif; font-size:77px; text-anchor:start;" transform="rotate(0, 2159.46, 2843.14)" x="2159.46" y="2843.14">-</text>
</g>
<g clip-path="url(#clip8000)">
<text style="fill:#000000; fill-opacity:1; font-family:Arial,Helvetica Neue,Helvetica,sans-serif; font-size:77px; text-anchor:start;" transform="rotate(0, 2205.14, 2843.14)" x="2205.14" y="2843.14">1.910 </text>
</g>
<g clip-path="url(#clip8000)">
<text style="fill:#000000; fill-opacity:1; font-family:Arial,Helvetica Neue,Helvetica,sans-serif; font-size:95px; text-anchor:start;" transform="rotate(0, 2844.57, 2897.96)" x="2844.57" y="2897.96">10</text>
</g>
<g clip-path="url(#clip8000)">
<text style="fill:#000000; fill-opacity:1; font-family:Arial,Helvetica Neue,Helvetica,sans-serif; font-size:77px; text-anchor:start;" transform="rotate(0, 2951.62, 2843.14)" x="2951.62" y="2843.14">-</text>
</g>
<g clip-path="url(#clip8000)">
<text style="fill:#000000; fill-opacity:1; font-family:Arial,Helvetica Neue,Helvetica,sans-serif; font-size:77px; text-anchor:start;" transform="rotate(0, 2997.3, 2843.14)" x="2997.3" y="2843.14">1.909 </text>
</g>
<g clip-path="url(#clip8000)">
<text style="fill:#000000; fill-opacity:1; font-family:Arial,Helvetica Neue,Helvetica,sans-serif; font-size:95px; text-anchor:start;" transform="rotate(0, 3636.73, 2897.96)" x="3636.73" y="2897.96">10</text>
</g>
<g clip-path="url(#clip8000)">
<text style="fill:#000000; fill-opacity:1; font-family:Arial,Helvetica Neue,Helvetica,sans-serif; font-size:77px; text-anchor:start;" transform="rotate(0, 3743.78, 2843.14)" x="3743.78" y="2843.14">-</text>
</g>
<g clip-path="url(#clip8000)">
<text style="fill:#000000; fill-opacity:1; font-family:Arial,Helvetica Neue,Helvetica,sans-serif; font-size:77px; text-anchor:start;" transform="rotate(0, 3789.46, 2843.14)" x="3789.46" y="2843.14">1.908 </text>
</g>
<g clip-path="url(#clip8000)">
<text style="fill:#000000; fill-opacity:1; font-family:Arial,Helvetica Neue,Helvetica,sans-serif; font-size:95px; text-anchor:start;" transform="rotate(0, 4428.89, 2897.96)" x="4428.89" y="2897.96">10</text>
</g>
<g clip-path="url(#clip8000)">
<text style="fill:#000000; fill-opacity:1; font-family:Arial,Helvetica Neue,Helvetica,sans-serif; font-size:77px; text-anchor:start;" transform="rotate(0, 4535.94, 2843.14)" x="4535.94" y="2843.14">-</text>
</g>
<g clip-path="url(#clip8000)">
<text style="fill:#000000; fill-opacity:1; font-family:Arial,Helvetica Neue,Helvetica,sans-serif; font-size:77px; text-anchor:start;" transform="rotate(0, 4581.62, 2843.14)" x="4581.62" y="2843.14">1.907 </text>
</g>
<g clip-path="url(#clip8000)">
<text style="fill:#000000; fill-opacity:1; font-family:Arial,Helvetica Neue,Helvetica,sans-serif; font-size:95px; text-anchor:start;" transform="rotate(0, 647.132, 2402.04)" x="647.132" y="2402.04">10</text>
</g>
<g clip-path="url(#clip8000)">
<text style="fill:#000000; fill-opacity:1; font-family:Arial,Helvetica Neue,Helvetica,sans-serif; font-size:77px; text-anchor:start;" transform="rotate(0, 754.181, 2347.22)" x="754.181" y="2347.22">-</text>
</g>
<g clip-path="url(#clip8000)">
<text style="fill:#000000; fill-opacity:1; font-family:Arial,Helvetica Neue,Helvetica,sans-serif; font-size:77px; text-anchor:start;" transform="rotate(0, 799.86, 2347.22)" x="799.86" y="2347.22">1.090 </text>
</g>
<g clip-path="url(#clip8000)">
<text style="fill:#000000; fill-opacity:1; font-family:Arial,Helvetica Neue,Helvetica,sans-serif; font-size:95px; text-anchor:start;" transform="rotate(0, 647.132, 1954.41)" x="647.132" y="1954.41">10</text>
</g>
<g clip-path="url(#clip8000)">
<text style="fill:#000000; fill-opacity:1; font-family:Arial,Helvetica Neue,Helvetica,sans-serif; font-size:77px; text-anchor:start;" transform="rotate(0, 754.181, 1899.59)" x="754.181" y="1899.59">-</text>
</g>
<g clip-path="url(#clip8000)">
<text style="fill:#000000; fill-opacity:1; font-family:Arial,Helvetica Neue,Helvetica,sans-serif; font-size:77px; text-anchor:start;" transform="rotate(0, 799.86, 1899.59)" x="799.86" y="1899.59">1.085 </text>
</g>
<g clip-path="url(#clip8000)">
<text style="fill:#000000; fill-opacity:1; font-family:Arial,Helvetica Neue,Helvetica,sans-serif; font-size:95px; text-anchor:start;" transform="rotate(0, 647.132, 1506.78)" x="647.132" y="1506.78">10</text>
</g>
<g clip-path="url(#clip8000)">
<text style="fill:#000000; fill-opacity:1; font-family:Arial,Helvetica Neue,Helvetica,sans-serif; font-size:77px; text-anchor:start;" transform="rotate(0, 754.181, 1451.96)" x="754.181" y="1451.96">-</text>
</g>
<g clip-path="url(#clip8000)">
<text style="fill:#000000; fill-opacity:1; font-family:Arial,Helvetica Neue,Helvetica,sans-serif; font-size:77px; text-anchor:start;" transform="rotate(0, 799.86, 1451.96)" x="799.86" y="1451.96">1.080 </text>
</g>
<g clip-path="url(#clip8000)">
<text style="fill:#000000; fill-opacity:1; font-family:Arial,Helvetica Neue,Helvetica,sans-serif; font-size:95px; text-anchor:start;" transform="rotate(0, 647.132, 1059.15)" x="647.132" y="1059.15">10</text>
</g>
<g clip-path="url(#clip8000)">
<text style="fill:#000000; fill-opacity:1; font-family:Arial,Helvetica Neue,Helvetica,sans-serif; font-size:77px; text-anchor:start;" transform="rotate(0, 754.181, 1004.33)" x="754.181" y="1004.33">-</text>
</g>
<g clip-path="url(#clip8000)">
<text style="fill:#000000; fill-opacity:1; font-family:Arial,Helvetica Neue,Helvetica,sans-serif; font-size:77px; text-anchor:start;" transform="rotate(0, 799.86, 1004.33)" x="799.86" y="1004.33">1.075 </text>
</g>
<g clip-path="url(#clip8000)">
<text style="fill:#000000; fill-opacity:1; font-family:Arial,Helvetica Neue,Helvetica,sans-serif; font-size:95px; text-anchor:start;" transform="rotate(0, 647.132, 611.528)" x="647.132" y="611.528">10</text>
</g>
<g clip-path="url(#clip8000)">
<text style="fill:#000000; fill-opacity:1; font-family:Arial,Helvetica Neue,Helvetica,sans-serif; font-size:77px; text-anchor:start;" transform="rotate(0, 754.181, 556.707)" x="754.181" y="556.707">-</text>
</g>
<g clip-path="url(#clip8000)">
<text style="fill:#000000; fill-opacity:1; font-family:Arial,Helvetica Neue,Helvetica,sans-serif; font-size:77px; text-anchor:start;" transform="rotate(0, 799.86, 556.707)" x="799.86" y="556.707">1.070 </text>
</g>
<g clip-path="url(#clip8000)">
<text style="fill:#000000; fill-opacity:1; font-family:Arial,Helvetica Neue,Helvetica,sans-serif; font-size:166px; text-anchor:middle;" transform="rotate(0, 2885.41, 145.2)" x="2885.41" y="145.2">ROCK2 Predictive_Hires_OnlySpeed</text>
</g>
<g clip-path="url(#clip8000)">
<text style="fill:#000000; fill-opacity:1; font-family:Arial,Helvetica Neue,Helvetica,sans-serif; font-size:130px; text-anchor:middle;" transform="rotate(0, 2885.41, 3015.87)" x="2885.41" y="3015.87">Error</text>
</g>
<g clip-path="url(#clip8000)">
<text style="fill:#000000; fill-opacity:1; font-family:Arial,Helvetica Neue,Helvetica,sans-serif; font-size:130px; text-anchor:middle;" transform="rotate(-90, 495.7, 1527.34)" x="495.7" y="1527.34">Time (s)</text>
</g>
<polyline clip-path="url(#clip8002)" style="stroke:#009af9; stroke-width:8; stroke-opacity:1; fill:none" points="
  4602.49,2678.85 2716.37,2178.88 3027.34,1887.14 1656.62,1084.98 
  "/>
<circle clip-path="url(#clip8002)" style="fill:#000000; stroke:none; fill-opacity:1" cx="4602.49" cy="2678.85" r="36"/>
<circle clip-path="url(#clip8002)" style="fill:#009af9; stroke:none; fill-opacity:1" cx="4602.49" cy="2678.85" r="28"/>
<circle clip-path="url(#clip8002)" style="fill:#000000; stroke:none; fill-opacity:1" cx="2716.37" cy="2178.88" r="36"/>
<circle clip-path="url(#clip8002)" style="fill:#009af9; stroke:none; fill-opacity:1" cx="2716.37" cy="2178.88" r="28"/>
<circle clip-path="url(#clip8002)" style="fill:#000000; stroke:none; fill-opacity:1" cx="3027.34" cy="1887.14" r="36"/>
<circle clip-path="url(#clip8002)" style="fill:#009af9; stroke:none; fill-opacity:1" cx="3027.34" cy="1887.14" r="28"/>
<circle clip-path="url(#clip8002)" style="fill:#000000; stroke:none; fill-opacity:1" cx="1656.62" cy="1084.98" r="36"/>
<circle clip-path="url(#clip8002)" style="fill:#009af9; stroke:none; fill-opacity:1" cx="1656.62" cy="1084.98" r="28"/>
<polyline clip-path="url(#clip8002)" style="stroke:#e26f46; stroke-width:8; stroke-opacity:1; fill:none" points="
  2595.72,1398.48 2798.5,2306.51 2893.54,1864.83 1168.33,375.819 
  "/>
<polygon clip-path="url(#clip8002)" style="fill:#000000; fill-opacity:1" points="
  2555.72,1358.48 2555.72,1438.48 2635.72,1438.48 2635.72,1358.48 2555.72,1358.48 
  "/>
<polygon clip-path="url(#clip8002)" style="fill:#e26f46; fill-opacity:1" points="
  2563.72,1366.48 2563.72,1430.48 2627.72,1430.48 2627.72,1366.48 2563.72,1366.48 
  "/>
<polygon clip-path="url(#clip8002)" style="fill:#000000; fill-opacity:1" points="
  2758.5,2266.51 2758.5,2346.51 2838.5,2346.51 2838.5,2266.51 2758.5,2266.51 
  "/>
<polygon clip-path="url(#clip8002)" style="fill:#e26f46; fill-opacity:1" points="
  2766.5,2274.51 2766.5,2338.51 2830.5,2338.51 2830.5,2274.51 2766.5,2274.51 
  "/>
<polygon clip-path="url(#clip8002)" style="fill:#000000; fill-opacity:1" points="
  2853.54,1824.83 2853.54,1904.83 2933.54,1904.83 2933.54,1824.83 2853.54,1824.83 
  "/>
<polygon clip-path="url(#clip8002)" style="fill:#e26f46; fill-opacity:1" points="
  2861.54,1832.83 2861.54,1896.83 2925.54,1896.83 2925.54,1832.83 2861.54,1832.83 
  "/>
<polygon clip-path="url(#clip8002)" style="fill:#000000; fill-opacity:1" points="
  1128.33,335.819 1128.33,415.819 1208.33,415.819 1208.33,335.819 1128.33,335.819 
  "/>
<polygon clip-path="url(#clip8002)" style="fill:#e26f46; fill-opacity:1" points="
  1136.33,343.819 1136.33,407.819 1200.33,407.819 1200.33,343.819 1136.33,343.819 
  "/>
<polygon clip-path="url(#clip8000)" points="
4041.37,715.688 4561.51,715.688 4561.51,534.248 4041.37,534.248 
  " fill="#ffffff" fill-rule="evenodd" fill-opacity="1"/>
<polyline clip-path="url(#clip8000)" style="stroke:#000000; stroke-width:8; stroke-opacity:1; fill:none" points="
  4041.37,715.688 4561.51,715.688 4561.51,534.248 4041.37,534.248 4041.37,715.688 
  "/>
<polyline clip-path="url(#clip8000)" style="stroke:#009af9; stroke-width:8; stroke-opacity:1; fill:none" points="
  4089.37,594.728 4377.37,594.728 
  "/>
<circle clip-path="url(#clip8000)" style="fill:#000000; stroke:none; fill-opacity:1" cx="4257.37" cy="594.728" r="50"/>
<circle clip-path="url(#clip8000)" style="fill:#009af9; stroke:none; fill-opacity:1" cx="4257.37" cy="594.728" r="43"/>
<g clip-path="url(#clip8000)">
<text style="fill:#000000; fill-opacity:1; font-family:Arial,Helvetica Neue,Helvetica,sans-serif; font-size:48px; text-anchor:start;" transform="rotate(0, 4425.37, 612.228)" x="4425.37" y="612.228">.6</text>
</g>
<polyline clip-path="url(#clip8000)" style="stroke:#e26f46; stroke-width:8; stroke-opacity:1; fill:none" points="
  4089.37,655.208 4377.37,655.208 
  "/>
<polygon clip-path="url(#clip8000)" style="fill:#000000; fill-opacity:1" points="
  4201.37,599.208 4201.37,711.208 4313.37,711.208 4313.37,599.208 4201.37,599.208 
  "/>
<polygon clip-path="url(#clip8000)" style="fill:#e26f46; fill-opacity:1" points="
  4209.37,607.208 4209.37,703.208 4305.37,703.208 4305.37,607.208 4209.37,607.208 
  "/>
<g clip-path="url(#clip8000)">
<text style="fill:#000000; fill-opacity:1; font-family:Arial,Helvetica Neue,Helvetica,sans-serif; font-size:48px; text-anchor:start;" transform="rotate(0, 4425.37, 672.708)" x="4425.37" y="672.708">.5</text>
</g>
</svg>
