<?xml version="1.0" encoding="utf-8"?>
<svg xmlns="http://www.w3.org/2000/svg" xmlns:xlink="http://www.w3.org/1999/xlink" width="1200" height="800" viewBox="0 0 4800 3200">
<defs>
  <clipPath id="clip9200">
    <rect x="0" y="0" width="4800" height="3200"/>
  </clipPath>
</defs>
<polygon clip-path="url(#clip9200)" points="
0,3200 4800,3200 4800,0 0,0 
  " fill="#ffffff" fill-rule="evenodd" fill-opacity="1"/>
<defs>
  <clipPath id="clip9201">
    <rect x="960" y="0" width="3361" height="3200"/>
  </clipPath>
</defs>
<polygon clip-path="url(#clip9200)" points="
982.876,2747.94 4705.51,2747.94 4705.51,306.728 982.876,306.728 
  " fill="#ffffff" fill-rule="evenodd" fill-opacity="1"/>
<defs>
  <clipPath id="clip9202">
    <rect x="982" y="306" width="3724" height="2442"/>
  </clipPath>
</defs>
<polyline clip-path="url(#clip9202)" style="stroke:#000000; stroke-width:4; stroke-opacity:0.1; fill:none" points="
  1171.69,2747.94 1171.69,306.728 
  "/>
<polyline clip-path="url(#clip9202)" style="stroke:#000000; stroke-width:4; stroke-opacity:0.1; fill:none" points="
  1695.68,2747.94 1695.68,306.728 
  "/>
<polyline clip-path="url(#clip9202)" style="stroke:#000000; stroke-width:4; stroke-opacity:0.1; fill:none" points="
  2219.67,2747.94 2219.67,306.728 
  "/>
<polyline clip-path="url(#clip9202)" style="stroke:#000000; stroke-width:4; stroke-opacity:0.1; fill:none" points="
  2743.66,2747.94 2743.66,306.728 
  "/>
<polyline clip-path="url(#clip9202)" style="stroke:#000000; stroke-width:4; stroke-opacity:0.1; fill:none" points="
  3267.65,2747.94 3267.65,306.728 
  "/>
<polyline clip-path="url(#clip9202)" style="stroke:#000000; stroke-width:4; stroke-opacity:0.1; fill:none" points="
  3791.64,2747.94 3791.64,306.728 
  "/>
<polyline clip-path="url(#clip9202)" style="stroke:#000000; stroke-width:4; stroke-opacity:0.1; fill:none" points="
  4315.63,2747.94 4315.63,306.728 
  "/>
<polyline clip-path="url(#clip9202)" style="stroke:#000000; stroke-width:4; stroke-opacity:0.1; fill:none" points="
  982.876,2646.95 4705.51,2646.95 
  "/>
<polyline clip-path="url(#clip9202)" style="stroke:#000000; stroke-width:4; stroke-opacity:0.1; fill:none" points="
  982.876,1967.79 4705.51,1967.79 
  "/>
<polyline clip-path="url(#clip9202)" style="stroke:#000000; stroke-width:4; stroke-opacity:0.1; fill:none" points="
  982.876,1288.62 4705.51,1288.62 
  "/>
<polyline clip-path="url(#clip9202)" style="stroke:#000000; stroke-width:4; stroke-opacity:0.1; fill:none" points="
  982.876,609.448 4705.51,609.448 
  "/>
<polyline clip-path="url(#clip9200)" style="stroke:#000000; stroke-width:8; stroke-opacity:1; fill:none" points="
  982.876,2747.94 4705.51,2747.94 
  "/>
<polyline clip-path="url(#clip9200)" style="stroke:#000000; stroke-width:8; stroke-opacity:1; fill:none" points="
  982.876,2747.94 982.876,306.728 
  "/>
<polyline clip-path="url(#clip9200)" style="stroke:#000000; stroke-width:8; stroke-opacity:1; fill:none" points="
  1171.69,2747.94 1171.69,2711.33 
  "/>
<polyline clip-path="url(#clip9200)" style="stroke:#000000; stroke-width:8; stroke-opacity:1; fill:none" points="
  1695.68,2747.94 1695.68,2711.33 
  "/>
<polyline clip-path="url(#clip9200)" style="stroke:#000000; stroke-width:8; stroke-opacity:1; fill:none" points="
  2219.67,2747.94 2219.67,2711.33 
  "/>
<polyline clip-path="url(#clip9200)" style="stroke:#000000; stroke-width:8; stroke-opacity:1; fill:none" points="
  2743.66,2747.94 2743.66,2711.33 
  "/>
<polyline clip-path="url(#clip9200)" style="stroke:#000000; stroke-width:8; stroke-opacity:1; fill:none" points="
  3267.65,2747.94 3267.65,2711.33 
  "/>
<polyline clip-path="url(#clip9200)" style="stroke:#000000; stroke-width:8; stroke-opacity:1; fill:none" points="
  3791.64,2747.94 3791.64,2711.33 
  "/>
<polyline clip-path="url(#clip9200)" style="stroke:#000000; stroke-width:8; stroke-opacity:1; fill:none" points="
  4315.63,2747.94 4315.63,2711.33 
  "/>
<polyline clip-path="url(#clip9200)" style="stroke:#000000; stroke-width:8; stroke-opacity:1; fill:none" points="
  982.876,2646.95 1038.72,2646.95 
  "/>
<polyline clip-path="url(#clip9200)" style="stroke:#000000; stroke-width:8; stroke-opacity:1; fill:none" points="
  982.876,1967.79 1038.72,1967.79 
  "/>
<polyline clip-path="url(#clip9200)" style="stroke:#000000; stroke-width:8; stroke-opacity:1; fill:none" points="
  982.876,1288.62 1038.72,1288.62 
  "/>
<polyline clip-path="url(#clip9200)" style="stroke:#000000; stroke-width:8; stroke-opacity:1; fill:none" points="
  982.876,609.448 1038.72,609.448 
  "/>
<g clip-path="url(#clip9200)">
<text style="fill:#000000; fill-opacity:1; font-family:Arial,Helvetica Neue,Helvetica,sans-serif; font-size:95px; text-anchor:start;" transform="rotate(0, 986.6, 2897.96)" x="986.6" y="2897.96">10</text>
</g>
<g clip-path="url(#clip9200)">
<text style="fill:#000000; fill-opacity:1; font-family:Arial,Helvetica Neue,Helvetica,sans-serif; font-size:77px; text-anchor:start;" transform="rotate(0, 1093.65, 2843.14)" x="1093.65" y="2843.14">-</text>
</g>
<g clip-path="url(#clip9200)">
<text style="fill:#000000; fill-opacity:1; font-family:Arial,Helvetica Neue,Helvetica,sans-serif; font-size:77px; text-anchor:start;" transform="rotate(0, 1139.33, 2843.14)" x="1139.33" y="2843.14">2.002 </text>
</g>
<g clip-path="url(#clip9200)">
<text style="fill:#000000; fill-opacity:1; font-family:Arial,Helvetica Neue,Helvetica,sans-serif; font-size:95px; text-anchor:start;" transform="rotate(0, 1510.59, 2897.96)" x="1510.59" y="2897.96">10</text>
</g>
<g clip-path="url(#clip9200)">
<text style="fill:#000000; fill-opacity:1; font-family:Arial,Helvetica Neue,Helvetica,sans-serif; font-size:77px; text-anchor:start;" transform="rotate(0, 1617.64, 2843.14)" x="1617.64" y="2843.14">-</text>
</g>
<g clip-path="url(#clip9200)">
<text style="fill:#000000; fill-opacity:1; font-family:Arial,Helvetica Neue,Helvetica,sans-serif; font-size:77px; text-anchor:start;" transform="rotate(0, 1663.32, 2843.14)" x="1663.32" y="2843.14">2.000 </text>
</g>
<g clip-path="url(#clip9200)">
<text style="fill:#000000; fill-opacity:1; font-family:Arial,Helvetica Neue,Helvetica,sans-serif; font-size:95px; text-anchor:start;" transform="rotate(0, 2034.58, 2897.96)" x="2034.58" y="2897.96">10</text>
</g>
<g clip-path="url(#clip9200)">
<text style="fill:#000000; fill-opacity:1; font-family:Arial,Helvetica Neue,Helvetica,sans-serif; font-size:77px; text-anchor:start;" transform="rotate(0, 2141.63, 2843.14)" x="2141.63" y="2843.14">-</text>
</g>
<g clip-path="url(#clip9200)">
<text style="fill:#000000; fill-opacity:1; font-family:Arial,Helvetica Neue,Helvetica,sans-serif; font-size:77px; text-anchor:start;" transform="rotate(0, 2187.31, 2843.14)" x="2187.31" y="2843.14">1.998 </text>
</g>
<g clip-path="url(#clip9200)">
<text style="fill:#000000; fill-opacity:1; font-family:Arial,Helvetica Neue,Helvetica,sans-serif; font-size:95px; text-anchor:start;" transform="rotate(0, 2558.57, 2897.96)" x="2558.57" y="2897.96">10</text>
</g>
<g clip-path="url(#clip9200)">
<text style="fill:#000000; fill-opacity:1; font-family:Arial,Helvetica Neue,Helvetica,sans-serif; font-size:77px; text-anchor:start;" transform="rotate(0, 2665.62, 2843.14)" x="2665.62" y="2843.14">-</text>
</g>
<g clip-path="url(#clip9200)">
<text style="fill:#000000; fill-opacity:1; font-family:Arial,Helvetica Neue,Helvetica,sans-serif; font-size:77px; text-anchor:start;" transform="rotate(0, 2711.3, 2843.14)" x="2711.3" y="2843.14">1.996 </text>
</g>
<g clip-path="url(#clip9200)">
<text style="fill:#000000; fill-opacity:1; font-family:Arial,Helvetica Neue,Helvetica,sans-serif; font-size:95px; text-anchor:start;" transform="rotate(0, 3082.57, 2897.96)" x="3082.57" y="2897.96">10</text>
</g>
<g clip-path="url(#clip9200)">
<text style="fill:#000000; fill-opacity:1; font-family:Arial,Helvetica Neue,Helvetica,sans-serif; font-size:77px; text-anchor:start;" transform="rotate(0, 3189.62, 2843.14)" x="3189.62" y="2843.14">-</text>
</g>
<g clip-path="url(#clip9200)">
<text style="fill:#000000; fill-opacity:1; font-family:Arial,Helvetica Neue,Helvetica,sans-serif; font-size:77px; text-anchor:start;" transform="rotate(0, 3235.29, 2843.14)" x="3235.29" y="2843.14">1.994 </text>
</g>
<g clip-path="url(#clip9200)">
<text style="fill:#000000; fill-opacity:1; font-family:Arial,Helvetica Neue,Helvetica,sans-serif; font-size:95px; text-anchor:start;" transform="rotate(0, 3606.56, 2897.96)" x="3606.56" y="2897.96">10</text>
</g>
<g clip-path="url(#clip9200)">
<text style="fill:#000000; fill-opacity:1; font-family:Arial,Helvetica Neue,Helvetica,sans-serif; font-size:77px; text-anchor:start;" transform="rotate(0, 3713.61, 2843.14)" x="3713.61" y="2843.14">-</text>
</g>
<g clip-path="url(#clip9200)">
<text style="fill:#000000; fill-opacity:1; font-family:Arial,Helvetica Neue,Helvetica,sans-serif; font-size:77px; text-anchor:start;" transform="rotate(0, 3759.29, 2843.14)" x="3759.29" y="2843.14">1.992 </text>
</g>
<g clip-path="url(#clip9200)">
<text style="fill:#000000; fill-opacity:1; font-family:Arial,Helvetica Neue,Helvetica,sans-serif; font-size:95px; text-anchor:start;" transform="rotate(0, 4130.55, 2897.96)" x="4130.55" y="2897.96">10</text>
</g>
<g clip-path="url(#clip9200)">
<text style="fill:#000000; fill-opacity:1; font-family:Arial,Helvetica Neue,Helvetica,sans-serif; font-size:77px; text-anchor:start;" transform="rotate(0, 4237.6, 2843.14)" x="4237.6" y="2843.14">-</text>
</g>
<g clip-path="url(#clip9200)">
<text style="fill:#000000; fill-opacity:1; font-family:Arial,Helvetica Neue,Helvetica,sans-serif; font-size:77px; text-anchor:start;" transform="rotate(0, 4283.28, 2843.14)" x="4283.28" y="2843.14">1.990 </text>
</g>
<g clip-path="url(#clip9200)">
<text style="fill:#000000; fill-opacity:1; font-family:Arial,Helvetica Neue,Helvetica,sans-serif; font-size:95px; text-anchor:start;" transform="rotate(0, 608.193, 2694.41)" x="608.193" y="2694.41">10</text>
</g>
<g clip-path="url(#clip9200)">
<text style="fill:#000000; fill-opacity:1; font-family:Arial,Helvetica Neue,Helvetica,sans-serif; font-size:77px; text-anchor:start;" transform="rotate(0, 715.242, 2639.59)" x="715.242" y="2639.59">-</text>
</g>
<g clip-path="url(#clip9200)">
<text style="fill:#000000; fill-opacity:1; font-family:Arial,Helvetica Neue,Helvetica,sans-serif; font-size:77px; text-anchor:start;" transform="rotate(0, 760.921, 2639.59)" x="760.921" y="2639.59">0.88 </text>
</g>
<g clip-path="url(#clip9200)">
<text style="fill:#000000; fill-opacity:1; font-family:Arial,Helvetica Neue,Helvetica,sans-serif; font-size:95px; text-anchor:start;" transform="rotate(0, 608.193, 2015.24)" x="608.193" y="2015.24">10</text>
</g>
<g clip-path="url(#clip9200)">
<text style="fill:#000000; fill-opacity:1; font-family:Arial,Helvetica Neue,Helvetica,sans-serif; font-size:77px; text-anchor:start;" transform="rotate(0, 715.242, 1960.42)" x="715.242" y="1960.42">-</text>
</g>
<g clip-path="url(#clip9200)">
<text style="fill:#000000; fill-opacity:1; font-family:Arial,Helvetica Neue,Helvetica,sans-serif; font-size:77px; text-anchor:start;" transform="rotate(0, 760.921, 1960.42)" x="760.921" y="1960.42">0.87 </text>
</g>
<g clip-path="url(#clip9200)">
<text style="fill:#000000; fill-opacity:1; font-family:Arial,Helvetica Neue,Helvetica,sans-serif; font-size:95px; text-anchor:start;" transform="rotate(0, 608.193, 1336.07)" x="608.193" y="1336.07">10</text>
</g>
<g clip-path="url(#clip9200)">
<text style="fill:#000000; fill-opacity:1; font-family:Arial,Helvetica Neue,Helvetica,sans-serif; font-size:77px; text-anchor:start;" transform="rotate(0, 715.242, 1281.25)" x="715.242" y="1281.25">-</text>
</g>
<g clip-path="url(#clip9200)">
<text style="fill:#000000; fill-opacity:1; font-family:Arial,Helvetica Neue,Helvetica,sans-serif; font-size:77px; text-anchor:start;" transform="rotate(0, 760.921, 1281.25)" x="760.921" y="1281.25">0.86 </text>
</g>
<g clip-path="url(#clip9200)">
<text style="fill:#000000; fill-opacity:1; font-family:Arial,Helvetica Neue,Helvetica,sans-serif; font-size:95px; text-anchor:start;" transform="rotate(0, 608.193, 656.903)" x="608.193" y="656.903">10</text>
</g>
<g clip-path="url(#clip9200)">
<text style="fill:#000000; fill-opacity:1; font-family:Arial,Helvetica Neue,Helvetica,sans-serif; font-size:77px; text-anchor:start;" transform="rotate(0, 715.242, 602.083)" x="715.242" y="602.083">-</text>
</g>
<g clip-path="url(#clip9200)">
<text style="fill:#000000; fill-opacity:1; font-family:Arial,Helvetica Neue,Helvetica,sans-serif; font-size:77px; text-anchor:start;" transform="rotate(0, 760.921, 602.083)" x="760.921" y="602.083">0.85 </text>
</g>
<g clip-path="url(#clip9200)">
<text style="fill:#000000; fill-opacity:1; font-family:Arial,Helvetica Neue,Helvetica,sans-serif; font-size:166px; text-anchor:middle;" transform="rotate(0, 2844.19, 145.2)" x="2844.19" y="145.2">ROCK4 Overall_Hires_OnlySpeed</text>
</g>
<g clip-path="url(#clip9200)">
<text style="fill:#000000; fill-opacity:1; font-family:Arial,Helvetica Neue,Helvetica,sans-serif; font-size:130px; text-anchor:middle;" transform="rotate(0, 2844.19, 3015.87)" x="2844.19" y="3015.87">Error</text>
</g>
<g clip-path="url(#clip9200)">
<text style="fill:#000000; fill-opacity:1; font-family:Arial,Helvetica Neue,Helvetica,sans-serif; font-size:130px; text-anchor:middle;" transform="rotate(-90, 466.797, 1527.34)" x="466.797" y="1527.34">Time (s)</text>
</g>
<polyline clip-path="url(#clip9202)" style="stroke:#009af9; stroke-width:8; stroke-opacity:1; fill:none" points="
  1089.54,375.819 4478.74,2341.84 4600.15,1861.81 4439.87,2328.78 
  "/>
<circle clip-path="url(#clip9202)" style="fill:#000000; stroke:none; fill-opacity:1" cx="1089.54" cy="375.819" r="36"/>
<circle clip-path="url(#clip9202)" style="fill:#009af9; stroke:none; fill-opacity:1" cx="1089.54" cy="375.819" r="28"/>
<circle clip-path="url(#clip9202)" style="fill:#000000; stroke:none; fill-opacity:1" cx="4478.74" cy="2341.84" r="36"/>
<circle clip-path="url(#clip9202)" style="fill:#009af9; stroke:none; fill-opacity:1" cx="4478.74" cy="2341.84" r="28"/>
<circle clip-path="url(#clip9202)" style="fill:#000000; stroke:none; fill-opacity:1" cx="4600.15" cy="1861.81" r="36"/>
<circle clip-path="url(#clip9202)" style="fill:#009af9; stroke:none; fill-opacity:1" cx="4600.15" cy="1861.81" r="28"/>
<circle clip-path="url(#clip9202)" style="fill:#000000; stroke:none; fill-opacity:1" cx="4439.87" cy="2328.78" r="36"/>
<circle clip-path="url(#clip9202)" style="fill:#009af9; stroke:none; fill-opacity:1" cx="4439.87" cy="2328.78" r="28"/>
<polyline clip-path="url(#clip9202)" style="stroke:#e26f46; stroke-width:8; stroke-opacity:1; fill:none" points="
  2085.64,1057.03 4593.53,1188.49 3579.55,2503.9 3568.98,1965.4 
  "/>
<polygon clip-path="url(#clip9202)" style="fill:#000000; fill-opacity:1" points="
  2045.64,1017.03 2045.64,1097.03 2125.64,1097.03 2125.64,1017.03 2045.64,1017.03 
  "/>
<polygon clip-path="url(#clip9202)" style="fill:#e26f46; fill-opacity:1" points="
  2053.64,1025.03 2053.64,1089.03 2117.64,1089.03 2117.64,1025.03 2053.64,1025.03 
  "/>
<polygon clip-path="url(#clip9202)" style="fill:#000000; fill-opacity:1" points="
  4553.53,1148.49 4553.53,1228.49 4633.53,1228.49 4633.53,1148.49 4553.53,1148.49 
  "/>
<polygon clip-path="url(#clip9202)" style="fill:#e26f46; fill-opacity:1" points="
  4561.53,1156.49 4561.53,1220.49 4625.53,1220.49 4625.53,1156.49 4561.53,1156.49 
  "/>
<polygon clip-path="url(#clip9202)" style="fill:#000000; fill-opacity:1" points="
  3539.55,2463.9 3539.55,2543.9 3619.55,2543.9 3619.55,2463.9 3539.55,2463.9 
  "/>
<polygon clip-path="url(#clip9202)" style="fill:#e26f46; fill-opacity:1" points="
  3547.55,2471.9 3547.55,2535.9 3611.55,2535.9 3611.55,2471.9 3547.55,2471.9 
  "/>
<polygon clip-path="url(#clip9202)" style="fill:#000000; fill-opacity:1" points="
  3528.98,1925.4 3528.98,2005.4 3608.98,2005.4 3608.98,1925.4 3528.98,1925.4 
  "/>
<polygon clip-path="url(#clip9202)" style="fill:#e26f46; fill-opacity:1" points="
  3536.98,1933.4 3536.98,1997.4 3600.98,1997.4 3600.98,1933.4 3536.98,1933.4 
  "/>
<polyline clip-path="url(#clip9202)" style="stroke:#3da44d; stroke-width:8; stroke-opacity:1; fill:none" points="
  3552.21,1795.64 4591.01,1265.92 3281.65,2214.96 4372.13,2223.61 
  "/>
<polygon clip-path="url(#clip9202)" style="fill:#000000; fill-opacity:1" points="
  3552.21,1755.64 3542.81,1782.68 3514.17,1783.28 3537.01,1800.6 3528.69,1828 3552.21,1811.64 3575.73,1828 3567.41,1800.6 3590.25,1783.28 3561.61,1782.68 
  3552.21,1755.64 
  "/>
<polygon clip-path="url(#clip9202)" style="fill:#3da44d; fill-opacity:1" points="
  3552.21,1763.64 3544.69,1785.28 3521.78,1785.76 3540.05,1799.61 3533.39,1821.53 3552.21,1808.44 3571.02,1821.53 3564.37,1799.61 3582.64,1785.76 3559.73,1785.28 
  3552.21,1763.64 
  "/>
<polygon clip-path="url(#clip9202)" style="fill:#000000; fill-opacity:1" points="
  4591.01,1225.92 4581.61,1252.96 4552.97,1253.56 4575.81,1270.88 4567.49,1298.28 4591.01,1281.92 4614.53,1298.28 4606.21,1270.88 4629.05,1253.56 4600.41,1252.96 
  4591.01,1225.92 
  "/>
<polygon clip-path="url(#clip9202)" style="fill:#3da44d; fill-opacity:1" points="
  4591.01,1233.92 4583.49,1255.56 4560.58,1256.04 4578.85,1269.89 4572.19,1291.81 4591.01,1278.72 4609.83,1291.81 4603.17,1269.89 4621.44,1256.04 4598.53,1255.56 
  4591.01,1233.92 
  "/>
<polygon clip-path="url(#clip9202)" style="fill:#000000; fill-opacity:1" points="
  3281.65,2174.96 3272.25,2202 3243.61,2202.6 3266.45,2219.92 3258.13,2247.32 3281.65,2230.96 3305.17,2247.32 3296.85,2219.92 3319.69,2202.6 3291.05,2202 
  3281.65,2174.96 
  "/>
<polygon clip-path="url(#clip9202)" style="fill:#3da44d; fill-opacity:1" points="
  3281.65,2182.96 3274.13,2204.59 3251.22,2205.07 3269.49,2218.93 3262.83,2240.85 3281.65,2227.76 3300.46,2240.85 3293.81,2218.93 3312.08,2205.07 3289.17,2204.59 
  3281.65,2182.96 
  "/>
<polygon clip-path="url(#clip9202)" style="fill:#000000; fill-opacity:1" points="
  4372.13,2183.61 4362.73,2210.65 4334.09,2211.25 4356.93,2228.57 4348.61,2255.97 4372.13,2239.61 4395.65,2255.97 4387.33,2228.57 4410.17,2211.25 4381.53,2210.65 
  4372.13,2183.61 
  "/>
<polygon clip-path="url(#clip9202)" style="fill:#3da44d; fill-opacity:1" points="
  4372.13,2191.61 4364.61,2213.25 4341.7,2213.73 4359.97,2227.58 4353.32,2249.5 4372.13,2236.41 4390.95,2249.5 4384.29,2227.58 4402.56,2213.73 4379.65,2213.25 
  4372.13,2191.61 
  "/>
<polyline clip-path="url(#clip9202)" style="stroke:#c271d2; stroke-width:8; stroke-opacity:1; fill:none" points="
  4522.26,2678.85 3442.57,2276.47 3389.53,2387.03 3432.28,2363.86 
  "/>
<polygon clip-path="url(#clip9202)" style="fill:#000000; fill-opacity:1" points="
  4522.26,2638.85 4482.26,2678.85 4522.26,2718.85 4562.26,2678.85 4522.26,2638.85 
  "/>
<polygon clip-path="url(#clip9202)" style="fill:#c271d2; fill-opacity:1" points="
  4522.26,2646.85 4490.26,2678.85 4522.26,2710.85 4554.26,2678.85 4522.26,2646.85 
  "/>
<polygon clip-path="url(#clip9202)" style="fill:#000000; fill-opacity:1" points="
  3442.57,2236.47 3402.57,2276.47 3442.57,2316.47 3482.57,2276.47 3442.57,2236.47 
  "/>
<polygon clip-path="url(#clip9202)" style="fill:#c271d2; fill-opacity:1" points="
  3442.57,2244.47 3410.57,2276.47 3442.57,2308.47 3474.57,2276.47 3442.57,2244.47 
  "/>
<polygon clip-path="url(#clip9202)" style="fill:#000000; fill-opacity:1" points="
  3389.53,2347.03 3349.53,2387.03 3389.53,2427.03 3429.53,2387.03 3389.53,2347.03 
  "/>
<polygon clip-path="url(#clip9202)" style="fill:#c271d2; fill-opacity:1" points="
  3389.53,2355.03 3357.53,2387.03 3389.53,2419.03 3421.53,2387.03 3389.53,2355.03 
  "/>
<polygon clip-path="url(#clip9202)" style="fill:#000000; fill-opacity:1" points="
  3432.28,2323.86 3392.28,2363.86 3432.28,2403.86 3472.28,2363.86 3432.28,2323.86 
  "/>
<polygon clip-path="url(#clip9202)" style="fill:#c271d2; fill-opacity:1" points="
  3432.28,2331.86 3400.28,2363.86 3432.28,2395.86 3464.28,2363.86 3432.28,2331.86 
  "/>
<polyline clip-path="url(#clip9202)" style="stroke:#ac8d18; stroke-width:8; stroke-opacity:1; fill:none" points="
  2910.85,1325.53 2282.76,1796.17 1512.93,1876.45 1088.23,1476.84 
  "/>
<polygon clip-path="url(#clip9202)" style="fill:#000000; fill-opacity:1" points="
  2910.85,1365.53 2876.21,1345.53 2876.21,1305.53 2910.85,1285.53 2945.49,1305.53 2945.49,1345.53 
  "/>
<polygon clip-path="url(#clip9202)" style="fill:#ac8d18; fill-opacity:1" points="
  2910.85,1357.53 2883.13,1341.53 2883.13,1309.53 2910.85,1293.53 2938.56,1309.53 2938.56,1341.53 
  "/>
<polygon clip-path="url(#clip9202)" style="fill:#000000; fill-opacity:1" points="
  2282.76,1836.17 2248.12,1816.17 2248.12,1776.17 2282.76,1756.17 2317.4,1776.17 2317.4,1816.17 
  "/>
<polygon clip-path="url(#clip9202)" style="fill:#ac8d18; fill-opacity:1" points="
  2282.76,1828.17 2255.05,1812.17 2255.05,1780.17 2282.76,1764.17 2310.47,1780.17 2310.47,1812.17 
  "/>
<polygon clip-path="url(#clip9202)" style="fill:#000000; fill-opacity:1" points="
  1512.93,1916.45 1478.29,1896.45 1478.29,1856.45 1512.93,1836.45 1547.57,1856.45 1547.57,1896.45 
  "/>
<polygon clip-path="url(#clip9202)" style="fill:#ac8d18; fill-opacity:1" points="
  1512.93,1908.45 1485.21,1892.45 1485.21,1860.45 1512.93,1844.45 1540.64,1860.45 1540.64,1892.45 
  "/>
<polygon clip-path="url(#clip9202)" style="fill:#000000; fill-opacity:1" points="
  1088.23,1516.84 1053.59,1496.84 1053.59,1456.84 1088.23,1436.84 1122.87,1456.84 1122.87,1496.84 
  "/>
<polygon clip-path="url(#clip9202)" style="fill:#ac8d18; fill-opacity:1" points="
  1088.23,1508.84 1060.52,1492.84 1060.52,1460.84 1088.23,1444.84 1115.95,1460.84 1115.95,1492.84 
  "/>
<polygon clip-path="url(#clip9200)" points="
3926.33,897.128 4561.51,897.128 4561.51,534.248 3926.33,534.248 
  " fill="#ffffff" fill-rule="evenodd" fill-opacity="1"/>
<polyline clip-path="url(#clip9200)" style="stroke:#000000; stroke-width:8; stroke-opacity:1; fill:none" points="
  3926.33,897.128 4561.51,897.128 4561.51,534.248 3926.33,534.248 3926.33,897.128 
  "/>
<polyline clip-path="url(#clip9200)" style="stroke:#009af9; stroke-width:8; stroke-opacity:1; fill:none" points="
  3974.33,594.728 4262.33,594.728 
  "/>
<circle clip-path="url(#clip9200)" style="fill:#000000; stroke:none; fill-opacity:1" cx="4142.33" cy="594.728" r="50"/>
<circle clip-path="url(#clip9200)" style="fill:#009af9; stroke:none; fill-opacity:1" cx="4142.33" cy="594.728" r="43"/>
<g clip-path="url(#clip9200)">
<text style="fill:#000000; fill-opacity:1; font-family:Arial,Helvetica Neue,Helvetica,sans-serif; font-size:48px; text-anchor:start;" transform="rotate(0, 4310.33, 612.228)" x="4310.33" y="612.228">Pred .9</text>
</g>
<polyline clip-path="url(#clip9200)" style="stroke:#e26f46; stroke-width:8; stroke-opacity:1; fill:none" points="
  3974.33,655.208 4262.33,655.208 
  "/>
<polygon clip-path="url(#clip9200)" style="fill:#000000; fill-opacity:1" points="
  4086.33,599.208 4086.33,711.208 4198.33,711.208 4198.33,599.208 4086.33,599.208 
  "/>
<polygon clip-path="url(#clip9200)" style="fill:#e26f46; fill-opacity:1" points="
  4094.33,607.208 4094.33,703.208 4190.33,703.208 4190.33,607.208 4094.33,607.208 
  "/>
<g clip-path="url(#clip9200)">
<text style="fill:#000000; fill-opacity:1; font-family:Arial,Helvetica Neue,Helvetica,sans-serif; font-size:48px; text-anchor:start;" transform="rotate(0, 4310.33, 672.708)" x="4310.33" y="672.708">Pred .8</text>
</g>
<polyline clip-path="url(#clip9200)" style="stroke:#3da44d; stroke-width:8; stroke-opacity:1; fill:none" points="
  3974.33,715.688 4262.33,715.688 
  "/>
<polygon clip-path="url(#clip9200)" style="fill:#000000; fill-opacity:1" points="
  4142.33,659.688 4129.17,697.544 4089.07,698.384 4121.05,722.632 4109.4,760.992 4142.33,738.088 4175.26,760.992 4163.61,722.632 4195.58,698.384 4155.49,697.544 
  4142.33,659.688 
  "/>
<polygon clip-path="url(#clip9200)" style="fill:#3da44d; fill-opacity:1" points="
  4142.33,667.688 4131.05,700.136 4096.68,700.856 4124.09,721.64 4114.1,754.52 4142.33,734.888 4170.55,754.52 4160.57,721.64 4187.98,700.856 4153.61,700.136 
  4142.33,667.688 
  "/>
<g clip-path="url(#clip9200)">
<text style="fill:#000000; fill-opacity:1; font-family:Arial,Helvetica Neue,Helvetica,sans-serif; font-size:48px; text-anchor:start;" transform="rotate(0, 4310.33, 733.188)" x="4310.33" y="733.188">Pred .5</text>
</g>
<polyline clip-path="url(#clip9200)" style="stroke:#c271d2; stroke-width:8; stroke-opacity:1; fill:none" points="
  3974.33,776.168 4262.33,776.168 
  "/>
<polygon clip-path="url(#clip9200)" style="fill:#000000; fill-opacity:1" points="
  4142.33,720.168 4086.33,776.168 4142.33,832.168 4198.33,776.168 4142.33,720.168 
  "/>
<polygon clip-path="url(#clip9200)" style="fill:#c271d2; fill-opacity:1" points="
  4142.33,728.168 4094.33,776.168 4142.33,824.168 4190.33,776.168 4142.33,728.168 
  "/>
<g clip-path="url(#clip9200)">
<text style="fill:#000000; fill-opacity:1; font-family:Arial,Helvetica Neue,Helvetica,sans-serif; font-size:48px; text-anchor:start;" transform="rotate(0, 4310.33, 793.668)" x="4310.33" y="793.668">PI .9</text>
</g>
<polyline clip-path="url(#clip9200)" style="stroke:#ac8d18; stroke-width:8; stroke-opacity:1; fill:none" points="
  3974.33,836.648 4262.33,836.648 
  "/>
<polygon clip-path="url(#clip9200)" style="fill:#000000; fill-opacity:1" points="
  4142.33,892.648 4093.83,864.648 4093.83,808.648 4142.33,780.648 4190.82,808.648 4190.82,864.648 
  "/>
<polygon clip-path="url(#clip9200)" style="fill:#ac8d18; fill-opacity:1" points="
  4142.33,884.648 4100.76,860.648 4100.76,812.648 4142.33,788.648 4183.9,812.648 4183.9,860.648 
  "/>
<g clip-path="url(#clip9200)">
<text style="fill:#000000; fill-opacity:1; font-family:Arial,Helvetica Neue,Helvetica,sans-serif; font-size:48px; text-anchor:start;" transform="rotate(0, 4310.33, 854.148)" x="4310.33" y="854.148">PI .5</text>
</g>
</svg>
