<?xml version="1.0" encoding="utf-8"?>
<svg xmlns="http://www.w3.org/2000/svg" xmlns:xlink="http://www.w3.org/1999/xlink" width="1200" height="800" viewBox="0 0 4800 3200">
<defs>
  <clipPath id="clip6400">
    <rect x="0" y="0" width="4800" height="3200"/>
  </clipPath>
</defs>
<polygon clip-path="url(#clip6400)" points="
0,3200 4800,3200 4800,0 0,0 
  " fill="#ffffff" fill-rule="evenodd" fill-opacity="1"/>
<defs>
  <clipPath id="clip6401">
    <rect x="960" y="0" width="3361" height="3200"/>
  </clipPath>
</defs>
<polygon clip-path="url(#clip6400)" points="
900.448,2747.94 4705.51,2747.94 4705.51,306.728 900.448,306.728 
  " fill="#ffffff" fill-rule="evenodd" fill-opacity="1"/>
<defs>
  <clipPath id="clip6402">
    <rect x="900" y="306" width="3806" height="2442"/>
  </clipPath>
</defs>
<polyline clip-path="url(#clip6402)" style="stroke:#000000; stroke-width:4; stroke-opacity:0.1; fill:none" points="
  1096.57,2747.94 1096.57,306.728 
  "/>
<polyline clip-path="url(#clip6402)" style="stroke:#000000; stroke-width:4; stroke-opacity:0.1; fill:none" points="
  1751.77,2747.94 1751.77,306.728 
  "/>
<polyline clip-path="url(#clip6402)" style="stroke:#000000; stroke-width:4; stroke-opacity:0.1; fill:none" points="
  2406.97,2747.94 2406.97,306.728 
  "/>
<polyline clip-path="url(#clip6402)" style="stroke:#000000; stroke-width:4; stroke-opacity:0.1; fill:none" points="
  3062.17,2747.94 3062.17,306.728 
  "/>
<polyline clip-path="url(#clip6402)" style="stroke:#000000; stroke-width:4; stroke-opacity:0.1; fill:none" points="
  3717.37,2747.94 3717.37,306.728 
  "/>
<polyline clip-path="url(#clip6402)" style="stroke:#000000; stroke-width:4; stroke-opacity:0.1; fill:none" points="
  4372.57,2747.94 4372.57,306.728 
  "/>
<polyline clip-path="url(#clip6402)" style="stroke:#000000; stroke-width:4; stroke-opacity:0.1; fill:none" points="
  900.448,2702.25 4705.51,2702.25 
  "/>
<polyline clip-path="url(#clip6402)" style="stroke:#000000; stroke-width:4; stroke-opacity:0.1; fill:none" points="
  900.448,2223 4705.51,2223 
  "/>
<polyline clip-path="url(#clip6402)" style="stroke:#000000; stroke-width:4; stroke-opacity:0.1; fill:none" points="
  900.448,1743.75 4705.51,1743.75 
  "/>
<polyline clip-path="url(#clip6402)" style="stroke:#000000; stroke-width:4; stroke-opacity:0.1; fill:none" points="
  900.448,1264.5 4705.51,1264.5 
  "/>
<polyline clip-path="url(#clip6402)" style="stroke:#000000; stroke-width:4; stroke-opacity:0.1; fill:none" points="
  900.448,785.249 4705.51,785.249 
  "/>
<polyline clip-path="url(#clip6400)" style="stroke:#000000; stroke-width:8; stroke-opacity:1; fill:none" points="
  900.448,2747.94 4705.51,2747.94 
  "/>
<polyline clip-path="url(#clip6400)" style="stroke:#000000; stroke-width:8; stroke-opacity:1; fill:none" points="
  900.448,2747.94 900.448,306.728 
  "/>
<polyline clip-path="url(#clip6400)" style="stroke:#000000; stroke-width:8; stroke-opacity:1; fill:none" points="
  1096.57,2747.94 1096.57,2711.33 
  "/>
<polyline clip-path="url(#clip6400)" style="stroke:#000000; stroke-width:8; stroke-opacity:1; fill:none" points="
  1751.77,2747.94 1751.77,2711.33 
  "/>
<polyline clip-path="url(#clip6400)" style="stroke:#000000; stroke-width:8; stroke-opacity:1; fill:none" points="
  2406.97,2747.94 2406.97,2711.33 
  "/>
<polyline clip-path="url(#clip6400)" style="stroke:#000000; stroke-width:8; stroke-opacity:1; fill:none" points="
  3062.17,2747.94 3062.17,2711.33 
  "/>
<polyline clip-path="url(#clip6400)" style="stroke:#000000; stroke-width:8; stroke-opacity:1; fill:none" points="
  3717.37,2747.94 3717.37,2711.33 
  "/>
<polyline clip-path="url(#clip6400)" style="stroke:#000000; stroke-width:8; stroke-opacity:1; fill:none" points="
  4372.57,2747.94 4372.57,2711.33 
  "/>
<polyline clip-path="url(#clip6400)" style="stroke:#000000; stroke-width:8; stroke-opacity:1; fill:none" points="
  900.448,2702.25 957.524,2702.25 
  "/>
<polyline clip-path="url(#clip6400)" style="stroke:#000000; stroke-width:8; stroke-opacity:1; fill:none" points="
  900.448,2223 957.524,2223 
  "/>
<polyline clip-path="url(#clip6400)" style="stroke:#000000; stroke-width:8; stroke-opacity:1; fill:none" points="
  900.448,1743.75 957.524,1743.75 
  "/>
<polyline clip-path="url(#clip6400)" style="stroke:#000000; stroke-width:8; stroke-opacity:1; fill:none" points="
  900.448,1264.5 957.524,1264.5 
  "/>
<polyline clip-path="url(#clip6400)" style="stroke:#000000; stroke-width:8; stroke-opacity:1; fill:none" points="
  900.448,785.249 957.524,785.249 
  "/>
<g clip-path="url(#clip6400)">
<text style="fill:#000000; fill-opacity:1; font-family:Arial,Helvetica Neue,Helvetica,sans-serif; font-size:95px; text-anchor:start;" transform="rotate(0, 933.229, 2897.96)" x="933.229" y="2897.96">10</text>
</g>
<g clip-path="url(#clip6400)">
<text style="fill:#000000; fill-opacity:1; font-family:Arial,Helvetica Neue,Helvetica,sans-serif; font-size:77px; text-anchor:start;" transform="rotate(0, 1040.28, 2843.14)" x="1040.28" y="2843.14">-</text>
</g>
<g clip-path="url(#clip6400)">
<text style="fill:#000000; fill-opacity:1; font-family:Arial,Helvetica Neue,Helvetica,sans-serif; font-size:77px; text-anchor:start;" transform="rotate(0, 1085.96, 2843.14)" x="1085.96" y="2843.14">1.91 </text>
</g>
<g clip-path="url(#clip6400)">
<text style="fill:#000000; fill-opacity:1; font-family:Arial,Helvetica Neue,Helvetica,sans-serif; font-size:95px; text-anchor:start;" transform="rotate(0, 1588.43, 2897.96)" x="1588.43" y="2897.96">10</text>
</g>
<g clip-path="url(#clip6400)">
<text style="fill:#000000; fill-opacity:1; font-family:Arial,Helvetica Neue,Helvetica,sans-serif; font-size:77px; text-anchor:start;" transform="rotate(0, 1695.48, 2843.14)" x="1695.48" y="2843.14">-</text>
</g>
<g clip-path="url(#clip6400)">
<text style="fill:#000000; fill-opacity:1; font-family:Arial,Helvetica Neue,Helvetica,sans-serif; font-size:77px; text-anchor:start;" transform="rotate(0, 1741.16, 2843.14)" x="1741.16" y="2843.14">1.90 </text>
</g>
<g clip-path="url(#clip6400)">
<text style="fill:#000000; fill-opacity:1; font-family:Arial,Helvetica Neue,Helvetica,sans-serif; font-size:95px; text-anchor:start;" transform="rotate(0, 2243.63, 2897.96)" x="2243.63" y="2897.96">10</text>
</g>
<g clip-path="url(#clip6400)">
<text style="fill:#000000; fill-opacity:1; font-family:Arial,Helvetica Neue,Helvetica,sans-serif; font-size:77px; text-anchor:start;" transform="rotate(0, 2350.68, 2843.14)" x="2350.68" y="2843.14">-</text>
</g>
<g clip-path="url(#clip6400)">
<text style="fill:#000000; fill-opacity:1; font-family:Arial,Helvetica Neue,Helvetica,sans-serif; font-size:77px; text-anchor:start;" transform="rotate(0, 2396.36, 2843.14)" x="2396.36" y="2843.14">1.89 </text>
</g>
<g clip-path="url(#clip6400)">
<text style="fill:#000000; fill-opacity:1; font-family:Arial,Helvetica Neue,Helvetica,sans-serif; font-size:95px; text-anchor:start;" transform="rotate(0, 2898.83, 2897.96)" x="2898.83" y="2897.96">10</text>
</g>
<g clip-path="url(#clip6400)">
<text style="fill:#000000; fill-opacity:1; font-family:Arial,Helvetica Neue,Helvetica,sans-serif; font-size:77px; text-anchor:start;" transform="rotate(0, 3005.88, 2843.14)" x="3005.88" y="2843.14">-</text>
</g>
<g clip-path="url(#clip6400)">
<text style="fill:#000000; fill-opacity:1; font-family:Arial,Helvetica Neue,Helvetica,sans-serif; font-size:77px; text-anchor:start;" transform="rotate(0, 3051.56, 2843.14)" x="3051.56" y="2843.14">1.88 </text>
</g>
<g clip-path="url(#clip6400)">
<text style="fill:#000000; fill-opacity:1; font-family:Arial,Helvetica Neue,Helvetica,sans-serif; font-size:95px; text-anchor:start;" transform="rotate(0, 3554.03, 2897.96)" x="3554.03" y="2897.96">10</text>
</g>
<g clip-path="url(#clip6400)">
<text style="fill:#000000; fill-opacity:1; font-family:Arial,Helvetica Neue,Helvetica,sans-serif; font-size:77px; text-anchor:start;" transform="rotate(0, 3661.08, 2843.14)" x="3661.08" y="2843.14">-</text>
</g>
<g clip-path="url(#clip6400)">
<text style="fill:#000000; fill-opacity:1; font-family:Arial,Helvetica Neue,Helvetica,sans-serif; font-size:77px; text-anchor:start;" transform="rotate(0, 3706.76, 2843.14)" x="3706.76" y="2843.14">1.87 </text>
</g>
<g clip-path="url(#clip6400)">
<text style="fill:#000000; fill-opacity:1; font-family:Arial,Helvetica Neue,Helvetica,sans-serif; font-size:95px; text-anchor:start;" transform="rotate(0, 4209.23, 2897.96)" x="4209.23" y="2897.96">10</text>
</g>
<g clip-path="url(#clip6400)">
<text style="fill:#000000; fill-opacity:1; font-family:Arial,Helvetica Neue,Helvetica,sans-serif; font-size:77px; text-anchor:start;" transform="rotate(0, 4316.28, 2843.14)" x="4316.28" y="2843.14">-</text>
</g>
<g clip-path="url(#clip6400)">
<text style="fill:#000000; fill-opacity:1; font-family:Arial,Helvetica Neue,Helvetica,sans-serif; font-size:77px; text-anchor:start;" transform="rotate(0, 4361.96, 2843.14)" x="4361.96" y="2843.14">1.86 </text>
</g>
<g clip-path="url(#clip6400)">
<text style="fill:#000000; fill-opacity:1; font-family:Arial,Helvetica Neue,Helvetica,sans-serif; font-size:95px; text-anchor:start;" transform="rotate(0, 569.254, 2749.7)" x="569.254" y="2749.7">10</text>
</g>
<g clip-path="url(#clip6400)">
<text style="fill:#000000; fill-opacity:1; font-family:Arial,Helvetica Neue,Helvetica,sans-serif; font-size:77px; text-anchor:start;" transform="rotate(0, 676.303, 2694.88)" x="676.303" y="2694.88">-</text>
</g>
<g clip-path="url(#clip6400)">
<text style="fill:#000000; fill-opacity:1; font-family:Arial,Helvetica Neue,Helvetica,sans-serif; font-size:77px; text-anchor:start;" transform="rotate(0, 721.982, 2694.88)" x="721.982" y="2694.88">1.1 </text>
</g>
<g clip-path="url(#clip6400)">
<text style="fill:#000000; fill-opacity:1; font-family:Arial,Helvetica Neue,Helvetica,sans-serif; font-size:95px; text-anchor:start;" transform="rotate(0, 569.254, 2270.45)" x="569.254" y="2270.45">10</text>
</g>
<g clip-path="url(#clip6400)">
<text style="fill:#000000; fill-opacity:1; font-family:Arial,Helvetica Neue,Helvetica,sans-serif; font-size:77px; text-anchor:start;" transform="rotate(0, 676.303, 2215.63)" x="676.303" y="2215.63">-</text>
</g>
<g clip-path="url(#clip6400)">
<text style="fill:#000000; fill-opacity:1; font-family:Arial,Helvetica Neue,Helvetica,sans-serif; font-size:77px; text-anchor:start;" transform="rotate(0, 721.982, 2215.63)" x="721.982" y="2215.63">1.0 </text>
</g>
<g clip-path="url(#clip6400)">
<text style="fill:#000000; fill-opacity:1; font-family:Arial,Helvetica Neue,Helvetica,sans-serif; font-size:95px; text-anchor:start;" transform="rotate(0, 569.254, 1791.2)" x="569.254" y="1791.2">10</text>
</g>
<g clip-path="url(#clip6400)">
<text style="fill:#000000; fill-opacity:1; font-family:Arial,Helvetica Neue,Helvetica,sans-serif; font-size:77px; text-anchor:start;" transform="rotate(0, 676.303, 1736.38)" x="676.303" y="1736.38">-</text>
</g>
<g clip-path="url(#clip6400)">
<text style="fill:#000000; fill-opacity:1; font-family:Arial,Helvetica Neue,Helvetica,sans-serif; font-size:77px; text-anchor:start;" transform="rotate(0, 721.982, 1736.38)" x="721.982" y="1736.38">0.9 </text>
</g>
<g clip-path="url(#clip6400)">
<text style="fill:#000000; fill-opacity:1; font-family:Arial,Helvetica Neue,Helvetica,sans-serif; font-size:95px; text-anchor:start;" transform="rotate(0, 569.254, 1311.95)" x="569.254" y="1311.95">10</text>
</g>
<g clip-path="url(#clip6400)">
<text style="fill:#000000; fill-opacity:1; font-family:Arial,Helvetica Neue,Helvetica,sans-serif; font-size:77px; text-anchor:start;" transform="rotate(0, 676.303, 1257.13)" x="676.303" y="1257.13">-</text>
</g>
<g clip-path="url(#clip6400)">
<text style="fill:#000000; fill-opacity:1; font-family:Arial,Helvetica Neue,Helvetica,sans-serif; font-size:77px; text-anchor:start;" transform="rotate(0, 721.982, 1257.13)" x="721.982" y="1257.13">0.8 </text>
</g>
<g clip-path="url(#clip6400)">
<text style="fill:#000000; fill-opacity:1; font-family:Arial,Helvetica Neue,Helvetica,sans-serif; font-size:95px; text-anchor:start;" transform="rotate(0, 569.254, 832.705)" x="569.254" y="832.705">10</text>
</g>
<g clip-path="url(#clip6400)">
<text style="fill:#000000; fill-opacity:1; font-family:Arial,Helvetica Neue,Helvetica,sans-serif; font-size:77px; text-anchor:start;" transform="rotate(0, 676.303, 777.884)" x="676.303" y="777.884">-</text>
</g>
<g clip-path="url(#clip6400)">
<text style="fill:#000000; fill-opacity:1; font-family:Arial,Helvetica Neue,Helvetica,sans-serif; font-size:77px; text-anchor:start;" transform="rotate(0, 721.982, 777.884)" x="721.982" y="777.884">0.7 </text>
</g>
<g clip-path="url(#clip6400)">
<text style="fill:#000000; fill-opacity:1; font-family:Arial,Helvetica Neue,Helvetica,sans-serif; font-size:166px; text-anchor:middle;" transform="rotate(0, 2802.98, 145.2)" x="2802.98" y="145.2">ROCK2 Predictive_Hires_OnlySpeed</text>
</g>
<g clip-path="url(#clip6400)">
<text style="fill:#000000; fill-opacity:1; font-family:Arial,Helvetica Neue,Helvetica,sans-serif; font-size:130px; text-anchor:middle;" transform="rotate(0, 2802.98, 3015.87)" x="2802.98" y="3015.87">Error</text>
</g>
<g clip-path="url(#clip6400)">
<text style="fill:#000000; fill-opacity:1; font-family:Arial,Helvetica Neue,Helvetica,sans-serif; font-size:130px; text-anchor:middle;" transform="rotate(-90, 437.894, 1527.34)" x="437.894" y="1527.34">Time (s)</text>
</g>
<polyline clip-path="url(#clip6402)" style="stroke:#009af9; stroke-width:8; stroke-opacity:1; fill:none" points="
  1264.64,2361.58 1261.42,2321.43 1198.27,2344.14 4597.82,381.513 
  "/>
<circle clip-path="url(#clip6402)" style="fill:#000000; stroke:none; fill-opacity:1" cx="1264.64" cy="2361.58" r="36"/>
<circle clip-path="url(#clip6402)" style="fill:#009af9; stroke:none; fill-opacity:1" cx="1264.64" cy="2361.58" r="28"/>
<circle clip-path="url(#clip6402)" style="fill:#000000; stroke:none; fill-opacity:1" cx="1261.42" cy="2321.43" r="36"/>
<circle clip-path="url(#clip6402)" style="fill:#009af9; stroke:none; fill-opacity:1" cx="1261.42" cy="2321.43" r="28"/>
<circle clip-path="url(#clip6402)" style="fill:#000000; stroke:none; fill-opacity:1" cx="1198.27" cy="2344.14" r="36"/>
<circle clip-path="url(#clip6402)" style="fill:#009af9; stroke:none; fill-opacity:1" cx="1198.27" cy="2344.14" r="28"/>
<circle clip-path="url(#clip6402)" style="fill:#000000; stroke:none; fill-opacity:1" cx="4597.82" cy="381.513" r="36"/>
<circle clip-path="url(#clip6402)" style="fill:#009af9; stroke:none; fill-opacity:1" cx="4597.82" cy="381.513" r="28"/>
<polyline clip-path="url(#clip6402)" style="stroke:#e26f46; stroke-width:8; stroke-opacity:1; fill:none" points="
  1247.68,2318.17 1258.22,2334.72 1184.76,2310.02 4588.17,382.042 
  "/>
<polygon clip-path="url(#clip6402)" style="fill:#000000; fill-opacity:1" points="
  1207.68,2278.17 1207.68,2358.17 1287.68,2358.17 1287.68,2278.17 1207.68,2278.17 
  "/>
<polygon clip-path="url(#clip6402)" style="fill:#e26f46; fill-opacity:1" points="
  1215.68,2286.17 1215.68,2350.17 1279.68,2350.17 1279.68,2286.17 1215.68,2286.17 
  "/>
<polygon clip-path="url(#clip6402)" style="fill:#000000; fill-opacity:1" points="
  1218.22,2294.72 1218.22,2374.72 1298.22,2374.72 1298.22,2294.72 1218.22,2294.72 
  "/>
<polygon clip-path="url(#clip6402)" style="fill:#e26f46; fill-opacity:1" points="
  1226.22,2302.72 1226.22,2366.72 1290.22,2366.72 1290.22,2302.72 1226.22,2302.72 
  "/>
<polygon clip-path="url(#clip6402)" style="fill:#000000; fill-opacity:1" points="
  1144.76,2270.02 1144.76,2350.02 1224.76,2350.02 1224.76,2270.02 1144.76,2270.02 
  "/>
<polygon clip-path="url(#clip6402)" style="fill:#e26f46; fill-opacity:1" points="
  1152.76,2278.02 1152.76,2342.02 1216.76,2342.02 1216.76,2278.02 1152.76,2278.02 
  "/>
<polygon clip-path="url(#clip6402)" style="fill:#000000; fill-opacity:1" points="
  4548.17,342.042 4548.17,422.042 4628.17,422.042 4628.17,342.042 4548.17,342.042 
  "/>
<polygon clip-path="url(#clip6402)" style="fill:#e26f46; fill-opacity:1" points="
  4556.17,350.042 4556.17,414.042 4620.17,414.042 4620.17,350.042 4556.17,350.042 
  "/>
<polyline clip-path="url(#clip6402)" style="stroke:#3da44d; stroke-width:8; stroke-opacity:1; fill:none" points="
  1284.02,2678.85 1258.1,2591.19 1166.1,2590.55 4345.16,375.819 
  "/>
<polygon clip-path="url(#clip6402)" style="fill:#000000; fill-opacity:1" points="
  1284.02,2638.85 1274.62,2665.89 1245.98,2666.49 1268.82,2683.81 1260.5,2711.21 1284.02,2694.85 1307.54,2711.21 1299.22,2683.81 1322.06,2666.49 1293.42,2665.89 
  1284.02,2638.85 
  "/>
<polygon clip-path="url(#clip6402)" style="fill:#3da44d; fill-opacity:1" points="
  1284.02,2646.85 1276.5,2668.49 1253.59,2668.97 1271.86,2682.82 1265.21,2704.74 1284.02,2691.65 1302.84,2704.74 1296.18,2682.82 1314.45,2668.97 1291.54,2668.49 
  1284.02,2646.85 
  "/>
<polygon clip-path="url(#clip6402)" style="fill:#000000; fill-opacity:1" points="
  1258.1,2551.19 1248.7,2578.23 1220.06,2578.83 1242.9,2596.15 1234.58,2623.55 1258.1,2607.19 1281.62,2623.55 1273.3,2596.15 1296.14,2578.83 1267.5,2578.23 
  1258.1,2551.19 
  "/>
<polygon clip-path="url(#clip6402)" style="fill:#3da44d; fill-opacity:1" points="
  1258.1,2559.19 1250.58,2580.82 1227.67,2581.3 1245.94,2595.16 1239.28,2617.08 1258.1,2603.99 1276.92,2617.08 1270.26,2595.16 1288.53,2581.3 1265.62,2580.82 
  1258.1,2559.19 
  "/>
<polygon clip-path="url(#clip6402)" style="fill:#000000; fill-opacity:1" points="
  1166.1,2550.55 1156.7,2577.59 1128.06,2578.19 1150.9,2595.51 1142.58,2622.91 1166.1,2606.55 1189.62,2622.91 1181.3,2595.51 1204.14,2578.19 1175.5,2577.59 
  1166.1,2550.55 
  "/>
<polygon clip-path="url(#clip6402)" style="fill:#3da44d; fill-opacity:1" points="
  1166.1,2558.55 1158.58,2580.18 1135.67,2580.66 1153.94,2594.52 1147.29,2616.44 1166.1,2603.35 1184.92,2616.44 1178.26,2594.52 1196.53,2580.66 1173.62,2580.18 
  1166.1,2558.55 
  "/>
<polygon clip-path="url(#clip6402)" style="fill:#000000; fill-opacity:1" points="
  4345.16,335.819 4335.76,362.859 4307.12,363.459 4329.96,380.779 4321.64,408.179 4345.16,391.819 4368.68,408.179 4360.36,380.779 4383.2,363.459 4354.56,362.859 
  4345.16,335.819 
  "/>
<polygon clip-path="url(#clip6402)" style="fill:#3da44d; fill-opacity:1" points="
  4345.16,343.819 4337.64,365.451 4314.73,365.931 4333,379.787 4326.35,401.707 4345.16,388.619 4363.98,401.707 4357.32,379.787 4375.6,365.931 4352.68,365.451 
  4345.16,343.819 
  "/>
<polyline clip-path="url(#clip6402)" style="stroke:#c271d2; stroke-width:8; stroke-opacity:1; fill:none" points="
  1292.18,2671.68 1136.18,2644.92 1161.9,2629.3 1048.53,2586.36 
  "/>
<polygon clip-path="url(#clip6402)" style="fill:#000000; fill-opacity:1" points="
  1292.18,2631.68 1252.18,2671.68 1292.18,2711.68 1332.18,2671.68 1292.18,2631.68 
  "/>
<polygon clip-path="url(#clip6402)" style="fill:#c271d2; fill-opacity:1" points="
  1292.18,2639.68 1260.18,2671.68 1292.18,2703.68 1324.18,2671.68 1292.18,2639.68 
  "/>
<polygon clip-path="url(#clip6402)" style="fill:#000000; fill-opacity:1" points="
  1136.18,2604.92 1096.18,2644.92 1136.18,2684.92 1176.18,2644.92 1136.18,2604.92 
  "/>
<polygon clip-path="url(#clip6402)" style="fill:#c271d2; fill-opacity:1" points="
  1136.18,2612.92 1104.18,2644.92 1136.18,2676.92 1168.18,2644.92 1136.18,2612.92 
  "/>
<polygon clip-path="url(#clip6402)" style="fill:#000000; fill-opacity:1" points="
  1161.9,2589.3 1121.9,2629.3 1161.9,2669.3 1201.9,2629.3 1161.9,2589.3 
  "/>
<polygon clip-path="url(#clip6402)" style="fill:#c271d2; fill-opacity:1" points="
  1161.9,2597.3 1129.9,2629.3 1161.9,2661.3 1193.9,2629.3 1161.9,2597.3 
  "/>
<polygon clip-path="url(#clip6402)" style="fill:#000000; fill-opacity:1" points="
  1048.53,2546.36 1008.53,2586.36 1048.53,2626.36 1088.53,2586.36 1048.53,2546.36 
  "/>
<polygon clip-path="url(#clip6402)" style="fill:#c271d2; fill-opacity:1" points="
  1048.53,2554.36 1016.53,2586.36 1048.53,2618.36 1080.53,2586.36 1048.53,2554.36 
  "/>
<polyline clip-path="url(#clip6402)" style="stroke:#ac8d18; stroke-width:8; stroke-opacity:1; fill:none" points="
  1126.2,2603.14 1142.97,2651.75 1150.83,2628.1 1008.14,2548.39 
  "/>
<polygon clip-path="url(#clip6402)" style="fill:#000000; fill-opacity:1" points="
  1126.2,2643.14 1091.56,2623.14 1091.56,2583.14 1126.2,2563.14 1160.84,2583.14 1160.84,2623.14 
  "/>
<polygon clip-path="url(#clip6402)" style="fill:#ac8d18; fill-opacity:1" points="
  1126.2,2635.14 1098.49,2619.14 1098.49,2587.14 1126.2,2571.14 1153.91,2587.14 1153.91,2619.14 
  "/>
<polygon clip-path="url(#clip6402)" style="fill:#000000; fill-opacity:1" points="
  1142.97,2691.75 1108.33,2671.75 1108.33,2631.75 1142.97,2611.75 1177.61,2631.75 1177.61,2671.75 
  "/>
<polygon clip-path="url(#clip6402)" style="fill:#ac8d18; fill-opacity:1" points="
  1142.97,2683.75 1115.26,2667.75 1115.26,2635.75 1142.97,2619.75 1170.68,2635.75 1170.68,2667.75 
  "/>
<polygon clip-path="url(#clip6402)" style="fill:#000000; fill-opacity:1" points="
  1150.83,2668.1 1116.19,2648.1 1116.19,2608.1 1150.83,2588.1 1185.47,2608.1 1185.47,2648.1 
  "/>
<polygon clip-path="url(#clip6402)" style="fill:#ac8d18; fill-opacity:1" points="
  1150.83,2660.1 1123.12,2644.1 1123.12,2612.1 1150.83,2596.1 1178.54,2612.1 1178.54,2644.1 
  "/>
<polygon clip-path="url(#clip6402)" style="fill:#000000; fill-opacity:1" points="
  1008.14,2588.39 973.499,2568.39 973.499,2528.39 1008.14,2508.39 1042.78,2528.39 1042.78,2568.39 
  "/>
<polygon clip-path="url(#clip6402)" style="fill:#ac8d18; fill-opacity:1" points="
  1008.14,2580.39 980.427,2564.39 980.427,2532.39 1008.14,2516.39 1035.85,2532.39 1035.85,2564.39 
  "/>
<polygon clip-path="url(#clip6400)" points="
4041.37,897.128 4561.51,897.128 4561.51,534.248 4041.37,534.248 
  " fill="#ffffff" fill-rule="evenodd" fill-opacity="1"/>
<polyline clip-path="url(#clip6400)" style="stroke:#000000; stroke-width:8; stroke-opacity:1; fill:none" points="
  4041.37,897.128 4561.51,897.128 4561.51,534.248 4041.37,534.248 4041.37,897.128 
  "/>
<polyline clip-path="url(#clip6400)" style="stroke:#009af9; stroke-width:8; stroke-opacity:1; fill:none" points="
  4089.37,594.728 4377.37,594.728 
  "/>
<circle clip-path="url(#clip6400)" style="fill:#000000; stroke:none; fill-opacity:1" cx="4257.37" cy="594.728" r="50"/>
<circle clip-path="url(#clip6400)" style="fill:#009af9; stroke:none; fill-opacity:1" cx="4257.37" cy="594.728" r="43"/>
<g clip-path="url(#clip6400)">
<text style="fill:#000000; fill-opacity:1; font-family:Arial,Helvetica Neue,Helvetica,sans-serif; font-size:48px; text-anchor:start;" transform="rotate(0, 4425.37, 612.228)" x="4425.37" y="612.228">.9</text>
</g>
<polyline clip-path="url(#clip6400)" style="stroke:#e26f46; stroke-width:8; stroke-opacity:1; fill:none" points="
  4089.37,655.208 4377.37,655.208 
  "/>
<polygon clip-path="url(#clip6400)" style="fill:#000000; fill-opacity:1" points="
  4201.37,599.208 4201.37,711.208 4313.37,711.208 4313.37,599.208 4201.37,599.208 
  "/>
<polygon clip-path="url(#clip6400)" style="fill:#e26f46; fill-opacity:1" points="
  4209.37,607.208 4209.37,703.208 4305.37,703.208 4305.37,607.208 4209.37,607.208 
  "/>
<g clip-path="url(#clip6400)">
<text style="fill:#000000; fill-opacity:1; font-family:Arial,Helvetica Neue,Helvetica,sans-serif; font-size:48px; text-anchor:start;" transform="rotate(0, 4425.37, 672.708)" x="4425.37" y="672.708">.8</text>
</g>
<polyline clip-path="url(#clip6400)" style="stroke:#3da44d; stroke-width:8; stroke-opacity:1; fill:none" points="
  4089.37,715.688 4377.37,715.688 
  "/>
<polygon clip-path="url(#clip6400)" style="fill:#000000; fill-opacity:1" points="
  4257.37,659.688 4244.21,697.544 4204.11,698.384 4236.09,722.632 4224.44,760.992 4257.37,738.088 4290.3,760.992 4278.65,722.632 4310.62,698.384 4270.53,697.544 
  4257.37,659.688 
  "/>
<polygon clip-path="url(#clip6400)" style="fill:#3da44d; fill-opacity:1" points="
  4257.37,667.688 4246.09,700.136 4211.72,700.856 4239.13,721.64 4229.14,754.52 4257.37,734.888 4285.59,754.52 4275.61,721.64 4303.02,700.856 4268.65,700.136 
  4257.37,667.688 
  "/>
<g clip-path="url(#clip6400)">
<text style="fill:#000000; fill-opacity:1; font-family:Arial,Helvetica Neue,Helvetica,sans-serif; font-size:48px; text-anchor:start;" transform="rotate(0, 4425.37, 733.188)" x="4425.37" y="733.188">.7</text>
</g>
<polyline clip-path="url(#clip6400)" style="stroke:#c271d2; stroke-width:8; stroke-opacity:1; fill:none" points="
  4089.37,776.168 4377.37,776.168 
  "/>
<polygon clip-path="url(#clip6400)" style="fill:#000000; fill-opacity:1" points="
  4257.37,720.168 4201.37,776.168 4257.37,832.168 4313.37,776.168 4257.37,720.168 
  "/>
<polygon clip-path="url(#clip6400)" style="fill:#c271d2; fill-opacity:1" points="
  4257.37,728.168 4209.37,776.168 4257.37,824.168 4305.37,776.168 4257.37,728.168 
  "/>
<g clip-path="url(#clip6400)">
<text style="fill:#000000; fill-opacity:1; font-family:Arial,Helvetica Neue,Helvetica,sans-serif; font-size:48px; text-anchor:start;" transform="rotate(0, 4425.37, 793.668)" x="4425.37" y="793.668">.6</text>
</g>
<polyline clip-path="url(#clip6400)" style="stroke:#ac8d18; stroke-width:8; stroke-opacity:1; fill:none" points="
  4089.37,836.648 4377.37,836.648 
  "/>
<polygon clip-path="url(#clip6400)" style="fill:#000000; fill-opacity:1" points="
  4257.37,892.648 4208.87,864.648 4208.87,808.648 4257.37,780.648 4305.86,808.648 4305.86,864.648 
  "/>
<polygon clip-path="url(#clip6400)" style="fill:#ac8d18; fill-opacity:1" points="
  4257.37,884.648 4215.8,860.648 4215.8,812.648 4257.37,788.648 4298.94,812.648 4298.94,860.648 
  "/>
<g clip-path="url(#clip6400)">
<text style="fill:#000000; fill-opacity:1; font-family:Arial,Helvetica Neue,Helvetica,sans-serif; font-size:48px; text-anchor:start;" transform="rotate(0, 4425.37, 854.148)" x="4425.37" y="854.148">.5</text>
</g>
</svg>
