<?xml version="1.0" encoding="utf-8"?>
<svg xmlns="http://www.w3.org/2000/svg" xmlns:xlink="http://www.w3.org/1999/xlink" width="1200" height="800" viewBox="0 0 4800 3200">
<defs>
  <clipPath id="clip1900">
    <rect x="0" y="0" width="4800" height="3200"/>
  </clipPath>
</defs>
<polygon clip-path="url(#clip1900)" points="
0,3200 4800,3200 4800,0 0,0 
  " fill="#ffffff" fill-rule="evenodd" fill-opacity="1"/>
<defs>
  <clipPath id="clip1901">
    <rect x="960" y="0" width="3361" height="3200"/>
  </clipPath>
</defs>
<polygon clip-path="url(#clip1900)" points="
900.448,2747.94 4705.51,2747.94 4705.51,306.728 900.448,306.728 
  " fill="#ffffff" fill-rule="evenodd" fill-opacity="1"/>
<defs>
  <clipPath id="clip1902">
    <rect x="900" y="306" width="3806" height="2442"/>
  </clipPath>
</defs>
<polyline clip-path="url(#clip1902)" style="stroke:#000000; stroke-width:4; stroke-opacity:0.1; fill:none" points="
  1124.49,2747.94 1124.49,306.728 
  "/>
<polyline clip-path="url(#clip1902)" style="stroke:#000000; stroke-width:4; stroke-opacity:0.1; fill:none" points="
  1794.15,2747.94 1794.15,306.728 
  "/>
<polyline clip-path="url(#clip1902)" style="stroke:#000000; stroke-width:4; stroke-opacity:0.1; fill:none" points="
  2463.81,2747.94 2463.81,306.728 
  "/>
<polyline clip-path="url(#clip1902)" style="stroke:#000000; stroke-width:4; stroke-opacity:0.1; fill:none" points="
  3133.48,2747.94 3133.48,306.728 
  "/>
<polyline clip-path="url(#clip1902)" style="stroke:#000000; stroke-width:4; stroke-opacity:0.1; fill:none" points="
  3803.14,2747.94 3803.14,306.728 
  "/>
<polyline clip-path="url(#clip1902)" style="stroke:#000000; stroke-width:4; stroke-opacity:0.1; fill:none" points="
  4472.8,2747.94 4472.8,306.728 
  "/>
<polyline clip-path="url(#clip1902)" style="stroke:#000000; stroke-width:4; stroke-opacity:0.1; fill:none" points="
  900.448,2317.32 4705.51,2317.32 
  "/>
<polyline clip-path="url(#clip1902)" style="stroke:#000000; stroke-width:4; stroke-opacity:0.1; fill:none" points="
  900.448,1856.09 4705.51,1856.09 
  "/>
<polyline clip-path="url(#clip1902)" style="stroke:#000000; stroke-width:4; stroke-opacity:0.1; fill:none" points="
  900.448,1394.85 4705.51,1394.85 
  "/>
<polyline clip-path="url(#clip1902)" style="stroke:#000000; stroke-width:4; stroke-opacity:0.1; fill:none" points="
  900.448,933.619 4705.51,933.619 
  "/>
<polyline clip-path="url(#clip1902)" style="stroke:#000000; stroke-width:4; stroke-opacity:0.1; fill:none" points="
  900.448,472.386 4705.51,472.386 
  "/>
<polyline clip-path="url(#clip1900)" style="stroke:#000000; stroke-width:8; stroke-opacity:1; fill:none" points="
  900.448,2747.94 4705.51,2747.94 
  "/>
<polyline clip-path="url(#clip1900)" style="stroke:#000000; stroke-width:8; stroke-opacity:1; fill:none" points="
  900.448,2747.94 900.448,306.728 
  "/>
<polyline clip-path="url(#clip1900)" style="stroke:#000000; stroke-width:8; stroke-opacity:1; fill:none" points="
  1124.49,2747.94 1124.49,2711.33 
  "/>
<polyline clip-path="url(#clip1900)" style="stroke:#000000; stroke-width:8; stroke-opacity:1; fill:none" points="
  1794.15,2747.94 1794.15,2711.33 
  "/>
<polyline clip-path="url(#clip1900)" style="stroke:#000000; stroke-width:8; stroke-opacity:1; fill:none" points="
  2463.81,2747.94 2463.81,2711.33 
  "/>
<polyline clip-path="url(#clip1900)" style="stroke:#000000; stroke-width:8; stroke-opacity:1; fill:none" points="
  3133.48,2747.94 3133.48,2711.33 
  "/>
<polyline clip-path="url(#clip1900)" style="stroke:#000000; stroke-width:8; stroke-opacity:1; fill:none" points="
  3803.14,2747.94 3803.14,2711.33 
  "/>
<polyline clip-path="url(#clip1900)" style="stroke:#000000; stroke-width:8; stroke-opacity:1; fill:none" points="
  4472.8,2747.94 4472.8,2711.33 
  "/>
<polyline clip-path="url(#clip1900)" style="stroke:#000000; stroke-width:8; stroke-opacity:1; fill:none" points="
  900.448,2317.32 957.524,2317.32 
  "/>
<polyline clip-path="url(#clip1900)" style="stroke:#000000; stroke-width:8; stroke-opacity:1; fill:none" points="
  900.448,1856.09 957.524,1856.09 
  "/>
<polyline clip-path="url(#clip1900)" style="stroke:#000000; stroke-width:8; stroke-opacity:1; fill:none" points="
  900.448,1394.85 957.524,1394.85 
  "/>
<polyline clip-path="url(#clip1900)" style="stroke:#000000; stroke-width:8; stroke-opacity:1; fill:none" points="
  900.448,933.619 957.524,933.619 
  "/>
<polyline clip-path="url(#clip1900)" style="stroke:#000000; stroke-width:8; stroke-opacity:1; fill:none" points="
  900.448,472.386 957.524,472.386 
  "/>
<g clip-path="url(#clip1900)">
<text style="fill:#000000; fill-opacity:1; font-family:Arial,Helvetica Neue,Helvetica,sans-serif; font-size:95px; text-anchor:start;" transform="rotate(0, 961.15, 2897.96)" x="961.15" y="2897.96">10</text>
</g>
<g clip-path="url(#clip1900)">
<text style="fill:#000000; fill-opacity:1; font-family:Arial,Helvetica Neue,Helvetica,sans-serif; font-size:77px; text-anchor:start;" transform="rotate(0, 1068.2, 2843.14)" x="1068.2" y="2843.14">-</text>
</g>
<g clip-path="url(#clip1900)">
<text style="fill:#000000; fill-opacity:1; font-family:Arial,Helvetica Neue,Helvetica,sans-serif; font-size:77px; text-anchor:start;" transform="rotate(0, 1113.88, 2843.14)" x="1113.88" y="2843.14">2.00 </text>
</g>
<g clip-path="url(#clip1900)">
<text style="fill:#000000; fill-opacity:1; font-family:Arial,Helvetica Neue,Helvetica,sans-serif; font-size:95px; text-anchor:start;" transform="rotate(0, 1630.81, 2897.96)" x="1630.81" y="2897.96">10</text>
</g>
<g clip-path="url(#clip1900)">
<text style="fill:#000000; fill-opacity:1; font-family:Arial,Helvetica Neue,Helvetica,sans-serif; font-size:77px; text-anchor:start;" transform="rotate(0, 1737.86, 2843.14)" x="1737.86" y="2843.14">-</text>
</g>
<g clip-path="url(#clip1900)">
<text style="fill:#000000; fill-opacity:1; font-family:Arial,Helvetica Neue,Helvetica,sans-serif; font-size:77px; text-anchor:start;" transform="rotate(0, 1783.54, 2843.14)" x="1783.54" y="2843.14">1.95 </text>
</g>
<g clip-path="url(#clip1900)">
<text style="fill:#000000; fill-opacity:1; font-family:Arial,Helvetica Neue,Helvetica,sans-serif; font-size:95px; text-anchor:start;" transform="rotate(0, 2300.47, 2897.96)" x="2300.47" y="2897.96">10</text>
</g>
<g clip-path="url(#clip1900)">
<text style="fill:#000000; fill-opacity:1; font-family:Arial,Helvetica Neue,Helvetica,sans-serif; font-size:77px; text-anchor:start;" transform="rotate(0, 2407.52, 2843.14)" x="2407.52" y="2843.14">-</text>
</g>
<g clip-path="url(#clip1900)">
<text style="fill:#000000; fill-opacity:1; font-family:Arial,Helvetica Neue,Helvetica,sans-serif; font-size:77px; text-anchor:start;" transform="rotate(0, 2453.2, 2843.14)" x="2453.2" y="2843.14">1.90 </text>
</g>
<g clip-path="url(#clip1900)">
<text style="fill:#000000; fill-opacity:1; font-family:Arial,Helvetica Neue,Helvetica,sans-serif; font-size:95px; text-anchor:start;" transform="rotate(0, 2970.13, 2897.96)" x="2970.13" y="2897.96">10</text>
</g>
<g clip-path="url(#clip1900)">
<text style="fill:#000000; fill-opacity:1; font-family:Arial,Helvetica Neue,Helvetica,sans-serif; font-size:77px; text-anchor:start;" transform="rotate(0, 3077.18, 2843.14)" x="3077.18" y="2843.14">-</text>
</g>
<g clip-path="url(#clip1900)">
<text style="fill:#000000; fill-opacity:1; font-family:Arial,Helvetica Neue,Helvetica,sans-serif; font-size:77px; text-anchor:start;" transform="rotate(0, 3122.86, 2843.14)" x="3122.86" y="2843.14">1.85 </text>
</g>
<g clip-path="url(#clip1900)">
<text style="fill:#000000; fill-opacity:1; font-family:Arial,Helvetica Neue,Helvetica,sans-serif; font-size:95px; text-anchor:start;" transform="rotate(0, 3639.8, 2897.96)" x="3639.8" y="2897.96">10</text>
</g>
<g clip-path="url(#clip1900)">
<text style="fill:#000000; fill-opacity:1; font-family:Arial,Helvetica Neue,Helvetica,sans-serif; font-size:77px; text-anchor:start;" transform="rotate(0, 3746.85, 2843.14)" x="3746.85" y="2843.14">-</text>
</g>
<g clip-path="url(#clip1900)">
<text style="fill:#000000; fill-opacity:1; font-family:Arial,Helvetica Neue,Helvetica,sans-serif; font-size:77px; text-anchor:start;" transform="rotate(0, 3792.52, 2843.14)" x="3792.52" y="2843.14">1.80 </text>
</g>
<g clip-path="url(#clip1900)">
<text style="fill:#000000; fill-opacity:1; font-family:Arial,Helvetica Neue,Helvetica,sans-serif; font-size:95px; text-anchor:start;" transform="rotate(0, 4309.46, 2897.96)" x="4309.46" y="2897.96">10</text>
</g>
<g clip-path="url(#clip1900)">
<text style="fill:#000000; fill-opacity:1; font-family:Arial,Helvetica Neue,Helvetica,sans-serif; font-size:77px; text-anchor:start;" transform="rotate(0, 4416.51, 2843.14)" x="4416.51" y="2843.14">-</text>
</g>
<g clip-path="url(#clip1900)">
<text style="fill:#000000; fill-opacity:1; font-family:Arial,Helvetica Neue,Helvetica,sans-serif; font-size:77px; text-anchor:start;" transform="rotate(0, 4462.19, 2843.14)" x="4462.19" y="2843.14">1.75 </text>
</g>
<g clip-path="url(#clip1900)">
<text style="fill:#000000; fill-opacity:1; font-family:Arial,Helvetica Neue,Helvetica,sans-serif; font-size:95px; text-anchor:start;" transform="rotate(0, 569.254, 2364.77)" x="569.254" y="2364.77">10</text>
</g>
<g clip-path="url(#clip1900)">
<text style="fill:#000000; fill-opacity:1; font-family:Arial,Helvetica Neue,Helvetica,sans-serif; font-size:77px; text-anchor:start;" transform="rotate(0, 676.303, 2309.95)" x="676.303" y="2309.95">-</text>
</g>
<g clip-path="url(#clip1900)">
<text style="fill:#000000; fill-opacity:1; font-family:Arial,Helvetica Neue,Helvetica,sans-serif; font-size:77px; text-anchor:start;" transform="rotate(0, 721.982, 2309.95)" x="721.982" y="2309.95">0.8 </text>
</g>
<g clip-path="url(#clip1900)">
<text style="fill:#000000; fill-opacity:1; font-family:Arial,Helvetica Neue,Helvetica,sans-serif; font-size:95px; text-anchor:start;" transform="rotate(0, 569.254, 1903.54)" x="569.254" y="1903.54">10</text>
</g>
<g clip-path="url(#clip1900)">
<text style="fill:#000000; fill-opacity:1; font-family:Arial,Helvetica Neue,Helvetica,sans-serif; font-size:77px; text-anchor:start;" transform="rotate(0, 676.303, 1848.72)" x="676.303" y="1848.72">-</text>
</g>
<g clip-path="url(#clip1900)">
<text style="fill:#000000; fill-opacity:1; font-family:Arial,Helvetica Neue,Helvetica,sans-serif; font-size:77px; text-anchor:start;" transform="rotate(0, 721.982, 1848.72)" x="721.982" y="1848.72">0.7 </text>
</g>
<g clip-path="url(#clip1900)">
<text style="fill:#000000; fill-opacity:1; font-family:Arial,Helvetica Neue,Helvetica,sans-serif; font-size:95px; text-anchor:start;" transform="rotate(0, 569.254, 1442.31)" x="569.254" y="1442.31">10</text>
</g>
<g clip-path="url(#clip1900)">
<text style="fill:#000000; fill-opacity:1; font-family:Arial,Helvetica Neue,Helvetica,sans-serif; font-size:77px; text-anchor:start;" transform="rotate(0, 676.303, 1387.49)" x="676.303" y="1387.49">-</text>
</g>
<g clip-path="url(#clip1900)">
<text style="fill:#000000; fill-opacity:1; font-family:Arial,Helvetica Neue,Helvetica,sans-serif; font-size:77px; text-anchor:start;" transform="rotate(0, 721.982, 1387.49)" x="721.982" y="1387.49">0.6 </text>
</g>
<g clip-path="url(#clip1900)">
<text style="fill:#000000; fill-opacity:1; font-family:Arial,Helvetica Neue,Helvetica,sans-serif; font-size:95px; text-anchor:start;" transform="rotate(0, 569.254, 981.074)" x="569.254" y="981.074">10</text>
</g>
<g clip-path="url(#clip1900)">
<text style="fill:#000000; fill-opacity:1; font-family:Arial,Helvetica Neue,Helvetica,sans-serif; font-size:77px; text-anchor:start;" transform="rotate(0, 676.303, 926.254)" x="676.303" y="926.254">-</text>
</g>
<g clip-path="url(#clip1900)">
<text style="fill:#000000; fill-opacity:1; font-family:Arial,Helvetica Neue,Helvetica,sans-serif; font-size:77px; text-anchor:start;" transform="rotate(0, 721.982, 926.254)" x="721.982" y="926.254">0.5 </text>
</g>
<g clip-path="url(#clip1900)">
<text style="fill:#000000; fill-opacity:1; font-family:Arial,Helvetica Neue,Helvetica,sans-serif; font-size:95px; text-anchor:start;" transform="rotate(0, 569.254, 519.841)" x="569.254" y="519.841">10</text>
</g>
<g clip-path="url(#clip1900)">
<text style="fill:#000000; fill-opacity:1; font-family:Arial,Helvetica Neue,Helvetica,sans-serif; font-size:77px; text-anchor:start;" transform="rotate(0, 676.303, 465.021)" x="676.303" y="465.021">-</text>
</g>
<g clip-path="url(#clip1900)">
<text style="fill:#000000; fill-opacity:1; font-family:Arial,Helvetica Neue,Helvetica,sans-serif; font-size:77px; text-anchor:start;" transform="rotate(0, 721.982, 465.021)" x="721.982" y="465.021">0.4 </text>
</g>
<g clip-path="url(#clip1900)">
<text style="fill:#000000; fill-opacity:1; font-family:Arial,Helvetica Neue,Helvetica,sans-serif; font-size:166px; text-anchor:middle;" transform="rotate(0, 2802.98, 145.2)" x="2802.98" y="145.2">ROCK4 Standard_Hires_OnlySpeed</text>
</g>
<g clip-path="url(#clip1900)">
<text style="fill:#000000; fill-opacity:1; font-family:Arial,Helvetica Neue,Helvetica,sans-serif; font-size:130px; text-anchor:middle;" transform="rotate(0, 2802.98, 3015.87)" x="2802.98" y="3015.87">Error</text>
</g>
<g clip-path="url(#clip1900)">
<text style="fill:#000000; fill-opacity:1; font-family:Arial,Helvetica Neue,Helvetica,sans-serif; font-size:130px; text-anchor:middle;" transform="rotate(-90, 437.894, 1527.34)" x="437.894" y="1527.34">Time (s)</text>
</g>
<polyline clip-path="url(#clip1902)" style="stroke:#009af9; stroke-width:8; stroke-opacity:1; fill:none" points="
  1280.42,2672.81 1269.48,2558.72 1274.06,2626.63 4593.96,383.933 
  "/>
<circle clip-path="url(#clip1902)" style="fill:#000000; stroke:none; fill-opacity:1" cx="1280.42" cy="2672.81" r="36"/>
<circle clip-path="url(#clip1902)" style="fill:#009af9; stroke:none; fill-opacity:1" cx="1280.42" cy="2672.81" r="28"/>
<circle clip-path="url(#clip1902)" style="fill:#000000; stroke:none; fill-opacity:1" cx="1269.48" cy="2558.72" r="36"/>
<circle clip-path="url(#clip1902)" style="fill:#009af9; stroke:none; fill-opacity:1" cx="1269.48" cy="2558.72" r="28"/>
<circle clip-path="url(#clip1902)" style="fill:#000000; stroke:none; fill-opacity:1" cx="1274.06" cy="2626.63" r="36"/>
<circle clip-path="url(#clip1902)" style="fill:#009af9; stroke:none; fill-opacity:1" cx="1274.06" cy="2626.63" r="28"/>
<circle clip-path="url(#clip1902)" style="fill:#000000; stroke:none; fill-opacity:1" cx="4593.96" cy="383.933" r="36"/>
<circle clip-path="url(#clip1902)" style="fill:#009af9; stroke:none; fill-opacity:1" cx="4593.96" cy="383.933" r="28"/>
<polyline clip-path="url(#clip1902)" style="stroke:#e26f46; stroke-width:8; stroke-opacity:1; fill:none" points="
  1278.35,2667.29 1272.71,2644.94 4391.4,437.17 1219.26,2568.66 
  "/>
<polygon clip-path="url(#clip1902)" style="fill:#000000; fill-opacity:1" points="
  1238.35,2627.29 1238.35,2707.29 1318.35,2707.29 1318.35,2627.29 1238.35,2627.29 
  "/>
<polygon clip-path="url(#clip1902)" style="fill:#e26f46; fill-opacity:1" points="
  1246.35,2635.29 1246.35,2699.29 1310.35,2699.29 1310.35,2635.29 1246.35,2635.29 
  "/>
<polygon clip-path="url(#clip1902)" style="fill:#000000; fill-opacity:1" points="
  1232.71,2604.94 1232.71,2684.94 1312.71,2684.94 1312.71,2604.94 1232.71,2604.94 
  "/>
<polygon clip-path="url(#clip1902)" style="fill:#e26f46; fill-opacity:1" points="
  1240.71,2612.94 1240.71,2676.94 1304.71,2676.94 1304.71,2612.94 1240.71,2612.94 
  "/>
<polygon clip-path="url(#clip1902)" style="fill:#000000; fill-opacity:1" points="
  4351.4,397.17 4351.4,477.17 4431.4,477.17 4431.4,397.17 4351.4,397.17 
  "/>
<polygon clip-path="url(#clip1902)" style="fill:#e26f46; fill-opacity:1" points="
  4359.4,405.17 4359.4,469.17 4423.4,469.17 4423.4,405.17 4359.4,405.17 
  "/>
<polygon clip-path="url(#clip1902)" style="fill:#000000; fill-opacity:1" points="
  1179.26,2528.66 1179.26,2608.66 1259.26,2608.66 1259.26,2528.66 1179.26,2528.66 
  "/>
<polygon clip-path="url(#clip1902)" style="fill:#e26f46; fill-opacity:1" points="
  1187.26,2536.66 1187.26,2600.66 1251.26,2600.66 1251.26,2536.66 1187.26,2536.66 
  "/>
<polyline clip-path="url(#clip1902)" style="stroke:#3da44d; stroke-width:8; stroke-opacity:1; fill:none" points="
  1276.18,2658.02 1272.06,2656.95 4597.82,375.819 1213.83,2678.85 
  "/>
<polygon clip-path="url(#clip1902)" style="fill:#000000; fill-opacity:1" points="
  1276.18,2618.02 1266.78,2645.06 1238.14,2645.66 1260.98,2662.98 1252.66,2690.38 1276.18,2674.02 1299.7,2690.38 1291.38,2662.98 1314.22,2645.66 1285.58,2645.06 
  1276.18,2618.02 
  "/>
<polygon clip-path="url(#clip1902)" style="fill:#3da44d; fill-opacity:1" points="
  1276.18,2626.02 1268.66,2647.66 1245.74,2648.14 1264.02,2661.99 1257.36,2683.91 1276.18,2670.82 1294.99,2683.91 1288.34,2661.99 1306.61,2648.14 1283.7,2647.66 
  1276.18,2626.02 
  "/>
<polygon clip-path="url(#clip1902)" style="fill:#000000; fill-opacity:1" points="
  1272.06,2616.95 1262.66,2643.99 1234.02,2644.59 1256.86,2661.91 1248.54,2689.31 1272.06,2672.95 1295.58,2689.31 1287.26,2661.91 1310.1,2644.59 1281.46,2643.99 
  1272.06,2616.95 
  "/>
<polygon clip-path="url(#clip1902)" style="fill:#3da44d; fill-opacity:1" points="
  1272.06,2624.95 1264.54,2646.58 1241.62,2647.06 1259.9,2660.92 1253.24,2682.84 1272.06,2669.75 1290.87,2682.84 1284.22,2660.92 1302.49,2647.06 1279.58,2646.58 
  1272.06,2624.95 
  "/>
<polygon clip-path="url(#clip1902)" style="fill:#000000; fill-opacity:1" points="
  4597.82,335.819 4588.42,362.859 4559.78,363.459 4582.62,380.779 4574.3,408.179 4597.82,391.819 4621.34,408.179 4613.02,380.779 4635.86,363.459 4607.22,362.859 
  4597.82,335.819 
  "/>
<polygon clip-path="url(#clip1902)" style="fill:#3da44d; fill-opacity:1" points="
  4597.82,343.819 4590.3,365.451 4567.39,365.931 4585.66,379.787 4579.01,401.707 4597.82,388.619 4616.64,401.707 4609.98,379.787 4628.25,365.931 4605.34,365.451 
  4597.82,343.819 
  "/>
<polygon clip-path="url(#clip1902)" style="fill:#000000; fill-opacity:1" points="
  1213.83,2638.85 1204.43,2665.89 1175.79,2666.49 1198.63,2683.81 1190.31,2711.21 1213.83,2694.85 1237.35,2711.21 1229.03,2683.81 1251.87,2666.49 1223.23,2665.89 
  1213.83,2638.85 
  "/>
<polygon clip-path="url(#clip1902)" style="fill:#3da44d; fill-opacity:1" points="
  1213.83,2646.85 1206.31,2668.49 1183.39,2668.97 1201.67,2682.82 1195.01,2704.74 1213.83,2691.65 1232.64,2704.74 1225.99,2682.82 1244.26,2668.97 1221.35,2668.49 
  1213.83,2646.85 
  "/>
<polyline clip-path="url(#clip1902)" style="stroke:#c271d2; stroke-width:8; stroke-opacity:1; fill:none" points="
  1008.14,2617.98 1212.64,2656.18 1209.58,2609.79 4544.25,496.111 
  "/>
<polygon clip-path="url(#clip1902)" style="fill:#000000; fill-opacity:1" points="
  1008.14,2577.98 968.139,2617.98 1008.14,2657.98 1048.14,2617.98 1008.14,2577.98 
  "/>
<polygon clip-path="url(#clip1902)" style="fill:#c271d2; fill-opacity:1" points="
  1008.14,2585.98 976.139,2617.98 1008.14,2649.98 1040.14,2617.98 1008.14,2585.98 
  "/>
<polygon clip-path="url(#clip1902)" style="fill:#000000; fill-opacity:1" points="
  1212.64,2616.18 1172.64,2656.18 1212.64,2696.18 1252.64,2656.18 1212.64,2616.18 
  "/>
<polygon clip-path="url(#clip1902)" style="fill:#c271d2; fill-opacity:1" points="
  1212.64,2624.18 1180.64,2656.18 1212.64,2688.18 1244.64,2656.18 1212.64,2624.18 
  "/>
<polygon clip-path="url(#clip1902)" style="fill:#000000; fill-opacity:1" points="
  1209.58,2569.79 1169.58,2609.79 1209.58,2649.79 1249.58,2609.79 1209.58,2569.79 
  "/>
<polygon clip-path="url(#clip1902)" style="fill:#c271d2; fill-opacity:1" points="
  1209.58,2577.79 1177.58,2609.79 1209.58,2641.79 1241.58,2609.79 1209.58,2577.79 
  "/>
<polygon clip-path="url(#clip1902)" style="fill:#000000; fill-opacity:1" points="
  4544.25,456.111 4504.25,496.111 4544.25,536.111 4584.25,496.111 4544.25,456.111 
  "/>
<polygon clip-path="url(#clip1902)" style="fill:#c271d2; fill-opacity:1" points="
  4544.25,464.111 4512.25,496.111 4544.25,528.111 4576.25,496.111 4544.25,464.111 
  "/>
<polyline clip-path="url(#clip1902)" style="stroke:#ac8d18; stroke-width:8; stroke-opacity:1; fill:none" points="
  1211.35,2626.72 1195.77,2661.77 1267.48,2670.72 4535.05,436.311 
  "/>
<polygon clip-path="url(#clip1902)" style="fill:#000000; fill-opacity:1" points="
  1211.35,2666.72 1176.71,2646.72 1176.71,2606.72 1211.35,2586.72 1245.99,2606.72 1245.99,2646.72 
  "/>
<polygon clip-path="url(#clip1902)" style="fill:#ac8d18; fill-opacity:1" points="
  1211.35,2658.72 1183.64,2642.72 1183.64,2610.72 1211.35,2594.72 1239.07,2610.72 1239.07,2642.72 
  "/>
<polygon clip-path="url(#clip1902)" style="fill:#000000; fill-opacity:1" points="
  1195.77,2701.77 1161.13,2681.77 1161.13,2641.77 1195.77,2621.77 1230.41,2641.77 1230.41,2681.77 
  "/>
<polygon clip-path="url(#clip1902)" style="fill:#ac8d18; fill-opacity:1" points="
  1195.77,2693.77 1168.06,2677.77 1168.06,2645.77 1195.77,2629.77 1223.49,2645.77 1223.49,2677.77 
  "/>
<polygon clip-path="url(#clip1902)" style="fill:#000000; fill-opacity:1" points="
  1267.48,2710.72 1232.84,2690.72 1232.84,2650.72 1267.48,2630.72 1302.12,2650.72 1302.12,2690.72 
  "/>
<polygon clip-path="url(#clip1902)" style="fill:#ac8d18; fill-opacity:1" points="
  1267.48,2702.72 1239.77,2686.72 1239.77,2654.72 1267.48,2638.72 1295.19,2654.72 1295.19,2686.72 
  "/>
<polygon clip-path="url(#clip1902)" style="fill:#000000; fill-opacity:1" points="
  4535.05,476.311 4500.41,456.311 4500.41,416.311 4535.05,396.311 4569.69,416.311 4569.69,456.311 
  "/>
<polygon clip-path="url(#clip1902)" style="fill:#ac8d18; fill-opacity:1" points="
  4535.05,468.311 4507.34,452.311 4507.34,420.311 4535.05,404.311 4562.76,420.311 4562.76,452.311 
  "/>
<polygon clip-path="url(#clip1900)" points="
4041.37,897.128 4561.51,897.128 4561.51,534.248 4041.37,534.248 
  " fill="#ffffff" fill-rule="evenodd" fill-opacity="1"/>
<polyline clip-path="url(#clip1900)" style="stroke:#000000; stroke-width:8; stroke-opacity:1; fill:none" points="
  4041.37,897.128 4561.51,897.128 4561.51,534.248 4041.37,534.248 4041.37,897.128 
  "/>
<polyline clip-path="url(#clip1900)" style="stroke:#009af9; stroke-width:8; stroke-opacity:1; fill:none" points="
  4089.37,594.728 4377.37,594.728 
  "/>
<circle clip-path="url(#clip1900)" style="fill:#000000; stroke:none; fill-opacity:1" cx="4257.37" cy="594.728" r="50"/>
<circle clip-path="url(#clip1900)" style="fill:#009af9; stroke:none; fill-opacity:1" cx="4257.37" cy="594.728" r="43"/>
<g clip-path="url(#clip1900)">
<text style="fill:#000000; fill-opacity:1; font-family:Arial,Helvetica Neue,Helvetica,sans-serif; font-size:48px; text-anchor:start;" transform="rotate(0, 4425.37, 612.228)" x="4425.37" y="612.228">.9</text>
</g>
<polyline clip-path="url(#clip1900)" style="stroke:#e26f46; stroke-width:8; stroke-opacity:1; fill:none" points="
  4089.37,655.208 4377.37,655.208 
  "/>
<polygon clip-path="url(#clip1900)" style="fill:#000000; fill-opacity:1" points="
  4201.37,599.208 4201.37,711.208 4313.37,711.208 4313.37,599.208 4201.37,599.208 
  "/>
<polygon clip-path="url(#clip1900)" style="fill:#e26f46; fill-opacity:1" points="
  4209.37,607.208 4209.37,703.208 4305.37,703.208 4305.37,607.208 4209.37,607.208 
  "/>
<g clip-path="url(#clip1900)">
<text style="fill:#000000; fill-opacity:1; font-family:Arial,Helvetica Neue,Helvetica,sans-serif; font-size:48px; text-anchor:start;" transform="rotate(0, 4425.37, 672.708)" x="4425.37" y="672.708">.8</text>
</g>
<polyline clip-path="url(#clip1900)" style="stroke:#3da44d; stroke-width:8; stroke-opacity:1; fill:none" points="
  4089.37,715.688 4377.37,715.688 
  "/>
<polygon clip-path="url(#clip1900)" style="fill:#000000; fill-opacity:1" points="
  4257.37,659.688 4244.21,697.544 4204.11,698.384 4236.09,722.632 4224.44,760.992 4257.37,738.088 4290.3,760.992 4278.65,722.632 4310.62,698.384 4270.53,697.544 
  4257.37,659.688 
  "/>
<polygon clip-path="url(#clip1900)" style="fill:#3da44d; fill-opacity:1" points="
  4257.37,667.688 4246.09,700.136 4211.72,700.856 4239.13,721.64 4229.14,754.52 4257.37,734.888 4285.59,754.52 4275.61,721.64 4303.02,700.856 4268.65,700.136 
  4257.37,667.688 
  "/>
<g clip-path="url(#clip1900)">
<text style="fill:#000000; fill-opacity:1; font-family:Arial,Helvetica Neue,Helvetica,sans-serif; font-size:48px; text-anchor:start;" transform="rotate(0, 4425.37, 733.188)" x="4425.37" y="733.188">.7</text>
</g>
<polyline clip-path="url(#clip1900)" style="stroke:#c271d2; stroke-width:8; stroke-opacity:1; fill:none" points="
  4089.37,776.168 4377.37,776.168 
  "/>
<polygon clip-path="url(#clip1900)" style="fill:#000000; fill-opacity:1" points="
  4257.37,720.168 4201.37,776.168 4257.37,832.168 4313.37,776.168 4257.37,720.168 
  "/>
<polygon clip-path="url(#clip1900)" style="fill:#c271d2; fill-opacity:1" points="
  4257.37,728.168 4209.37,776.168 4257.37,824.168 4305.37,776.168 4257.37,728.168 
  "/>
<g clip-path="url(#clip1900)">
<text style="fill:#000000; fill-opacity:1; font-family:Arial,Helvetica Neue,Helvetica,sans-serif; font-size:48px; text-anchor:start;" transform="rotate(0, 4425.37, 793.668)" x="4425.37" y="793.668">.6</text>
</g>
<polyline clip-path="url(#clip1900)" style="stroke:#ac8d18; stroke-width:8; stroke-opacity:1; fill:none" points="
  4089.37,836.648 4377.37,836.648 
  "/>
<polygon clip-path="url(#clip1900)" style="fill:#000000; fill-opacity:1" points="
  4257.37,892.648 4208.87,864.648 4208.87,808.648 4257.37,780.648 4305.86,808.648 4305.86,864.648 
  "/>
<polygon clip-path="url(#clip1900)" style="fill:#ac8d18; fill-opacity:1" points="
  4257.37,884.648 4215.8,860.648 4215.8,812.648 4257.37,788.648 4298.94,812.648 4298.94,860.648 
  "/>
<g clip-path="url(#clip1900)">
<text style="fill:#000000; fill-opacity:1; font-family:Arial,Helvetica Neue,Helvetica,sans-serif; font-size:48px; text-anchor:start;" transform="rotate(0, 4425.37, 854.148)" x="4425.37" y="854.148">.5</text>
</g>
</svg>
