<?xml version="1.0" encoding="utf-8"?>
<svg xmlns="http://www.w3.org/2000/svg" xmlns:xlink="http://www.w3.org/1999/xlink" width="1200" height="800" viewBox="0 0 4800 3200">
<defs>
  <clipPath id="clip0600">
    <rect x="0" y="0" width="4800" height="3200"/>
  </clipPath>
</defs>
<polygon clip-path="url(#clip0600)" points="
0,3200 4800,3200 4800,0 0,0 
  " fill="#ffffff" fill-rule="evenodd" fill-opacity="1"/>
<defs>
  <clipPath id="clip0601">
    <rect x="960" y="0" width="3361" height="3200"/>
  </clipPath>
</defs>
<polygon clip-path="url(#clip0600)" points="
982.876,2747.94 4705.51,2747.94 4705.51,306.728 982.876,306.728 
  " fill="#ffffff" fill-rule="evenodd" fill-opacity="1"/>
<defs>
  <clipPath id="clip0602">
    <rect x="982" y="306" width="3724" height="2442"/>
  </clipPath>
</defs>
<polyline clip-path="url(#clip0602)" style="stroke:#000000; stroke-width:4; stroke-opacity:0.1; fill:none" points="
  1620.31,2747.94 1620.31,306.728 
  "/>
<polyline clip-path="url(#clip0602)" style="stroke:#000000; stroke-width:4; stroke-opacity:0.1; fill:none" points="
  2563.82,2747.94 2563.82,306.728 
  "/>
<polyline clip-path="url(#clip0602)" style="stroke:#000000; stroke-width:4; stroke-opacity:0.1; fill:none" points="
  3507.33,2747.94 3507.33,306.728 
  "/>
<polyline clip-path="url(#clip0602)" style="stroke:#000000; stroke-width:4; stroke-opacity:0.1; fill:none" points="
  4450.84,2747.94 4450.84,306.728 
  "/>
<polyline clip-path="url(#clip0602)" style="stroke:#000000; stroke-width:4; stroke-opacity:0.1; fill:none" points="
  982.876,2559.87 4705.51,2559.87 
  "/>
<polyline clip-path="url(#clip0602)" style="stroke:#000000; stroke-width:4; stroke-opacity:0.1; fill:none" points="
  982.876,2084.17 4705.51,2084.17 
  "/>
<polyline clip-path="url(#clip0602)" style="stroke:#000000; stroke-width:4; stroke-opacity:0.1; fill:none" points="
  982.876,1608.48 4705.51,1608.48 
  "/>
<polyline clip-path="url(#clip0602)" style="stroke:#000000; stroke-width:4; stroke-opacity:0.1; fill:none" points="
  982.876,1132.78 4705.51,1132.78 
  "/>
<polyline clip-path="url(#clip0602)" style="stroke:#000000; stroke-width:4; stroke-opacity:0.1; fill:none" points="
  982.876,657.088 4705.51,657.088 
  "/>
<polyline clip-path="url(#clip0600)" style="stroke:#000000; stroke-width:8; stroke-opacity:1; fill:none" points="
  982.876,2747.94 4705.51,2747.94 
  "/>
<polyline clip-path="url(#clip0600)" style="stroke:#000000; stroke-width:8; stroke-opacity:1; fill:none" points="
  982.876,2747.94 982.876,306.728 
  "/>
<polyline clip-path="url(#clip0600)" style="stroke:#000000; stroke-width:8; stroke-opacity:1; fill:none" points="
  1620.31,2747.94 1620.31,2711.33 
  "/>
<polyline clip-path="url(#clip0600)" style="stroke:#000000; stroke-width:8; stroke-opacity:1; fill:none" points="
  2563.82,2747.94 2563.82,2711.33 
  "/>
<polyline clip-path="url(#clip0600)" style="stroke:#000000; stroke-width:8; stroke-opacity:1; fill:none" points="
  3507.33,2747.94 3507.33,2711.33 
  "/>
<polyline clip-path="url(#clip0600)" style="stroke:#000000; stroke-width:8; stroke-opacity:1; fill:none" points="
  4450.84,2747.94 4450.84,2711.33 
  "/>
<polyline clip-path="url(#clip0600)" style="stroke:#000000; stroke-width:8; stroke-opacity:1; fill:none" points="
  982.876,2559.87 1038.72,2559.87 
  "/>
<polyline clip-path="url(#clip0600)" style="stroke:#000000; stroke-width:8; stroke-opacity:1; fill:none" points="
  982.876,2084.17 1038.72,2084.17 
  "/>
<polyline clip-path="url(#clip0600)" style="stroke:#000000; stroke-width:8; stroke-opacity:1; fill:none" points="
  982.876,1608.48 1038.72,1608.48 
  "/>
<polyline clip-path="url(#clip0600)" style="stroke:#000000; stroke-width:8; stroke-opacity:1; fill:none" points="
  982.876,1132.78 1038.72,1132.78 
  "/>
<polyline clip-path="url(#clip0600)" style="stroke:#000000; stroke-width:8; stroke-opacity:1; fill:none" points="
  982.876,657.088 1038.72,657.088 
  "/>
<g clip-path="url(#clip0600)">
<text style="fill:#000000; fill-opacity:1; font-family:Arial,Helvetica Neue,Helvetica,sans-serif; font-size:95px; text-anchor:start;" transform="rotate(0, 1435.23, 2897.96)" x="1435.23" y="2897.96">10</text>
</g>
<g clip-path="url(#clip0600)">
<text style="fill:#000000; fill-opacity:1; font-family:Arial,Helvetica Neue,Helvetica,sans-serif; font-size:77px; text-anchor:start;" transform="rotate(0, 1542.28, 2843.14)" x="1542.28" y="2843.14">-</text>
</g>
<g clip-path="url(#clip0600)">
<text style="fill:#000000; fill-opacity:1; font-family:Arial,Helvetica Neue,Helvetica,sans-serif; font-size:77px; text-anchor:start;" transform="rotate(0, 1587.95, 2843.14)" x="1587.95" y="2843.14">1.925 </text>
</g>
<g clip-path="url(#clip0600)">
<text style="fill:#000000; fill-opacity:1; font-family:Arial,Helvetica Neue,Helvetica,sans-serif; font-size:95px; text-anchor:start;" transform="rotate(0, 2378.73, 2897.96)" x="2378.73" y="2897.96">10</text>
</g>
<g clip-path="url(#clip0600)">
<text style="fill:#000000; fill-opacity:1; font-family:Arial,Helvetica Neue,Helvetica,sans-serif; font-size:77px; text-anchor:start;" transform="rotate(0, 2485.78, 2843.14)" x="2485.78" y="2843.14">-</text>
</g>
<g clip-path="url(#clip0600)">
<text style="fill:#000000; fill-opacity:1; font-family:Arial,Helvetica Neue,Helvetica,sans-serif; font-size:77px; text-anchor:start;" transform="rotate(0, 2531.46, 2843.14)" x="2531.46" y="2843.14">1.920 </text>
</g>
<g clip-path="url(#clip0600)">
<text style="fill:#000000; fill-opacity:1; font-family:Arial,Helvetica Neue,Helvetica,sans-serif; font-size:95px; text-anchor:start;" transform="rotate(0, 3322.24, 2897.96)" x="3322.24" y="2897.96">10</text>
</g>
<g clip-path="url(#clip0600)">
<text style="fill:#000000; fill-opacity:1; font-family:Arial,Helvetica Neue,Helvetica,sans-serif; font-size:77px; text-anchor:start;" transform="rotate(0, 3429.29, 2843.14)" x="3429.29" y="2843.14">-</text>
</g>
<g clip-path="url(#clip0600)">
<text style="fill:#000000; fill-opacity:1; font-family:Arial,Helvetica Neue,Helvetica,sans-serif; font-size:77px; text-anchor:start;" transform="rotate(0, 3474.97, 2843.14)" x="3474.97" y="2843.14">1.915 </text>
</g>
<g clip-path="url(#clip0600)">
<text style="fill:#000000; fill-opacity:1; font-family:Arial,Helvetica Neue,Helvetica,sans-serif; font-size:95px; text-anchor:start;" transform="rotate(0, 4265.75, 2897.96)" x="4265.75" y="2897.96">10</text>
</g>
<g clip-path="url(#clip0600)">
<text style="fill:#000000; fill-opacity:1; font-family:Arial,Helvetica Neue,Helvetica,sans-serif; font-size:77px; text-anchor:start;" transform="rotate(0, 4372.8, 2843.14)" x="4372.8" y="2843.14">-</text>
</g>
<g clip-path="url(#clip0600)">
<text style="fill:#000000; fill-opacity:1; font-family:Arial,Helvetica Neue,Helvetica,sans-serif; font-size:77px; text-anchor:start;" transform="rotate(0, 4418.48, 2843.14)" x="4418.48" y="2843.14">1.910 </text>
</g>
<g clip-path="url(#clip0600)">
<text style="fill:#000000; fill-opacity:1; font-family:Arial,Helvetica Neue,Helvetica,sans-serif; font-size:95px; text-anchor:start;" transform="rotate(0, 608.193, 2607.32)" x="608.193" y="2607.32">10</text>
</g>
<g clip-path="url(#clip0600)">
<text style="fill:#000000; fill-opacity:1; font-family:Arial,Helvetica Neue,Helvetica,sans-serif; font-size:77px; text-anchor:start;" transform="rotate(0, 715.242, 2552.5)" x="715.242" y="2552.5">-</text>
</g>
<g clip-path="url(#clip0600)">
<text style="fill:#000000; fill-opacity:1; font-family:Arial,Helvetica Neue,Helvetica,sans-serif; font-size:77px; text-anchor:start;" transform="rotate(0, 760.921, 2552.5)" x="760.921" y="2552.5">1.08 </text>
</g>
<g clip-path="url(#clip0600)">
<text style="fill:#000000; fill-opacity:1; font-family:Arial,Helvetica Neue,Helvetica,sans-serif; font-size:95px; text-anchor:start;" transform="rotate(0, 608.193, 2131.63)" x="608.193" y="2131.63">10</text>
</g>
<g clip-path="url(#clip0600)">
<text style="fill:#000000; fill-opacity:1; font-family:Arial,Helvetica Neue,Helvetica,sans-serif; font-size:77px; text-anchor:start;" transform="rotate(0, 715.242, 2076.81)" x="715.242" y="2076.81">-</text>
</g>
<g clip-path="url(#clip0600)">
<text style="fill:#000000; fill-opacity:1; font-family:Arial,Helvetica Neue,Helvetica,sans-serif; font-size:77px; text-anchor:start;" transform="rotate(0, 760.921, 2076.81)" x="760.921" y="2076.81">1.06 </text>
</g>
<g clip-path="url(#clip0600)">
<text style="fill:#000000; fill-opacity:1; font-family:Arial,Helvetica Neue,Helvetica,sans-serif; font-size:95px; text-anchor:start;" transform="rotate(0, 608.193, 1655.93)" x="608.193" y="1655.93">10</text>
</g>
<g clip-path="url(#clip0600)">
<text style="fill:#000000; fill-opacity:1; font-family:Arial,Helvetica Neue,Helvetica,sans-serif; font-size:77px; text-anchor:start;" transform="rotate(0, 715.242, 1601.11)" x="715.242" y="1601.11">-</text>
</g>
<g clip-path="url(#clip0600)">
<text style="fill:#000000; fill-opacity:1; font-family:Arial,Helvetica Neue,Helvetica,sans-serif; font-size:77px; text-anchor:start;" transform="rotate(0, 760.921, 1601.11)" x="760.921" y="1601.11">1.04 </text>
</g>
<g clip-path="url(#clip0600)">
<text style="fill:#000000; fill-opacity:1; font-family:Arial,Helvetica Neue,Helvetica,sans-serif; font-size:95px; text-anchor:start;" transform="rotate(0, 608.193, 1180.24)" x="608.193" y="1180.24">10</text>
</g>
<g clip-path="url(#clip0600)">
<text style="fill:#000000; fill-opacity:1; font-family:Arial,Helvetica Neue,Helvetica,sans-serif; font-size:77px; text-anchor:start;" transform="rotate(0, 715.242, 1125.42)" x="715.242" y="1125.42">-</text>
</g>
<g clip-path="url(#clip0600)">
<text style="fill:#000000; fill-opacity:1; font-family:Arial,Helvetica Neue,Helvetica,sans-serif; font-size:77px; text-anchor:start;" transform="rotate(0, 760.921, 1125.42)" x="760.921" y="1125.42">1.02 </text>
</g>
<g clip-path="url(#clip0600)">
<text style="fill:#000000; fill-opacity:1; font-family:Arial,Helvetica Neue,Helvetica,sans-serif; font-size:95px; text-anchor:start;" transform="rotate(0, 608.193, 704.543)" x="608.193" y="704.543">10</text>
</g>
<g clip-path="url(#clip0600)">
<text style="fill:#000000; fill-opacity:1; font-family:Arial,Helvetica Neue,Helvetica,sans-serif; font-size:77px; text-anchor:start;" transform="rotate(0, 715.242, 649.722)" x="715.242" y="649.722">-</text>
</g>
<g clip-path="url(#clip0600)">
<text style="fill:#000000; fill-opacity:1; font-family:Arial,Helvetica Neue,Helvetica,sans-serif; font-size:77px; text-anchor:start;" transform="rotate(0, 760.921, 649.722)" x="760.921" y="649.722">1.00 </text>
</g>
<g clip-path="url(#clip0600)">
<text style="fill:#000000; fill-opacity:1; font-family:Arial,Helvetica Neue,Helvetica,sans-serif; font-size:166px; text-anchor:middle;" transform="rotate(0, 2844.19, 145.2)" x="2844.19" y="145.2">ROCK2 Overall</text>
</g>
<g clip-path="url(#clip0600)">
<text style="fill:#000000; fill-opacity:1; font-family:Arial,Helvetica Neue,Helvetica,sans-serif; font-size:130px; text-anchor:middle;" transform="rotate(0, 2844.19, 3015.87)" x="2844.19" y="3015.87">Error</text>
</g>
<g clip-path="url(#clip0600)">
<text style="fill:#000000; fill-opacity:1; font-family:Arial,Helvetica Neue,Helvetica,sans-serif; font-size:130px; text-anchor:middle;" transform="rotate(-90, 466.797, 1527.34)" x="466.797" y="1527.34">Time (s)</text>
</g>
<polyline clip-path="url(#clip0602)" style="stroke:#009af9; stroke-width:8; stroke-opacity:1; fill:none" points="
  4492.97,2512.76 4308.82,2469.81 2983.08,2049.33 1088.23,375.819 
  "/>
<circle clip-path="url(#clip0602)" style="fill:#000000; stroke:none; fill-opacity:1" cx="4492.97" cy="2512.76" r="36"/>
<circle clip-path="url(#clip0602)" style="fill:#009af9; stroke:none; fill-opacity:1" cx="4492.97" cy="2512.76" r="28"/>
<circle clip-path="url(#clip0602)" style="fill:#000000; stroke:none; fill-opacity:1" cx="4308.82" cy="2469.81" r="36"/>
<circle clip-path="url(#clip0602)" style="fill:#009af9; stroke:none; fill-opacity:1" cx="4308.82" cy="2469.81" r="28"/>
<circle clip-path="url(#clip0602)" style="fill:#000000; stroke:none; fill-opacity:1" cx="2983.08" cy="2049.33" r="36"/>
<circle clip-path="url(#clip0602)" style="fill:#009af9; stroke:none; fill-opacity:1" cx="2983.08" cy="2049.33" r="28"/>
<circle clip-path="url(#clip0602)" style="fill:#000000; stroke:none; fill-opacity:1" cx="1088.23" cy="375.819" r="36"/>
<circle clip-path="url(#clip0602)" style="fill:#009af9; stroke:none; fill-opacity:1" cx="1088.23" cy="375.819" r="28"/>
<polyline clip-path="url(#clip0602)" style="stroke:#e26f46; stroke-width:8; stroke-opacity:1; fill:none" points="
  4504.91,2678.85 4411.3,2341.38 4130.93,2325.9 1982.73,1507.66 
  "/>
<polygon clip-path="url(#clip0602)" style="fill:#000000; fill-opacity:1" points="
  4464.91,2638.85 4464.91,2718.85 4544.91,2718.85 4544.91,2638.85 4464.91,2638.85 
  "/>
<polygon clip-path="url(#clip0602)" style="fill:#e26f46; fill-opacity:1" points="
  4472.91,2646.85 4472.91,2710.85 4536.91,2710.85 4536.91,2646.85 4472.91,2646.85 
  "/>
<polygon clip-path="url(#clip0602)" style="fill:#000000; fill-opacity:1" points="
  4371.3,2301.38 4371.3,2381.38 4451.3,2381.38 4451.3,2301.38 4371.3,2301.38 
  "/>
<polygon clip-path="url(#clip0602)" style="fill:#e26f46; fill-opacity:1" points="
  4379.3,2309.38 4379.3,2373.38 4443.3,2373.38 4443.3,2309.38 4379.3,2309.38 
  "/>
<polygon clip-path="url(#clip0602)" style="fill:#000000; fill-opacity:1" points="
  4090.93,2285.9 4090.93,2365.9 4170.93,2365.9 4170.93,2285.9 4090.93,2285.9 
  "/>
<polygon clip-path="url(#clip0602)" style="fill:#e26f46; fill-opacity:1" points="
  4098.93,2293.9 4098.93,2357.9 4162.93,2357.9 4162.93,2293.9 4098.93,2293.9 
  "/>
<polygon clip-path="url(#clip0602)" style="fill:#000000; fill-opacity:1" points="
  1942.73,1467.66 1942.73,1547.66 2022.73,1547.66 2022.73,1467.66 1942.73,1467.66 
  "/>
<polygon clip-path="url(#clip0602)" style="fill:#e26f46; fill-opacity:1" points="
  1950.73,1475.66 1950.73,1539.66 2014.73,1539.66 2014.73,1475.66 1950.73,1475.66 
  "/>
<polyline clip-path="url(#clip0602)" style="stroke:#3da44d; stroke-width:8; stroke-opacity:1; fill:none" points="
  4600.15,2619 4472.8,2630.46 4460.66,2462.76 3012.07,2091.25 
  "/>
<polygon clip-path="url(#clip0602)" style="fill:#000000; fill-opacity:1" points="
  4600.15,2579 4590.75,2606.04 4562.11,2606.64 4584.95,2623.96 4576.63,2651.36 4600.15,2635 4623.67,2651.36 4615.35,2623.96 4638.19,2606.64 4609.55,2606.04 
  4600.15,2579 
  "/>
<polygon clip-path="url(#clip0602)" style="fill:#3da44d; fill-opacity:1" points="
  4600.15,2587 4592.63,2608.63 4569.72,2609.11 4587.99,2622.97 4581.34,2644.89 4600.15,2631.8 4618.97,2644.89 4612.31,2622.97 4630.59,2609.11 4607.67,2608.63 
  4600.15,2587 
  "/>
<polygon clip-path="url(#clip0602)" style="fill:#000000; fill-opacity:1" points="
  4472.8,2590.46 4463.4,2617.5 4434.76,2618.1 4457.6,2635.42 4449.28,2662.82 4472.8,2646.46 4496.32,2662.82 4488,2635.42 4510.84,2618.1 4482.2,2617.5 
  4472.8,2590.46 
  "/>
<polygon clip-path="url(#clip0602)" style="fill:#3da44d; fill-opacity:1" points="
  4472.8,2598.46 4465.28,2620.09 4442.37,2620.57 4460.64,2634.43 4453.99,2656.35 4472.8,2643.26 4491.62,2656.35 4484.96,2634.43 4503.24,2620.57 4480.32,2620.09 
  4472.8,2598.46 
  "/>
<polygon clip-path="url(#clip0602)" style="fill:#000000; fill-opacity:1" points="
  4460.66,2422.76 4451.26,2449.8 4422.62,2450.4 4445.46,2467.72 4437.14,2495.12 4460.66,2478.76 4484.18,2495.12 4475.86,2467.72 4498.7,2450.4 4470.06,2449.8 
  4460.66,2422.76 
  "/>
<polygon clip-path="url(#clip0602)" style="fill:#3da44d; fill-opacity:1" points="
  4460.66,2430.76 4453.14,2452.39 4430.23,2452.87 4448.5,2466.73 4441.84,2488.65 4460.66,2475.56 4479.48,2488.65 4472.82,2466.73 4491.09,2452.87 4468.18,2452.39 
  4460.66,2430.76 
  "/>
<polygon clip-path="url(#clip0602)" style="fill:#000000; fill-opacity:1" points="
  3012.07,2051.25 3002.67,2078.29 2974.03,2078.89 2996.87,2096.21 2988.55,2123.61 3012.07,2107.25 3035.59,2123.61 3027.27,2096.21 3050.11,2078.89 3021.47,2078.29 
  3012.07,2051.25 
  "/>
<polygon clip-path="url(#clip0602)" style="fill:#3da44d; fill-opacity:1" points="
  3012.07,2059.25 3004.55,2080.88 2981.64,2081.36 2999.91,2095.22 2993.26,2117.14 3012.07,2104.05 3030.89,2117.14 3024.23,2095.22 3042.5,2081.36 3019.59,2080.88 
  3012.07,2059.25 
  "/>
<polygon clip-path="url(#clip0600)" points="
3982.5,776.168 4561.51,776.168 4561.51,534.248 3982.5,534.248 
  " fill="#ffffff" fill-rule="evenodd" fill-opacity="1"/>
<polyline clip-path="url(#clip0600)" style="stroke:#000000; stroke-width:8; stroke-opacity:1; fill:none" points="
  3982.5,776.168 4561.51,776.168 4561.51,534.248 3982.5,534.248 3982.5,776.168 
  "/>
<polyline clip-path="url(#clip0600)" style="stroke:#009af9; stroke-width:8; stroke-opacity:1; fill:none" points="
  4030.5,594.728 4318.5,594.728 
  "/>
<circle clip-path="url(#clip0600)" style="fill:#000000; stroke:none; fill-opacity:1" cx="4198.5" cy="594.728" r="50"/>
<circle clip-path="url(#clip0600)" style="fill:#009af9; stroke:none; fill-opacity:1" cx="4198.5" cy="594.728" r="43"/>
<g clip-path="url(#clip0600)">
<text style="fill:#000000; fill-opacity:1; font-family:Arial,Helvetica Neue,Helvetica,sans-serif; font-size:48px; text-anchor:start;" transform="rotate(0, 4366.5, 612.228)" x="4366.5" y="612.228">PI .5</text>
</g>
<polyline clip-path="url(#clip0600)" style="stroke:#e26f46; stroke-width:8; stroke-opacity:1; fill:none" points="
  4030.5,655.208 4318.5,655.208 
  "/>
<polygon clip-path="url(#clip0600)" style="fill:#000000; fill-opacity:1" points="
  4142.5,599.208 4142.5,711.208 4254.5,711.208 4254.5,599.208 4142.5,599.208 
  "/>
<polygon clip-path="url(#clip0600)" style="fill:#e26f46; fill-opacity:1" points="
  4150.5,607.208 4150.5,703.208 4246.5,703.208 4246.5,607.208 4150.5,607.208 
  "/>
<g clip-path="url(#clip0600)">
<text style="fill:#000000; fill-opacity:1; font-family:Arial,Helvetica Neue,Helvetica,sans-serif; font-size:48px; text-anchor:start;" transform="rotate(0, 4366.5, 672.708)" x="4366.5" y="672.708">PI .6</text>
</g>
<polyline clip-path="url(#clip0600)" style="stroke:#3da44d; stroke-width:8; stroke-opacity:1; fill:none" points="
  4030.5,715.688 4318.5,715.688 
  "/>
<polygon clip-path="url(#clip0600)" style="fill:#000000; fill-opacity:1" points="
  4198.5,659.688 4185.34,697.544 4145.24,698.384 4177.22,722.632 4165.57,760.992 4198.5,738.088 4231.43,760.992 4219.78,722.632 4251.76,698.384 4211.66,697.544 
  4198.5,659.688 
  "/>
<polygon clip-path="url(#clip0600)" style="fill:#3da44d; fill-opacity:1" points="
  4198.5,667.688 4187.22,700.136 4152.85,700.856 4180.26,721.64 4170.28,754.52 4198.5,734.888 4226.72,754.52 4216.74,721.64 4244.15,700.856 4209.78,700.136 
  4198.5,667.688 
  "/>
<g clip-path="url(#clip0600)">
<text style="fill:#000000; fill-opacity:1; font-family:Arial,Helvetica Neue,Helvetica,sans-serif; font-size:48px; text-anchor:start;" transform="rotate(0, 4366.5, 733.188)" x="4366.5" y="733.188">PI .7</text>
</g>
</svg>
