<?xml version="1.0" encoding="utf-8"?>
<svg xmlns="http://www.w3.org/2000/svg" xmlns:xlink="http://www.w3.org/1999/xlink" width="1200" height="800" viewBox="0 0 4800 3200">
<defs>
  <clipPath id="clip7400">
    <rect x="0" y="0" width="4800" height="3200"/>
  </clipPath>
</defs>
<polygon clip-path="url(#clip7400)" points="
0,3200 4800,3200 4800,0 0,0 
  " fill="#ffffff" fill-rule="evenodd" fill-opacity="1"/>
<defs>
  <clipPath id="clip7401">
    <rect x="960" y="0" width="3361" height="3200"/>
  </clipPath>
</defs>
<polygon clip-path="url(#clip7400)" points="
1065.3,2747.94 4705.51,2747.94 4705.51,306.728 1065.3,306.728 
  " fill="#ffffff" fill-rule="evenodd" fill-opacity="1"/>
<defs>
  <clipPath id="clip7402">
    <rect x="1065" y="306" width="3641" height="2442"/>
  </clipPath>
</defs>
<polyline clip-path="url(#clip7402)" style="stroke:#000000; stroke-width:4; stroke-opacity:0.1; fill:none" points="
  1646.86,2747.94 1646.86,306.728 
  "/>
<polyline clip-path="url(#clip7402)" style="stroke:#000000; stroke-width:4; stroke-opacity:0.1; fill:none" points="
  2495.42,2747.94 2495.42,306.728 
  "/>
<polyline clip-path="url(#clip7402)" style="stroke:#000000; stroke-width:4; stroke-opacity:0.1; fill:none" points="
  3343.98,2747.94 3343.98,306.728 
  "/>
<polyline clip-path="url(#clip7402)" style="stroke:#000000; stroke-width:4; stroke-opacity:0.1; fill:none" points="
  4192.54,2747.94 4192.54,306.728 
  "/>
<polyline clip-path="url(#clip7402)" style="stroke:#000000; stroke-width:4; stroke-opacity:0.1; fill:none" points="
  1065.3,2465.21 4705.51,2465.21 
  "/>
<polyline clip-path="url(#clip7402)" style="stroke:#000000; stroke-width:4; stroke-opacity:0.1; fill:none" points="
  1065.3,1998.1 4705.51,1998.1 
  "/>
<polyline clip-path="url(#clip7402)" style="stroke:#000000; stroke-width:4; stroke-opacity:0.1; fill:none" points="
  1065.3,1530.99 4705.51,1530.99 
  "/>
<polyline clip-path="url(#clip7402)" style="stroke:#000000; stroke-width:4; stroke-opacity:0.1; fill:none" points="
  1065.3,1063.88 4705.51,1063.88 
  "/>
<polyline clip-path="url(#clip7402)" style="stroke:#000000; stroke-width:4; stroke-opacity:0.1; fill:none" points="
  1065.3,596.773 4705.51,596.773 
  "/>
<polyline clip-path="url(#clip7400)" style="stroke:#000000; stroke-width:8; stroke-opacity:1; fill:none" points="
  1065.3,2747.94 4705.51,2747.94 
  "/>
<polyline clip-path="url(#clip7400)" style="stroke:#000000; stroke-width:8; stroke-opacity:1; fill:none" points="
  1065.3,2747.94 1065.3,306.728 
  "/>
<polyline clip-path="url(#clip7400)" style="stroke:#000000; stroke-width:8; stroke-opacity:1; fill:none" points="
  1646.86,2747.94 1646.86,2711.33 
  "/>
<polyline clip-path="url(#clip7400)" style="stroke:#000000; stroke-width:8; stroke-opacity:1; fill:none" points="
  2495.42,2747.94 2495.42,2711.33 
  "/>
<polyline clip-path="url(#clip7400)" style="stroke:#000000; stroke-width:8; stroke-opacity:1; fill:none" points="
  3343.98,2747.94 3343.98,2711.33 
  "/>
<polyline clip-path="url(#clip7400)" style="stroke:#000000; stroke-width:8; stroke-opacity:1; fill:none" points="
  4192.54,2747.94 4192.54,2711.33 
  "/>
<polyline clip-path="url(#clip7400)" style="stroke:#000000; stroke-width:8; stroke-opacity:1; fill:none" points="
  1065.3,2465.21 1119.91,2465.21 
  "/>
<polyline clip-path="url(#clip7400)" style="stroke:#000000; stroke-width:8; stroke-opacity:1; fill:none" points="
  1065.3,1998.1 1119.91,1998.1 
  "/>
<polyline clip-path="url(#clip7400)" style="stroke:#000000; stroke-width:8; stroke-opacity:1; fill:none" points="
  1065.3,1530.99 1119.91,1530.99 
  "/>
<polyline clip-path="url(#clip7400)" style="stroke:#000000; stroke-width:8; stroke-opacity:1; fill:none" points="
  1065.3,1063.88 1119.91,1063.88 
  "/>
<polyline clip-path="url(#clip7400)" style="stroke:#000000; stroke-width:8; stroke-opacity:1; fill:none" points="
  1065.3,596.773 1119.91,596.773 
  "/>
<g clip-path="url(#clip7400)">
<text style="fill:#000000; fill-opacity:1; font-family:Arial,Helvetica Neue,Helvetica,sans-serif; font-size:95px; text-anchor:start;" transform="rotate(0, 1461.78, 2897.96)" x="1461.78" y="2897.96">10</text>
</g>
<g clip-path="url(#clip7400)">
<text style="fill:#000000; fill-opacity:1; font-family:Arial,Helvetica Neue,Helvetica,sans-serif; font-size:77px; text-anchor:start;" transform="rotate(0, 1568.83, 2843.14)" x="1568.83" y="2843.14">-</text>
</g>
<g clip-path="url(#clip7400)">
<text style="fill:#000000; fill-opacity:1; font-family:Arial,Helvetica Neue,Helvetica,sans-serif; font-size:77px; text-anchor:start;" transform="rotate(0, 1614.5, 2843.14)" x="1614.5" y="2843.14">1.925 </text>
</g>
<g clip-path="url(#clip7400)">
<text style="fill:#000000; fill-opacity:1; font-family:Arial,Helvetica Neue,Helvetica,sans-serif; font-size:95px; text-anchor:start;" transform="rotate(0, 2310.34, 2897.96)" x="2310.34" y="2897.96">10</text>
</g>
<g clip-path="url(#clip7400)">
<text style="fill:#000000; fill-opacity:1; font-family:Arial,Helvetica Neue,Helvetica,sans-serif; font-size:77px; text-anchor:start;" transform="rotate(0, 2417.38, 2843.14)" x="2417.38" y="2843.14">-</text>
</g>
<g clip-path="url(#clip7400)">
<text style="fill:#000000; fill-opacity:1; font-family:Arial,Helvetica Neue,Helvetica,sans-serif; font-size:77px; text-anchor:start;" transform="rotate(0, 2463.06, 2843.14)" x="2463.06" y="2843.14">1.920 </text>
</g>
<g clip-path="url(#clip7400)">
<text style="fill:#000000; fill-opacity:1; font-family:Arial,Helvetica Neue,Helvetica,sans-serif; font-size:95px; text-anchor:start;" transform="rotate(0, 3158.89, 2897.96)" x="3158.89" y="2897.96">10</text>
</g>
<g clip-path="url(#clip7400)">
<text style="fill:#000000; fill-opacity:1; font-family:Arial,Helvetica Neue,Helvetica,sans-serif; font-size:77px; text-anchor:start;" transform="rotate(0, 3265.94, 2843.14)" x="3265.94" y="2843.14">-</text>
</g>
<g clip-path="url(#clip7400)">
<text style="fill:#000000; fill-opacity:1; font-family:Arial,Helvetica Neue,Helvetica,sans-serif; font-size:77px; text-anchor:start;" transform="rotate(0, 3311.62, 2843.14)" x="3311.62" y="2843.14">1.915 </text>
</g>
<g clip-path="url(#clip7400)">
<text style="fill:#000000; fill-opacity:1; font-family:Arial,Helvetica Neue,Helvetica,sans-serif; font-size:95px; text-anchor:start;" transform="rotate(0, 4007.45, 2897.96)" x="4007.45" y="2897.96">10</text>
</g>
<g clip-path="url(#clip7400)">
<text style="fill:#000000; fill-opacity:1; font-family:Arial,Helvetica Neue,Helvetica,sans-serif; font-size:77px; text-anchor:start;" transform="rotate(0, 4114.5, 2843.14)" x="4114.5" y="2843.14">-</text>
</g>
<g clip-path="url(#clip7400)">
<text style="fill:#000000; fill-opacity:1; font-family:Arial,Helvetica Neue,Helvetica,sans-serif; font-size:77px; text-anchor:start;" transform="rotate(0, 4160.18, 2843.14)" x="4160.18" y="2843.14">1.910 </text>
</g>
<g clip-path="url(#clip7400)">
<text style="fill:#000000; fill-opacity:1; font-family:Arial,Helvetica Neue,Helvetica,sans-serif; font-size:95px; text-anchor:start;" transform="rotate(0, 647.132, 2512.67)" x="647.132" y="2512.67">10</text>
</g>
<g clip-path="url(#clip7400)">
<text style="fill:#000000; fill-opacity:1; font-family:Arial,Helvetica Neue,Helvetica,sans-serif; font-size:77px; text-anchor:start;" transform="rotate(0, 754.181, 2457.85)" x="754.181" y="2457.85">-</text>
</g>
<g clip-path="url(#clip7400)">
<text style="fill:#000000; fill-opacity:1; font-family:Arial,Helvetica Neue,Helvetica,sans-serif; font-size:77px; text-anchor:start;" transform="rotate(0, 799.86, 2457.85)" x="799.86" y="2457.85">1.100 </text>
</g>
<g clip-path="url(#clip7400)">
<text style="fill:#000000; fill-opacity:1; font-family:Arial,Helvetica Neue,Helvetica,sans-serif; font-size:95px; text-anchor:start;" transform="rotate(0, 647.132, 2045.56)" x="647.132" y="2045.56">10</text>
</g>
<g clip-path="url(#clip7400)">
<text style="fill:#000000; fill-opacity:1; font-family:Arial,Helvetica Neue,Helvetica,sans-serif; font-size:77px; text-anchor:start;" transform="rotate(0, 754.181, 1990.74)" x="754.181" y="1990.74">-</text>
</g>
<g clip-path="url(#clip7400)">
<text style="fill:#000000; fill-opacity:1; font-family:Arial,Helvetica Neue,Helvetica,sans-serif; font-size:77px; text-anchor:start;" transform="rotate(0, 799.86, 1990.74)" x="799.86" y="1990.74">1.075 </text>
</g>
<g clip-path="url(#clip7400)">
<text style="fill:#000000; fill-opacity:1; font-family:Arial,Helvetica Neue,Helvetica,sans-serif; font-size:95px; text-anchor:start;" transform="rotate(0, 647.132, 1578.45)" x="647.132" y="1578.45">10</text>
</g>
<g clip-path="url(#clip7400)">
<text style="fill:#000000; fill-opacity:1; font-family:Arial,Helvetica Neue,Helvetica,sans-serif; font-size:77px; text-anchor:start;" transform="rotate(0, 754.181, 1523.63)" x="754.181" y="1523.63">-</text>
</g>
<g clip-path="url(#clip7400)">
<text style="fill:#000000; fill-opacity:1; font-family:Arial,Helvetica Neue,Helvetica,sans-serif; font-size:77px; text-anchor:start;" transform="rotate(0, 799.86, 1523.63)" x="799.86" y="1523.63">1.050 </text>
</g>
<g clip-path="url(#clip7400)">
<text style="fill:#000000; fill-opacity:1; font-family:Arial,Helvetica Neue,Helvetica,sans-serif; font-size:95px; text-anchor:start;" transform="rotate(0, 647.132, 1111.34)" x="647.132" y="1111.34">10</text>
</g>
<g clip-path="url(#clip7400)">
<text style="fill:#000000; fill-opacity:1; font-family:Arial,Helvetica Neue,Helvetica,sans-serif; font-size:77px; text-anchor:start;" transform="rotate(0, 754.181, 1056.52)" x="754.181" y="1056.52">-</text>
</g>
<g clip-path="url(#clip7400)">
<text style="fill:#000000; fill-opacity:1; font-family:Arial,Helvetica Neue,Helvetica,sans-serif; font-size:77px; text-anchor:start;" transform="rotate(0, 799.86, 1056.52)" x="799.86" y="1056.52">1.025 </text>
</g>
<g clip-path="url(#clip7400)">
<text style="fill:#000000; fill-opacity:1; font-family:Arial,Helvetica Neue,Helvetica,sans-serif; font-size:95px; text-anchor:start;" transform="rotate(0, 647.132, 644.228)" x="647.132" y="644.228">10</text>
</g>
<g clip-path="url(#clip7400)">
<text style="fill:#000000; fill-opacity:1; font-family:Arial,Helvetica Neue,Helvetica,sans-serif; font-size:77px; text-anchor:start;" transform="rotate(0, 754.181, 589.408)" x="754.181" y="589.408">-</text>
</g>
<g clip-path="url(#clip7400)">
<text style="fill:#000000; fill-opacity:1; font-family:Arial,Helvetica Neue,Helvetica,sans-serif; font-size:77px; text-anchor:start;" transform="rotate(0, 799.86, 589.408)" x="799.86" y="589.408">1.000 </text>
</g>
<g clip-path="url(#clip7400)">
<text style="fill:#000000; fill-opacity:1; font-family:Arial,Helvetica Neue,Helvetica,sans-serif; font-size:166px; text-anchor:middle;" transform="rotate(0, 2885.41, 145.2)" x="2885.41" y="145.2">ROCK2 PI_Hires_OnlySpeed</text>
</g>
<g clip-path="url(#clip7400)">
<text style="fill:#000000; fill-opacity:1; font-family:Arial,Helvetica Neue,Helvetica,sans-serif; font-size:130px; text-anchor:middle;" transform="rotate(0, 2885.41, 3015.87)" x="2885.41" y="3015.87">Error</text>
</g>
<g clip-path="url(#clip7400)">
<text style="fill:#000000; fill-opacity:1; font-family:Arial,Helvetica Neue,Helvetica,sans-serif; font-size:130px; text-anchor:middle;" transform="rotate(-90, 495.7, 1527.34)" x="495.7" y="1527.34">Time (s)</text>
</g>
<polyline clip-path="url(#clip7402)" style="stroke:#009af9; stroke-width:8; stroke-opacity:1; fill:none" points="
  4602.49,2678.85 4395.48,1971.53 4356.81,1991.97 4110.09,2027.51 
  "/>
<circle clip-path="url(#clip7402)" style="fill:#000000; stroke:none; fill-opacity:1" cx="4602.49" cy="2678.85" r="36"/>
<circle clip-path="url(#clip7402)" style="fill:#009af9; stroke:none; fill-opacity:1" cx="4602.49" cy="2678.85" r="28"/>
<circle clip-path="url(#clip7402)" style="fill:#000000; stroke:none; fill-opacity:1" cx="4395.48" cy="1971.53" r="36"/>
<circle clip-path="url(#clip7402)" style="fill:#009af9; stroke:none; fill-opacity:1" cx="4395.48" cy="1971.53" r="28"/>
<circle clip-path="url(#clip7402)" style="fill:#000000; stroke:none; fill-opacity:1" cx="4356.81" cy="1991.97" r="36"/>
<circle clip-path="url(#clip7402)" style="fill:#009af9; stroke:none; fill-opacity:1" cx="4356.81" cy="1991.97" r="28"/>
<circle clip-path="url(#clip7402)" style="fill:#000000; stroke:none; fill-opacity:1" cx="4110.09" cy="2027.51" r="36"/>
<circle clip-path="url(#clip7402)" style="fill:#009af9; stroke:none; fill-opacity:1" cx="4110.09" cy="2027.51" r="28"/>
<polyline clip-path="url(#clip7402)" style="stroke:#e26f46; stroke-width:8; stroke-opacity:1; fill:none" points="
  4330.72,2203.98 4227.4,2192.2 4288.03,2145.91 3895.4,1895.99 
  "/>
<polygon clip-path="url(#clip7402)" style="fill:#000000; fill-opacity:1" points="
  4290.72,2163.98 4290.72,2243.98 4370.72,2243.98 4370.72,2163.98 4290.72,2163.98 
  "/>
<polygon clip-path="url(#clip7402)" style="fill:#e26f46; fill-opacity:1" points="
  4298.72,2171.98 4298.72,2235.98 4362.72,2235.98 4362.72,2171.98 4298.72,2171.98 
  "/>
<polygon clip-path="url(#clip7402)" style="fill:#000000; fill-opacity:1" points="
  4187.4,2152.2 4187.4,2232.2 4267.4,2232.2 4267.4,2152.2 4187.4,2152.2 
  "/>
<polygon clip-path="url(#clip7402)" style="fill:#e26f46; fill-opacity:1" points="
  4195.4,2160.2 4195.4,2224.2 4259.4,2224.2 4259.4,2160.2 4195.4,2160.2 
  "/>
<polygon clip-path="url(#clip7402)" style="fill:#000000; fill-opacity:1" points="
  4248.03,2105.91 4248.03,2185.91 4328.03,2185.91 4328.03,2105.91 4248.03,2105.91 
  "/>
<polygon clip-path="url(#clip7402)" style="fill:#e26f46; fill-opacity:1" points="
  4256.03,2113.91 4256.03,2177.91 4320.03,2177.91 4320.03,2113.91 4256.03,2113.91 
  "/>
<polygon clip-path="url(#clip7402)" style="fill:#000000; fill-opacity:1" points="
  3855.4,1855.99 3855.4,1935.99 3935.4,1935.99 3935.4,1855.99 3855.4,1855.99 
  "/>
<polygon clip-path="url(#clip7402)" style="fill:#e26f46; fill-opacity:1" points="
  3863.4,1863.99 3863.4,1927.99 3927.4,1927.99 3927.4,1863.99 3863.4,1863.99 
  "/>
<polyline clip-path="url(#clip7402)" style="stroke:#3da44d; stroke-width:8; stroke-opacity:1; fill:none" points="
  4326.83,2137.98 4212.3,2146.98 4201.37,2015.24 2898.56,1723.4 
  "/>
<polygon clip-path="url(#clip7402)" style="fill:#000000; fill-opacity:1" points="
  4326.83,2097.98 4317.43,2125.02 4288.79,2125.62 4311.63,2142.94 4303.31,2170.34 4326.83,2153.98 4350.35,2170.34 4342.03,2142.94 4364.87,2125.62 4336.23,2125.02 
  4326.83,2097.98 
  "/>
<polygon clip-path="url(#clip7402)" style="fill:#3da44d; fill-opacity:1" points="
  4326.83,2105.98 4319.31,2127.61 4296.4,2128.09 4314.67,2141.95 4308.01,2163.87 4326.83,2150.78 4345.65,2163.87 4338.99,2141.95 4357.26,2128.09 4334.35,2127.61 
  4326.83,2105.98 
  "/>
<polygon clip-path="url(#clip7402)" style="fill:#000000; fill-opacity:1" points="
  4212.3,2106.98 4202.9,2134.02 4174.26,2134.62 4197.1,2151.94 4188.78,2179.34 4212.3,2162.98 4235.82,2179.34 4227.5,2151.94 4250.34,2134.62 4221.7,2134.02 
  4212.3,2106.98 
  "/>
<polygon clip-path="url(#clip7402)" style="fill:#3da44d; fill-opacity:1" points="
  4212.3,2114.98 4204.78,2136.61 4181.86,2137.09 4200.14,2150.95 4193.48,2172.87 4212.3,2159.78 4231.11,2172.87 4224.46,2150.95 4242.73,2137.09 4219.82,2136.61 
  4212.3,2114.98 
  "/>
<polygon clip-path="url(#clip7402)" style="fill:#000000; fill-opacity:1" points="
  4201.37,1975.24 4191.97,2002.28 4163.33,2002.88 4186.17,2020.2 4177.85,2047.6 4201.37,2031.24 4224.89,2047.6 4216.57,2020.2 4239.41,2002.88 4210.77,2002.28 
  4201.37,1975.24 
  "/>
<polygon clip-path="url(#clip7402)" style="fill:#3da44d; fill-opacity:1" points="
  4201.37,1983.24 4193.85,2004.88 4170.94,2005.36 4189.21,2019.21 4182.56,2041.13 4201.37,2028.04 4220.19,2041.13 4213.53,2019.21 4231.81,2005.36 4208.89,2004.88 
  4201.37,1983.24 
  "/>
<polygon clip-path="url(#clip7402)" style="fill:#000000; fill-opacity:1" points="
  2898.56,1683.4 2889.16,1710.44 2860.52,1711.04 2883.36,1728.36 2875.04,1755.76 2898.56,1739.4 2922.08,1755.76 2913.76,1728.36 2936.6,1711.04 2907.96,1710.44 
  2898.56,1683.4 
  "/>
<polygon clip-path="url(#clip7402)" style="fill:#3da44d; fill-opacity:1" points="
  2898.56,1691.4 2891.04,1713.03 2868.13,1713.51 2886.4,1727.36 2879.75,1749.28 2898.56,1736.2 2917.38,1749.28 2910.72,1727.36 2929,1713.51 2906.08,1713.03 
  2898.56,1691.4 
  "/>
<polyline clip-path="url(#clip7402)" style="stroke:#c271d2; stroke-width:8; stroke-opacity:1; fill:none" points="
  4241.18,2185 4156.98,1919.89 3904.82,1907.73 1972.81,1264.95 
  "/>
<polygon clip-path="url(#clip7402)" style="fill:#000000; fill-opacity:1" points="
  4241.18,2145 4201.18,2185 4241.18,2225 4281.18,2185 4241.18,2145 
  "/>
<polygon clip-path="url(#clip7402)" style="fill:#c271d2; fill-opacity:1" points="
  4241.18,2153 4209.18,2185 4241.18,2217 4273.18,2185 4241.18,2153 
  "/>
<polygon clip-path="url(#clip7402)" style="fill:#000000; fill-opacity:1" points="
  4156.98,1879.89 4116.98,1919.89 4156.98,1959.89 4196.98,1919.89 4156.98,1879.89 
  "/>
<polygon clip-path="url(#clip7402)" style="fill:#c271d2; fill-opacity:1" points="
  4156.98,1887.89 4124.98,1919.89 4156.98,1951.89 4188.98,1919.89 4156.98,1887.89 
  "/>
<polygon clip-path="url(#clip7402)" style="fill:#000000; fill-opacity:1" points="
  3904.82,1867.73 3864.82,1907.73 3904.82,1947.73 3944.82,1907.73 3904.82,1867.73 
  "/>
<polygon clip-path="url(#clip7402)" style="fill:#c271d2; fill-opacity:1" points="
  3904.82,1875.73 3872.82,1907.73 3904.82,1939.73 3936.82,1907.73 3904.82,1875.73 
  "/>
<polygon clip-path="url(#clip7402)" style="fill:#000000; fill-opacity:1" points="
  1972.81,1224.95 1932.81,1264.95 1972.81,1304.95 2012.81,1264.95 1972.81,1224.95 
  "/>
<polygon clip-path="url(#clip7402)" style="fill:#c271d2; fill-opacity:1" points="
  1972.81,1232.95 1940.81,1264.95 1972.81,1296.95 2004.81,1264.95 1972.81,1232.95 
  "/>
<polyline clip-path="url(#clip7402)" style="stroke:#ac8d18; stroke-width:8; stroke-opacity:1; fill:none" points="
  4230.43,2054.52 4064.82,2020.78 2872.49,1690.47 1168.33,375.819 
  "/>
<polygon clip-path="url(#clip7402)" style="fill:#000000; fill-opacity:1" points="
  4230.43,2094.52 4195.79,2074.52 4195.79,2034.52 4230.43,2014.52 4265.07,2034.52 4265.07,2074.52 
  "/>
<polygon clip-path="url(#clip7402)" style="fill:#ac8d18; fill-opacity:1" points="
  4230.43,2086.52 4202.72,2070.52 4202.72,2038.52 4230.43,2022.52 4258.14,2038.52 4258.14,2070.52 
  "/>
<polygon clip-path="url(#clip7402)" style="fill:#000000; fill-opacity:1" points="
  4064.82,2060.78 4030.18,2040.78 4030.18,2000.78 4064.82,1980.78 4099.46,2000.78 4099.46,2040.78 
  "/>
<polygon clip-path="url(#clip7402)" style="fill:#ac8d18; fill-opacity:1" points="
  4064.82,2052.78 4037.1,2036.78 4037.1,2004.78 4064.82,1988.78 4092.53,2004.78 4092.53,2036.78 
  "/>
<polygon clip-path="url(#clip7402)" style="fill:#000000; fill-opacity:1" points="
  2872.49,1730.47 2837.85,1710.47 2837.85,1670.47 2872.49,1650.47 2907.13,1670.47 2907.13,1710.47 
  "/>
<polygon clip-path="url(#clip7402)" style="fill:#ac8d18; fill-opacity:1" points="
  2872.49,1722.47 2844.78,1706.47 2844.78,1674.47 2872.49,1658.47 2900.2,1674.47 2900.2,1706.47 
  "/>
<polygon clip-path="url(#clip7402)" style="fill:#000000; fill-opacity:1" points="
  1168.33,415.819 1133.69,395.819 1133.69,355.819 1168.33,335.819 1202.97,355.819 1202.97,395.819 
  "/>
<polygon clip-path="url(#clip7402)" style="fill:#ac8d18; fill-opacity:1" points="
  1168.33,407.819 1140.62,391.819 1140.62,359.819 1168.33,343.819 1196.04,359.819 1196.04,391.819 
  "/>
<polygon clip-path="url(#clip7400)" points="
4041.37,897.128 4561.51,897.128 4561.51,534.248 4041.37,534.248 
  " fill="#ffffff" fill-rule="evenodd" fill-opacity="1"/>
<polyline clip-path="url(#clip7400)" style="stroke:#000000; stroke-width:8; stroke-opacity:1; fill:none" points="
  4041.37,897.128 4561.51,897.128 4561.51,534.248 4041.37,534.248 4041.37,897.128 
  "/>
<polyline clip-path="url(#clip7400)" style="stroke:#009af9; stroke-width:8; stroke-opacity:1; fill:none" points="
  4089.37,594.728 4377.37,594.728 
  "/>
<circle clip-path="url(#clip7400)" style="fill:#000000; stroke:none; fill-opacity:1" cx="4257.37" cy="594.728" r="50"/>
<circle clip-path="url(#clip7400)" style="fill:#009af9; stroke:none; fill-opacity:1" cx="4257.37" cy="594.728" r="43"/>
<g clip-path="url(#clip7400)">
<text style="fill:#000000; fill-opacity:1; font-family:Arial,Helvetica Neue,Helvetica,sans-serif; font-size:48px; text-anchor:start;" transform="rotate(0, 4425.37, 612.228)" x="4425.37" y="612.228">.9</text>
</g>
<polyline clip-path="url(#clip7400)" style="stroke:#e26f46; stroke-width:8; stroke-opacity:1; fill:none" points="
  4089.37,655.208 4377.37,655.208 
  "/>
<polygon clip-path="url(#clip7400)" style="fill:#000000; fill-opacity:1" points="
  4201.37,599.208 4201.37,711.208 4313.37,711.208 4313.37,599.208 4201.37,599.208 
  "/>
<polygon clip-path="url(#clip7400)" style="fill:#e26f46; fill-opacity:1" points="
  4209.37,607.208 4209.37,703.208 4305.37,703.208 4305.37,607.208 4209.37,607.208 
  "/>
<g clip-path="url(#clip7400)">
<text style="fill:#000000; fill-opacity:1; font-family:Arial,Helvetica Neue,Helvetica,sans-serif; font-size:48px; text-anchor:start;" transform="rotate(0, 4425.37, 672.708)" x="4425.37" y="672.708">.8</text>
</g>
<polyline clip-path="url(#clip7400)" style="stroke:#3da44d; stroke-width:8; stroke-opacity:1; fill:none" points="
  4089.37,715.688 4377.37,715.688 
  "/>
<polygon clip-path="url(#clip7400)" style="fill:#000000; fill-opacity:1" points="
  4257.37,659.688 4244.21,697.544 4204.11,698.384 4236.09,722.632 4224.44,760.992 4257.37,738.088 4290.3,760.992 4278.65,722.632 4310.62,698.384 4270.53,697.544 
  4257.37,659.688 
  "/>
<polygon clip-path="url(#clip7400)" style="fill:#3da44d; fill-opacity:1" points="
  4257.37,667.688 4246.09,700.136 4211.72,700.856 4239.13,721.64 4229.14,754.52 4257.37,734.888 4285.59,754.52 4275.61,721.64 4303.02,700.856 4268.65,700.136 
  4257.37,667.688 
  "/>
<g clip-path="url(#clip7400)">
<text style="fill:#000000; fill-opacity:1; font-family:Arial,Helvetica Neue,Helvetica,sans-serif; font-size:48px; text-anchor:start;" transform="rotate(0, 4425.37, 733.188)" x="4425.37" y="733.188">.7</text>
</g>
<polyline clip-path="url(#clip7400)" style="stroke:#c271d2; stroke-width:8; stroke-opacity:1; fill:none" points="
  4089.37,776.168 4377.37,776.168 
  "/>
<polygon clip-path="url(#clip7400)" style="fill:#000000; fill-opacity:1" points="
  4257.37,720.168 4201.37,776.168 4257.37,832.168 4313.37,776.168 4257.37,720.168 
  "/>
<polygon clip-path="url(#clip7400)" style="fill:#c271d2; fill-opacity:1" points="
  4257.37,728.168 4209.37,776.168 4257.37,824.168 4305.37,776.168 4257.37,728.168 
  "/>
<g clip-path="url(#clip7400)">
<text style="fill:#000000; fill-opacity:1; font-family:Arial,Helvetica Neue,Helvetica,sans-serif; font-size:48px; text-anchor:start;" transform="rotate(0, 4425.37, 793.668)" x="4425.37" y="793.668">.6</text>
</g>
<polyline clip-path="url(#clip7400)" style="stroke:#ac8d18; stroke-width:8; stroke-opacity:1; fill:none" points="
  4089.37,836.648 4377.37,836.648 
  "/>
<polygon clip-path="url(#clip7400)" style="fill:#000000; fill-opacity:1" points="
  4257.37,892.648 4208.87,864.648 4208.87,808.648 4257.37,780.648 4305.86,808.648 4305.86,864.648 
  "/>
<polygon clip-path="url(#clip7400)" style="fill:#ac8d18; fill-opacity:1" points="
  4257.37,884.648 4215.8,860.648 4215.8,812.648 4257.37,788.648 4298.94,812.648 4298.94,860.648 
  "/>
<g clip-path="url(#clip7400)">
<text style="fill:#000000; fill-opacity:1; font-family:Arial,Helvetica Neue,Helvetica,sans-serif; font-size:48px; text-anchor:start;" transform="rotate(0, 4425.37, 854.148)" x="4425.37" y="854.148">.5</text>
</g>
</svg>
