<?xml version="1.0" encoding="utf-8"?>
<svg xmlns="http://www.w3.org/2000/svg" xmlns:xlink="http://www.w3.org/1999/xlink" width="1200" height="800" viewBox="0 0 4800 3200">
<defs>
  <clipPath id="clip9100">
    <rect x="0" y="0" width="4800" height="3200"/>
  </clipPath>
</defs>
<polygon clip-path="url(#clip9100)" points="
0,3200 4800,3200 4800,0 0,0 
  " fill="#ffffff" fill-rule="evenodd" fill-opacity="1"/>
<defs>
  <clipPath id="clip9101">
    <rect x="960" y="0" width="3361" height="3200"/>
  </clipPath>
</defs>
<polygon clip-path="url(#clip9100)" points="
982.876,2747.94 4705.51,2747.94 4705.51,306.728 982.876,306.728 
  " fill="#ffffff" fill-rule="evenodd" fill-opacity="1"/>
<defs>
  <clipPath id="clip9102">
    <rect x="982" y="306" width="3724" height="2442"/>
  </clipPath>
</defs>
<polyline clip-path="url(#clip9102)" style="stroke:#000000; stroke-width:4; stroke-opacity:0.1; fill:none" points="
  1564.2,2747.94 1564.2,306.728 
  "/>
<polyline clip-path="url(#clip9102)" style="stroke:#000000; stroke-width:4; stroke-opacity:0.1; fill:none" points="
  2408.2,2747.94 2408.2,306.728 
  "/>
<polyline clip-path="url(#clip9102)" style="stroke:#000000; stroke-width:4; stroke-opacity:0.1; fill:none" points="
  3252.2,2747.94 3252.2,306.728 
  "/>
<polyline clip-path="url(#clip9102)" style="stroke:#000000; stroke-width:4; stroke-opacity:0.1; fill:none" points="
  4096.2,2747.94 4096.2,306.728 
  "/>
<polyline clip-path="url(#clip9102)" style="stroke:#000000; stroke-width:4; stroke-opacity:0.1; fill:none" points="
  982.876,2548.51 4705.51,2548.51 
  "/>
<polyline clip-path="url(#clip9102)" style="stroke:#000000; stroke-width:4; stroke-opacity:0.1; fill:none" points="
  982.876,2218.88 4705.51,2218.88 
  "/>
<polyline clip-path="url(#clip9102)" style="stroke:#000000; stroke-width:4; stroke-opacity:0.1; fill:none" points="
  982.876,1889.25 4705.51,1889.25 
  "/>
<polyline clip-path="url(#clip9102)" style="stroke:#000000; stroke-width:4; stroke-opacity:0.1; fill:none" points="
  982.876,1559.62 4705.51,1559.62 
  "/>
<polyline clip-path="url(#clip9102)" style="stroke:#000000; stroke-width:4; stroke-opacity:0.1; fill:none" points="
  982.876,1229.99 4705.51,1229.99 
  "/>
<polyline clip-path="url(#clip9102)" style="stroke:#000000; stroke-width:4; stroke-opacity:0.1; fill:none" points="
  982.876,900.355 4705.51,900.355 
  "/>
<polyline clip-path="url(#clip9102)" style="stroke:#000000; stroke-width:4; stroke-opacity:0.1; fill:none" points="
  982.876,570.723 4705.51,570.723 
  "/>
<polyline clip-path="url(#clip9100)" style="stroke:#000000; stroke-width:8; stroke-opacity:1; fill:none" points="
  982.876,2747.94 4705.51,2747.94 
  "/>
<polyline clip-path="url(#clip9100)" style="stroke:#000000; stroke-width:8; stroke-opacity:1; fill:none" points="
  982.876,2747.94 982.876,306.728 
  "/>
<polyline clip-path="url(#clip9100)" style="stroke:#000000; stroke-width:8; stroke-opacity:1; fill:none" points="
  1564.2,2747.94 1564.2,2711.33 
  "/>
<polyline clip-path="url(#clip9100)" style="stroke:#000000; stroke-width:8; stroke-opacity:1; fill:none" points="
  2408.2,2747.94 2408.2,2711.33 
  "/>
<polyline clip-path="url(#clip9100)" style="stroke:#000000; stroke-width:8; stroke-opacity:1; fill:none" points="
  3252.2,2747.94 3252.2,2711.33 
  "/>
<polyline clip-path="url(#clip9100)" style="stroke:#000000; stroke-width:8; stroke-opacity:1; fill:none" points="
  4096.2,2747.94 4096.2,2711.33 
  "/>
<polyline clip-path="url(#clip9100)" style="stroke:#000000; stroke-width:8; stroke-opacity:1; fill:none" points="
  982.876,2548.51 1038.72,2548.51 
  "/>
<polyline clip-path="url(#clip9100)" style="stroke:#000000; stroke-width:8; stroke-opacity:1; fill:none" points="
  982.876,2218.88 1038.72,2218.88 
  "/>
<polyline clip-path="url(#clip9100)" style="stroke:#000000; stroke-width:8; stroke-opacity:1; fill:none" points="
  982.876,1889.25 1038.72,1889.25 
  "/>
<polyline clip-path="url(#clip9100)" style="stroke:#000000; stroke-width:8; stroke-opacity:1; fill:none" points="
  982.876,1559.62 1038.72,1559.62 
  "/>
<polyline clip-path="url(#clip9100)" style="stroke:#000000; stroke-width:8; stroke-opacity:1; fill:none" points="
  982.876,1229.99 1038.72,1229.99 
  "/>
<polyline clip-path="url(#clip9100)" style="stroke:#000000; stroke-width:8; stroke-opacity:1; fill:none" points="
  982.876,900.355 1038.72,900.355 
  "/>
<polyline clip-path="url(#clip9100)" style="stroke:#000000; stroke-width:8; stroke-opacity:1; fill:none" points="
  982.876,570.723 1038.72,570.723 
  "/>
<g clip-path="url(#clip9100)">
<text style="fill:#000000; fill-opacity:1; font-family:Arial,Helvetica Neue,Helvetica,sans-serif; font-size:95px; text-anchor:start;" transform="rotate(0, 1379.11, 2897.96)" x="1379.11" y="2897.96">10</text>
</g>
<g clip-path="url(#clip9100)">
<text style="fill:#000000; fill-opacity:1; font-family:Arial,Helvetica Neue,Helvetica,sans-serif; font-size:77px; text-anchor:start;" transform="rotate(0, 1486.16, 2843.14)" x="1486.16" y="2843.14">-</text>
</g>
<g clip-path="url(#clip9100)">
<text style="fill:#000000; fill-opacity:1; font-family:Arial,Helvetica Neue,Helvetica,sans-serif; font-size:77px; text-anchor:start;" transform="rotate(0, 1531.84, 2843.14)" x="1531.84" y="2843.14">1.925 </text>
</g>
<g clip-path="url(#clip9100)">
<text style="fill:#000000; fill-opacity:1; font-family:Arial,Helvetica Neue,Helvetica,sans-serif; font-size:95px; text-anchor:start;" transform="rotate(0, 2223.11, 2897.96)" x="2223.11" y="2897.96">10</text>
</g>
<g clip-path="url(#clip9100)">
<text style="fill:#000000; fill-opacity:1; font-family:Arial,Helvetica Neue,Helvetica,sans-serif; font-size:77px; text-anchor:start;" transform="rotate(0, 2330.16, 2843.14)" x="2330.16" y="2843.14">-</text>
</g>
<g clip-path="url(#clip9100)">
<text style="fill:#000000; fill-opacity:1; font-family:Arial,Helvetica Neue,Helvetica,sans-serif; font-size:77px; text-anchor:start;" transform="rotate(0, 2375.84, 2843.14)" x="2375.84" y="2843.14">1.920 </text>
</g>
<g clip-path="url(#clip9100)">
<text style="fill:#000000; fill-opacity:1; font-family:Arial,Helvetica Neue,Helvetica,sans-serif; font-size:95px; text-anchor:start;" transform="rotate(0, 3067.11, 2897.96)" x="3067.11" y="2897.96">10</text>
</g>
<g clip-path="url(#clip9100)">
<text style="fill:#000000; fill-opacity:1; font-family:Arial,Helvetica Neue,Helvetica,sans-serif; font-size:77px; text-anchor:start;" transform="rotate(0, 3174.16, 2843.14)" x="3174.16" y="2843.14">-</text>
</g>
<g clip-path="url(#clip9100)">
<text style="fill:#000000; fill-opacity:1; font-family:Arial,Helvetica Neue,Helvetica,sans-serif; font-size:77px; text-anchor:start;" transform="rotate(0, 3219.84, 2843.14)" x="3219.84" y="2843.14">1.915 </text>
</g>
<g clip-path="url(#clip9100)">
<text style="fill:#000000; fill-opacity:1; font-family:Arial,Helvetica Neue,Helvetica,sans-serif; font-size:95px; text-anchor:start;" transform="rotate(0, 3911.11, 2897.96)" x="3911.11" y="2897.96">10</text>
</g>
<g clip-path="url(#clip9100)">
<text style="fill:#000000; fill-opacity:1; font-family:Arial,Helvetica Neue,Helvetica,sans-serif; font-size:77px; text-anchor:start;" transform="rotate(0, 4018.16, 2843.14)" x="4018.16" y="2843.14">-</text>
</g>
<g clip-path="url(#clip9100)">
<text style="fill:#000000; fill-opacity:1; font-family:Arial,Helvetica Neue,Helvetica,sans-serif; font-size:77px; text-anchor:start;" transform="rotate(0, 4063.84, 2843.14)" x="4063.84" y="2843.14">1.910 </text>
</g>
<g clip-path="url(#clip9100)">
<text style="fill:#000000; fill-opacity:1; font-family:Arial,Helvetica Neue,Helvetica,sans-serif; font-size:95px; text-anchor:start;" transform="rotate(0, 608.193, 2595.97)" x="608.193" y="2595.97">10</text>
</g>
<g clip-path="url(#clip9100)">
<text style="fill:#000000; fill-opacity:1; font-family:Arial,Helvetica Neue,Helvetica,sans-serif; font-size:77px; text-anchor:start;" transform="rotate(0, 715.242, 2541.15)" x="715.242" y="2541.15">-</text>
</g>
<g clip-path="url(#clip9100)">
<text style="fill:#000000; fill-opacity:1; font-family:Arial,Helvetica Neue,Helvetica,sans-serif; font-size:77px; text-anchor:start;" transform="rotate(0, 760.921, 2541.15)" x="760.921" y="2541.15">1.12 </text>
</g>
<g clip-path="url(#clip9100)">
<text style="fill:#000000; fill-opacity:1; font-family:Arial,Helvetica Neue,Helvetica,sans-serif; font-size:95px; text-anchor:start;" transform="rotate(0, 608.193, 2266.34)" x="608.193" y="2266.34">10</text>
</g>
<g clip-path="url(#clip9100)">
<text style="fill:#000000; fill-opacity:1; font-family:Arial,Helvetica Neue,Helvetica,sans-serif; font-size:77px; text-anchor:start;" transform="rotate(0, 715.242, 2211.51)" x="715.242" y="2211.51">-</text>
</g>
<g clip-path="url(#clip9100)">
<text style="fill:#000000; fill-opacity:1; font-family:Arial,Helvetica Neue,Helvetica,sans-serif; font-size:77px; text-anchor:start;" transform="rotate(0, 760.921, 2211.51)" x="760.921" y="2211.51">1.10 </text>
</g>
<g clip-path="url(#clip9100)">
<text style="fill:#000000; fill-opacity:1; font-family:Arial,Helvetica Neue,Helvetica,sans-serif; font-size:95px; text-anchor:start;" transform="rotate(0, 608.193, 1936.7)" x="608.193" y="1936.7">10</text>
</g>
<g clip-path="url(#clip9100)">
<text style="fill:#000000; fill-opacity:1; font-family:Arial,Helvetica Neue,Helvetica,sans-serif; font-size:77px; text-anchor:start;" transform="rotate(0, 715.242, 1881.88)" x="715.242" y="1881.88">-</text>
</g>
<g clip-path="url(#clip9100)">
<text style="fill:#000000; fill-opacity:1; font-family:Arial,Helvetica Neue,Helvetica,sans-serif; font-size:77px; text-anchor:start;" transform="rotate(0, 760.921, 1881.88)" x="760.921" y="1881.88">1.08 </text>
</g>
<g clip-path="url(#clip9100)">
<text style="fill:#000000; fill-opacity:1; font-family:Arial,Helvetica Neue,Helvetica,sans-serif; font-size:95px; text-anchor:start;" transform="rotate(0, 608.193, 1607.07)" x="608.193" y="1607.07">10</text>
</g>
<g clip-path="url(#clip9100)">
<text style="fill:#000000; fill-opacity:1; font-family:Arial,Helvetica Neue,Helvetica,sans-serif; font-size:77px; text-anchor:start;" transform="rotate(0, 715.242, 1552.25)" x="715.242" y="1552.25">-</text>
</g>
<g clip-path="url(#clip9100)">
<text style="fill:#000000; fill-opacity:1; font-family:Arial,Helvetica Neue,Helvetica,sans-serif; font-size:77px; text-anchor:start;" transform="rotate(0, 760.921, 1552.25)" x="760.921" y="1552.25">1.06 </text>
</g>
<g clip-path="url(#clip9100)">
<text style="fill:#000000; fill-opacity:1; font-family:Arial,Helvetica Neue,Helvetica,sans-serif; font-size:95px; text-anchor:start;" transform="rotate(0, 608.193, 1277.44)" x="608.193" y="1277.44">10</text>
</g>
<g clip-path="url(#clip9100)">
<text style="fill:#000000; fill-opacity:1; font-family:Arial,Helvetica Neue,Helvetica,sans-serif; font-size:77px; text-anchor:start;" transform="rotate(0, 715.242, 1222.62)" x="715.242" y="1222.62">-</text>
</g>
<g clip-path="url(#clip9100)">
<text style="fill:#000000; fill-opacity:1; font-family:Arial,Helvetica Neue,Helvetica,sans-serif; font-size:77px; text-anchor:start;" transform="rotate(0, 760.921, 1222.62)" x="760.921" y="1222.62">1.04 </text>
</g>
<g clip-path="url(#clip9100)">
<text style="fill:#000000; fill-opacity:1; font-family:Arial,Helvetica Neue,Helvetica,sans-serif; font-size:95px; text-anchor:start;" transform="rotate(0, 608.193, 947.81)" x="608.193" y="947.81">10</text>
</g>
<g clip-path="url(#clip9100)">
<text style="fill:#000000; fill-opacity:1; font-family:Arial,Helvetica Neue,Helvetica,sans-serif; font-size:77px; text-anchor:start;" transform="rotate(0, 715.242, 892.989)" x="715.242" y="892.989">-</text>
</g>
<g clip-path="url(#clip9100)">
<text style="fill:#000000; fill-opacity:1; font-family:Arial,Helvetica Neue,Helvetica,sans-serif; font-size:77px; text-anchor:start;" transform="rotate(0, 760.921, 892.989)" x="760.921" y="892.989">1.02 </text>
</g>
<g clip-path="url(#clip9100)">
<text style="fill:#000000; fill-opacity:1; font-family:Arial,Helvetica Neue,Helvetica,sans-serif; font-size:95px; text-anchor:start;" transform="rotate(0, 608.193, 618.179)" x="608.193" y="618.179">10</text>
</g>
<g clip-path="url(#clip9100)">
<text style="fill:#000000; fill-opacity:1; font-family:Arial,Helvetica Neue,Helvetica,sans-serif; font-size:77px; text-anchor:start;" transform="rotate(0, 715.242, 563.358)" x="715.242" y="563.358">-</text>
</g>
<g clip-path="url(#clip9100)">
<text style="fill:#000000; fill-opacity:1; font-family:Arial,Helvetica Neue,Helvetica,sans-serif; font-size:77px; text-anchor:start;" transform="rotate(0, 760.921, 563.358)" x="760.921" y="563.358">1.00 </text>
</g>
<g clip-path="url(#clip9100)">
<text style="fill:#000000; fill-opacity:1; font-family:Arial,Helvetica Neue,Helvetica,sans-serif; font-size:166px; text-anchor:middle;" transform="rotate(0, 2844.19, 145.2)" x="2844.19" y="145.2">ROCK2 Overall</text>
</g>
<g clip-path="url(#clip9100)">
<text style="fill:#000000; fill-opacity:1; font-family:Arial,Helvetica Neue,Helvetica,sans-serif; font-size:130px; text-anchor:middle;" transform="rotate(0, 2844.19, 3015.87)" x="2844.19" y="3015.87">Error</text>
</g>
<g clip-path="url(#clip9100)">
<text style="fill:#000000; fill-opacity:1; font-family:Arial,Helvetica Neue,Helvetica,sans-serif; font-size:130px; text-anchor:middle;" transform="rotate(-90, 466.797, 1527.34)" x="466.797" y="1527.34">Time (s)</text>
</g>
<polyline clip-path="url(#clip9102)" style="stroke:#009af9; stroke-width:8; stroke-opacity:1; fill:none" points="
  4600.15,2113.76 4198.24,2021.72 4264.51,1968.01 3972.42,1820.33 
  "/>
<circle clip-path="url(#clip9102)" style="fill:#000000; stroke:none; fill-opacity:1" cx="4600.15" cy="2113.76" r="36"/>
<circle clip-path="url(#clip9102)" style="fill:#009af9; stroke:none; fill-opacity:1" cx="4600.15" cy="2113.76" r="28"/>
<circle clip-path="url(#clip9102)" style="fill:#000000; stroke:none; fill-opacity:1" cx="4198.24" cy="2021.72" r="36"/>
<circle clip-path="url(#clip9102)" style="fill:#009af9; stroke:none; fill-opacity:1" cx="4198.24" cy="2021.72" r="28"/>
<circle clip-path="url(#clip9102)" style="fill:#000000; stroke:none; fill-opacity:1" cx="4264.51" cy="1968.01" r="36"/>
<circle clip-path="url(#clip9102)" style="fill:#009af9; stroke:none; fill-opacity:1" cx="4264.51" cy="1968.01" r="28"/>
<circle clip-path="url(#clip9102)" style="fill:#000000; stroke:none; fill-opacity:1" cx="3972.42" cy="1820.33" r="36"/>
<circle clip-path="url(#clip9102)" style="fill:#009af9; stroke:none; fill-opacity:1" cx="3972.42" cy="1820.33" r="28"/>
<polyline clip-path="url(#clip9102)" style="stroke:#e26f46; stroke-width:8; stroke-opacity:1; fill:none" points="
  4172.53,1878.05 4215.75,2045.21 4236,1963.9 3868.37,1689.78 
  "/>
<polygon clip-path="url(#clip9102)" style="fill:#000000; fill-opacity:1" points="
  4132.53,1838.05 4132.53,1918.05 4212.53,1918.05 4212.53,1838.05 4132.53,1838.05 
  "/>
<polygon clip-path="url(#clip9102)" style="fill:#e26f46; fill-opacity:1" points="
  4140.53,1846.05 4140.53,1910.05 4204.53,1910.05 4204.53,1846.05 4140.53,1846.05 
  "/>
<polygon clip-path="url(#clip9102)" style="fill:#000000; fill-opacity:1" points="
  4175.75,2005.21 4175.75,2085.21 4255.75,2085.21 4255.75,2005.21 4175.75,2005.21 
  "/>
<polygon clip-path="url(#clip9102)" style="fill:#e26f46; fill-opacity:1" points="
  4183.75,2013.21 4183.75,2077.21 4247.75,2077.21 4247.75,2013.21 4183.75,2013.21 
  "/>
<polygon clip-path="url(#clip9102)" style="fill:#000000; fill-opacity:1" points="
  4196,1923.9 4196,2003.9 4276,2003.9 4276,1923.9 4196,1923.9 
  "/>
<polygon clip-path="url(#clip9102)" style="fill:#e26f46; fill-opacity:1" points="
  4204,1931.9 4204,1995.9 4268,1995.9 4268,1931.9 4204,1931.9 
  "/>
<polygon clip-path="url(#clip9102)" style="fill:#000000; fill-opacity:1" points="
  3828.37,1649.78 3828.37,1729.78 3908.37,1729.78 3908.37,1649.78 3828.37,1649.78 
  "/>
<polygon clip-path="url(#clip9102)" style="fill:#e26f46; fill-opacity:1" points="
  3836.37,1657.78 3836.37,1721.78 3900.37,1721.78 3900.37,1657.78 3836.37,1657.78 
  "/>
<polyline clip-path="url(#clip9102)" style="stroke:#3da44d; stroke-width:8; stroke-opacity:1; fill:none" points="
  4229.77,1930.22 4115.85,1938.17 4104.99,1821.96 2809.18,1564.52 
  "/>
<polygon clip-path="url(#clip9102)" style="fill:#000000; fill-opacity:1" points="
  4229.77,1890.22 4220.37,1917.26 4191.73,1917.86 4214.57,1935.18 4206.25,1962.58 4229.77,1946.22 4253.29,1962.58 4244.97,1935.18 4267.81,1917.86 4239.17,1917.26 
  4229.77,1890.22 
  "/>
<polygon clip-path="url(#clip9102)" style="fill:#3da44d; fill-opacity:1" points="
  4229.77,1898.22 4222.25,1919.86 4199.34,1920.34 4217.61,1934.19 4210.95,1956.11 4229.77,1943.02 4248.59,1956.11 4241.93,1934.19 4260.2,1920.34 4237.29,1919.86 
  4229.77,1898.22 
  "/>
<polygon clip-path="url(#clip9102)" style="fill:#000000; fill-opacity:1" points="
  4115.85,1898.17 4106.45,1925.21 4077.81,1925.81 4100.65,1943.13 4092.33,1970.53 4115.85,1954.17 4139.37,1970.53 4131.05,1943.13 4153.89,1925.81 4125.25,1925.21 
  4115.85,1898.17 
  "/>
<polygon clip-path="url(#clip9102)" style="fill:#3da44d; fill-opacity:1" points="
  4115.85,1906.17 4108.33,1927.8 4085.42,1928.28 4103.69,1942.13 4097.03,1964.05 4115.85,1950.97 4134.67,1964.05 4128.01,1942.13 4146.28,1928.28 4123.37,1927.8 
  4115.85,1906.17 
  "/>
<polygon clip-path="url(#clip9102)" style="fill:#000000; fill-opacity:1" points="
  4104.99,1781.96 4095.59,1809 4066.95,1809.6 4089.79,1826.92 4081.47,1854.32 4104.99,1837.96 4128.51,1854.32 4120.19,1826.92 4143.03,1809.6 4114.39,1809 
  4104.99,1781.96 
  "/>
<polygon clip-path="url(#clip9102)" style="fill:#3da44d; fill-opacity:1" points="
  4104.99,1789.96 4097.47,1811.59 4074.56,1812.07 4092.83,1825.93 4086.17,1847.85 4104.99,1834.76 4123.8,1847.85 4117.15,1825.93 4135.42,1812.07 4112.51,1811.59 
  4104.99,1789.96 
  "/>
<polygon clip-path="url(#clip9102)" style="fill:#000000; fill-opacity:1" points="
  2809.18,1524.52 2799.78,1551.56 2771.14,1552.16 2793.98,1569.48 2785.66,1596.88 2809.18,1580.52 2832.7,1596.88 2824.38,1569.48 2847.22,1552.16 2818.58,1551.56 
  2809.18,1524.52 
  "/>
<polygon clip-path="url(#clip9102)" style="fill:#3da44d; fill-opacity:1" points="
  2809.18,1532.52 2801.66,1554.15 2778.74,1554.63 2797.02,1568.49 2790.36,1590.41 2809.18,1577.32 2827.99,1590.41 2821.34,1568.49 2839.61,1554.63 2816.7,1554.15 
  2809.18,1532.52 
  "/>
<polyline clip-path="url(#clip9102)" style="stroke:#c271d2; stroke-width:8; stroke-opacity:1; fill:none" points="
  4144.58,1971.7 4060.83,1737.85 3810.03,1727.12 1888.39,1160.13 
  "/>
<polygon clip-path="url(#clip9102)" style="fill:#000000; fill-opacity:1" points="
  4144.58,1931.7 4104.58,1971.7 4144.58,2011.7 4184.58,1971.7 4144.58,1931.7 
  "/>
<polygon clip-path="url(#clip9102)" style="fill:#c271d2; fill-opacity:1" points="
  4144.58,1939.7 4112.58,1971.7 4144.58,2003.7 4176.58,1971.7 4144.58,1939.7 
  "/>
<polygon clip-path="url(#clip9102)" style="fill:#000000; fill-opacity:1" points="
  4060.83,1697.85 4020.83,1737.85 4060.83,1777.85 4100.83,1737.85 4060.83,1697.85 
  "/>
<polygon clip-path="url(#clip9102)" style="fill:#c271d2; fill-opacity:1" points="
  4060.83,1705.85 4028.83,1737.85 4060.83,1769.85 4092.83,1737.85 4060.83,1705.85 
  "/>
<polygon clip-path="url(#clip9102)" style="fill:#000000; fill-opacity:1" points="
  3810.03,1687.12 3770.03,1727.12 3810.03,1767.12 3850.03,1727.12 3810.03,1687.12 
  "/>
<polygon clip-path="url(#clip9102)" style="fill:#c271d2; fill-opacity:1" points="
  3810.03,1695.12 3778.03,1727.12 3810.03,1759.12 3842.03,1727.12 3810.03,1695.12 
  "/>
<polygon clip-path="url(#clip9102)" style="fill:#000000; fill-opacity:1" points="
  1888.39,1120.13 1848.39,1160.13 1888.39,1200.13 1928.39,1160.13 1888.39,1120.13 
  "/>
<polygon clip-path="url(#clip9102)" style="fill:#c271d2; fill-opacity:1" points="
  1888.39,1128.13 1856.39,1160.13 1888.39,1192.13 1920.39,1160.13 1888.39,1128.13 
  "/>
<polyline clip-path="url(#clip9102)" style="stroke:#ac8d18; stroke-width:8; stroke-opacity:1; fill:none" points="
  4133.89,1856.61 3969.16,1826.84 2783.24,1535.47 1088.23,375.819 
  "/>
<polygon clip-path="url(#clip9102)" style="fill:#000000; fill-opacity:1" points="
  4133.89,1896.61 4099.25,1876.61 4099.25,1836.61 4133.89,1816.61 4168.53,1836.61 4168.53,1876.61 
  "/>
<polygon clip-path="url(#clip9102)" style="fill:#ac8d18; fill-opacity:1" points="
  4133.89,1888.61 4106.18,1872.61 4106.18,1840.61 4133.89,1824.61 4161.6,1840.61 4161.6,1872.61 
  "/>
<polygon clip-path="url(#clip9102)" style="fill:#000000; fill-opacity:1" points="
  3969.16,1866.84 3934.52,1846.84 3934.52,1806.84 3969.16,1786.84 4003.8,1806.84 4003.8,1846.84 
  "/>
<polygon clip-path="url(#clip9102)" style="fill:#ac8d18; fill-opacity:1" points="
  3969.16,1858.84 3941.45,1842.84 3941.45,1810.84 3969.16,1794.84 3996.87,1810.84 3996.87,1842.84 
  "/>
<polygon clip-path="url(#clip9102)" style="fill:#000000; fill-opacity:1" points="
  2783.24,1575.47 2748.6,1555.47 2748.6,1515.47 2783.24,1495.47 2817.88,1515.47 2817.88,1555.47 
  "/>
<polygon clip-path="url(#clip9102)" style="fill:#ac8d18; fill-opacity:1" points="
  2783.24,1567.47 2755.53,1551.47 2755.53,1519.47 2783.24,1503.47 2810.95,1519.47 2810.95,1551.47 
  "/>
<polygon clip-path="url(#clip9102)" style="fill:#000000; fill-opacity:1" points="
  1088.23,415.819 1053.59,395.819 1053.59,355.819 1088.23,335.819 1122.87,355.819 1122.87,395.819 
  "/>
<polygon clip-path="url(#clip9102)" style="fill:#ac8d18; fill-opacity:1" points="
  1088.23,407.819 1060.52,391.819 1060.52,359.819 1088.23,343.819 1115.95,359.819 1115.95,391.819 
  "/>
<polyline clip-path="url(#clip9102)" style="stroke:#00a9ad; stroke-width:8; stroke-opacity:1; fill:none" points="
  4490.81,2678.85 4468.34,2532.71 4298.18,2119.12 4072.07,1927.59 
  "/>
<line clip-path="url(#clip9102)" x1="4490.81" y1="2678.85" x2="4490.81" y2="2718.85" style="stroke:#000000; stroke-width:4; stroke-opacity:1"/>
<line clip-path="url(#clip9102)" x1="4490.81" y1="2678.85" x2="4450.81" y2="2678.85" style="stroke:#000000; stroke-width:4; stroke-opacity:1"/>
<line clip-path="url(#clip9102)" x1="4490.81" y1="2678.85" x2="4490.81" y2="2638.85" style="stroke:#000000; stroke-width:4; stroke-opacity:1"/>
<line clip-path="url(#clip9102)" x1="4490.81" y1="2678.85" x2="4530.81" y2="2678.85" style="stroke:#000000; stroke-width:4; stroke-opacity:1"/>
<line clip-path="url(#clip9102)" x1="4490.81" y1="2678.85" x2="4490.81" y2="2710.85" style="stroke:#00a9ad; stroke-width:4; stroke-opacity:1"/>
<line clip-path="url(#clip9102)" x1="4490.81" y1="2678.85" x2="4458.81" y2="2678.85" style="stroke:#00a9ad; stroke-width:4; stroke-opacity:1"/>
<line clip-path="url(#clip9102)" x1="4490.81" y1="2678.85" x2="4490.81" y2="2646.85" style="stroke:#00a9ad; stroke-width:4; stroke-opacity:1"/>
<line clip-path="url(#clip9102)" x1="4490.81" y1="2678.85" x2="4522.81" y2="2678.85" style="stroke:#00a9ad; stroke-width:4; stroke-opacity:1"/>
<line clip-path="url(#clip9102)" x1="4468.34" y1="2532.71" x2="4468.34" y2="2572.71" style="stroke:#000000; stroke-width:4; stroke-opacity:1"/>
<line clip-path="url(#clip9102)" x1="4468.34" y1="2532.71" x2="4428.34" y2="2532.71" style="stroke:#000000; stroke-width:4; stroke-opacity:1"/>
<line clip-path="url(#clip9102)" x1="4468.34" y1="2532.71" x2="4468.34" y2="2492.71" style="stroke:#000000; stroke-width:4; stroke-opacity:1"/>
<line clip-path="url(#clip9102)" x1="4468.34" y1="2532.71" x2="4508.34" y2="2532.71" style="stroke:#000000; stroke-width:4; stroke-opacity:1"/>
<line clip-path="url(#clip9102)" x1="4468.34" y1="2532.71" x2="4468.34" y2="2564.71" style="stroke:#00a9ad; stroke-width:4; stroke-opacity:1"/>
<line clip-path="url(#clip9102)" x1="4468.34" y1="2532.71" x2="4436.34" y2="2532.71" style="stroke:#00a9ad; stroke-width:4; stroke-opacity:1"/>
<line clip-path="url(#clip9102)" x1="4468.34" y1="2532.71" x2="4468.34" y2="2500.71" style="stroke:#00a9ad; stroke-width:4; stroke-opacity:1"/>
<line clip-path="url(#clip9102)" x1="4468.34" y1="2532.71" x2="4500.34" y2="2532.71" style="stroke:#00a9ad; stroke-width:4; stroke-opacity:1"/>
<line clip-path="url(#clip9102)" x1="4298.18" y1="2119.12" x2="4298.18" y2="2159.12" style="stroke:#000000; stroke-width:4; stroke-opacity:1"/>
<line clip-path="url(#clip9102)" x1="4298.18" y1="2119.12" x2="4258.18" y2="2119.12" style="stroke:#000000; stroke-width:4; stroke-opacity:1"/>
<line clip-path="url(#clip9102)" x1="4298.18" y1="2119.12" x2="4298.18" y2="2079.12" style="stroke:#000000; stroke-width:4; stroke-opacity:1"/>
<line clip-path="url(#clip9102)" x1="4298.18" y1="2119.12" x2="4338.18" y2="2119.12" style="stroke:#000000; stroke-width:4; stroke-opacity:1"/>
<line clip-path="url(#clip9102)" x1="4298.18" y1="2119.12" x2="4298.18" y2="2151.12" style="stroke:#00a9ad; stroke-width:4; stroke-opacity:1"/>
<line clip-path="url(#clip9102)" x1="4298.18" y1="2119.12" x2="4266.18" y2="2119.12" style="stroke:#00a9ad; stroke-width:4; stroke-opacity:1"/>
<line clip-path="url(#clip9102)" x1="4298.18" y1="2119.12" x2="4298.18" y2="2087.12" style="stroke:#00a9ad; stroke-width:4; stroke-opacity:1"/>
<line clip-path="url(#clip9102)" x1="4298.18" y1="2119.12" x2="4330.18" y2="2119.12" style="stroke:#00a9ad; stroke-width:4; stroke-opacity:1"/>
<line clip-path="url(#clip9102)" x1="4072.07" y1="1927.59" x2="4072.07" y2="1967.59" style="stroke:#000000; stroke-width:4; stroke-opacity:1"/>
<line clip-path="url(#clip9102)" x1="4072.07" y1="1927.59" x2="4032.07" y2="1927.59" style="stroke:#000000; stroke-width:4; stroke-opacity:1"/>
<line clip-path="url(#clip9102)" x1="4072.07" y1="1927.59" x2="4072.07" y2="1887.59" style="stroke:#000000; stroke-width:4; stroke-opacity:1"/>
<line clip-path="url(#clip9102)" x1="4072.07" y1="1927.59" x2="4112.07" y2="1927.59" style="stroke:#000000; stroke-width:4; stroke-opacity:1"/>
<line clip-path="url(#clip9102)" x1="4072.07" y1="1927.59" x2="4072.07" y2="1959.59" style="stroke:#00a9ad; stroke-width:4; stroke-opacity:1"/>
<line clip-path="url(#clip9102)" x1="4072.07" y1="1927.59" x2="4040.07" y2="1927.59" style="stroke:#00a9ad; stroke-width:4; stroke-opacity:1"/>
<line clip-path="url(#clip9102)" x1="4072.07" y1="1927.59" x2="4072.07" y2="1895.59" style="stroke:#00a9ad; stroke-width:4; stroke-opacity:1"/>
<line clip-path="url(#clip9102)" x1="4072.07" y1="1927.59" x2="4104.07" y2="1927.59" style="stroke:#00a9ad; stroke-width:4; stroke-opacity:1"/>
<polyline clip-path="url(#clip9102)" style="stroke:#ed5d92; stroke-width:8; stroke-opacity:1; fill:none" points="
  4549.09,2424.66 4458.79,2416.48 4280.18,2027.61 4027.13,1892.11 
  "/>
<line clip-path="url(#clip9102)" x1="4549.09" y1="2424.66" x2="4509.09" y2="2464.66" style="stroke:#000000; stroke-width:4; stroke-opacity:1"/>
<line clip-path="url(#clip9102)" x1="4549.09" y1="2424.66" x2="4509.09" y2="2384.66" style="stroke:#000000; stroke-width:4; stroke-opacity:1"/>
<line clip-path="url(#clip9102)" x1="4549.09" y1="2424.66" x2="4589.09" y2="2384.66" style="stroke:#000000; stroke-width:4; stroke-opacity:1"/>
<line clip-path="url(#clip9102)" x1="4549.09" y1="2424.66" x2="4589.09" y2="2464.66" style="stroke:#000000; stroke-width:4; stroke-opacity:1"/>
<line clip-path="url(#clip9102)" x1="4549.09" y1="2424.66" x2="4517.09" y2="2456.66" style="stroke:#ed5d92; stroke-width:4; stroke-opacity:1"/>
<line clip-path="url(#clip9102)" x1="4549.09" y1="2424.66" x2="4517.09" y2="2392.66" style="stroke:#ed5d92; stroke-width:4; stroke-opacity:1"/>
<line clip-path="url(#clip9102)" x1="4549.09" y1="2424.66" x2="4581.09" y2="2392.66" style="stroke:#ed5d92; stroke-width:4; stroke-opacity:1"/>
<line clip-path="url(#clip9102)" x1="4549.09" y1="2424.66" x2="4581.09" y2="2456.66" style="stroke:#ed5d92; stroke-width:4; stroke-opacity:1"/>
<line clip-path="url(#clip9102)" x1="4458.79" y1="2416.48" x2="4418.79" y2="2456.48" style="stroke:#000000; stroke-width:4; stroke-opacity:1"/>
<line clip-path="url(#clip9102)" x1="4458.79" y1="2416.48" x2="4418.79" y2="2376.48" style="stroke:#000000; stroke-width:4; stroke-opacity:1"/>
<line clip-path="url(#clip9102)" x1="4458.79" y1="2416.48" x2="4498.79" y2="2376.48" style="stroke:#000000; stroke-width:4; stroke-opacity:1"/>
<line clip-path="url(#clip9102)" x1="4458.79" y1="2416.48" x2="4498.79" y2="2456.48" style="stroke:#000000; stroke-width:4; stroke-opacity:1"/>
<line clip-path="url(#clip9102)" x1="4458.79" y1="2416.48" x2="4426.79" y2="2448.48" style="stroke:#ed5d92; stroke-width:4; stroke-opacity:1"/>
<line clip-path="url(#clip9102)" x1="4458.79" y1="2416.48" x2="4426.79" y2="2384.48" style="stroke:#ed5d92; stroke-width:4; stroke-opacity:1"/>
<line clip-path="url(#clip9102)" x1="4458.79" y1="2416.48" x2="4490.79" y2="2384.48" style="stroke:#ed5d92; stroke-width:4; stroke-opacity:1"/>
<line clip-path="url(#clip9102)" x1="4458.79" y1="2416.48" x2="4490.79" y2="2448.48" style="stroke:#ed5d92; stroke-width:4; stroke-opacity:1"/>
<line clip-path="url(#clip9102)" x1="4280.18" y1="2027.61" x2="4240.18" y2="2067.61" style="stroke:#000000; stroke-width:4; stroke-opacity:1"/>
<line clip-path="url(#clip9102)" x1="4280.18" y1="2027.61" x2="4240.18" y2="1987.61" style="stroke:#000000; stroke-width:4; stroke-opacity:1"/>
<line clip-path="url(#clip9102)" x1="4280.18" y1="2027.61" x2="4320.18" y2="1987.61" style="stroke:#000000; stroke-width:4; stroke-opacity:1"/>
<line clip-path="url(#clip9102)" x1="4280.18" y1="2027.61" x2="4320.18" y2="2067.61" style="stroke:#000000; stroke-width:4; stroke-opacity:1"/>
<line clip-path="url(#clip9102)" x1="4280.18" y1="2027.61" x2="4248.18" y2="2059.61" style="stroke:#ed5d92; stroke-width:4; stroke-opacity:1"/>
<line clip-path="url(#clip9102)" x1="4280.18" y1="2027.61" x2="4248.18" y2="1995.61" style="stroke:#ed5d92; stroke-width:4; stroke-opacity:1"/>
<line clip-path="url(#clip9102)" x1="4280.18" y1="2027.61" x2="4312.18" y2="1995.61" style="stroke:#ed5d92; stroke-width:4; stroke-opacity:1"/>
<line clip-path="url(#clip9102)" x1="4280.18" y1="2027.61" x2="4312.18" y2="2059.61" style="stroke:#ed5d92; stroke-width:4; stroke-opacity:1"/>
<line clip-path="url(#clip9102)" x1="4027.13" y1="1892.11" x2="3987.13" y2="1932.11" style="stroke:#000000; stroke-width:4; stroke-opacity:1"/>
<line clip-path="url(#clip9102)" x1="4027.13" y1="1892.11" x2="3987.13" y2="1852.11" style="stroke:#000000; stroke-width:4; stroke-opacity:1"/>
<line clip-path="url(#clip9102)" x1="4027.13" y1="1892.11" x2="4067.13" y2="1852.11" style="stroke:#000000; stroke-width:4; stroke-opacity:1"/>
<line clip-path="url(#clip9102)" x1="4027.13" y1="1892.11" x2="4067.13" y2="1932.11" style="stroke:#000000; stroke-width:4; stroke-opacity:1"/>
<line clip-path="url(#clip9102)" x1="4027.13" y1="1892.11" x2="3995.13" y2="1924.11" style="stroke:#ed5d92; stroke-width:4; stroke-opacity:1"/>
<line clip-path="url(#clip9102)" x1="4027.13" y1="1892.11" x2="3995.13" y2="1860.11" style="stroke:#ed5d92; stroke-width:4; stroke-opacity:1"/>
<line clip-path="url(#clip9102)" x1="4027.13" y1="1892.11" x2="4059.13" y2="1860.11" style="stroke:#ed5d92; stroke-width:4; stroke-opacity:1"/>
<line clip-path="url(#clip9102)" x1="4027.13" y1="1892.11" x2="4059.13" y2="1924.11" style="stroke:#ed5d92; stroke-width:4; stroke-opacity:1"/>
<polygon clip-path="url(#clip9100)" points="
3926.33,1018.09 4561.51,1018.09 4561.51,534.248 3926.33,534.248 
  " fill="#ffffff" fill-rule="evenodd" fill-opacity="1"/>
<polyline clip-path="url(#clip9100)" style="stroke:#000000; stroke-width:8; stroke-opacity:1; fill:none" points="
  3926.33,1018.09 4561.51,1018.09 4561.51,534.248 3926.33,534.248 3926.33,1018.09 
  "/>
<polyline clip-path="url(#clip9100)" style="stroke:#009af9; stroke-width:8; stroke-opacity:1; fill:none" points="
  3974.33,594.728 4262.33,594.728 
  "/>
<circle clip-path="url(#clip9100)" style="fill:#000000; stroke:none; fill-opacity:1" cx="4142.33" cy="594.728" r="50"/>
<circle clip-path="url(#clip9100)" style="fill:#009af9; stroke:none; fill-opacity:1" cx="4142.33" cy="594.728" r="43"/>
<g clip-path="url(#clip9100)">
<text style="fill:#000000; fill-opacity:1; font-family:Arial,Helvetica Neue,Helvetica,sans-serif; font-size:48px; text-anchor:start;" transform="rotate(0, 4310.33, 612.228)" x="4310.33" y="612.228">Pred .6</text>
</g>
<polyline clip-path="url(#clip9100)" style="stroke:#e26f46; stroke-width:8; stroke-opacity:1; fill:none" points="
  3974.33,655.208 4262.33,655.208 
  "/>
<polygon clip-path="url(#clip9100)" style="fill:#000000; fill-opacity:1" points="
  4086.33,599.208 4086.33,711.208 4198.33,711.208 4198.33,599.208 4086.33,599.208 
  "/>
<polygon clip-path="url(#clip9100)" style="fill:#e26f46; fill-opacity:1" points="
  4094.33,607.208 4094.33,703.208 4190.33,703.208 4190.33,607.208 4094.33,607.208 
  "/>
<g clip-path="url(#clip9100)">
<text style="fill:#000000; fill-opacity:1; font-family:Arial,Helvetica Neue,Helvetica,sans-serif; font-size:48px; text-anchor:start;" transform="rotate(0, 4310.33, 672.708)" x="4310.33" y="672.708">Pred .5</text>
</g>
<polyline clip-path="url(#clip9100)" style="stroke:#3da44d; stroke-width:8; stroke-opacity:1; fill:none" points="
  3974.33,715.688 4262.33,715.688 
  "/>
<polygon clip-path="url(#clip9100)" style="fill:#000000; fill-opacity:1" points="
  4142.33,659.688 4129.17,697.544 4089.07,698.384 4121.05,722.632 4109.4,760.992 4142.33,738.088 4175.26,760.992 4163.61,722.632 4195.58,698.384 4155.49,697.544 
  4142.33,659.688 
  "/>
<polygon clip-path="url(#clip9100)" style="fill:#3da44d; fill-opacity:1" points="
  4142.33,667.688 4131.05,700.136 4096.68,700.856 4124.09,721.64 4114.1,754.52 4142.33,734.888 4170.55,754.52 4160.57,721.64 4187.98,700.856 4153.61,700.136 
  4142.33,667.688 
  "/>
<g clip-path="url(#clip9100)">
<text style="fill:#000000; fill-opacity:1; font-family:Arial,Helvetica Neue,Helvetica,sans-serif; font-size:48px; text-anchor:start;" transform="rotate(0, 4310.33, 733.188)" x="4310.33" y="733.188">PI .7</text>
</g>
<polyline clip-path="url(#clip9100)" style="stroke:#c271d2; stroke-width:8; stroke-opacity:1; fill:none" points="
  3974.33,776.168 4262.33,776.168 
  "/>
<polygon clip-path="url(#clip9100)" style="fill:#000000; fill-opacity:1" points="
  4142.33,720.168 4086.33,776.168 4142.33,832.168 4198.33,776.168 4142.33,720.168 
  "/>
<polygon clip-path="url(#clip9100)" style="fill:#c271d2; fill-opacity:1" points="
  4142.33,728.168 4094.33,776.168 4142.33,824.168 4190.33,776.168 4142.33,728.168 
  "/>
<g clip-path="url(#clip9100)">
<text style="fill:#000000; fill-opacity:1; font-family:Arial,Helvetica Neue,Helvetica,sans-serif; font-size:48px; text-anchor:start;" transform="rotate(0, 4310.33, 793.668)" x="4310.33" y="793.668">PI .6</text>
</g>
<polyline clip-path="url(#clip9100)" style="stroke:#ac8d18; stroke-width:8; stroke-opacity:1; fill:none" points="
  3974.33,836.648 4262.33,836.648 
  "/>
<polygon clip-path="url(#clip9100)" style="fill:#000000; fill-opacity:1" points="
  4142.33,892.648 4093.83,864.648 4093.83,808.648 4142.33,780.648 4190.82,808.648 4190.82,864.648 
  "/>
<polygon clip-path="url(#clip9100)" style="fill:#ac8d18; fill-opacity:1" points="
  4142.33,884.648 4100.76,860.648 4100.76,812.648 4142.33,788.648 4183.9,812.648 4183.9,860.648 
  "/>
<g clip-path="url(#clip9100)">
<text style="fill:#000000; fill-opacity:1; font-family:Arial,Helvetica Neue,Helvetica,sans-serif; font-size:48px; text-anchor:start;" transform="rotate(0, 4310.33, 854.148)" x="4310.33" y="854.148">PI .5</text>
</g>
<polyline clip-path="url(#clip9100)" style="stroke:#00a9ad; stroke-width:8; stroke-opacity:1; fill:none" points="
  3974.33,897.128 4262.33,897.128 
  "/>
<line clip-path="url(#clip9100)" x1="4142.33" y1="897.128" x2="4142.33" y2="953.128" style="stroke:#000000; stroke-width:4; stroke-opacity:1"/>
<line clip-path="url(#clip9100)" x1="4142.33" y1="897.128" x2="4086.33" y2="897.128" style="stroke:#000000; stroke-width:4; stroke-opacity:1"/>
<line clip-path="url(#clip9100)" x1="4142.33" y1="897.128" x2="4142.33" y2="841.128" style="stroke:#000000; stroke-width:4; stroke-opacity:1"/>
<line clip-path="url(#clip9100)" x1="4142.33" y1="897.128" x2="4198.33" y2="897.128" style="stroke:#000000; stroke-width:4; stroke-opacity:1"/>
<line clip-path="url(#clip9100)" x1="4142.33" y1="897.128" x2="4142.33" y2="945.128" style="stroke:#00a9ad; stroke-width:4; stroke-opacity:1"/>
<line clip-path="url(#clip9100)" x1="4142.33" y1="897.128" x2="4094.33" y2="897.128" style="stroke:#00a9ad; stroke-width:4; stroke-opacity:1"/>
<line clip-path="url(#clip9100)" x1="4142.33" y1="897.128" x2="4142.33" y2="849.128" style="stroke:#00a9ad; stroke-width:4; stroke-opacity:1"/>
<line clip-path="url(#clip9100)" x1="4142.33" y1="897.128" x2="4190.33" y2="897.128" style="stroke:#00a9ad; stroke-width:4; stroke-opacity:1"/>
<g clip-path="url(#clip9100)">
<text style="fill:#000000; fill-opacity:1; font-family:Arial,Helvetica Neue,Helvetica,sans-serif; font-size:48px; text-anchor:start;" transform="rotate(0, 4310.33, 914.628)" x="4310.33" y="914.628">Std .8</text>
</g>
<polyline clip-path="url(#clip9100)" style="stroke:#ed5d92; stroke-width:8; stroke-opacity:1; fill:none" points="
  3974.33,957.608 4262.33,957.608 
  "/>
<line clip-path="url(#clip9100)" x1="4142.33" y1="957.608" x2="4086.33" y2="1013.61" style="stroke:#000000; stroke-width:4; stroke-opacity:1"/>
<line clip-path="url(#clip9100)" x1="4142.33" y1="957.608" x2="4086.33" y2="901.608" style="stroke:#000000; stroke-width:4; stroke-opacity:1"/>
<line clip-path="url(#clip9100)" x1="4142.33" y1="957.608" x2="4198.33" y2="901.608" style="stroke:#000000; stroke-width:4; stroke-opacity:1"/>
<line clip-path="url(#clip9100)" x1="4142.33" y1="957.608" x2="4198.33" y2="1013.61" style="stroke:#000000; stroke-width:4; stroke-opacity:1"/>
<line clip-path="url(#clip9100)" x1="4142.33" y1="957.608" x2="4094.33" y2="1005.61" style="stroke:#ed5d92; stroke-width:4; stroke-opacity:1"/>
<line clip-path="url(#clip9100)" x1="4142.33" y1="957.608" x2="4094.33" y2="909.608" style="stroke:#ed5d92; stroke-width:4; stroke-opacity:1"/>
<line clip-path="url(#clip9100)" x1="4142.33" y1="957.608" x2="4190.33" y2="909.608" style="stroke:#ed5d92; stroke-width:4; stroke-opacity:1"/>
<line clip-path="url(#clip9100)" x1="4142.33" y1="957.608" x2="4190.33" y2="1005.61" style="stroke:#ed5d92; stroke-width:4; stroke-opacity:1"/>
<g clip-path="url(#clip9100)">
<text style="fill:#000000; fill-opacity:1; font-family:Arial,Helvetica Neue,Helvetica,sans-serif; font-size:48px; text-anchor:start;" transform="rotate(0, 4310.33, 975.108)" x="4310.33" y="975.108">Std .7</text>
</g>
</svg>
