<?xml version="1.0" encoding="utf-8"?>
<svg xmlns="http://www.w3.org/2000/svg" xmlns:xlink="http://www.w3.org/1999/xlink" width="1200" height="800" viewBox="0 0 4800 3200">
<defs>
  <clipPath id="clip1300">
    <rect x="0" y="0" width="4800" height="3200"/>
  </clipPath>
</defs>
<polygon clip-path="url(#clip1300)" points="
0,3200 4800,3200 4800,0 0,0 
  " fill="#ffffff" fill-rule="evenodd" fill-opacity="1"/>
<defs>
  <clipPath id="clip1301">
    <rect x="960" y="0" width="3361" height="3200"/>
  </clipPath>
</defs>
<polygon clip-path="url(#clip1300)" points="
1244.19,2611.66 4705.51,2611.66 4705.51,390.351 1244.19,390.351 
  " fill="#ffffff" fill-rule="evenodd" fill-opacity="1"/>
<defs>
  <clipPath id="clip1302">
    <rect x="1244" y="390" width="3462" height="2222"/>
  </clipPath>
</defs>
<polyline clip-path="url(#clip1302)" style="stroke:#000000; stroke-width:4; stroke-opacity:0.1; fill:none" points="
  1478.55,2611.66 1478.55,390.351 
  "/>
<polyline clip-path="url(#clip1302)" style="stroke:#000000; stroke-width:4; stroke-opacity:0.1; fill:none" points="
  2213.38,2611.66 2213.38,390.351 
  "/>
<polyline clip-path="url(#clip1302)" style="stroke:#000000; stroke-width:4; stroke-opacity:0.1; fill:none" points="
  2948.21,2611.66 2948.21,390.351 
  "/>
<polyline clip-path="url(#clip1302)" style="stroke:#000000; stroke-width:4; stroke-opacity:0.1; fill:none" points="
  3683.04,2611.66 3683.04,390.351 
  "/>
<polyline clip-path="url(#clip1302)" style="stroke:#000000; stroke-width:4; stroke-opacity:0.1; fill:none" points="
  4417.87,2611.66 4417.87,390.351 
  "/>
<polyline clip-path="url(#clip1302)" style="stroke:#000000; stroke-width:4; stroke-opacity:0.1; fill:none" points="
  1244.19,2402.41 4705.51,2402.41 
  "/>
<polyline clip-path="url(#clip1302)" style="stroke:#000000; stroke-width:4; stroke-opacity:0.1; fill:none" points="
  1244.19,1968.32 4705.51,1968.32 
  "/>
<polyline clip-path="url(#clip1302)" style="stroke:#000000; stroke-width:4; stroke-opacity:0.1; fill:none" points="
  1244.19,1534.23 4705.51,1534.23 
  "/>
<polyline clip-path="url(#clip1302)" style="stroke:#000000; stroke-width:4; stroke-opacity:0.1; fill:none" points="
  1244.19,1100.14 4705.51,1100.14 
  "/>
<polyline clip-path="url(#clip1302)" style="stroke:#000000; stroke-width:4; stroke-opacity:0.1; fill:none" points="
  1244.19,666.045 4705.51,666.045 
  "/>
<polyline clip-path="url(#clip1300)" style="stroke:#000000; stroke-width:8; stroke-opacity:1; fill:none" points="
  1244.19,2611.66 4705.51,2611.66 
  "/>
<polyline clip-path="url(#clip1300)" style="stroke:#000000; stroke-width:8; stroke-opacity:1; fill:none" points="
  1244.19,2611.66 1244.19,390.351 
  "/>
<polyline clip-path="url(#clip1300)" style="stroke:#000000; stroke-width:8; stroke-opacity:1; fill:none" points="
  1478.55,2611.66 1478.55,2578.34 
  "/>
<polyline clip-path="url(#clip1300)" style="stroke:#000000; stroke-width:8; stroke-opacity:1; fill:none" points="
  2213.38,2611.66 2213.38,2578.34 
  "/>
<polyline clip-path="url(#clip1300)" style="stroke:#000000; stroke-width:8; stroke-opacity:1; fill:none" points="
  2948.21,2611.66 2948.21,2578.34 
  "/>
<polyline clip-path="url(#clip1300)" style="stroke:#000000; stroke-width:8; stroke-opacity:1; fill:none" points="
  3683.04,2611.66 3683.04,2578.34 
  "/>
<polyline clip-path="url(#clip1300)" style="stroke:#000000; stroke-width:8; stroke-opacity:1; fill:none" points="
  4417.87,2611.66 4417.87,2578.34 
  "/>
<polyline clip-path="url(#clip1300)" style="stroke:#000000; stroke-width:8; stroke-opacity:1; fill:none" points="
  1244.19,2402.41 1296.11,2402.41 
  "/>
<polyline clip-path="url(#clip1300)" style="stroke:#000000; stroke-width:8; stroke-opacity:1; fill:none" points="
  1244.19,1968.32 1296.11,1968.32 
  "/>
<polyline clip-path="url(#clip1300)" style="stroke:#000000; stroke-width:8; stroke-opacity:1; fill:none" points="
  1244.19,1534.23 1296.11,1534.23 
  "/>
<polyline clip-path="url(#clip1300)" style="stroke:#000000; stroke-width:8; stroke-opacity:1; fill:none" points="
  1244.19,1100.14 1296.11,1100.14 
  "/>
<polyline clip-path="url(#clip1300)" style="stroke:#000000; stroke-width:8; stroke-opacity:1; fill:none" points="
  1244.19,666.045 1296.11,666.045 
  "/>
<g clip-path="url(#clip1300)">
<text style="fill:#000000; fill-opacity:1; font-family:Arial,Helvetica Neue,Helvetica,sans-serif; font-size:95px; text-anchor:start;" transform="rotate(0, 1315.21, 2761.67)" x="1315.21" y="2761.67">10</text>
</g>
<g clip-path="url(#clip1300)">
<text style="fill:#000000; fill-opacity:1; font-family:Arial,Helvetica Neue,Helvetica,sans-serif; font-size:77px; text-anchor:start;" transform="rotate(0, 1422.26, 2706.85)" x="1422.26" y="2706.85">-</text>
</g>
<g clip-path="url(#clip1300)">
<text style="fill:#000000; fill-opacity:1; font-family:Arial,Helvetica Neue,Helvetica,sans-serif; font-size:77px; text-anchor:start;" transform="rotate(0, 1467.94, 2706.85)" x="1467.94" y="2706.85">12.5 </text>
</g>
<g clip-path="url(#clip1300)">
<text style="fill:#000000; fill-opacity:1; font-family:Arial,Helvetica Neue,Helvetica,sans-serif; font-size:95px; text-anchor:start;" transform="rotate(0, 2050.04, 2761.67)" x="2050.04" y="2761.67">10</text>
</g>
<g clip-path="url(#clip1300)">
<text style="fill:#000000; fill-opacity:1; font-family:Arial,Helvetica Neue,Helvetica,sans-serif; font-size:77px; text-anchor:start;" transform="rotate(0, 2157.09, 2706.85)" x="2157.09" y="2706.85">-</text>
</g>
<g clip-path="url(#clip1300)">
<text style="fill:#000000; fill-opacity:1; font-family:Arial,Helvetica Neue,Helvetica,sans-serif; font-size:77px; text-anchor:start;" transform="rotate(0, 2202.77, 2706.85)" x="2202.77" y="2706.85">10.0 </text>
</g>
<g clip-path="url(#clip1300)">
<text style="fill:#000000; fill-opacity:1; font-family:Arial,Helvetica Neue,Helvetica,sans-serif; font-size:95px; text-anchor:start;" transform="rotate(0, 2806.62, 2761.67)" x="2806.62" y="2761.67">10</text>
</g>
<g clip-path="url(#clip1300)">
<text style="fill:#000000; fill-opacity:1; font-family:Arial,Helvetica Neue,Helvetica,sans-serif; font-size:77px; text-anchor:start;" transform="rotate(0, 2913.66, 2706.85)" x="2913.66" y="2706.85">-</text>
</g>
<g clip-path="url(#clip1300)">
<text style="fill:#000000; fill-opacity:1; font-family:Arial,Helvetica Neue,Helvetica,sans-serif; font-size:77px; text-anchor:start;" transform="rotate(0, 2959.34, 2706.85)" x="2959.34" y="2706.85">7.5 </text>
</g>
<g clip-path="url(#clip1300)">
<text style="fill:#000000; fill-opacity:1; font-family:Arial,Helvetica Neue,Helvetica,sans-serif; font-size:95px; text-anchor:start;" transform="rotate(0, 3541.44, 2761.67)" x="3541.44" y="2761.67">10</text>
</g>
<g clip-path="url(#clip1300)">
<text style="fill:#000000; fill-opacity:1; font-family:Arial,Helvetica Neue,Helvetica,sans-serif; font-size:77px; text-anchor:start;" transform="rotate(0, 3648.49, 2706.85)" x="3648.49" y="2706.85">-</text>
</g>
<g clip-path="url(#clip1300)">
<text style="fill:#000000; fill-opacity:1; font-family:Arial,Helvetica Neue,Helvetica,sans-serif; font-size:77px; text-anchor:start;" transform="rotate(0, 3694.17, 2706.85)" x="3694.17" y="2706.85">5.0 </text>
</g>
<g clip-path="url(#clip1300)">
<text style="fill:#000000; fill-opacity:1; font-family:Arial,Helvetica Neue,Helvetica,sans-serif; font-size:95px; text-anchor:start;" transform="rotate(0, 4276.27, 2761.67)" x="4276.27" y="2761.67">10</text>
</g>
<g clip-path="url(#clip1300)">
<text style="fill:#000000; fill-opacity:1; font-family:Arial,Helvetica Neue,Helvetica,sans-serif; font-size:77px; text-anchor:start;" transform="rotate(0, 4383.32, 2706.85)" x="4383.32" y="2706.85">-</text>
</g>
<g clip-path="url(#clip1300)">
<text style="fill:#000000; fill-opacity:1; font-family:Arial,Helvetica Neue,Helvetica,sans-serif; font-size:77px; text-anchor:start;" transform="rotate(0, 4429, 2706.85)" x="4429" y="2706.85">2.5 </text>
</g>
<g clip-path="url(#clip1300)">
<text style="fill:#000000; fill-opacity:1; font-family:Arial,Helvetica Neue,Helvetica,sans-serif; font-size:95px; text-anchor:start;" transform="rotate(0, 912.997, 2449.87)" x="912.997" y="2449.87">10</text>
</g>
<g clip-path="url(#clip1300)">
<text style="fill:#000000; fill-opacity:1; font-family:Arial,Helvetica Neue,Helvetica,sans-serif; font-size:77px; text-anchor:start;" transform="rotate(0, 1020.05, 2395.05)" x="1020.05" y="2395.05">-</text>
</g>
<g clip-path="url(#clip1300)">
<text style="fill:#000000; fill-opacity:1; font-family:Arial,Helvetica Neue,Helvetica,sans-serif; font-size:77px; text-anchor:start;" transform="rotate(0, 1065.73, 2395.05)" x="1065.73" y="2395.05">0.8 </text>
</g>
<g clip-path="url(#clip1300)">
<text style="fill:#000000; fill-opacity:1; font-family:Arial,Helvetica Neue,Helvetica,sans-serif; font-size:95px; text-anchor:start;" transform="rotate(0, 912.997, 2015.78)" x="912.997" y="2015.78">10</text>
</g>
<g clip-path="url(#clip1300)">
<text style="fill:#000000; fill-opacity:1; font-family:Arial,Helvetica Neue,Helvetica,sans-serif; font-size:77px; text-anchor:start;" transform="rotate(0, 1020.05, 1960.95)" x="1020.05" y="1960.95">-</text>
</g>
<g clip-path="url(#clip1300)">
<text style="fill:#000000; fill-opacity:1; font-family:Arial,Helvetica Neue,Helvetica,sans-serif; font-size:77px; text-anchor:start;" transform="rotate(0, 1065.73, 1960.95)" x="1065.73" y="1960.95">0.6 </text>
</g>
<g clip-path="url(#clip1300)">
<text style="fill:#000000; fill-opacity:1; font-family:Arial,Helvetica Neue,Helvetica,sans-serif; font-size:95px; text-anchor:start;" transform="rotate(0, 912.997, 1581.68)" x="912.997" y="1581.68">10</text>
</g>
<g clip-path="url(#clip1300)">
<text style="fill:#000000; fill-opacity:1; font-family:Arial,Helvetica Neue,Helvetica,sans-serif; font-size:77px; text-anchor:start;" transform="rotate(0, 1020.05, 1526.86)" x="1020.05" y="1526.86">-</text>
</g>
<g clip-path="url(#clip1300)">
<text style="fill:#000000; fill-opacity:1; font-family:Arial,Helvetica Neue,Helvetica,sans-serif; font-size:77px; text-anchor:start;" transform="rotate(0, 1065.73, 1526.86)" x="1065.73" y="1526.86">0.4 </text>
</g>
<g clip-path="url(#clip1300)">
<text style="fill:#000000; fill-opacity:1; font-family:Arial,Helvetica Neue,Helvetica,sans-serif; font-size:95px; text-anchor:start;" transform="rotate(0, 912.997, 1147.59)" x="912.997" y="1147.59">10</text>
</g>
<g clip-path="url(#clip1300)">
<text style="fill:#000000; fill-opacity:1; font-family:Arial,Helvetica Neue,Helvetica,sans-serif; font-size:77px; text-anchor:start;" transform="rotate(0, 1020.05, 1092.77)" x="1020.05" y="1092.77">-</text>
</g>
<g clip-path="url(#clip1300)">
<text style="fill:#000000; fill-opacity:1; font-family:Arial,Helvetica Neue,Helvetica,sans-serif; font-size:77px; text-anchor:start;" transform="rotate(0, 1065.73, 1092.77)" x="1065.73" y="1092.77">0.2 </text>
</g>
<g clip-path="url(#clip1300)">
<text style="fill:#000000; fill-opacity:1; font-family:Arial,Helvetica Neue,Helvetica,sans-serif; font-size:95px; text-anchor:start;" transform="rotate(0, 958.676, 713.5)" x="958.676" y="713.5">10</text>
</g>
<g clip-path="url(#clip1300)">
<text style="fill:#000000; fill-opacity:1; font-family:Arial,Helvetica Neue,Helvetica,sans-serif; font-size:77px; text-anchor:start;" transform="rotate(0, 1065.73, 658.679)" x="1065.73" y="658.679">0.0 </text>
</g>
<g clip-path="url(#clip1300)">
<text style="fill:#000000; fill-opacity:1; font-family:Arial,Helvetica Neue,Helvetica,sans-serif; font-size:166px; text-anchor:middle;" transform="rotate(0, 2974.85, 145.2)" x="2974.85" y="145.2">wp_12</text>
</g>
<g clip-path="url(#clip1300)">
<text style="fill:#000000; fill-opacity:1; font-family:Arial,Helvetica Neue,Helvetica,sans-serif; font-size:130px; text-anchor:middle;" transform="rotate(0, 2974.85, 2879.58)" x="2974.85" y="2879.58">Error</text>
</g>
<g clip-path="url(#clip1300)">
<text style="fill:#000000; fill-opacity:1; font-family:Arial,Helvetica Neue,Helvetica,sans-serif; font-size:130px; text-anchor:middle;" transform="rotate(-90, 781.637, 1501)" x="781.637" y="1501">Time (s)</text>
</g>
<polyline clip-path="url(#clip1302)" style="stroke:#009af9; stroke-width:8; stroke-opacity:1; fill:none" points="
  4598.62,2542.05 4595.47,2548.79 4597.7,2529.04 4593.75,2528.14 4595.19,2464.09 4601.14,2296.24 4484.06,2036.35 
  "/>
<circle clip-path="url(#clip1302)" style="fill:#000000; stroke:none; fill-opacity:1" cx="4598.62" cy="2542.05" r="36"/>
<circle clip-path="url(#clip1302)" style="fill:#009af9; stroke:none; fill-opacity:1" cx="4598.62" cy="2542.05" r="28"/>
<circle clip-path="url(#clip1302)" style="fill:#000000; stroke:none; fill-opacity:1" cx="4595.47" cy="2548.79" r="36"/>
<circle clip-path="url(#clip1302)" style="fill:#009af9; stroke:none; fill-opacity:1" cx="4595.47" cy="2548.79" r="28"/>
<circle clip-path="url(#clip1302)" style="fill:#000000; stroke:none; fill-opacity:1" cx="4597.7" cy="2529.04" r="36"/>
<circle clip-path="url(#clip1302)" style="fill:#009af9; stroke:none; fill-opacity:1" cx="4597.7" cy="2529.04" r="28"/>
<circle clip-path="url(#clip1302)" style="fill:#000000; stroke:none; fill-opacity:1" cx="4593.75" cy="2528.14" r="36"/>
<circle clip-path="url(#clip1302)" style="fill:#009af9; stroke:none; fill-opacity:1" cx="4593.75" cy="2528.14" r="28"/>
<circle clip-path="url(#clip1302)" style="fill:#000000; stroke:none; fill-opacity:1" cx="4595.19" cy="2464.09" r="36"/>
<circle clip-path="url(#clip1302)" style="fill:#009af9; stroke:none; fill-opacity:1" cx="4595.19" cy="2464.09" r="28"/>
<circle clip-path="url(#clip1302)" style="fill:#000000; stroke:none; fill-opacity:1" cx="4601.14" cy="2296.24" r="36"/>
<circle clip-path="url(#clip1302)" style="fill:#009af9; stroke:none; fill-opacity:1" cx="4601.14" cy="2296.24" r="28"/>
<circle clip-path="url(#clip1302)" style="fill:#000000; stroke:none; fill-opacity:1" cx="4484.06" cy="2036.35" r="36"/>
<circle clip-path="url(#clip1302)" style="fill:#009af9; stroke:none; fill-opacity:1" cx="4484.06" cy="2036.35" r="28"/>
<polyline clip-path="url(#clip1302)" style="stroke:#e26f46; stroke-width:8; stroke-opacity:1; fill:none" points="
  4594.64,2534.88 4594.52,2488.94 4598.15,2387.58 4607.55,2147.74 4493.07,1757.13 4586.32,1258.84 1342.15,453.218 
  "/>
<polygon clip-path="url(#clip1302)" style="fill:#000000; fill-opacity:1" points="
  4554.64,2494.88 4554.64,2574.88 4634.64,2574.88 4634.64,2494.88 4554.64,2494.88 
  "/>
<polygon clip-path="url(#clip1302)" style="fill:#e26f46; fill-opacity:1" points="
  4562.64,2502.88 4562.64,2566.88 4626.64,2566.88 4626.64,2502.88 4562.64,2502.88 
  "/>
<polygon clip-path="url(#clip1302)" style="fill:#000000; fill-opacity:1" points="
  4554.52,2448.94 4554.52,2528.94 4634.52,2528.94 4634.52,2448.94 4554.52,2448.94 
  "/>
<polygon clip-path="url(#clip1302)" style="fill:#e26f46; fill-opacity:1" points="
  4562.52,2456.94 4562.52,2520.94 4626.52,2520.94 4626.52,2456.94 4562.52,2456.94 
  "/>
<polygon clip-path="url(#clip1302)" style="fill:#000000; fill-opacity:1" points="
  4558.15,2347.58 4558.15,2427.58 4638.15,2427.58 4638.15,2347.58 4558.15,2347.58 
  "/>
<polygon clip-path="url(#clip1302)" style="fill:#e26f46; fill-opacity:1" points="
  4566.15,2355.58 4566.15,2419.58 4630.15,2419.58 4630.15,2355.58 4566.15,2355.58 
  "/>
<polygon clip-path="url(#clip1302)" style="fill:#000000; fill-opacity:1" points="
  4567.55,2107.74 4567.55,2187.74 4647.55,2187.74 4647.55,2107.74 4567.55,2107.74 
  "/>
<polygon clip-path="url(#clip1302)" style="fill:#e26f46; fill-opacity:1" points="
  4575.55,2115.74 4575.55,2179.74 4639.55,2179.74 4639.55,2115.74 4575.55,2115.74 
  "/>
<polygon clip-path="url(#clip1302)" style="fill:#000000; fill-opacity:1" points="
  4453.07,1717.13 4453.07,1797.13 4533.07,1797.13 4533.07,1717.13 4453.07,1717.13 
  "/>
<polygon clip-path="url(#clip1302)" style="fill:#e26f46; fill-opacity:1" points="
  4461.07,1725.13 4461.07,1789.13 4525.07,1789.13 4525.07,1725.13 4461.07,1725.13 
  "/>
<polygon clip-path="url(#clip1302)" style="fill:#000000; fill-opacity:1" points="
  4546.32,1218.84 4546.32,1298.84 4626.32,1298.84 4626.32,1218.84 4546.32,1218.84 
  "/>
<polygon clip-path="url(#clip1302)" style="fill:#e26f46; fill-opacity:1" points="
  4554.32,1226.84 4554.32,1290.84 4618.32,1290.84 4618.32,1226.84 4554.32,1226.84 
  "/>
<polygon clip-path="url(#clip1302)" style="fill:#000000; fill-opacity:1" points="
  1302.15,413.218 1302.15,493.218 1382.15,493.218 1382.15,413.218 1302.15,413.218 
  "/>
<polygon clip-path="url(#clip1302)" style="fill:#e26f46; fill-opacity:1" points="
  1310.15,421.218 1310.15,485.218 1374.15,485.218 1374.15,421.218 1310.15,421.218 
  "/>
<polygon clip-path="url(#clip1300)" points="
3907.6,799.311 4561.51,799.311 4561.51,617.871 3907.6,617.871 
  " fill="#ffffff" fill-rule="evenodd" fill-opacity="1"/>
<polyline clip-path="url(#clip1300)" style="stroke:#000000; stroke-width:8; stroke-opacity:1; fill:none" points="
  3907.6,799.311 4561.51,799.311 4561.51,617.871 3907.6,617.871 3907.6,799.311 
  "/>
<polyline clip-path="url(#clip1300)" style="stroke:#009af9; stroke-width:8; stroke-opacity:1; fill:none" points="
  3955.6,678.351 4243.6,678.351 
  "/>
<circle clip-path="url(#clip1300)" style="fill:#000000; stroke:none; fill-opacity:1" cx="4123.6" cy="678.351" r="50"/>
<circle clip-path="url(#clip1300)" style="fill:#009af9; stroke:none; fill-opacity:1" cx="4123.6" cy="678.351" r="43"/>
<g clip-path="url(#clip1300)">
<text style="fill:#000000; fill-opacity:1; font-family:Arial,Helvetica Neue,Helvetica,sans-serif; font-size:48px; text-anchor:start;" transform="rotate(0, 4291.6, 695.851)" x="4291.6" y="695.851">R4 PI .8</text>
</g>
<polyline clip-path="url(#clip1300)" style="stroke:#e26f46; stroke-width:8; stroke-opacity:1; fill:none" points="
  3955.6,738.831 4243.6,738.831 
  "/>
<polygon clip-path="url(#clip1300)" style="fill:#000000; fill-opacity:1" points="
  4067.6,682.831 4067.6,794.831 4179.6,794.831 4179.6,682.831 4067.6,682.831 
  "/>
<polygon clip-path="url(#clip1300)" style="fill:#e26f46; fill-opacity:1" points="
  4075.6,690.831 4075.6,786.831 4171.6,786.831 4171.6,690.831 4075.6,690.831 
  "/>
<g clip-path="url(#clip1300)">
<text style="fill:#000000; fill-opacity:1; font-family:Arial,Helvetica Neue,Helvetica,sans-serif; font-size:48px; text-anchor:start;" transform="rotate(0, 4291.6, 756.331)" x="4291.6" y="756.331">R4 PI .5</text>
</g>
</svg>
