<?xml version="1.0" encoding="utf-8"?>
<svg xmlns="http://www.w3.org/2000/svg" xmlns:xlink="http://www.w3.org/1999/xlink" width="1200" height="800" viewBox="0 0 4800 3200">
<defs>
  <clipPath id="clip3400">
    <rect x="0" y="0" width="4800" height="3200"/>
  </clipPath>
</defs>
<polygon clip-path="url(#clip3400)" points="
0,3200 4800,3200 4800,0 0,0 
  " fill="#ffffff" fill-rule="evenodd" fill-opacity="1"/>
<defs>
  <clipPath id="clip3401">
    <rect x="960" y="0" width="3361" height="3200"/>
  </clipPath>
</defs>
<polygon clip-path="url(#clip3400)" points="
1244.19,2611.66 4705.51,2611.66 4705.51,390.351 1244.19,390.351 
  " fill="#ffffff" fill-rule="evenodd" fill-opacity="1"/>
<defs>
  <clipPath id="clip3402">
    <rect x="1244" y="390" width="3462" height="2222"/>
  </clipPath>
</defs>
<polyline clip-path="url(#clip3402)" style="stroke:#000000; stroke-width:4; stroke-opacity:0.1; fill:none" points="
  1524.29,2611.66 1524.29,390.351 
  "/>
<polyline clip-path="url(#clip3402)" style="stroke:#000000; stroke-width:4; stroke-opacity:0.1; fill:none" points="
  2243.48,2611.66 2243.48,390.351 
  "/>
<polyline clip-path="url(#clip3402)" style="stroke:#000000; stroke-width:4; stroke-opacity:0.1; fill:none" points="
  2962.68,2611.66 2962.68,390.351 
  "/>
<polyline clip-path="url(#clip3402)" style="stroke:#000000; stroke-width:4; stroke-opacity:0.1; fill:none" points="
  3681.87,2611.66 3681.87,390.351 
  "/>
<polyline clip-path="url(#clip3402)" style="stroke:#000000; stroke-width:4; stroke-opacity:0.1; fill:none" points="
  4401.07,2611.66 4401.07,390.351 
  "/>
<polyline clip-path="url(#clip3402)" style="stroke:#000000; stroke-width:4; stroke-opacity:0.1; fill:none" points="
  1244.19,2405.21 4705.51,2405.21 
  "/>
<polyline clip-path="url(#clip3402)" style="stroke:#000000; stroke-width:4; stroke-opacity:0.1; fill:none" points="
  1244.19,1936.96 4705.51,1936.96 
  "/>
<polyline clip-path="url(#clip3402)" style="stroke:#000000; stroke-width:4; stroke-opacity:0.1; fill:none" points="
  1244.19,1468.7 4705.51,1468.7 
  "/>
<polyline clip-path="url(#clip3402)" style="stroke:#000000; stroke-width:4; stroke-opacity:0.1; fill:none" points="
  1244.19,1000.44 4705.51,1000.44 
  "/>
<polyline clip-path="url(#clip3402)" style="stroke:#000000; stroke-width:4; stroke-opacity:0.1; fill:none" points="
  1244.19,532.176 4705.51,532.176 
  "/>
<polyline clip-path="url(#clip3400)" style="stroke:#000000; stroke-width:8; stroke-opacity:1; fill:none" points="
  1244.19,2611.66 4705.51,2611.66 
  "/>
<polyline clip-path="url(#clip3400)" style="stroke:#000000; stroke-width:8; stroke-opacity:1; fill:none" points="
  1244.19,2611.66 1244.19,390.351 
  "/>
<polyline clip-path="url(#clip3400)" style="stroke:#000000; stroke-width:8; stroke-opacity:1; fill:none" points="
  1524.29,2611.66 1524.29,2578.34 
  "/>
<polyline clip-path="url(#clip3400)" style="stroke:#000000; stroke-width:8; stroke-opacity:1; fill:none" points="
  2243.48,2611.66 2243.48,2578.34 
  "/>
<polyline clip-path="url(#clip3400)" style="stroke:#000000; stroke-width:8; stroke-opacity:1; fill:none" points="
  2962.68,2611.66 2962.68,2578.34 
  "/>
<polyline clip-path="url(#clip3400)" style="stroke:#000000; stroke-width:8; stroke-opacity:1; fill:none" points="
  3681.87,2611.66 3681.87,2578.34 
  "/>
<polyline clip-path="url(#clip3400)" style="stroke:#000000; stroke-width:8; stroke-opacity:1; fill:none" points="
  4401.07,2611.66 4401.07,2578.34 
  "/>
<polyline clip-path="url(#clip3400)" style="stroke:#000000; stroke-width:8; stroke-opacity:1; fill:none" points="
  1244.19,2405.21 1296.11,2405.21 
  "/>
<polyline clip-path="url(#clip3400)" style="stroke:#000000; stroke-width:8; stroke-opacity:1; fill:none" points="
  1244.19,1936.96 1296.11,1936.96 
  "/>
<polyline clip-path="url(#clip3400)" style="stroke:#000000; stroke-width:8; stroke-opacity:1; fill:none" points="
  1244.19,1468.7 1296.11,1468.7 
  "/>
<polyline clip-path="url(#clip3400)" style="stroke:#000000; stroke-width:8; stroke-opacity:1; fill:none" points="
  1244.19,1000.44 1296.11,1000.44 
  "/>
<polyline clip-path="url(#clip3400)" style="stroke:#000000; stroke-width:8; stroke-opacity:1; fill:none" points="
  1244.19,532.176 1296.11,532.176 
  "/>
<g clip-path="url(#clip3400)">
<text style="fill:#000000; fill-opacity:1; font-family:Arial,Helvetica Neue,Helvetica,sans-serif; font-size:95px; text-anchor:start;" transform="rotate(0, 1360.95, 2761.67)" x="1360.95" y="2761.67">10</text>
</g>
<g clip-path="url(#clip3400)">
<text style="fill:#000000; fill-opacity:1; font-family:Arial,Helvetica Neue,Helvetica,sans-serif; font-size:77px; text-anchor:start;" transform="rotate(0, 1468, 2706.85)" x="1468" y="2706.85">-</text>
</g>
<g clip-path="url(#clip3400)">
<text style="fill:#000000; fill-opacity:1; font-family:Arial,Helvetica Neue,Helvetica,sans-serif; font-size:77px; text-anchor:start;" transform="rotate(0, 1513.68, 2706.85)" x="1513.68" y="2706.85">12.5 </text>
</g>
<g clip-path="url(#clip3400)">
<text style="fill:#000000; fill-opacity:1; font-family:Arial,Helvetica Neue,Helvetica,sans-serif; font-size:95px; text-anchor:start;" transform="rotate(0, 2080.14, 2761.67)" x="2080.14" y="2761.67">10</text>
</g>
<g clip-path="url(#clip3400)">
<text style="fill:#000000; fill-opacity:1; font-family:Arial,Helvetica Neue,Helvetica,sans-serif; font-size:77px; text-anchor:start;" transform="rotate(0, 2187.19, 2706.85)" x="2187.19" y="2706.85">-</text>
</g>
<g clip-path="url(#clip3400)">
<text style="fill:#000000; fill-opacity:1; font-family:Arial,Helvetica Neue,Helvetica,sans-serif; font-size:77px; text-anchor:start;" transform="rotate(0, 2232.87, 2706.85)" x="2232.87" y="2706.85">10.0 </text>
</g>
<g clip-path="url(#clip3400)">
<text style="fill:#000000; fill-opacity:1; font-family:Arial,Helvetica Neue,Helvetica,sans-serif; font-size:95px; text-anchor:start;" transform="rotate(0, 2821.08, 2761.67)" x="2821.08" y="2761.67">10</text>
</g>
<g clip-path="url(#clip3400)">
<text style="fill:#000000; fill-opacity:1; font-family:Arial,Helvetica Neue,Helvetica,sans-serif; font-size:77px; text-anchor:start;" transform="rotate(0, 2928.13, 2706.85)" x="2928.13" y="2706.85">-</text>
</g>
<g clip-path="url(#clip3400)">
<text style="fill:#000000; fill-opacity:1; font-family:Arial,Helvetica Neue,Helvetica,sans-serif; font-size:77px; text-anchor:start;" transform="rotate(0, 2973.81, 2706.85)" x="2973.81" y="2706.85">7.5 </text>
</g>
<g clip-path="url(#clip3400)">
<text style="fill:#000000; fill-opacity:1; font-family:Arial,Helvetica Neue,Helvetica,sans-serif; font-size:95px; text-anchor:start;" transform="rotate(0, 3540.28, 2761.67)" x="3540.28" y="2761.67">10</text>
</g>
<g clip-path="url(#clip3400)">
<text style="fill:#000000; fill-opacity:1; font-family:Arial,Helvetica Neue,Helvetica,sans-serif; font-size:77px; text-anchor:start;" transform="rotate(0, 3647.32, 2706.85)" x="3647.32" y="2706.85">-</text>
</g>
<g clip-path="url(#clip3400)">
<text style="fill:#000000; fill-opacity:1; font-family:Arial,Helvetica Neue,Helvetica,sans-serif; font-size:77px; text-anchor:start;" transform="rotate(0, 3693, 2706.85)" x="3693" y="2706.85">5.0 </text>
</g>
<g clip-path="url(#clip3400)">
<text style="fill:#000000; fill-opacity:1; font-family:Arial,Helvetica Neue,Helvetica,sans-serif; font-size:95px; text-anchor:start;" transform="rotate(0, 4259.47, 2761.67)" x="4259.47" y="2761.67">10</text>
</g>
<g clip-path="url(#clip3400)">
<text style="fill:#000000; fill-opacity:1; font-family:Arial,Helvetica Neue,Helvetica,sans-serif; font-size:77px; text-anchor:start;" transform="rotate(0, 4366.52, 2706.85)" x="4366.52" y="2706.85">-</text>
</g>
<g clip-path="url(#clip3400)">
<text style="fill:#000000; fill-opacity:1; font-family:Arial,Helvetica Neue,Helvetica,sans-serif; font-size:77px; text-anchor:start;" transform="rotate(0, 4412.2, 2706.85)" x="4412.2" y="2706.85">2.5 </text>
</g>
<g clip-path="url(#clip3400)">
<text style="fill:#000000; fill-opacity:1; font-family:Arial,Helvetica Neue,Helvetica,sans-serif; font-size:95px; text-anchor:start;" transform="rotate(0, 912.997, 2452.67)" x="912.997" y="2452.67">10</text>
</g>
<g clip-path="url(#clip3400)">
<text style="fill:#000000; fill-opacity:1; font-family:Arial,Helvetica Neue,Helvetica,sans-serif; font-size:77px; text-anchor:start;" transform="rotate(0, 1020.05, 2397.85)" x="1020.05" y="2397.85">-</text>
</g>
<g clip-path="url(#clip3400)">
<text style="fill:#000000; fill-opacity:1; font-family:Arial,Helvetica Neue,Helvetica,sans-serif; font-size:77px; text-anchor:start;" transform="rotate(0, 1065.73, 2397.85)" x="1065.73" y="2397.85">0.8 </text>
</g>
<g clip-path="url(#clip3400)">
<text style="fill:#000000; fill-opacity:1; font-family:Arial,Helvetica Neue,Helvetica,sans-serif; font-size:95px; text-anchor:start;" transform="rotate(0, 912.997, 1984.41)" x="912.997" y="1984.41">10</text>
</g>
<g clip-path="url(#clip3400)">
<text style="fill:#000000; fill-opacity:1; font-family:Arial,Helvetica Neue,Helvetica,sans-serif; font-size:77px; text-anchor:start;" transform="rotate(0, 1020.05, 1929.59)" x="1020.05" y="1929.59">-</text>
</g>
<g clip-path="url(#clip3400)">
<text style="fill:#000000; fill-opacity:1; font-family:Arial,Helvetica Neue,Helvetica,sans-serif; font-size:77px; text-anchor:start;" transform="rotate(0, 1065.73, 1929.59)" x="1065.73" y="1929.59">0.6 </text>
</g>
<g clip-path="url(#clip3400)">
<text style="fill:#000000; fill-opacity:1; font-family:Arial,Helvetica Neue,Helvetica,sans-serif; font-size:95px; text-anchor:start;" transform="rotate(0, 912.997, 1516.15)" x="912.997" y="1516.15">10</text>
</g>
<g clip-path="url(#clip3400)">
<text style="fill:#000000; fill-opacity:1; font-family:Arial,Helvetica Neue,Helvetica,sans-serif; font-size:77px; text-anchor:start;" transform="rotate(0, 1020.05, 1461.33)" x="1020.05" y="1461.33">-</text>
</g>
<g clip-path="url(#clip3400)">
<text style="fill:#000000; fill-opacity:1; font-family:Arial,Helvetica Neue,Helvetica,sans-serif; font-size:77px; text-anchor:start;" transform="rotate(0, 1065.73, 1461.33)" x="1065.73" y="1461.33">0.4 </text>
</g>
<g clip-path="url(#clip3400)">
<text style="fill:#000000; fill-opacity:1; font-family:Arial,Helvetica Neue,Helvetica,sans-serif; font-size:95px; text-anchor:start;" transform="rotate(0, 912.997, 1047.89)" x="912.997" y="1047.89">10</text>
</g>
<g clip-path="url(#clip3400)">
<text style="fill:#000000; fill-opacity:1; font-family:Arial,Helvetica Neue,Helvetica,sans-serif; font-size:77px; text-anchor:start;" transform="rotate(0, 1020.05, 993.07)" x="1020.05" y="993.07">-</text>
</g>
<g clip-path="url(#clip3400)">
<text style="fill:#000000; fill-opacity:1; font-family:Arial,Helvetica Neue,Helvetica,sans-serif; font-size:77px; text-anchor:start;" transform="rotate(0, 1065.73, 993.07)" x="1065.73" y="993.07">0.2 </text>
</g>
<g clip-path="url(#clip3400)">
<text style="fill:#000000; fill-opacity:1; font-family:Arial,Helvetica Neue,Helvetica,sans-serif; font-size:95px; text-anchor:start;" transform="rotate(0, 958.676, 579.631)" x="958.676" y="579.631">10</text>
</g>
<g clip-path="url(#clip3400)">
<text style="fill:#000000; fill-opacity:1; font-family:Arial,Helvetica Neue,Helvetica,sans-serif; font-size:77px; text-anchor:start;" transform="rotate(0, 1065.73, 524.811)" x="1065.73" y="524.811">0.0 </text>
</g>
<g clip-path="url(#clip3400)">
<text style="fill:#000000; fill-opacity:1; font-family:Arial,Helvetica Neue,Helvetica,sans-serif; font-size:166px; text-anchor:middle;" transform="rotate(0, 2974.85, 145.2)" x="2974.85" y="145.2">wp_13</text>
</g>
<g clip-path="url(#clip3400)">
<text style="fill:#000000; fill-opacity:1; font-family:Arial,Helvetica Neue,Helvetica,sans-serif; font-size:130px; text-anchor:middle;" transform="rotate(0, 2974.85, 2879.58)" x="2974.85" y="2879.58">Error</text>
</g>
<g clip-path="url(#clip3400)">
<text style="fill:#000000; fill-opacity:1; font-family:Arial,Helvetica Neue,Helvetica,sans-serif; font-size:130px; text-anchor:middle;" transform="rotate(-90, 781.637, 1501)" x="781.637" y="1501">Time (s)</text>
</g>
<polyline clip-path="url(#clip3402)" style="stroke:#009af9; stroke-width:8; stroke-opacity:1; fill:none" points="
  4607.55,2539.38 4605.66,2548.79 4607.32,2525.6 4603.46,2504.04 4602.57,2436.5 4602.08,2250.59 4471,1981.45 
  "/>
<circle clip-path="url(#clip3402)" style="fill:#000000; stroke:none; fill-opacity:1" cx="4607.55" cy="2539.38" r="36"/>
<circle clip-path="url(#clip3402)" style="fill:#009af9; stroke:none; fill-opacity:1" cx="4607.55" cy="2539.38" r="28"/>
<circle clip-path="url(#clip3402)" style="fill:#000000; stroke:none; fill-opacity:1" cx="4605.66" cy="2548.79" r="36"/>
<circle clip-path="url(#clip3402)" style="fill:#009af9; stroke:none; fill-opacity:1" cx="4605.66" cy="2548.79" r="28"/>
<circle clip-path="url(#clip3402)" style="fill:#000000; stroke:none; fill-opacity:1" cx="4607.32" cy="2525.6" r="36"/>
<circle clip-path="url(#clip3402)" style="fill:#009af9; stroke:none; fill-opacity:1" cx="4607.32" cy="2525.6" r="28"/>
<circle clip-path="url(#clip3402)" style="fill:#000000; stroke:none; fill-opacity:1" cx="4603.46" cy="2504.04" r="36"/>
<circle clip-path="url(#clip3402)" style="fill:#009af9; stroke:none; fill-opacity:1" cx="4603.46" cy="2504.04" r="28"/>
<circle clip-path="url(#clip3402)" style="fill:#000000; stroke:none; fill-opacity:1" cx="4602.57" cy="2436.5" r="36"/>
<circle clip-path="url(#clip3402)" style="fill:#009af9; stroke:none; fill-opacity:1" cx="4602.57" cy="2436.5" r="28"/>
<circle clip-path="url(#clip3402)" style="fill:#000000; stroke:none; fill-opacity:1" cx="4602.08" cy="2250.59" r="36"/>
<circle clip-path="url(#clip3402)" style="fill:#009af9; stroke:none; fill-opacity:1" cx="4602.08" cy="2250.59" r="28"/>
<circle clip-path="url(#clip3402)" style="fill:#000000; stroke:none; fill-opacity:1" cx="4471" cy="1981.45" r="36"/>
<circle clip-path="url(#clip3402)" style="fill:#009af9; stroke:none; fill-opacity:1" cx="4471" cy="1981.45" r="28"/>
<polyline clip-path="url(#clip3402)" style="stroke:#e26f46; stroke-width:8; stroke-opacity:1; fill:none" points="
  4604.61,2520.97 4602.82,2447.85 4602.2,2373.09 4602.81,2087.91 4470.73,1665.83 4561.53,1128.56 1342.15,453.218 
  "/>
<polygon clip-path="url(#clip3402)" style="fill:#000000; fill-opacity:1" points="
  4564.61,2480.97 4564.61,2560.97 4644.61,2560.97 4644.61,2480.97 4564.61,2480.97 
  "/>
<polygon clip-path="url(#clip3402)" style="fill:#e26f46; fill-opacity:1" points="
  4572.61,2488.97 4572.61,2552.97 4636.61,2552.97 4636.61,2488.97 4572.61,2488.97 
  "/>
<polygon clip-path="url(#clip3402)" style="fill:#000000; fill-opacity:1" points="
  4562.82,2407.85 4562.82,2487.85 4642.82,2487.85 4642.82,2407.85 4562.82,2407.85 
  "/>
<polygon clip-path="url(#clip3402)" style="fill:#e26f46; fill-opacity:1" points="
  4570.82,2415.85 4570.82,2479.85 4634.82,2479.85 4634.82,2415.85 4570.82,2415.85 
  "/>
<polygon clip-path="url(#clip3402)" style="fill:#000000; fill-opacity:1" points="
  4562.2,2333.09 4562.2,2413.09 4642.2,2413.09 4642.2,2333.09 4562.2,2333.09 
  "/>
<polygon clip-path="url(#clip3402)" style="fill:#e26f46; fill-opacity:1" points="
  4570.2,2341.09 4570.2,2405.09 4634.2,2405.09 4634.2,2341.09 4570.2,2341.09 
  "/>
<polygon clip-path="url(#clip3402)" style="fill:#000000; fill-opacity:1" points="
  4562.81,2047.91 4562.81,2127.91 4642.81,2127.91 4642.81,2047.91 4562.81,2047.91 
  "/>
<polygon clip-path="url(#clip3402)" style="fill:#e26f46; fill-opacity:1" points="
  4570.81,2055.91 4570.81,2119.91 4634.81,2119.91 4634.81,2055.91 4570.81,2055.91 
  "/>
<polygon clip-path="url(#clip3402)" style="fill:#000000; fill-opacity:1" points="
  4430.73,1625.83 4430.73,1705.83 4510.73,1705.83 4510.73,1625.83 4430.73,1625.83 
  "/>
<polygon clip-path="url(#clip3402)" style="fill:#e26f46; fill-opacity:1" points="
  4438.73,1633.83 4438.73,1697.83 4502.73,1697.83 4502.73,1633.83 4438.73,1633.83 
  "/>
<polygon clip-path="url(#clip3402)" style="fill:#000000; fill-opacity:1" points="
  4521.53,1088.56 4521.53,1168.56 4601.53,1168.56 4601.53,1088.56 4521.53,1088.56 
  "/>
<polygon clip-path="url(#clip3402)" style="fill:#e26f46; fill-opacity:1" points="
  4529.53,1096.56 4529.53,1160.56 4593.53,1160.56 4593.53,1096.56 4529.53,1096.56 
  "/>
<polygon clip-path="url(#clip3402)" style="fill:#000000; fill-opacity:1" points="
  1302.15,413.218 1302.15,493.218 1382.15,493.218 1382.15,413.218 1302.15,413.218 
  "/>
<polygon clip-path="url(#clip3402)" style="fill:#e26f46; fill-opacity:1" points="
  1310.15,421.218 1310.15,485.218 1374.15,485.218 1374.15,421.218 1310.15,421.218 
  "/>
<polygon clip-path="url(#clip3400)" points="
3907.6,799.311 4561.51,799.311 4561.51,617.871 3907.6,617.871 
  " fill="#ffffff" fill-rule="evenodd" fill-opacity="1"/>
<polyline clip-path="url(#clip3400)" style="stroke:#000000; stroke-width:8; stroke-opacity:1; fill:none" points="
  3907.6,799.311 4561.51,799.311 4561.51,617.871 3907.6,617.871 3907.6,799.311 
  "/>
<polyline clip-path="url(#clip3400)" style="stroke:#009af9; stroke-width:8; stroke-opacity:1; fill:none" points="
  3955.6,678.351 4243.6,678.351 
  "/>
<circle clip-path="url(#clip3400)" style="fill:#000000; stroke:none; fill-opacity:1" cx="4123.6" cy="678.351" r="50"/>
<circle clip-path="url(#clip3400)" style="fill:#009af9; stroke:none; fill-opacity:1" cx="4123.6" cy="678.351" r="43"/>
<g clip-path="url(#clip3400)">
<text style="fill:#000000; fill-opacity:1; font-family:Arial,Helvetica Neue,Helvetica,sans-serif; font-size:48px; text-anchor:start;" transform="rotate(0, 4291.6, 695.851)" x="4291.6" y="695.851">R4 PI .8</text>
</g>
<polyline clip-path="url(#clip3400)" style="stroke:#e26f46; stroke-width:8; stroke-opacity:1; fill:none" points="
  3955.6,738.831 4243.6,738.831 
  "/>
<polygon clip-path="url(#clip3400)" style="fill:#000000; fill-opacity:1" points="
  4067.6,682.831 4067.6,794.831 4179.6,794.831 4179.6,682.831 4067.6,682.831 
  "/>
<polygon clip-path="url(#clip3400)" style="fill:#e26f46; fill-opacity:1" points="
  4075.6,690.831 4075.6,786.831 4171.6,786.831 4171.6,690.831 4075.6,690.831 
  "/>
<g clip-path="url(#clip3400)">
<text style="fill:#000000; fill-opacity:1; font-family:Arial,Helvetica Neue,Helvetica,sans-serif; font-size:48px; text-anchor:start;" transform="rotate(0, 4291.6, 756.331)" x="4291.6" y="756.331">R4 PI .5</text>
</g>
</svg>
