<?xml version="1.0" encoding="utf-8"?>
<svg xmlns="http://www.w3.org/2000/svg" xmlns:xlink="http://www.w3.org/1999/xlink" width="1200" height="800" viewBox="0 0 4800 3200">
<defs>
  <clipPath id="clip1900">
    <rect x="0" y="0" width="4800" height="3200"/>
  </clipPath>
</defs>
<polygon clip-path="url(#clip1900)" points="
0,3200 4800,3200 4800,0 0,0 
  " fill="#ffffff" fill-rule="evenodd" fill-opacity="1"/>
<defs>
  <clipPath id="clip1901">
    <rect x="960" y="0" width="3361" height="3200"/>
  </clipPath>
</defs>
<polygon clip-path="url(#clip1900)" points="
1364.76,2611.66 4705.51,2611.66 4705.51,390.351 1364.76,390.351 
  " fill="#ffffff" fill-rule="evenodd" fill-opacity="1"/>
<defs>
  <clipPath id="clip1902">
    <rect x="1364" y="390" width="3342" height="2222"/>
  </clipPath>
</defs>
<polyline clip-path="url(#clip1902)" style="stroke:#000000; stroke-width:4; stroke-opacity:0.1; fill:none" points="
  1590.96,2611.66 1590.96,390.351 
  "/>
<polyline clip-path="url(#clip1902)" style="stroke:#000000; stroke-width:4; stroke-opacity:0.1; fill:none" points="
  2300.19,2611.66 2300.19,390.351 
  "/>
<polyline clip-path="url(#clip1902)" style="stroke:#000000; stroke-width:4; stroke-opacity:0.1; fill:none" points="
  3009.42,2611.66 3009.42,390.351 
  "/>
<polyline clip-path="url(#clip1902)" style="stroke:#000000; stroke-width:4; stroke-opacity:0.1; fill:none" points="
  3718.66,2611.66 3718.66,390.351 
  "/>
<polyline clip-path="url(#clip1902)" style="stroke:#000000; stroke-width:4; stroke-opacity:0.1; fill:none" points="
  4427.89,2611.66 4427.89,390.351 
  "/>
<polyline clip-path="url(#clip1902)" style="stroke:#000000; stroke-width:4; stroke-opacity:0.1; fill:none" points="
  1364.76,2593.86 4705.51,2593.86 
  "/>
<polyline clip-path="url(#clip1902)" style="stroke:#000000; stroke-width:4; stroke-opacity:0.1; fill:none" points="
  1364.76,2106.49 4705.51,2106.49 
  "/>
<polyline clip-path="url(#clip1902)" style="stroke:#000000; stroke-width:4; stroke-opacity:0.1; fill:none" points="
  1364.76,1619.12 4705.51,1619.12 
  "/>
<polyline clip-path="url(#clip1902)" style="stroke:#000000; stroke-width:4; stroke-opacity:0.1; fill:none" points="
  1364.76,1131.75 4705.51,1131.75 
  "/>
<polyline clip-path="url(#clip1902)" style="stroke:#000000; stroke-width:4; stroke-opacity:0.1; fill:none" points="
  1364.76,644.377 4705.51,644.377 
  "/>
<polyline clip-path="url(#clip1900)" style="stroke:#000000; stroke-width:8; stroke-opacity:1; fill:none" points="
  1364.76,2611.66 4705.51,2611.66 
  "/>
<polyline clip-path="url(#clip1900)" style="stroke:#000000; stroke-width:8; stroke-opacity:1; fill:none" points="
  1364.76,2611.66 1364.76,390.351 
  "/>
<polyline clip-path="url(#clip1900)" style="stroke:#000000; stroke-width:8; stroke-opacity:1; fill:none" points="
  1590.96,2611.66 1590.96,2578.34 
  "/>
<polyline clip-path="url(#clip1900)" style="stroke:#000000; stroke-width:8; stroke-opacity:1; fill:none" points="
  2300.19,2611.66 2300.19,2578.34 
  "/>
<polyline clip-path="url(#clip1900)" style="stroke:#000000; stroke-width:8; stroke-opacity:1; fill:none" points="
  3009.42,2611.66 3009.42,2578.34 
  "/>
<polyline clip-path="url(#clip1900)" style="stroke:#000000; stroke-width:8; stroke-opacity:1; fill:none" points="
  3718.66,2611.66 3718.66,2578.34 
  "/>
<polyline clip-path="url(#clip1900)" style="stroke:#000000; stroke-width:8; stroke-opacity:1; fill:none" points="
  4427.89,2611.66 4427.89,2578.34 
  "/>
<polyline clip-path="url(#clip1900)" style="stroke:#000000; stroke-width:8; stroke-opacity:1; fill:none" points="
  1364.76,2593.86 1414.87,2593.86 
  "/>
<polyline clip-path="url(#clip1900)" style="stroke:#000000; stroke-width:8; stroke-opacity:1; fill:none" points="
  1364.76,2106.49 1414.87,2106.49 
  "/>
<polyline clip-path="url(#clip1900)" style="stroke:#000000; stroke-width:8; stroke-opacity:1; fill:none" points="
  1364.76,1619.12 1414.87,1619.12 
  "/>
<polyline clip-path="url(#clip1900)" style="stroke:#000000; stroke-width:8; stroke-opacity:1; fill:none" points="
  1364.76,1131.75 1414.87,1131.75 
  "/>
<polyline clip-path="url(#clip1900)" style="stroke:#000000; stroke-width:8; stroke-opacity:1; fill:none" points="
  1364.76,644.377 1414.87,644.377 
  "/>
<g clip-path="url(#clip1900)">
<text style="fill:#000000; fill-opacity:1; font-family:Arial,Helvetica Neue,Helvetica,sans-serif; font-size:95px; text-anchor:start;" transform="rotate(0, 1427.61, 2761.67)" x="1427.61" y="2761.67">10</text>
</g>
<g clip-path="url(#clip1900)">
<text style="fill:#000000; fill-opacity:1; font-family:Arial,Helvetica Neue,Helvetica,sans-serif; font-size:77px; text-anchor:start;" transform="rotate(0, 1534.66, 2706.85)" x="1534.66" y="2706.85">-</text>
</g>
<g clip-path="url(#clip1900)">
<text style="fill:#000000; fill-opacity:1; font-family:Arial,Helvetica Neue,Helvetica,sans-serif; font-size:77px; text-anchor:start;" transform="rotate(0, 1580.34, 2706.85)" x="1580.34" y="2706.85">12.5 </text>
</g>
<g clip-path="url(#clip1900)">
<text style="fill:#000000; fill-opacity:1; font-family:Arial,Helvetica Neue,Helvetica,sans-serif; font-size:95px; text-anchor:start;" transform="rotate(0, 2136.85, 2761.67)" x="2136.85" y="2761.67">10</text>
</g>
<g clip-path="url(#clip1900)">
<text style="fill:#000000; fill-opacity:1; font-family:Arial,Helvetica Neue,Helvetica,sans-serif; font-size:77px; text-anchor:start;" transform="rotate(0, 2243.9, 2706.85)" x="2243.9" y="2706.85">-</text>
</g>
<g clip-path="url(#clip1900)">
<text style="fill:#000000; fill-opacity:1; font-family:Arial,Helvetica Neue,Helvetica,sans-serif; font-size:77px; text-anchor:start;" transform="rotate(0, 2289.58, 2706.85)" x="2289.58" y="2706.85">10.0 </text>
</g>
<g clip-path="url(#clip1900)">
<text style="fill:#000000; fill-opacity:1; font-family:Arial,Helvetica Neue,Helvetica,sans-serif; font-size:95px; text-anchor:start;" transform="rotate(0, 2867.83, 2761.67)" x="2867.83" y="2761.67">10</text>
</g>
<g clip-path="url(#clip1900)">
<text style="fill:#000000; fill-opacity:1; font-family:Arial,Helvetica Neue,Helvetica,sans-serif; font-size:77px; text-anchor:start;" transform="rotate(0, 2974.87, 2706.85)" x="2974.87" y="2706.85">-</text>
</g>
<g clip-path="url(#clip1900)">
<text style="fill:#000000; fill-opacity:1; font-family:Arial,Helvetica Neue,Helvetica,sans-serif; font-size:77px; text-anchor:start;" transform="rotate(0, 3020.55, 2706.85)" x="3020.55" y="2706.85">7.5 </text>
</g>
<g clip-path="url(#clip1900)">
<text style="fill:#000000; fill-opacity:1; font-family:Arial,Helvetica Neue,Helvetica,sans-serif; font-size:95px; text-anchor:start;" transform="rotate(0, 3577.06, 2761.67)" x="3577.06" y="2761.67">10</text>
</g>
<g clip-path="url(#clip1900)">
<text style="fill:#000000; fill-opacity:1; font-family:Arial,Helvetica Neue,Helvetica,sans-serif; font-size:77px; text-anchor:start;" transform="rotate(0, 3684.11, 2706.85)" x="3684.11" y="2706.85">-</text>
</g>
<g clip-path="url(#clip1900)">
<text style="fill:#000000; fill-opacity:1; font-family:Arial,Helvetica Neue,Helvetica,sans-serif; font-size:77px; text-anchor:start;" transform="rotate(0, 3729.79, 2706.85)" x="3729.79" y="2706.85">5.0 </text>
</g>
<g clip-path="url(#clip1900)">
<text style="fill:#000000; fill-opacity:1; font-family:Arial,Helvetica Neue,Helvetica,sans-serif; font-size:95px; text-anchor:start;" transform="rotate(0, 4286.29, 2761.67)" x="4286.29" y="2761.67">10</text>
</g>
<g clip-path="url(#clip1900)">
<text style="fill:#000000; fill-opacity:1; font-family:Arial,Helvetica Neue,Helvetica,sans-serif; font-size:77px; text-anchor:start;" transform="rotate(0, 4393.34, 2706.85)" x="4393.34" y="2706.85">-</text>
</g>
<g clip-path="url(#clip1900)">
<text style="fill:#000000; fill-opacity:1; font-family:Arial,Helvetica Neue,Helvetica,sans-serif; font-size:77px; text-anchor:start;" transform="rotate(0, 4439.02, 2706.85)" x="4439.02" y="2706.85">2.5 </text>
</g>
<g clip-path="url(#clip1900)">
<text style="fill:#000000; fill-opacity:1; font-family:Arial,Helvetica Neue,Helvetica,sans-serif; font-size:95px; text-anchor:start;" transform="rotate(0, 990.073, 2641.31)" x="990.073" y="2641.31">10</text>
</g>
<g clip-path="url(#clip1900)">
<text style="fill:#000000; fill-opacity:1; font-family:Arial,Helvetica Neue,Helvetica,sans-serif; font-size:77px; text-anchor:start;" transform="rotate(0, 1097.12, 2586.49)" x="1097.12" y="2586.49">-</text>
</g>
<g clip-path="url(#clip1900)">
<text style="fill:#000000; fill-opacity:1; font-family:Arial,Helvetica Neue,Helvetica,sans-serif; font-size:77px; text-anchor:start;" transform="rotate(0, 1142.8, 2586.49)" x="1142.8" y="2586.49">1.00 </text>
</g>
<g clip-path="url(#clip1900)">
<text style="fill:#000000; fill-opacity:1; font-family:Arial,Helvetica Neue,Helvetica,sans-serif; font-size:95px; text-anchor:start;" transform="rotate(0, 990.073, 2153.94)" x="990.073" y="2153.94">10</text>
</g>
<g clip-path="url(#clip1900)">
<text style="fill:#000000; fill-opacity:1; font-family:Arial,Helvetica Neue,Helvetica,sans-serif; font-size:77px; text-anchor:start;" transform="rotate(0, 1097.12, 2099.12)" x="1097.12" y="2099.12">-</text>
</g>
<g clip-path="url(#clip1900)">
<text style="fill:#000000; fill-opacity:1; font-family:Arial,Helvetica Neue,Helvetica,sans-serif; font-size:77px; text-anchor:start;" transform="rotate(0, 1142.8, 2099.12)" x="1142.8" y="2099.12">0.75 </text>
</g>
<g clip-path="url(#clip1900)">
<text style="fill:#000000; fill-opacity:1; font-family:Arial,Helvetica Neue,Helvetica,sans-serif; font-size:95px; text-anchor:start;" transform="rotate(0, 990.073, 1666.57)" x="990.073" y="1666.57">10</text>
</g>
<g clip-path="url(#clip1900)">
<text style="fill:#000000; fill-opacity:1; font-family:Arial,Helvetica Neue,Helvetica,sans-serif; font-size:77px; text-anchor:start;" transform="rotate(0, 1097.12, 1611.75)" x="1097.12" y="1611.75">-</text>
</g>
<g clip-path="url(#clip1900)">
<text style="fill:#000000; fill-opacity:1; font-family:Arial,Helvetica Neue,Helvetica,sans-serif; font-size:77px; text-anchor:start;" transform="rotate(0, 1142.8, 1611.75)" x="1142.8" y="1611.75">0.50 </text>
</g>
<g clip-path="url(#clip1900)">
<text style="fill:#000000; fill-opacity:1; font-family:Arial,Helvetica Neue,Helvetica,sans-serif; font-size:95px; text-anchor:start;" transform="rotate(0, 990.073, 1179.2)" x="990.073" y="1179.2">10</text>
</g>
<g clip-path="url(#clip1900)">
<text style="fill:#000000; fill-opacity:1; font-family:Arial,Helvetica Neue,Helvetica,sans-serif; font-size:77px; text-anchor:start;" transform="rotate(0, 1097.12, 1124.38)" x="1097.12" y="1124.38">-</text>
</g>
<g clip-path="url(#clip1900)">
<text style="fill:#000000; fill-opacity:1; font-family:Arial,Helvetica Neue,Helvetica,sans-serif; font-size:77px; text-anchor:start;" transform="rotate(0, 1142.8, 1124.38)" x="1142.8" y="1124.38">0.25 </text>
</g>
<g clip-path="url(#clip1900)">
<text style="fill:#000000; fill-opacity:1; font-family:Arial,Helvetica Neue,Helvetica,sans-serif; font-size:95px; text-anchor:start;" transform="rotate(0, 1035.75, 691.832)" x="1035.75" y="691.832">10</text>
</g>
<g clip-path="url(#clip1900)">
<text style="fill:#000000; fill-opacity:1; font-family:Arial,Helvetica Neue,Helvetica,sans-serif; font-size:77px; text-anchor:start;" transform="rotate(0, 1142.8, 637.011)" x="1142.8" y="637.011">0.00 </text>
</g>
<g clip-path="url(#clip1900)">
<text style="fill:#000000; fill-opacity:1; font-family:Arial,Helvetica Neue,Helvetica,sans-serif; font-size:166px; text-anchor:middle;" transform="rotate(0, 3035.13, 145.2)" x="3035.13" y="145.2">wp_12</text>
</g>
<g clip-path="url(#clip1900)">
<text style="fill:#000000; fill-opacity:1; font-family:Arial,Helvetica Neue,Helvetica,sans-serif; font-size:130px; text-anchor:middle;" transform="rotate(0, 3035.13, 2879.58)" x="3035.13" y="2879.58">Error</text>
</g>
<g clip-path="url(#clip1900)">
<text style="fill:#000000; fill-opacity:1; font-family:Arial,Helvetica Neue,Helvetica,sans-serif; font-size:130px; text-anchor:middle;" transform="rotate(-90, 848.677, 1501)" x="848.677" y="1501">Time (s)</text>
</g>
<polyline clip-path="url(#clip1902)" style="stroke:#009af9; stroke-width:8; stroke-opacity:1; fill:none" points="
  4604.2,2548.79 4578.31,2207.18 4545.46,1570.73 2182.16,1040.97 1696.14,1034.71 1618.11,1081.28 1509.38,1088.9 
  "/>
<circle clip-path="url(#clip1902)" style="fill:#000000; stroke:none; fill-opacity:1" cx="4604.2" cy="2548.79" r="36"/>
<circle clip-path="url(#clip1902)" style="fill:#009af9; stroke:none; fill-opacity:1" cx="4604.2" cy="2548.79" r="28"/>
<circle clip-path="url(#clip1902)" style="fill:#000000; stroke:none; fill-opacity:1" cx="4578.31" cy="2207.18" r="36"/>
<circle clip-path="url(#clip1902)" style="fill:#009af9; stroke:none; fill-opacity:1" cx="4578.31" cy="2207.18" r="28"/>
<circle clip-path="url(#clip1902)" style="fill:#000000; stroke:none; fill-opacity:1" cx="4545.46" cy="1570.73" r="36"/>
<circle clip-path="url(#clip1902)" style="fill:#009af9; stroke:none; fill-opacity:1" cx="4545.46" cy="1570.73" r="28"/>
<circle clip-path="url(#clip1902)" style="fill:#000000; stroke:none; fill-opacity:1" cx="2182.16" cy="1040.97" r="36"/>
<circle clip-path="url(#clip1902)" style="fill:#009af9; stroke:none; fill-opacity:1" cx="2182.16" cy="1040.97" r="28"/>
<circle clip-path="url(#clip1902)" style="fill:#000000; stroke:none; fill-opacity:1" cx="1696.14" cy="1034.71" r="36"/>
<circle clip-path="url(#clip1902)" style="fill:#009af9; stroke:none; fill-opacity:1" cx="1696.14" cy="1034.71" r="28"/>
<circle clip-path="url(#clip1902)" style="fill:#000000; stroke:none; fill-opacity:1" cx="1618.11" cy="1081.28" r="36"/>
<circle clip-path="url(#clip1902)" style="fill:#009af9; stroke:none; fill-opacity:1" cx="1618.11" cy="1081.28" r="28"/>
<circle clip-path="url(#clip1902)" style="fill:#000000; stroke:none; fill-opacity:1" cx="1509.38" cy="1088.9" r="36"/>
<circle clip-path="url(#clip1902)" style="fill:#009af9; stroke:none; fill-opacity:1" cx="1509.38" cy="1088.9" r="28"/>
<polyline clip-path="url(#clip1902)" style="stroke:#e26f46; stroke-width:8; stroke-opacity:1; fill:none" points="
  4598.51,2322.95 4598.39,2281.68 4601.89,2190.64 4610.96,1975.22 4500.47,1624.38 4590.47,1176.82 1459.31,453.218 
  "/>
<polygon clip-path="url(#clip1902)" style="fill:#000000; fill-opacity:1" points="
  4558.51,2282.95 4558.51,2362.95 4638.51,2362.95 4638.51,2282.95 4558.51,2282.95 
  "/>
<polygon clip-path="url(#clip1902)" style="fill:#e26f46; fill-opacity:1" points="
  4566.51,2290.95 4566.51,2354.95 4630.51,2354.95 4630.51,2290.95 4566.51,2290.95 
  "/>
<polygon clip-path="url(#clip1902)" style="fill:#000000; fill-opacity:1" points="
  4558.39,2241.68 4558.39,2321.68 4638.39,2321.68 4638.39,2241.68 4558.39,2241.68 
  "/>
<polygon clip-path="url(#clip1902)" style="fill:#e26f46; fill-opacity:1" points="
  4566.39,2249.68 4566.39,2313.68 4630.39,2313.68 4630.39,2249.68 4566.39,2249.68 
  "/>
<polygon clip-path="url(#clip1902)" style="fill:#000000; fill-opacity:1" points="
  4561.89,2150.64 4561.89,2230.64 4641.89,2230.64 4641.89,2150.64 4561.89,2150.64 
  "/>
<polygon clip-path="url(#clip1902)" style="fill:#e26f46; fill-opacity:1" points="
  4569.89,2158.64 4569.89,2222.64 4633.89,2222.64 4633.89,2158.64 4569.89,2158.64 
  "/>
<polygon clip-path="url(#clip1902)" style="fill:#000000; fill-opacity:1" points="
  4570.96,1935.22 4570.96,2015.22 4650.96,2015.22 4650.96,1935.22 4570.96,1935.22 
  "/>
<polygon clip-path="url(#clip1902)" style="fill:#e26f46; fill-opacity:1" points="
  4578.96,1943.22 4578.96,2007.22 4642.96,2007.22 4642.96,1943.22 4578.96,1943.22 
  "/>
<polygon clip-path="url(#clip1902)" style="fill:#000000; fill-opacity:1" points="
  4460.47,1584.38 4460.47,1664.38 4540.47,1664.38 4540.47,1584.38 4460.47,1584.38 
  "/>
<polygon clip-path="url(#clip1902)" style="fill:#e26f46; fill-opacity:1" points="
  4468.47,1592.38 4468.47,1656.38 4532.47,1656.38 4532.47,1592.38 4468.47,1592.38 
  "/>
<polygon clip-path="url(#clip1902)" style="fill:#000000; fill-opacity:1" points="
  4550.47,1136.82 4550.47,1216.82 4630.47,1216.82 4630.47,1136.82 4550.47,1136.82 
  "/>
<polygon clip-path="url(#clip1902)" style="fill:#e26f46; fill-opacity:1" points="
  4558.47,1144.82 4558.47,1208.82 4622.47,1208.82 4622.47,1144.82 4558.47,1144.82 
  "/>
<polygon clip-path="url(#clip1902)" style="fill:#000000; fill-opacity:1" points="
  1419.31,413.218 1419.31,493.218 1499.31,493.218 1499.31,413.218 1419.31,413.218 
  "/>
<polygon clip-path="url(#clip1902)" style="fill:#e26f46; fill-opacity:1" points="
  1427.31,421.218 1427.31,485.218 1491.31,485.218 1491.31,421.218 1427.31,421.218 
  "/>
<polygon clip-path="url(#clip1900)" points="
3907.6,799.311 4561.51,799.311 4561.51,617.871 3907.6,617.871 
  " fill="#ffffff" fill-rule="evenodd" fill-opacity="1"/>
<polyline clip-path="url(#clip1900)" style="stroke:#000000; stroke-width:8; stroke-opacity:1; fill:none" points="
  3907.6,799.311 4561.51,799.311 4561.51,617.871 3907.6,617.871 3907.6,799.311 
  "/>
<polyline clip-path="url(#clip1900)" style="stroke:#009af9; stroke-width:8; stroke-opacity:1; fill:none" points="
  3955.6,678.351 4243.6,678.351 
  "/>
<circle clip-path="url(#clip1900)" style="fill:#000000; stroke:none; fill-opacity:1" cx="4123.6" cy="678.351" r="50"/>
<circle clip-path="url(#clip1900)" style="fill:#009af9; stroke:none; fill-opacity:1" cx="4123.6" cy="678.351" r="43"/>
<g clip-path="url(#clip1900)">
<text style="fill:#000000; fill-opacity:1; font-family:Arial,Helvetica Neue,Helvetica,sans-serif; font-size:48px; text-anchor:start;" transform="rotate(0, 4291.6, 695.851)" x="4291.6" y="695.851">R2 PI .5</text>
</g>
<polyline clip-path="url(#clip1900)" style="stroke:#e26f46; stroke-width:8; stroke-opacity:1; fill:none" points="
  3955.6,738.831 4243.6,738.831 
  "/>
<polygon clip-path="url(#clip1900)" style="fill:#000000; fill-opacity:1" points="
  4067.6,682.831 4067.6,794.831 4179.6,794.831 4179.6,682.831 4067.6,682.831 
  "/>
<polygon clip-path="url(#clip1900)" style="fill:#e26f46; fill-opacity:1" points="
  4075.6,690.831 4075.6,786.831 4171.6,786.831 4171.6,690.831 4075.6,690.831 
  "/>
<g clip-path="url(#clip1900)">
<text style="fill:#000000; fill-opacity:1; font-family:Arial,Helvetica Neue,Helvetica,sans-serif; font-size:48px; text-anchor:start;" transform="rotate(0, 4291.6, 756.331)" x="4291.6" y="756.331">R4 PI .5</text>
</g>
</svg>
