<?xml version="1.0" encoding="utf-8"?>
<svg xmlns="http://www.w3.org/2000/svg" xmlns:xlink="http://www.w3.org/1999/xlink" width="1200" height="800" viewBox="0 0 4800 3200">
<defs>
  <clipPath id="clip0700">
    <rect x="0" y="0" width="4800" height="3200"/>
  </clipPath>
</defs>
<polygon clip-path="url(#clip0700)" points="
0,3200 4800,3200 4800,0 0,0 
  " fill="#ffffff" fill-rule="evenodd" fill-opacity="1"/>
<defs>
  <clipPath id="clip0701">
    <rect x="960" y="0" width="3361" height="3200"/>
  </clipPath>
</defs>
<polygon clip-path="url(#clip0700)" points="
1244.19,2611.66 4705.51,2611.66 4705.51,390.351 1244.19,390.351 
  " fill="#ffffff" fill-rule="evenodd" fill-opacity="1"/>
<defs>
  <clipPath id="clip0702">
    <rect x="1244" y="390" width="3462" height="2222"/>
  </clipPath>
</defs>
<polyline clip-path="url(#clip0702)" style="stroke:#000000; stroke-width:4; stroke-opacity:0.1; fill:none" points="
  1427.62,2611.66 1427.62,390.351 
  "/>
<polyline clip-path="url(#clip0702)" style="stroke:#000000; stroke-width:4; stroke-opacity:0.1; fill:none" points="
  2170.73,2611.66 2170.73,390.351 
  "/>
<polyline clip-path="url(#clip0702)" style="stroke:#000000; stroke-width:4; stroke-opacity:0.1; fill:none" points="
  2913.84,2611.66 2913.84,390.351 
  "/>
<polyline clip-path="url(#clip0702)" style="stroke:#000000; stroke-width:4; stroke-opacity:0.1; fill:none" points="
  3656.94,2611.66 3656.94,390.351 
  "/>
<polyline clip-path="url(#clip0702)" style="stroke:#000000; stroke-width:4; stroke-opacity:0.1; fill:none" points="
  4400.05,2611.66 4400.05,390.351 
  "/>
<polyline clip-path="url(#clip0702)" style="stroke:#000000; stroke-width:4; stroke-opacity:0.1; fill:none" points="
  1244.19,2369.64 4705.51,2369.64 
  "/>
<polyline clip-path="url(#clip0702)" style="stroke:#000000; stroke-width:4; stroke-opacity:0.1; fill:none" points="
  1244.19,1890.4 4705.51,1890.4 
  "/>
<polyline clip-path="url(#clip0702)" style="stroke:#000000; stroke-width:4; stroke-opacity:0.1; fill:none" points="
  1244.19,1411.16 4705.51,1411.16 
  "/>
<polyline clip-path="url(#clip0702)" style="stroke:#000000; stroke-width:4; stroke-opacity:0.1; fill:none" points="
  1244.19,931.923 4705.51,931.923 
  "/>
<polyline clip-path="url(#clip0702)" style="stroke:#000000; stroke-width:4; stroke-opacity:0.1; fill:none" points="
  1244.19,452.684 4705.51,452.684 
  "/>
<polyline clip-path="url(#clip0700)" style="stroke:#000000; stroke-width:8; stroke-opacity:1; fill:none" points="
  1244.19,2611.66 4705.51,2611.66 
  "/>
<polyline clip-path="url(#clip0700)" style="stroke:#000000; stroke-width:8; stroke-opacity:1; fill:none" points="
  1244.19,2611.66 1244.19,390.351 
  "/>
<polyline clip-path="url(#clip0700)" style="stroke:#000000; stroke-width:8; stroke-opacity:1; fill:none" points="
  1427.62,2611.66 1427.62,2578.34 
  "/>
<polyline clip-path="url(#clip0700)" style="stroke:#000000; stroke-width:8; stroke-opacity:1; fill:none" points="
  2170.73,2611.66 2170.73,2578.34 
  "/>
<polyline clip-path="url(#clip0700)" style="stroke:#000000; stroke-width:8; stroke-opacity:1; fill:none" points="
  2913.84,2611.66 2913.84,2578.34 
  "/>
<polyline clip-path="url(#clip0700)" style="stroke:#000000; stroke-width:8; stroke-opacity:1; fill:none" points="
  3656.94,2611.66 3656.94,2578.34 
  "/>
<polyline clip-path="url(#clip0700)" style="stroke:#000000; stroke-width:8; stroke-opacity:1; fill:none" points="
  4400.05,2611.66 4400.05,2578.34 
  "/>
<polyline clip-path="url(#clip0700)" style="stroke:#000000; stroke-width:8; stroke-opacity:1; fill:none" points="
  1244.19,2369.64 1296.11,2369.64 
  "/>
<polyline clip-path="url(#clip0700)" style="stroke:#000000; stroke-width:8; stroke-opacity:1; fill:none" points="
  1244.19,1890.4 1296.11,1890.4 
  "/>
<polyline clip-path="url(#clip0700)" style="stroke:#000000; stroke-width:8; stroke-opacity:1; fill:none" points="
  1244.19,1411.16 1296.11,1411.16 
  "/>
<polyline clip-path="url(#clip0700)" style="stroke:#000000; stroke-width:8; stroke-opacity:1; fill:none" points="
  1244.19,931.923 1296.11,931.923 
  "/>
<polyline clip-path="url(#clip0700)" style="stroke:#000000; stroke-width:8; stroke-opacity:1; fill:none" points="
  1244.19,452.684 1296.11,452.684 
  "/>
<g clip-path="url(#clip0700)">
<text style="fill:#000000; fill-opacity:1; font-family:Arial,Helvetica Neue,Helvetica,sans-serif; font-size:95px; text-anchor:start;" transform="rotate(0, 1264.28, 2761.67)" x="1264.28" y="2761.67">10</text>
</g>
<g clip-path="url(#clip0700)">
<text style="fill:#000000; fill-opacity:1; font-family:Arial,Helvetica Neue,Helvetica,sans-serif; font-size:77px; text-anchor:start;" transform="rotate(0, 1371.33, 2706.85)" x="1371.33" y="2706.85">-</text>
</g>
<g clip-path="url(#clip0700)">
<text style="fill:#000000; fill-opacity:1; font-family:Arial,Helvetica Neue,Helvetica,sans-serif; font-size:77px; text-anchor:start;" transform="rotate(0, 1417.01, 2706.85)" x="1417.01" y="2706.85">12.5 </text>
</g>
<g clip-path="url(#clip0700)">
<text style="fill:#000000; fill-opacity:1; font-family:Arial,Helvetica Neue,Helvetica,sans-serif; font-size:95px; text-anchor:start;" transform="rotate(0, 2007.39, 2761.67)" x="2007.39" y="2761.67">10</text>
</g>
<g clip-path="url(#clip0700)">
<text style="fill:#000000; fill-opacity:1; font-family:Arial,Helvetica Neue,Helvetica,sans-serif; font-size:77px; text-anchor:start;" transform="rotate(0, 2114.44, 2706.85)" x="2114.44" y="2706.85">-</text>
</g>
<g clip-path="url(#clip0700)">
<text style="fill:#000000; fill-opacity:1; font-family:Arial,Helvetica Neue,Helvetica,sans-serif; font-size:77px; text-anchor:start;" transform="rotate(0, 2160.12, 2706.85)" x="2160.12" y="2706.85">10.0 </text>
</g>
<g clip-path="url(#clip0700)">
<text style="fill:#000000; fill-opacity:1; font-family:Arial,Helvetica Neue,Helvetica,sans-serif; font-size:95px; text-anchor:start;" transform="rotate(0, 2772.24, 2761.67)" x="2772.24" y="2761.67">10</text>
</g>
<g clip-path="url(#clip0700)">
<text style="fill:#000000; fill-opacity:1; font-family:Arial,Helvetica Neue,Helvetica,sans-serif; font-size:77px; text-anchor:start;" transform="rotate(0, 2879.29, 2706.85)" x="2879.29" y="2706.85">-</text>
</g>
<g clip-path="url(#clip0700)">
<text style="fill:#000000; fill-opacity:1; font-family:Arial,Helvetica Neue,Helvetica,sans-serif; font-size:77px; text-anchor:start;" transform="rotate(0, 2924.97, 2706.85)" x="2924.97" y="2706.85">7.5 </text>
</g>
<g clip-path="url(#clip0700)">
<text style="fill:#000000; fill-opacity:1; font-family:Arial,Helvetica Neue,Helvetica,sans-serif; font-size:95px; text-anchor:start;" transform="rotate(0, 3515.35, 2761.67)" x="3515.35" y="2761.67">10</text>
</g>
<g clip-path="url(#clip0700)">
<text style="fill:#000000; fill-opacity:1; font-family:Arial,Helvetica Neue,Helvetica,sans-serif; font-size:77px; text-anchor:start;" transform="rotate(0, 3622.4, 2706.85)" x="3622.4" y="2706.85">-</text>
</g>
<g clip-path="url(#clip0700)">
<text style="fill:#000000; fill-opacity:1; font-family:Arial,Helvetica Neue,Helvetica,sans-serif; font-size:77px; text-anchor:start;" transform="rotate(0, 3668.07, 2706.85)" x="3668.07" y="2706.85">5.0 </text>
</g>
<g clip-path="url(#clip0700)">
<text style="fill:#000000; fill-opacity:1; font-family:Arial,Helvetica Neue,Helvetica,sans-serif; font-size:95px; text-anchor:start;" transform="rotate(0, 4258.45, 2761.67)" x="4258.45" y="2761.67">10</text>
</g>
<g clip-path="url(#clip0700)">
<text style="fill:#000000; fill-opacity:1; font-family:Arial,Helvetica Neue,Helvetica,sans-serif; font-size:77px; text-anchor:start;" transform="rotate(0, 4365.5, 2706.85)" x="4365.5" y="2706.85">-</text>
</g>
<g clip-path="url(#clip0700)">
<text style="fill:#000000; fill-opacity:1; font-family:Arial,Helvetica Neue,Helvetica,sans-serif; font-size:77px; text-anchor:start;" transform="rotate(0, 4411.18, 2706.85)" x="4411.18" y="2706.85">2.5 </text>
</g>
<g clip-path="url(#clip0700)">
<text style="fill:#000000; fill-opacity:1; font-family:Arial,Helvetica Neue,Helvetica,sans-serif; font-size:95px; text-anchor:start;" transform="rotate(0, 912.997, 2417.1)" x="912.997" y="2417.1">10</text>
</g>
<g clip-path="url(#clip0700)">
<text style="fill:#000000; fill-opacity:1; font-family:Arial,Helvetica Neue,Helvetica,sans-serif; font-size:77px; text-anchor:start;" transform="rotate(0, 1020.05, 2362.27)" x="1020.05" y="2362.27">-</text>
</g>
<g clip-path="url(#clip0700)">
<text style="fill:#000000; fill-opacity:1; font-family:Arial,Helvetica Neue,Helvetica,sans-serif; font-size:77px; text-anchor:start;" transform="rotate(0, 1065.73, 2362.27)" x="1065.73" y="2362.27">1.0 </text>
</g>
<g clip-path="url(#clip0700)">
<text style="fill:#000000; fill-opacity:1; font-family:Arial,Helvetica Neue,Helvetica,sans-serif; font-size:95px; text-anchor:start;" transform="rotate(0, 912.997, 1937.86)" x="912.997" y="1937.86">10</text>
</g>
<g clip-path="url(#clip0700)">
<text style="fill:#000000; fill-opacity:1; font-family:Arial,Helvetica Neue,Helvetica,sans-serif; font-size:77px; text-anchor:start;" transform="rotate(0, 1020.05, 1883.04)" x="1020.05" y="1883.04">-</text>
</g>
<g clip-path="url(#clip0700)">
<text style="fill:#000000; fill-opacity:1; font-family:Arial,Helvetica Neue,Helvetica,sans-serif; font-size:77px; text-anchor:start;" transform="rotate(0, 1065.73, 1883.04)" x="1065.73" y="1883.04">0.8 </text>
</g>
<g clip-path="url(#clip0700)">
<text style="fill:#000000; fill-opacity:1; font-family:Arial,Helvetica Neue,Helvetica,sans-serif; font-size:95px; text-anchor:start;" transform="rotate(0, 912.997, 1458.62)" x="912.997" y="1458.62">10</text>
</g>
<g clip-path="url(#clip0700)">
<text style="fill:#000000; fill-opacity:1; font-family:Arial,Helvetica Neue,Helvetica,sans-serif; font-size:77px; text-anchor:start;" transform="rotate(0, 1020.05, 1403.8)" x="1020.05" y="1403.8">-</text>
</g>
<g clip-path="url(#clip0700)">
<text style="fill:#000000; fill-opacity:1; font-family:Arial,Helvetica Neue,Helvetica,sans-serif; font-size:77px; text-anchor:start;" transform="rotate(0, 1065.73, 1403.8)" x="1065.73" y="1403.8">0.6 </text>
</g>
<g clip-path="url(#clip0700)">
<text style="fill:#000000; fill-opacity:1; font-family:Arial,Helvetica Neue,Helvetica,sans-serif; font-size:95px; text-anchor:start;" transform="rotate(0, 912.997, 979.378)" x="912.997" y="979.378">10</text>
</g>
<g clip-path="url(#clip0700)">
<text style="fill:#000000; fill-opacity:1; font-family:Arial,Helvetica Neue,Helvetica,sans-serif; font-size:77px; text-anchor:start;" transform="rotate(0, 1020.05, 924.557)" x="1020.05" y="924.557">-</text>
</g>
<g clip-path="url(#clip0700)">
<text style="fill:#000000; fill-opacity:1; font-family:Arial,Helvetica Neue,Helvetica,sans-serif; font-size:77px; text-anchor:start;" transform="rotate(0, 1065.73, 924.557)" x="1065.73" y="924.557">0.4 </text>
</g>
<g clip-path="url(#clip0700)">
<text style="fill:#000000; fill-opacity:1; font-family:Arial,Helvetica Neue,Helvetica,sans-serif; font-size:95px; text-anchor:start;" transform="rotate(0, 912.997, 500.139)" x="912.997" y="500.139">10</text>
</g>
<g clip-path="url(#clip0700)">
<text style="fill:#000000; fill-opacity:1; font-family:Arial,Helvetica Neue,Helvetica,sans-serif; font-size:77px; text-anchor:start;" transform="rotate(0, 1020.05, 445.318)" x="1020.05" y="445.318">-</text>
</g>
<g clip-path="url(#clip0700)">
<text style="fill:#000000; fill-opacity:1; font-family:Arial,Helvetica Neue,Helvetica,sans-serif; font-size:77px; text-anchor:start;" transform="rotate(0, 1065.73, 445.318)" x="1065.73" y="445.318">0.2 </text>
</g>
<g clip-path="url(#clip0700)">
<text style="fill:#000000; fill-opacity:1; font-family:Arial,Helvetica Neue,Helvetica,sans-serif; font-size:166px; text-anchor:middle;" transform="rotate(0, 2974.85, 145.2)" x="2974.85" y="145.2">wp_12</text>
</g>
<g clip-path="url(#clip0700)">
<text style="fill:#000000; fill-opacity:1; font-family:Arial,Helvetica Neue,Helvetica,sans-serif; font-size:130px; text-anchor:middle;" transform="rotate(0, 2974.85, 2879.58)" x="2974.85" y="2879.58">Error</text>
</g>
<g clip-path="url(#clip0700)">
<text style="fill:#000000; fill-opacity:1; font-family:Arial,Helvetica Neue,Helvetica,sans-serif; font-size:130px; text-anchor:middle;" transform="rotate(-90, 781.637, 1501)" x="781.637" y="1501">Time (s)</text>
</g>
<polyline clip-path="url(#clip0702)" style="stroke:#009af9; stroke-width:8; stroke-opacity:1; fill:none" points="
  4584.78,2314.24 4557.65,1894.35 4523.24,1112.07 2047.07,460.921 1537.83,453.218 1456.07,510.463 1342.15,519.827 
  "/>
<circle clip-path="url(#clip0702)" style="fill:#000000; stroke:none; fill-opacity:1" cx="4584.78" cy="2314.24" r="36"/>
<circle clip-path="url(#clip0702)" style="fill:#009af9; stroke:none; fill-opacity:1" cx="4584.78" cy="2314.24" r="28"/>
<circle clip-path="url(#clip0702)" style="fill:#000000; stroke:none; fill-opacity:1" cx="4557.65" cy="1894.35" r="36"/>
<circle clip-path="url(#clip0702)" style="fill:#009af9; stroke:none; fill-opacity:1" cx="4557.65" cy="1894.35" r="28"/>
<circle clip-path="url(#clip0702)" style="fill:#000000; stroke:none; fill-opacity:1" cx="4523.24" cy="1112.07" r="36"/>
<circle clip-path="url(#clip0702)" style="fill:#009af9; stroke:none; fill-opacity:1" cx="4523.24" cy="1112.07" r="28"/>
<circle clip-path="url(#clip0702)" style="fill:#000000; stroke:none; fill-opacity:1" cx="2047.07" cy="460.921" r="36"/>
<circle clip-path="url(#clip0702)" style="fill:#009af9; stroke:none; fill-opacity:1" cx="2047.07" cy="460.921" r="28"/>
<circle clip-path="url(#clip0702)" style="fill:#000000; stroke:none; fill-opacity:1" cx="1537.83" cy="453.218" r="36"/>
<circle clip-path="url(#clip0702)" style="fill:#009af9; stroke:none; fill-opacity:1" cx="1537.83" cy="453.218" r="28"/>
<circle clip-path="url(#clip0702)" style="fill:#000000; stroke:none; fill-opacity:1" cx="1456.07" cy="510.463" r="36"/>
<circle clip-path="url(#clip0702)" style="fill:#009af9; stroke:none; fill-opacity:1" cx="1456.07" cy="510.463" r="28"/>
<circle clip-path="url(#clip0702)" style="fill:#000000; stroke:none; fill-opacity:1" cx="1342.15" cy="519.827" r="36"/>
<circle clip-path="url(#clip0702)" style="fill:#009af9; stroke:none; fill-opacity:1" cx="1342.15" cy="519.827" r="28"/>
<polyline clip-path="url(#clip0702)" style="stroke:#e26f46; stroke-width:8; stroke-opacity:1; fill:none" points="
  4598.5,2415.89 4583.27,2303.73 4556.79,1881.34 4522.42,1089.03 2036.76,460.297 1531.72,508.671 1452.4,508.945 
  "/>
<polygon clip-path="url(#clip0702)" style="fill:#000000; fill-opacity:1" points="
  4558.5,2375.89 4558.5,2455.89 4638.5,2455.89 4638.5,2375.89 4558.5,2375.89 
  "/>
<polygon clip-path="url(#clip0702)" style="fill:#e26f46; fill-opacity:1" points="
  4566.5,2383.89 4566.5,2447.89 4630.5,2447.89 4630.5,2383.89 4566.5,2383.89 
  "/>
<polygon clip-path="url(#clip0702)" style="fill:#000000; fill-opacity:1" points="
  4543.27,2263.73 4543.27,2343.73 4623.27,2343.73 4623.27,2263.73 4543.27,2263.73 
  "/>
<polygon clip-path="url(#clip0702)" style="fill:#e26f46; fill-opacity:1" points="
  4551.27,2271.73 4551.27,2335.73 4615.27,2335.73 4615.27,2271.73 4551.27,2271.73 
  "/>
<polygon clip-path="url(#clip0702)" style="fill:#000000; fill-opacity:1" points="
  4516.79,1841.34 4516.79,1921.34 4596.79,1921.34 4596.79,1841.34 4516.79,1841.34 
  "/>
<polygon clip-path="url(#clip0702)" style="fill:#e26f46; fill-opacity:1" points="
  4524.79,1849.34 4524.79,1913.34 4588.79,1913.34 4588.79,1849.34 4524.79,1849.34 
  "/>
<polygon clip-path="url(#clip0702)" style="fill:#000000; fill-opacity:1" points="
  4482.42,1049.03 4482.42,1129.03 4562.42,1129.03 4562.42,1049.03 4482.42,1049.03 
  "/>
<polygon clip-path="url(#clip0702)" style="fill:#e26f46; fill-opacity:1" points="
  4490.42,1057.03 4490.42,1121.03 4554.42,1121.03 4554.42,1057.03 4490.42,1057.03 
  "/>
<polygon clip-path="url(#clip0702)" style="fill:#000000; fill-opacity:1" points="
  1996.76,420.297 1996.76,500.297 2076.76,500.297 2076.76,420.297 1996.76,420.297 
  "/>
<polygon clip-path="url(#clip0702)" style="fill:#e26f46; fill-opacity:1" points="
  2004.76,428.297 2004.76,492.297 2068.76,492.297 2068.76,428.297 2004.76,428.297 
  "/>
<polygon clip-path="url(#clip0702)" style="fill:#000000; fill-opacity:1" points="
  1491.72,468.671 1491.72,548.671 1571.72,548.671 1571.72,468.671 1491.72,468.671 
  "/>
<polygon clip-path="url(#clip0702)" style="fill:#e26f46; fill-opacity:1" points="
  1499.72,476.671 1499.72,540.671 1563.72,540.671 1563.72,476.671 1499.72,476.671 
  "/>
<polygon clip-path="url(#clip0702)" style="fill:#000000; fill-opacity:1" points="
  1412.4,468.945 1412.4,548.945 1492.4,548.945 1492.4,468.945 1412.4,468.945 
  "/>
<polygon clip-path="url(#clip0702)" style="fill:#e26f46; fill-opacity:1" points="
  1420.4,476.945 1420.4,540.945 1484.4,540.945 1484.4,476.945 1420.4,476.945 
  "/>
<polyline clip-path="url(#clip0702)" style="stroke:#3da44d; stroke-width:8; stroke-opacity:1; fill:none" points="
  4603.07,2548.79 4599.39,1350.6 4587.38,1276.27 4561.28,1041.31 4514.34,851.944 1852.03,531.627 1498.29,534.87 
  "/>
<polygon clip-path="url(#clip0702)" style="fill:#000000; fill-opacity:1" points="
  4603.07,2508.79 4593.67,2535.83 4565.03,2536.43 4587.87,2553.75 4579.55,2581.15 4603.07,2564.79 4626.59,2581.15 4618.27,2553.75 4641.11,2536.43 4612.47,2535.83 
  4603.07,2508.79 
  "/>
<polygon clip-path="url(#clip0702)" style="fill:#3da44d; fill-opacity:1" points="
  4603.07,2516.79 4595.55,2538.42 4572.63,2538.9 4590.91,2552.76 4584.25,2574.68 4603.07,2561.59 4621.88,2574.68 4615.23,2552.76 4633.5,2538.9 4610.59,2538.42 
  4603.07,2516.79 
  "/>
<polygon clip-path="url(#clip0702)" style="fill:#000000; fill-opacity:1" points="
  4599.39,1310.6 4589.99,1337.64 4561.35,1338.24 4584.19,1355.56 4575.87,1382.96 4599.39,1366.6 4622.91,1382.96 4614.59,1355.56 4637.43,1338.24 4608.79,1337.64 
  4599.39,1310.6 
  "/>
<polygon clip-path="url(#clip0702)" style="fill:#3da44d; fill-opacity:1" points="
  4599.39,1318.6 4591.87,1340.24 4568.96,1340.72 4587.23,1354.57 4580.58,1376.49 4599.39,1363.4 4618.21,1376.49 4611.55,1354.57 4629.82,1340.72 4606.91,1340.24 
  4599.39,1318.6 
  "/>
<polygon clip-path="url(#clip0702)" style="fill:#000000; fill-opacity:1" points="
  4587.38,1236.27 4577.98,1263.31 4549.34,1263.91 4572.18,1281.23 4563.86,1308.63 4587.38,1292.27 4610.9,1308.63 4602.58,1281.23 4625.42,1263.91 4596.78,1263.31 
  4587.38,1236.27 
  "/>
<polygon clip-path="url(#clip0702)" style="fill:#3da44d; fill-opacity:1" points="
  4587.38,1244.27 4579.86,1265.9 4556.95,1266.38 4575.22,1280.24 4568.57,1302.16 4587.38,1289.07 4606.2,1302.16 4599.54,1280.24 4617.81,1266.38 4594.9,1265.9 
  4587.38,1244.27 
  "/>
<polygon clip-path="url(#clip0702)" style="fill:#000000; fill-opacity:1" points="
  4561.28,1001.31 4551.88,1028.35 4523.24,1028.95 4546.08,1046.27 4537.76,1073.67 4561.28,1057.31 4584.8,1073.67 4576.48,1046.27 4599.32,1028.95 4570.68,1028.35 
  4561.28,1001.31 
  "/>
<polygon clip-path="url(#clip0702)" style="fill:#3da44d; fill-opacity:1" points="
  4561.28,1009.31 4553.76,1030.94 4530.84,1031.42 4549.12,1045.27 4542.46,1067.19 4561.28,1054.11 4580.09,1067.19 4573.44,1045.27 4591.71,1031.42 4568.8,1030.94 
  4561.28,1009.31 
  "/>
<polygon clip-path="url(#clip0702)" style="fill:#000000; fill-opacity:1" points="
  4514.34,811.944 4504.94,838.984 4476.3,839.584 4499.14,856.904 4490.82,884.304 4514.34,867.944 4537.86,884.304 4529.54,856.904 4552.38,839.584 4523.74,838.984 
  4514.34,811.944 
  "/>
<polygon clip-path="url(#clip0702)" style="fill:#3da44d; fill-opacity:1" points="
  4514.34,819.944 4506.82,841.576 4483.91,842.056 4502.18,855.912 4495.53,877.832 4514.34,864.744 4533.16,877.832 4526.5,855.912 4544.78,842.056 4521.86,841.576 
  4514.34,819.944 
  "/>
<polygon clip-path="url(#clip0702)" style="fill:#000000; fill-opacity:1" points="
  1852.03,491.627 1842.63,518.667 1813.99,519.267 1836.83,536.587 1828.51,563.987 1852.03,547.627 1875.55,563.987 1867.23,536.587 1890.07,519.267 1861.43,518.667 
  1852.03,491.627 
  "/>
<polygon clip-path="url(#clip0702)" style="fill:#3da44d; fill-opacity:1" points="
  1852.03,499.627 1844.51,521.259 1821.6,521.739 1839.87,535.595 1833.22,557.515 1852.03,544.427 1870.85,557.515 1864.19,535.595 1882.47,521.739 1859.55,521.259 
  1852.03,499.627 
  "/>
<polygon clip-path="url(#clip0702)" style="fill:#000000; fill-opacity:1" points="
  1498.29,494.87 1488.89,521.91 1460.25,522.51 1483.09,539.83 1474.77,567.23 1498.29,550.87 1521.81,567.23 1513.49,539.83 1536.33,522.51 1507.69,521.91 
  1498.29,494.87 
  "/>
<polygon clip-path="url(#clip0702)" style="fill:#3da44d; fill-opacity:1" points="
  1498.29,502.87 1490.77,524.502 1467.86,524.982 1486.13,538.838 1479.47,560.758 1498.29,547.67 1517.11,560.758 1510.45,538.838 1528.72,524.982 1505.81,524.502 
  1498.29,502.87 
  "/>
<polyline clip-path="url(#clip0702)" style="stroke:#c271d2; stroke-width:8; stroke-opacity:1; fill:none" points="
  4601.73,2446.82 4607.55,1302.34 4590.92,1170.02 4551.19,911.423 4507.28,539.316 1702.83,492.323 1483.61,524.121 
  "/>
<polygon clip-path="url(#clip0702)" style="fill:#000000; fill-opacity:1" points="
  4601.73,2406.82 4561.73,2446.82 4601.73,2486.82 4641.73,2446.82 4601.73,2406.82 
  "/>
<polygon clip-path="url(#clip0702)" style="fill:#c271d2; fill-opacity:1" points="
  4601.73,2414.82 4569.73,2446.82 4601.73,2478.82 4633.73,2446.82 4601.73,2414.82 
  "/>
<polygon clip-path="url(#clip0702)" style="fill:#000000; fill-opacity:1" points="
  4607.55,1262.34 4567.55,1302.34 4607.55,1342.34 4647.55,1302.34 4607.55,1262.34 
  "/>
<polygon clip-path="url(#clip0702)" style="fill:#c271d2; fill-opacity:1" points="
  4607.55,1270.34 4575.55,1302.34 4607.55,1334.34 4639.55,1302.34 4607.55,1270.34 
  "/>
<polygon clip-path="url(#clip0702)" style="fill:#000000; fill-opacity:1" points="
  4590.92,1130.02 4550.92,1170.02 4590.92,1210.02 4630.92,1170.02 4590.92,1130.02 
  "/>
<polygon clip-path="url(#clip0702)" style="fill:#c271d2; fill-opacity:1" points="
  4590.92,1138.02 4558.92,1170.02 4590.92,1202.02 4622.92,1170.02 4590.92,1138.02 
  "/>
<polygon clip-path="url(#clip0702)" style="fill:#000000; fill-opacity:1" points="
  4551.19,871.423 4511.19,911.423 4551.19,951.423 4591.19,911.423 4551.19,871.423 
  "/>
<polygon clip-path="url(#clip0702)" style="fill:#c271d2; fill-opacity:1" points="
  4551.19,879.423 4519.19,911.423 4551.19,943.423 4583.19,911.423 4551.19,879.423 
  "/>
<polygon clip-path="url(#clip0702)" style="fill:#000000; fill-opacity:1" points="
  4507.28,499.316 4467.28,539.316 4507.28,579.316 4547.28,539.316 4507.28,499.316 
  "/>
<polygon clip-path="url(#clip0702)" style="fill:#c271d2; fill-opacity:1" points="
  4507.28,507.316 4475.28,539.316 4507.28,571.316 4539.28,539.316 4507.28,507.316 
  "/>
<polygon clip-path="url(#clip0702)" style="fill:#000000; fill-opacity:1" points="
  1702.83,452.323 1662.83,492.323 1702.83,532.323 1742.83,492.323 1702.83,452.323 
  "/>
<polygon clip-path="url(#clip0702)" style="fill:#c271d2; fill-opacity:1" points="
  1702.83,460.323 1670.83,492.323 1702.83,524.323 1734.83,492.323 1702.83,460.323 
  "/>
<polygon clip-path="url(#clip0702)" style="fill:#000000; fill-opacity:1" points="
  1483.61,484.121 1443.61,524.121 1483.61,564.121 1523.61,524.121 1483.61,484.121 
  "/>
<polygon clip-path="url(#clip0702)" style="fill:#c271d2; fill-opacity:1" points="
  1483.61,492.121 1451.61,524.121 1483.61,556.121 1515.61,524.121 1483.61,492.121 
  "/>
<polygon clip-path="url(#clip0700)" points="
3851.43,920.271 4561.51,920.271 4561.51,617.871 3851.43,617.871 
  " fill="#ffffff" fill-rule="evenodd" fill-opacity="1"/>
<polyline clip-path="url(#clip0700)" style="stroke:#000000; stroke-width:8; stroke-opacity:1; fill:none" points="
  3851.43,920.271 4561.51,920.271 4561.51,617.871 3851.43,617.871 3851.43,920.271 
  "/>
<polyline clip-path="url(#clip0700)" style="stroke:#009af9; stroke-width:8; stroke-opacity:1; fill:none" points="
  3899.43,678.351 4187.43,678.351 
  "/>
<circle clip-path="url(#clip0700)" style="fill:#000000; stroke:none; fill-opacity:1" cx="4067.43" cy="678.351" r="50"/>
<circle clip-path="url(#clip0700)" style="fill:#009af9; stroke:none; fill-opacity:1" cx="4067.43" cy="678.351" r="43"/>
<g clip-path="url(#clip0700)">
<text style="fill:#000000; fill-opacity:1; font-family:Arial,Helvetica Neue,Helvetica,sans-serif; font-size:48px; text-anchor:start;" transform="rotate(0, 4235.43, 695.851)" x="4235.43" y="695.851">R2 PI .5</text>
</g>
<polyline clip-path="url(#clip0700)" style="stroke:#e26f46; stroke-width:8; stroke-opacity:1; fill:none" points="
  3899.43,738.831 4187.43,738.831 
  "/>
<polygon clip-path="url(#clip0700)" style="fill:#000000; fill-opacity:1" points="
  4011.43,682.831 4011.43,794.831 4123.43,794.831 4123.43,682.831 4011.43,682.831 
  "/>
<polygon clip-path="url(#clip0700)" style="fill:#e26f46; fill-opacity:1" points="
  4019.43,690.831 4019.43,786.831 4115.43,786.831 4115.43,690.831 4019.43,690.831 
  "/>
<g clip-path="url(#clip0700)">
<text style="fill:#000000; fill-opacity:1; font-family:Arial,Helvetica Neue,Helvetica,sans-serif; font-size:48px; text-anchor:start;" transform="rotate(0, 4235.43, 756.331)" x="4235.43" y="756.331">R2 PI .7</text>
</g>
<polyline clip-path="url(#clip0700)" style="stroke:#3da44d; stroke-width:8; stroke-opacity:1; fill:none" points="
  3899.43,799.311 4187.43,799.311 
  "/>
<polygon clip-path="url(#clip0700)" style="fill:#000000; fill-opacity:1" points="
  4067.43,743.311 4054.27,781.167 4014.18,782.007 4046.15,806.255 4034.5,844.615 4067.43,821.711 4100.36,844.615 4088.71,806.255 4120.69,782.007 4080.59,781.167 
  4067.43,743.311 
  "/>
<polygon clip-path="url(#clip0700)" style="fill:#3da44d; fill-opacity:1" points="
  4067.43,751.311 4056.15,783.759 4021.78,784.479 4049.19,805.263 4039.21,838.143 4067.43,818.511 4095.66,838.143 4085.67,805.263 4113.08,784.479 4078.71,783.759 
  4067.43,751.311 
  "/>
<g clip-path="url(#clip0700)">
<text style="fill:#000000; fill-opacity:1; font-family:Arial,Helvetica Neue,Helvetica,sans-serif; font-size:48px; text-anchor:start;" transform="rotate(0, 4235.43, 816.811)" x="4235.43" y="816.811">R2 Std .7</text>
</g>
<polyline clip-path="url(#clip0700)" style="stroke:#c271d2; stroke-width:8; stroke-opacity:1; fill:none" points="
  3899.43,859.791 4187.43,859.791 
  "/>
<polygon clip-path="url(#clip0700)" style="fill:#000000; fill-opacity:1" points="
  4067.43,803.791 4011.43,859.791 4067.43,915.791 4123.43,859.791 4067.43,803.791 
  "/>
<polygon clip-path="url(#clip0700)" style="fill:#c271d2; fill-opacity:1" points="
  4067.43,811.791 4019.43,859.791 4067.43,907.791 4115.43,859.791 4067.43,811.791 
  "/>
<g clip-path="url(#clip0700)">
<text style="fill:#000000; fill-opacity:1; font-family:Arial,Helvetica Neue,Helvetica,sans-serif; font-size:48px; text-anchor:start;" transform="rotate(0, 4235.43, 877.291)" x="4235.43" y="877.291">R2 Pred .5</text>
</g>
</svg>
