<?xml version="1.0" encoding="utf-8"?>
<svg xmlns="http://www.w3.org/2000/svg" xmlns:xlink="http://www.w3.org/1999/xlink" width="1200" height="800" viewBox="0 0 4800 3200">
<defs>
  <clipPath id="clip4500">
    <rect x="0" y="0" width="4800" height="3200"/>
  </clipPath>
</defs>
<polygon clip-path="url(#clip4500)" points="
0,3200 4800,3200 4800,0 0,0 
  " fill="#ffffff" fill-rule="evenodd" fill-opacity="1"/>
<defs>
  <clipPath id="clip4501">
    <rect x="960" y="0" width="3361" height="3200"/>
  </clipPath>
</defs>
<polygon clip-path="url(#clip4500)" points="
1065.3,2747.94 4705.51,2747.94 4705.51,306.728 1065.3,306.728 
  " fill="#ffffff" fill-rule="evenodd" fill-opacity="1"/>
<defs>
  <clipPath id="clip4502">
    <rect x="1065" y="306" width="3641" height="2442"/>
  </clipPath>
</defs>
<polyline clip-path="url(#clip4502)" style="stroke:#000000; stroke-width:4; stroke-opacity:0.1; fill:none" points="
  1070.81,2747.94 1070.81,306.728 
  "/>
<polyline clip-path="url(#clip4502)" style="stroke:#000000; stroke-width:4; stroke-opacity:0.1; fill:none" points="
  1628.77,2747.94 1628.77,306.728 
  "/>
<polyline clip-path="url(#clip4502)" style="stroke:#000000; stroke-width:4; stroke-opacity:0.1; fill:none" points="
  2186.73,2747.94 2186.73,306.728 
  "/>
<polyline clip-path="url(#clip4502)" style="stroke:#000000; stroke-width:4; stroke-opacity:0.1; fill:none" points="
  2744.69,2747.94 2744.69,306.728 
  "/>
<polyline clip-path="url(#clip4502)" style="stroke:#000000; stroke-width:4; stroke-opacity:0.1; fill:none" points="
  3302.65,2747.94 3302.65,306.728 
  "/>
<polyline clip-path="url(#clip4502)" style="stroke:#000000; stroke-width:4; stroke-opacity:0.1; fill:none" points="
  3860.61,2747.94 3860.61,306.728 
  "/>
<polyline clip-path="url(#clip4502)" style="stroke:#000000; stroke-width:4; stroke-opacity:0.1; fill:none" points="
  4418.57,2747.94 4418.57,306.728 
  "/>
<polyline clip-path="url(#clip4502)" style="stroke:#000000; stroke-width:4; stroke-opacity:0.1; fill:none" points="
  1065.3,2743.72 4705.51,2743.72 
  "/>
<polyline clip-path="url(#clip4502)" style="stroke:#000000; stroke-width:4; stroke-opacity:0.1; fill:none" points="
  1065.3,2389.27 4705.51,2389.27 
  "/>
<polyline clip-path="url(#clip4502)" style="stroke:#000000; stroke-width:4; stroke-opacity:0.1; fill:none" points="
  1065.3,2034.82 4705.51,2034.82 
  "/>
<polyline clip-path="url(#clip4502)" style="stroke:#000000; stroke-width:4; stroke-opacity:0.1; fill:none" points="
  1065.3,1680.37 4705.51,1680.37 
  "/>
<polyline clip-path="url(#clip4502)" style="stroke:#000000; stroke-width:4; stroke-opacity:0.1; fill:none" points="
  1065.3,1325.93 4705.51,1325.93 
  "/>
<polyline clip-path="url(#clip4502)" style="stroke:#000000; stroke-width:4; stroke-opacity:0.1; fill:none" points="
  1065.3,971.478 4705.51,971.478 
  "/>
<polyline clip-path="url(#clip4502)" style="stroke:#000000; stroke-width:4; stroke-opacity:0.1; fill:none" points="
  1065.3,617.03 4705.51,617.03 
  "/>
<polyline clip-path="url(#clip4500)" style="stroke:#000000; stroke-width:8; stroke-opacity:1; fill:none" points="
  1065.3,2747.94 4705.51,2747.94 
  "/>
<polyline clip-path="url(#clip4500)" style="stroke:#000000; stroke-width:8; stroke-opacity:1; fill:none" points="
  1065.3,2747.94 1065.3,306.728 
  "/>
<polyline clip-path="url(#clip4500)" style="stroke:#000000; stroke-width:8; stroke-opacity:1; fill:none" points="
  1070.81,2747.94 1070.81,2711.33 
  "/>
<polyline clip-path="url(#clip4500)" style="stroke:#000000; stroke-width:8; stroke-opacity:1; fill:none" points="
  1628.77,2747.94 1628.77,2711.33 
  "/>
<polyline clip-path="url(#clip4500)" style="stroke:#000000; stroke-width:8; stroke-opacity:1; fill:none" points="
  2186.73,2747.94 2186.73,2711.33 
  "/>
<polyline clip-path="url(#clip4500)" style="stroke:#000000; stroke-width:8; stroke-opacity:1; fill:none" points="
  2744.69,2747.94 2744.69,2711.33 
  "/>
<polyline clip-path="url(#clip4500)" style="stroke:#000000; stroke-width:8; stroke-opacity:1; fill:none" points="
  3302.65,2747.94 3302.65,2711.33 
  "/>
<polyline clip-path="url(#clip4500)" style="stroke:#000000; stroke-width:8; stroke-opacity:1; fill:none" points="
  3860.61,2747.94 3860.61,2711.33 
  "/>
<polyline clip-path="url(#clip4500)" style="stroke:#000000; stroke-width:8; stroke-opacity:1; fill:none" points="
  4418.57,2747.94 4418.57,2711.33 
  "/>
<polyline clip-path="url(#clip4500)" style="stroke:#000000; stroke-width:8; stroke-opacity:1; fill:none" points="
  1065.3,2743.72 1119.91,2743.72 
  "/>
<polyline clip-path="url(#clip4500)" style="stroke:#000000; stroke-width:8; stroke-opacity:1; fill:none" points="
  1065.3,2389.27 1119.91,2389.27 
  "/>
<polyline clip-path="url(#clip4500)" style="stroke:#000000; stroke-width:8; stroke-opacity:1; fill:none" points="
  1065.3,2034.82 1119.91,2034.82 
  "/>
<polyline clip-path="url(#clip4500)" style="stroke:#000000; stroke-width:8; stroke-opacity:1; fill:none" points="
  1065.3,1680.37 1119.91,1680.37 
  "/>
<polyline clip-path="url(#clip4500)" style="stroke:#000000; stroke-width:8; stroke-opacity:1; fill:none" points="
  1065.3,1325.93 1119.91,1325.93 
  "/>
<polyline clip-path="url(#clip4500)" style="stroke:#000000; stroke-width:8; stroke-opacity:1; fill:none" points="
  1065.3,971.478 1119.91,971.478 
  "/>
<polyline clip-path="url(#clip4500)" style="stroke:#000000; stroke-width:8; stroke-opacity:1; fill:none" points="
  1065.3,617.03 1119.91,617.03 
  "/>
<g clip-path="url(#clip4500)">
<text style="fill:#000000; fill-opacity:1; font-family:Arial,Helvetica Neue,Helvetica,sans-serif; font-size:95px; text-anchor:start;" transform="rotate(0, 907.468, 2897.96)" x="907.468" y="2897.96">10</text>
</g>
<g clip-path="url(#clip4500)">
<text style="fill:#000000; fill-opacity:1; font-family:Arial,Helvetica Neue,Helvetica,sans-serif; font-size:77px; text-anchor:start;" transform="rotate(0, 1014.52, 2843.14)" x="1014.52" y="2843.14">-</text>
</g>
<g clip-path="url(#clip4500)">
<text style="fill:#000000; fill-opacity:1; font-family:Arial,Helvetica Neue,Helvetica,sans-serif; font-size:77px; text-anchor:start;" transform="rotate(0, 1060.2, 2843.14)" x="1060.2" y="2843.14">1.80 </text>
</g>
<g clip-path="url(#clip4500)">
<text style="fill:#000000; fill-opacity:1; font-family:Arial,Helvetica Neue,Helvetica,sans-serif; font-size:95px; text-anchor:start;" transform="rotate(0, 1465.43, 2897.96)" x="1465.43" y="2897.96">10</text>
</g>
<g clip-path="url(#clip4500)">
<text style="fill:#000000; fill-opacity:1; font-family:Arial,Helvetica Neue,Helvetica,sans-serif; font-size:77px; text-anchor:start;" transform="rotate(0, 1572.48, 2843.14)" x="1572.48" y="2843.14">-</text>
</g>
<g clip-path="url(#clip4500)">
<text style="fill:#000000; fill-opacity:1; font-family:Arial,Helvetica Neue,Helvetica,sans-serif; font-size:77px; text-anchor:start;" transform="rotate(0, 1618.16, 2843.14)" x="1618.16" y="2843.14">1.79 </text>
</g>
<g clip-path="url(#clip4500)">
<text style="fill:#000000; fill-opacity:1; font-family:Arial,Helvetica Neue,Helvetica,sans-serif; font-size:95px; text-anchor:start;" transform="rotate(0, 2023.39, 2897.96)" x="2023.39" y="2897.96">10</text>
</g>
<g clip-path="url(#clip4500)">
<text style="fill:#000000; fill-opacity:1; font-family:Arial,Helvetica Neue,Helvetica,sans-serif; font-size:77px; text-anchor:start;" transform="rotate(0, 2130.44, 2843.14)" x="2130.44" y="2843.14">-</text>
</g>
<g clip-path="url(#clip4500)">
<text style="fill:#000000; fill-opacity:1; font-family:Arial,Helvetica Neue,Helvetica,sans-serif; font-size:77px; text-anchor:start;" transform="rotate(0, 2176.12, 2843.14)" x="2176.12" y="2843.14">1.78 </text>
</g>
<g clip-path="url(#clip4500)">
<text style="fill:#000000; fill-opacity:1; font-family:Arial,Helvetica Neue,Helvetica,sans-serif; font-size:95px; text-anchor:start;" transform="rotate(0, 2581.35, 2897.96)" x="2581.35" y="2897.96">10</text>
</g>
<g clip-path="url(#clip4500)">
<text style="fill:#000000; fill-opacity:1; font-family:Arial,Helvetica Neue,Helvetica,sans-serif; font-size:77px; text-anchor:start;" transform="rotate(0, 2688.4, 2843.14)" x="2688.4" y="2843.14">-</text>
</g>
<g clip-path="url(#clip4500)">
<text style="fill:#000000; fill-opacity:1; font-family:Arial,Helvetica Neue,Helvetica,sans-serif; font-size:77px; text-anchor:start;" transform="rotate(0, 2734.08, 2843.14)" x="2734.08" y="2843.14">1.77 </text>
</g>
<g clip-path="url(#clip4500)">
<text style="fill:#000000; fill-opacity:1; font-family:Arial,Helvetica Neue,Helvetica,sans-serif; font-size:95px; text-anchor:start;" transform="rotate(0, 3139.31, 2897.96)" x="3139.31" y="2897.96">10</text>
</g>
<g clip-path="url(#clip4500)">
<text style="fill:#000000; fill-opacity:1; font-family:Arial,Helvetica Neue,Helvetica,sans-serif; font-size:77px; text-anchor:start;" transform="rotate(0, 3246.36, 2843.14)" x="3246.36" y="2843.14">-</text>
</g>
<g clip-path="url(#clip4500)">
<text style="fill:#000000; fill-opacity:1; font-family:Arial,Helvetica Neue,Helvetica,sans-serif; font-size:77px; text-anchor:start;" transform="rotate(0, 3292.04, 2843.14)" x="3292.04" y="2843.14">1.76 </text>
</g>
<g clip-path="url(#clip4500)">
<text style="fill:#000000; fill-opacity:1; font-family:Arial,Helvetica Neue,Helvetica,sans-serif; font-size:95px; text-anchor:start;" transform="rotate(0, 3697.27, 2897.96)" x="3697.27" y="2897.96">10</text>
</g>
<g clip-path="url(#clip4500)">
<text style="fill:#000000; fill-opacity:1; font-family:Arial,Helvetica Neue,Helvetica,sans-serif; font-size:77px; text-anchor:start;" transform="rotate(0, 3804.32, 2843.14)" x="3804.32" y="2843.14">-</text>
</g>
<g clip-path="url(#clip4500)">
<text style="fill:#000000; fill-opacity:1; font-family:Arial,Helvetica Neue,Helvetica,sans-serif; font-size:77px; text-anchor:start;" transform="rotate(0, 3850, 2843.14)" x="3850" y="2843.14">1.75 </text>
</g>
<g clip-path="url(#clip4500)">
<text style="fill:#000000; fill-opacity:1; font-family:Arial,Helvetica Neue,Helvetica,sans-serif; font-size:95px; text-anchor:start;" transform="rotate(0, 4255.23, 2897.96)" x="4255.23" y="2897.96">10</text>
</g>
<g clip-path="url(#clip4500)">
<text style="fill:#000000; fill-opacity:1; font-family:Arial,Helvetica Neue,Helvetica,sans-serif; font-size:77px; text-anchor:start;" transform="rotate(0, 4362.28, 2843.14)" x="4362.28" y="2843.14">-</text>
</g>
<g clip-path="url(#clip4500)">
<text style="fill:#000000; fill-opacity:1; font-family:Arial,Helvetica Neue,Helvetica,sans-serif; font-size:77px; text-anchor:start;" transform="rotate(0, 4407.96, 2843.14)" x="4407.96" y="2843.14">1.74 </text>
</g>
<g clip-path="url(#clip4500)">
<text style="fill:#000000; fill-opacity:1; font-family:Arial,Helvetica Neue,Helvetica,sans-serif; font-size:95px; text-anchor:start;" transform="rotate(0, 647.132, 2791.17)" x="647.132" y="2791.17">10</text>
</g>
<g clip-path="url(#clip4500)">
<text style="fill:#000000; fill-opacity:1; font-family:Arial,Helvetica Neue,Helvetica,sans-serif; font-size:77px; text-anchor:start;" transform="rotate(0, 754.181, 2736.35)" x="754.181" y="2736.35">-</text>
</g>
<g clip-path="url(#clip4500)">
<text style="fill:#000000; fill-opacity:1; font-family:Arial,Helvetica Neue,Helvetica,sans-serif; font-size:77px; text-anchor:start;" transform="rotate(0, 799.86, 2736.35)" x="799.86" y="2736.35">0.875 </text>
</g>
<g clip-path="url(#clip4500)">
<text style="fill:#000000; fill-opacity:1; font-family:Arial,Helvetica Neue,Helvetica,sans-serif; font-size:95px; text-anchor:start;" transform="rotate(0, 647.132, 2436.72)" x="647.132" y="2436.72">10</text>
</g>
<g clip-path="url(#clip4500)">
<text style="fill:#000000; fill-opacity:1; font-family:Arial,Helvetica Neue,Helvetica,sans-serif; font-size:77px; text-anchor:start;" transform="rotate(0, 754.181, 2381.9)" x="754.181" y="2381.9">-</text>
</g>
<g clip-path="url(#clip4500)">
<text style="fill:#000000; fill-opacity:1; font-family:Arial,Helvetica Neue,Helvetica,sans-serif; font-size:77px; text-anchor:start;" transform="rotate(0, 799.86, 2381.9)" x="799.86" y="2381.9">0.870 </text>
</g>
<g clip-path="url(#clip4500)">
<text style="fill:#000000; fill-opacity:1; font-family:Arial,Helvetica Neue,Helvetica,sans-serif; font-size:95px; text-anchor:start;" transform="rotate(0, 647.132, 2082.28)" x="647.132" y="2082.28">10</text>
</g>
<g clip-path="url(#clip4500)">
<text style="fill:#000000; fill-opacity:1; font-family:Arial,Helvetica Neue,Helvetica,sans-serif; font-size:77px; text-anchor:start;" transform="rotate(0, 754.181, 2027.46)" x="754.181" y="2027.46">-</text>
</g>
<g clip-path="url(#clip4500)">
<text style="fill:#000000; fill-opacity:1; font-family:Arial,Helvetica Neue,Helvetica,sans-serif; font-size:77px; text-anchor:start;" transform="rotate(0, 799.86, 2027.46)" x="799.86" y="2027.46">0.865 </text>
</g>
<g clip-path="url(#clip4500)">
<text style="fill:#000000; fill-opacity:1; font-family:Arial,Helvetica Neue,Helvetica,sans-serif; font-size:95px; text-anchor:start;" transform="rotate(0, 647.132, 1727.83)" x="647.132" y="1727.83">10</text>
</g>
<g clip-path="url(#clip4500)">
<text style="fill:#000000; fill-opacity:1; font-family:Arial,Helvetica Neue,Helvetica,sans-serif; font-size:77px; text-anchor:start;" transform="rotate(0, 754.181, 1673.01)" x="754.181" y="1673.01">-</text>
</g>
<g clip-path="url(#clip4500)">
<text style="fill:#000000; fill-opacity:1; font-family:Arial,Helvetica Neue,Helvetica,sans-serif; font-size:77px; text-anchor:start;" transform="rotate(0, 799.86, 1673.01)" x="799.86" y="1673.01">0.860 </text>
</g>
<g clip-path="url(#clip4500)">
<text style="fill:#000000; fill-opacity:1; font-family:Arial,Helvetica Neue,Helvetica,sans-serif; font-size:95px; text-anchor:start;" transform="rotate(0, 647.132, 1373.38)" x="647.132" y="1373.38">10</text>
</g>
<g clip-path="url(#clip4500)">
<text style="fill:#000000; fill-opacity:1; font-family:Arial,Helvetica Neue,Helvetica,sans-serif; font-size:77px; text-anchor:start;" transform="rotate(0, 754.181, 1318.56)" x="754.181" y="1318.56">-</text>
</g>
<g clip-path="url(#clip4500)">
<text style="fill:#000000; fill-opacity:1; font-family:Arial,Helvetica Neue,Helvetica,sans-serif; font-size:77px; text-anchor:start;" transform="rotate(0, 799.86, 1318.56)" x="799.86" y="1318.56">0.855 </text>
</g>
<g clip-path="url(#clip4500)">
<text style="fill:#000000; fill-opacity:1; font-family:Arial,Helvetica Neue,Helvetica,sans-serif; font-size:95px; text-anchor:start;" transform="rotate(0, 647.132, 1018.93)" x="647.132" y="1018.93">10</text>
</g>
<g clip-path="url(#clip4500)">
<text style="fill:#000000; fill-opacity:1; font-family:Arial,Helvetica Neue,Helvetica,sans-serif; font-size:77px; text-anchor:start;" transform="rotate(0, 754.181, 964.112)" x="754.181" y="964.112">-</text>
</g>
<g clip-path="url(#clip4500)">
<text style="fill:#000000; fill-opacity:1; font-family:Arial,Helvetica Neue,Helvetica,sans-serif; font-size:77px; text-anchor:start;" transform="rotate(0, 799.86, 964.112)" x="799.86" y="964.112">0.850 </text>
</g>
<g clip-path="url(#clip4500)">
<text style="fill:#000000; fill-opacity:1; font-family:Arial,Helvetica Neue,Helvetica,sans-serif; font-size:95px; text-anchor:start;" transform="rotate(0, 647.132, 664.485)" x="647.132" y="664.485">10</text>
</g>
<g clip-path="url(#clip4500)">
<text style="fill:#000000; fill-opacity:1; font-family:Arial,Helvetica Neue,Helvetica,sans-serif; font-size:77px; text-anchor:start;" transform="rotate(0, 754.181, 609.665)" x="754.181" y="609.665">-</text>
</g>
<g clip-path="url(#clip4500)">
<text style="fill:#000000; fill-opacity:1; font-family:Arial,Helvetica Neue,Helvetica,sans-serif; font-size:77px; text-anchor:start;" transform="rotate(0, 799.86, 609.665)" x="799.86" y="609.665">0.845 </text>
</g>
<g clip-path="url(#clip4500)">
<text style="fill:#000000; fill-opacity:1; font-family:Arial,Helvetica Neue,Helvetica,sans-serif; font-size:166px; text-anchor:middle;" transform="rotate(0, 2885.41, 145.2)" x="2885.41" y="145.2">wp_L2_ROCK4_Overall</text>
</g>
<g clip-path="url(#clip4500)">
<text style="fill:#000000; fill-opacity:1; font-family:Arial,Helvetica Neue,Helvetica,sans-serif; font-size:130px; text-anchor:middle;" transform="rotate(0, 2885.41, 3015.87)" x="2885.41" y="3015.87">Error</text>
</g>
<g clip-path="url(#clip4500)">
<text style="fill:#000000; fill-opacity:1; font-family:Arial,Helvetica Neue,Helvetica,sans-serif; font-size:130px; text-anchor:middle;" transform="rotate(-90, 495.7, 1527.34)" x="495.7" y="1527.34">Time (s)</text>
</g>
<polyline clip-path="url(#clip4502)" style="stroke:#009af9; stroke-width:8; stroke-opacity:1; fill:none" points="
  4602.49,1567.36 2230.54,2532.1 2606.45,2038.68 2203.31,2655.24 
  "/>
<circle clip-path="url(#clip4502)" style="fill:#000000; stroke:none; fill-opacity:1" cx="4602.49" cy="1567.36" r="36"/>
<circle clip-path="url(#clip4502)" style="fill:#009af9; stroke:none; fill-opacity:1" cx="4602.49" cy="1567.36" r="28"/>
<circle clip-path="url(#clip4502)" style="fill:#000000; stroke:none; fill-opacity:1" cx="2230.54" cy="2532.1" r="36"/>
<circle clip-path="url(#clip4502)" style="fill:#009af9; stroke:none; fill-opacity:1" cx="2230.54" cy="2532.1" r="28"/>
<circle clip-path="url(#clip4502)" style="fill:#000000; stroke:none; fill-opacity:1" cx="2606.45" cy="2038.68" r="36"/>
<circle clip-path="url(#clip4502)" style="fill:#009af9; stroke:none; fill-opacity:1" cx="2606.45" cy="2038.68" r="28"/>
<circle clip-path="url(#clip4502)" style="fill:#000000; stroke:none; fill-opacity:1" cx="2203.31" cy="2655.24" r="36"/>
<circle clip-path="url(#clip4502)" style="fill:#009af9; stroke:none; fill-opacity:1" cx="2203.31" cy="2655.24" r="28"/>
<polyline clip-path="url(#clip4502)" style="stroke:#e26f46; stroke-width:8; stroke-opacity:1; fill:none" points="
  3709.1,2120.2 2279.48,375.819 2422.51,1294.83 1879.37,2461.7 
  "/>
<polygon clip-path="url(#clip4502)" style="fill:#000000; fill-opacity:1" points="
  3669.1,2080.2 3669.1,2160.2 3749.1,2160.2 3749.1,2080.2 3669.1,2080.2 
  "/>
<polygon clip-path="url(#clip4502)" style="fill:#e26f46; fill-opacity:1" points="
  3677.1,2088.2 3677.1,2152.2 3741.1,2152.2 3741.1,2088.2 3677.1,2088.2 
  "/>
<polygon clip-path="url(#clip4502)" style="fill:#000000; fill-opacity:1" points="
  2239.48,335.819 2239.48,415.819 2319.48,415.819 2319.48,335.819 2239.48,335.819 
  "/>
<polygon clip-path="url(#clip4502)" style="fill:#e26f46; fill-opacity:1" points="
  2247.48,343.819 2247.48,407.819 2311.48,407.819 2311.48,343.819 2247.48,343.819 
  "/>
<polygon clip-path="url(#clip4502)" style="fill:#000000; fill-opacity:1" points="
  2382.51,1254.83 2382.51,1334.83 2462.51,1334.83 2462.51,1254.83 2382.51,1254.83 
  "/>
<polygon clip-path="url(#clip4502)" style="fill:#e26f46; fill-opacity:1" points="
  2390.51,1262.83 2390.51,1326.83 2454.51,1326.83 2454.51,1262.83 2390.51,1262.83 
  "/>
<polygon clip-path="url(#clip4502)" style="fill:#000000; fill-opacity:1" points="
  1839.37,2421.7 1839.37,2501.7 1919.37,2501.7 1919.37,2421.7 1839.37,2421.7 
  "/>
<polygon clip-path="url(#clip4502)" style="fill:#e26f46; fill-opacity:1" points="
  1847.37,2429.7 1847.37,2493.7 1911.37,2493.7 1911.37,2429.7 1847.37,2429.7 
  "/>
<polyline clip-path="url(#clip4502)" style="stroke:#3da44d; stroke-width:8; stroke-opacity:1; fill:none" points="
  2210.59,2582.71 2847.6,2253.54 2190.16,2648.27 1839.08,2338.15 
  "/>
<polygon clip-path="url(#clip4502)" style="fill:#000000; fill-opacity:1" points="
  2210.59,2542.71 2201.19,2569.75 2172.55,2570.35 2195.39,2587.67 2187.07,2615.07 2210.59,2598.71 2234.11,2615.07 2225.79,2587.67 2248.63,2570.35 2219.99,2569.75 
  2210.59,2542.71 
  "/>
<polygon clip-path="url(#clip4502)" style="fill:#3da44d; fill-opacity:1" points="
  2210.59,2550.71 2203.07,2572.34 2180.16,2572.82 2198.43,2586.68 2191.78,2608.6 2210.59,2595.51 2229.41,2608.6 2222.75,2586.68 2241.03,2572.82 2218.11,2572.34 
  2210.59,2550.71 
  "/>
<polygon clip-path="url(#clip4502)" style="fill:#000000; fill-opacity:1" points="
  2847.6,2213.54 2838.2,2240.58 2809.56,2241.18 2832.4,2258.5 2824.08,2285.9 2847.6,2269.54 2871.12,2285.9 2862.8,2258.5 2885.64,2241.18 2857,2240.58 
  2847.6,2213.54 
  "/>
<polygon clip-path="url(#clip4502)" style="fill:#3da44d; fill-opacity:1" points="
  2847.6,2221.54 2840.08,2243.17 2817.17,2243.65 2835.44,2257.51 2828.78,2279.43 2847.6,2266.34 2866.42,2279.43 2859.76,2257.51 2878.03,2243.65 2855.12,2243.17 
  2847.6,2221.54 
  "/>
<polygon clip-path="url(#clip4502)" style="fill:#000000; fill-opacity:1" points="
  2190.16,2608.27 2180.76,2635.31 2152.12,2635.91 2174.96,2653.23 2166.64,2680.63 2190.16,2664.27 2213.68,2680.63 2205.36,2653.23 2228.2,2635.91 2199.56,2635.31 
  2190.16,2608.27 
  "/>
<polygon clip-path="url(#clip4502)" style="fill:#3da44d; fill-opacity:1" points="
  2190.16,2616.27 2182.64,2637.9 2159.73,2638.38 2178,2652.24 2171.35,2674.16 2190.16,2661.07 2208.98,2674.16 2202.32,2652.24 2220.59,2638.38 2197.68,2637.9 
  2190.16,2616.27 
  "/>
<polygon clip-path="url(#clip4502)" style="fill:#000000; fill-opacity:1" points="
  1839.08,2298.15 1829.68,2325.19 1801.04,2325.79 1823.88,2343.11 1815.56,2370.51 1839.08,2354.15 1862.6,2370.51 1854.28,2343.11 1877.12,2325.79 1848.48,2325.19 
  1839.08,2298.15 
  "/>
<polygon clip-path="url(#clip4502)" style="fill:#3da44d; fill-opacity:1" points="
  1839.08,2306.15 1831.56,2327.78 1808.65,2328.26 1826.92,2342.12 1820.27,2364.04 1839.08,2350.95 1857.9,2364.04 1851.24,2342.12 1869.52,2328.26 1846.6,2327.78 
  1839.08,2306.15 
  "/>
<polyline clip-path="url(#clip4502)" style="stroke:#c271d2; stroke-width:8; stroke-opacity:1; fill:none" points="
  1967.3,2678.85 1754.94,2471.09 1526.28,2468.78 1168.33,1427.26 
  "/>
<polygon clip-path="url(#clip4502)" style="fill:#000000; fill-opacity:1" points="
  1967.3,2638.85 1927.3,2678.85 1967.3,2718.85 2007.3,2678.85 1967.3,2638.85 
  "/>
<polygon clip-path="url(#clip4502)" style="fill:#c271d2; fill-opacity:1" points="
  1967.3,2646.85 1935.3,2678.85 1967.3,2710.85 1999.3,2678.85 1967.3,2646.85 
  "/>
<polygon clip-path="url(#clip4502)" style="fill:#000000; fill-opacity:1" points="
  1754.94,2431.09 1714.94,2471.09 1754.94,2511.09 1794.94,2471.09 1754.94,2431.09 
  "/>
<polygon clip-path="url(#clip4502)" style="fill:#c271d2; fill-opacity:1" points="
  1754.94,2439.09 1722.94,2471.09 1754.94,2503.09 1786.94,2471.09 1754.94,2439.09 
  "/>
<polygon clip-path="url(#clip4502)" style="fill:#000000; fill-opacity:1" points="
  1526.28,2428.78 1486.28,2468.78 1526.28,2508.78 1566.28,2468.78 1526.28,2428.78 
  "/>
<polygon clip-path="url(#clip4502)" style="fill:#c271d2; fill-opacity:1" points="
  1526.28,2436.78 1494.28,2468.78 1526.28,2500.78 1558.28,2468.78 1526.28,2436.78 
  "/>
<polygon clip-path="url(#clip4502)" style="fill:#000000; fill-opacity:1" points="
  1168.33,1387.26 1128.33,1427.26 1168.33,1467.26 1208.33,1427.26 1168.33,1387.26 
  "/>
<polygon clip-path="url(#clip4502)" style="fill:#c271d2; fill-opacity:1" points="
  1168.33,1395.26 1136.33,1427.26 1168.33,1459.26 1200.33,1427.26 1168.33,1395.26 
  "/>
<polygon clip-path="url(#clip4500)" points="
3864.81,836.648 4561.51,836.648 4561.51,534.248 3864.81,534.248 
  " fill="#ffffff" fill-rule="evenodd" fill-opacity="1"/>
<polyline clip-path="url(#clip4500)" style="stroke:#000000; stroke-width:8; stroke-opacity:1; fill:none" points="
  3864.81,836.648 4561.51,836.648 4561.51,534.248 3864.81,534.248 3864.81,836.648 
  "/>
<polyline clip-path="url(#clip4500)" style="stroke:#009af9; stroke-width:8; stroke-opacity:1; fill:none" points="
  3912.81,594.728 4200.81,594.728 
  "/>
<circle clip-path="url(#clip4500)" style="fill:#000000; stroke:none; fill-opacity:1" cx="4080.81" cy="594.728" r="50"/>
<circle clip-path="url(#clip4500)" style="fill:#009af9; stroke:none; fill-opacity:1" cx="4080.81" cy="594.728" r="43"/>
<g clip-path="url(#clip4500)">
<text style="fill:#000000; fill-opacity:1; font-family:Arial,Helvetica Neue,Helvetica,sans-serif; font-size:48px; text-anchor:start;" transform="rotate(0, 4248.81, 612.228)" x="4248.81" y="612.228">R4 Pred 9</text>
</g>
<polyline clip-path="url(#clip4500)" style="stroke:#e26f46; stroke-width:8; stroke-opacity:1; fill:none" points="
  3912.81,655.208 4200.81,655.208 
  "/>
<polygon clip-path="url(#clip4500)" style="fill:#000000; fill-opacity:1" points="
  4024.81,599.208 4024.81,711.208 4136.81,711.208 4136.81,599.208 4024.81,599.208 
  "/>
<polygon clip-path="url(#clip4500)" style="fill:#e26f46; fill-opacity:1" points="
  4032.81,607.208 4032.81,703.208 4128.81,703.208 4128.81,607.208 4032.81,607.208 
  "/>
<g clip-path="url(#clip4500)">
<text style="fill:#000000; fill-opacity:1; font-family:Arial,Helvetica Neue,Helvetica,sans-serif; font-size:48px; text-anchor:start;" transform="rotate(0, 4248.81, 672.708)" x="4248.81" y="672.708">R4 Pred 8</text>
</g>
<polyline clip-path="url(#clip4500)" style="stroke:#3da44d; stroke-width:8; stroke-opacity:1; fill:none" points="
  3912.81,715.688 4200.81,715.688 
  "/>
<polygon clip-path="url(#clip4500)" style="fill:#000000; fill-opacity:1" points="
  4080.81,659.688 4067.65,697.544 4027.56,698.384 4059.53,722.632 4047.89,760.992 4080.81,738.088 4113.74,760.992 4102.09,722.632 4134.07,698.384 4093.97,697.544 
  4080.81,659.688 
  "/>
<polygon clip-path="url(#clip4500)" style="fill:#3da44d; fill-opacity:1" points="
  4080.81,667.688 4069.53,700.136 4035.17,700.856 4062.57,721.64 4052.59,754.52 4080.81,734.888 4109.04,754.52 4099.05,721.64 4126.46,700.856 4092.09,700.136 
  4080.81,667.688 
  "/>
<g clip-path="url(#clip4500)">
<text style="fill:#000000; fill-opacity:1; font-family:Arial,Helvetica Neue,Helvetica,sans-serif; font-size:48px; text-anchor:start;" transform="rotate(0, 4248.81, 733.188)" x="4248.81" y="733.188">R4 PI 9</text>
</g>
<polyline clip-path="url(#clip4500)" style="stroke:#c271d2; stroke-width:8; stroke-opacity:1; fill:none" points="
  3912.81,776.168 4200.81,776.168 
  "/>
<polygon clip-path="url(#clip4500)" style="fill:#000000; fill-opacity:1" points="
  4080.81,720.168 4024.81,776.168 4080.81,832.168 4136.81,776.168 4080.81,720.168 
  "/>
<polygon clip-path="url(#clip4500)" style="fill:#c271d2; fill-opacity:1" points="
  4080.81,728.168 4032.81,776.168 4080.81,824.168 4128.81,776.168 4080.81,728.168 
  "/>
<g clip-path="url(#clip4500)">
<text style="fill:#000000; fill-opacity:1; font-family:Arial,Helvetica Neue,Helvetica,sans-serif; font-size:48px; text-anchor:start;" transform="rotate(0, 4248.81, 793.668)" x="4248.81" y="793.668">R4 PI 5</text>
</g>
</svg>
