<?xml version="1.0" encoding="utf-8"?>
<svg xmlns="http://www.w3.org/2000/svg" xmlns:xlink="http://www.w3.org/1999/xlink" width="1200" height="800" viewBox="0 0 4800 3200">
<defs>
  <clipPath id="clip3700">
    <rect x="0" y="0" width="4800" height="3200"/>
  </clipPath>
</defs>
<polygon clip-path="url(#clip3700)" points="
0,3200 4800,3200 4800,0 0,0 
  " fill="#ffffff" fill-rule="evenodd" fill-opacity="1"/>
<defs>
  <clipPath id="clip3701">
    <rect x="960" y="0" width="3361" height="3200"/>
  </clipPath>
</defs>
<polygon clip-path="url(#clip3700)" points="
982.876,2747.94 4705.51,2747.94 4705.51,306.728 982.876,306.728 
  " fill="#ffffff" fill-rule="evenodd" fill-opacity="1"/>
<defs>
  <clipPath id="clip3702">
    <rect x="982" y="306" width="3724" height="2442"/>
  </clipPath>
</defs>
<polyline clip-path="url(#clip3702)" style="stroke:#000000; stroke-width:4; stroke-opacity:0.1; fill:none" points="
  1743.59,2747.94 1743.59,306.728 
  "/>
<polyline clip-path="url(#clip3702)" style="stroke:#000000; stroke-width:4; stroke-opacity:0.1; fill:none" points="
  2715.75,2747.94 2715.75,306.728 
  "/>
<polyline clip-path="url(#clip3702)" style="stroke:#000000; stroke-width:4; stroke-opacity:0.1; fill:none" points="
  3687.91,2747.94 3687.91,306.728 
  "/>
<polyline clip-path="url(#clip3702)" style="stroke:#000000; stroke-width:4; stroke-opacity:0.1; fill:none" points="
  4660.06,2747.94 4660.06,306.728 
  "/>
<polyline clip-path="url(#clip3702)" style="stroke:#000000; stroke-width:4; stroke-opacity:0.1; fill:none" points="
  982.876,2578.69 4705.51,2578.69 
  "/>
<polyline clip-path="url(#clip3702)" style="stroke:#000000; stroke-width:4; stroke-opacity:0.1; fill:none" points="
  982.876,2248.93 4705.51,2248.93 
  "/>
<polyline clip-path="url(#clip3702)" style="stroke:#000000; stroke-width:4; stroke-opacity:0.1; fill:none" points="
  982.876,1919.18 4705.51,1919.18 
  "/>
<polyline clip-path="url(#clip3702)" style="stroke:#000000; stroke-width:4; stroke-opacity:0.1; fill:none" points="
  982.876,1589.42 4705.51,1589.42 
  "/>
<polyline clip-path="url(#clip3702)" style="stroke:#000000; stroke-width:4; stroke-opacity:0.1; fill:none" points="
  982.876,1259.66 4705.51,1259.66 
  "/>
<polyline clip-path="url(#clip3702)" style="stroke:#000000; stroke-width:4; stroke-opacity:0.1; fill:none" points="
  982.876,929.908 4705.51,929.908 
  "/>
<polyline clip-path="url(#clip3702)" style="stroke:#000000; stroke-width:4; stroke-opacity:0.1; fill:none" points="
  982.876,600.152 4705.51,600.152 
  "/>
<polyline clip-path="url(#clip3700)" style="stroke:#000000; stroke-width:8; stroke-opacity:1; fill:none" points="
  982.876,2747.94 4705.51,2747.94 
  "/>
<polyline clip-path="url(#clip3700)" style="stroke:#000000; stroke-width:8; stroke-opacity:1; fill:none" points="
  982.876,2747.94 982.876,306.728 
  "/>
<polyline clip-path="url(#clip3700)" style="stroke:#000000; stroke-width:8; stroke-opacity:1; fill:none" points="
  1743.59,2747.94 1743.59,2711.33 
  "/>
<polyline clip-path="url(#clip3700)" style="stroke:#000000; stroke-width:8; stroke-opacity:1; fill:none" points="
  2715.75,2747.94 2715.75,2711.33 
  "/>
<polyline clip-path="url(#clip3700)" style="stroke:#000000; stroke-width:8; stroke-opacity:1; fill:none" points="
  3687.91,2747.94 3687.91,2711.33 
  "/>
<polyline clip-path="url(#clip3700)" style="stroke:#000000; stroke-width:8; stroke-opacity:1; fill:none" points="
  4660.06,2747.94 4660.06,2711.33 
  "/>
<polyline clip-path="url(#clip3700)" style="stroke:#000000; stroke-width:8; stroke-opacity:1; fill:none" points="
  982.876,2578.69 1038.72,2578.69 
  "/>
<polyline clip-path="url(#clip3700)" style="stroke:#000000; stroke-width:8; stroke-opacity:1; fill:none" points="
  982.876,2248.93 1038.72,2248.93 
  "/>
<polyline clip-path="url(#clip3700)" style="stroke:#000000; stroke-width:8; stroke-opacity:1; fill:none" points="
  982.876,1919.18 1038.72,1919.18 
  "/>
<polyline clip-path="url(#clip3700)" style="stroke:#000000; stroke-width:8; stroke-opacity:1; fill:none" points="
  982.876,1589.42 1038.72,1589.42 
  "/>
<polyline clip-path="url(#clip3700)" style="stroke:#000000; stroke-width:8; stroke-opacity:1; fill:none" points="
  982.876,1259.66 1038.72,1259.66 
  "/>
<polyline clip-path="url(#clip3700)" style="stroke:#000000; stroke-width:8; stroke-opacity:1; fill:none" points="
  982.876,929.908 1038.72,929.908 
  "/>
<polyline clip-path="url(#clip3700)" style="stroke:#000000; stroke-width:8; stroke-opacity:1; fill:none" points="
  982.876,600.152 1038.72,600.152 
  "/>
<g clip-path="url(#clip3700)">
<text style="fill:#000000; fill-opacity:1; font-family:Arial,Helvetica Neue,Helvetica,sans-serif; font-size:95px; text-anchor:start;" transform="rotate(0, 1580.24, 2897.96)" x="1580.24" y="2897.96">10</text>
</g>
<g clip-path="url(#clip3700)">
<text style="fill:#000000; fill-opacity:1; font-family:Arial,Helvetica Neue,Helvetica,sans-serif; font-size:77px; text-anchor:start;" transform="rotate(0, 1687.29, 2843.14)" x="1687.29" y="2843.14">-</text>
</g>
<g clip-path="url(#clip3700)">
<text style="fill:#000000; fill-opacity:1; font-family:Arial,Helvetica Neue,Helvetica,sans-serif; font-size:77px; text-anchor:start;" transform="rotate(0, 1732.97, 2843.14)" x="1732.97" y="2843.14">1.73 </text>
</g>
<g clip-path="url(#clip3700)">
<text style="fill:#000000; fill-opacity:1; font-family:Arial,Helvetica Neue,Helvetica,sans-serif; font-size:95px; text-anchor:start;" transform="rotate(0, 2552.4, 2897.96)" x="2552.4" y="2897.96">10</text>
</g>
<g clip-path="url(#clip3700)">
<text style="fill:#000000; fill-opacity:1; font-family:Arial,Helvetica Neue,Helvetica,sans-serif; font-size:77px; text-anchor:start;" transform="rotate(0, 2659.45, 2843.14)" x="2659.45" y="2843.14">-</text>
</g>
<g clip-path="url(#clip3700)">
<text style="fill:#000000; fill-opacity:1; font-family:Arial,Helvetica Neue,Helvetica,sans-serif; font-size:77px; text-anchor:start;" transform="rotate(0, 2705.13, 2843.14)" x="2705.13" y="2843.14">1.72 </text>
</g>
<g clip-path="url(#clip3700)">
<text style="fill:#000000; fill-opacity:1; font-family:Arial,Helvetica Neue,Helvetica,sans-serif; font-size:95px; text-anchor:start;" transform="rotate(0, 3524.56, 2897.96)" x="3524.56" y="2897.96">10</text>
</g>
<g clip-path="url(#clip3700)">
<text style="fill:#000000; fill-opacity:1; font-family:Arial,Helvetica Neue,Helvetica,sans-serif; font-size:77px; text-anchor:start;" transform="rotate(0, 3631.61, 2843.14)" x="3631.61" y="2843.14">-</text>
</g>
<g clip-path="url(#clip3700)">
<text style="fill:#000000; fill-opacity:1; font-family:Arial,Helvetica Neue,Helvetica,sans-serif; font-size:77px; text-anchor:start;" transform="rotate(0, 3677.29, 2843.14)" x="3677.29" y="2843.14">1.71 </text>
</g>
<g clip-path="url(#clip3700)">
<text style="fill:#000000; fill-opacity:1; font-family:Arial,Helvetica Neue,Helvetica,sans-serif; font-size:95px; text-anchor:start;" transform="rotate(0, 4496.72, 2897.96)" x="4496.72" y="2897.96">10</text>
</g>
<g clip-path="url(#clip3700)">
<text style="fill:#000000; fill-opacity:1; font-family:Arial,Helvetica Neue,Helvetica,sans-serif; font-size:77px; text-anchor:start;" transform="rotate(0, 4603.77, 2843.14)" x="4603.77" y="2843.14">-</text>
</g>
<g clip-path="url(#clip3700)">
<text style="fill:#000000; fill-opacity:1; font-family:Arial,Helvetica Neue,Helvetica,sans-serif; font-size:77px; text-anchor:start;" transform="rotate(0, 4649.45, 2843.14)" x="4649.45" y="2843.14">1.70 </text>
</g>
<g clip-path="url(#clip3700)">
<text style="fill:#000000; fill-opacity:1; font-family:Arial,Helvetica Neue,Helvetica,sans-serif; font-size:95px; text-anchor:start;" transform="rotate(0, 608.193, 2626.15)" x="608.193" y="2626.15">10</text>
</g>
<g clip-path="url(#clip3700)">
<text style="fill:#000000; fill-opacity:1; font-family:Arial,Helvetica Neue,Helvetica,sans-serif; font-size:77px; text-anchor:start;" transform="rotate(0, 715.242, 2571.32)" x="715.242" y="2571.32">-</text>
</g>
<g clip-path="url(#clip3700)">
<text style="fill:#000000; fill-opacity:1; font-family:Arial,Helvetica Neue,Helvetica,sans-serif; font-size:77px; text-anchor:start;" transform="rotate(0, 760.921, 2571.32)" x="760.921" y="2571.32">1.10 </text>
</g>
<g clip-path="url(#clip3700)">
<text style="fill:#000000; fill-opacity:1; font-family:Arial,Helvetica Neue,Helvetica,sans-serif; font-size:95px; text-anchor:start;" transform="rotate(0, 608.193, 2296.39)" x="608.193" y="2296.39">10</text>
</g>
<g clip-path="url(#clip3700)">
<text style="fill:#000000; fill-opacity:1; font-family:Arial,Helvetica Neue,Helvetica,sans-serif; font-size:77px; text-anchor:start;" transform="rotate(0, 715.242, 2241.57)" x="715.242" y="2241.57">-</text>
</g>
<g clip-path="url(#clip3700)">
<text style="fill:#000000; fill-opacity:1; font-family:Arial,Helvetica Neue,Helvetica,sans-serif; font-size:77px; text-anchor:start;" transform="rotate(0, 760.921, 2241.57)" x="760.921" y="2241.57">1.08 </text>
</g>
<g clip-path="url(#clip3700)">
<text style="fill:#000000; fill-opacity:1; font-family:Arial,Helvetica Neue,Helvetica,sans-serif; font-size:95px; text-anchor:start;" transform="rotate(0, 608.193, 1966.63)" x="608.193" y="1966.63">10</text>
</g>
<g clip-path="url(#clip3700)">
<text style="fill:#000000; fill-opacity:1; font-family:Arial,Helvetica Neue,Helvetica,sans-serif; font-size:77px; text-anchor:start;" transform="rotate(0, 715.242, 1911.81)" x="715.242" y="1911.81">-</text>
</g>
<g clip-path="url(#clip3700)">
<text style="fill:#000000; fill-opacity:1; font-family:Arial,Helvetica Neue,Helvetica,sans-serif; font-size:77px; text-anchor:start;" transform="rotate(0, 760.921, 1911.81)" x="760.921" y="1911.81">1.06 </text>
</g>
<g clip-path="url(#clip3700)">
<text style="fill:#000000; fill-opacity:1; font-family:Arial,Helvetica Neue,Helvetica,sans-serif; font-size:95px; text-anchor:start;" transform="rotate(0, 608.193, 1636.88)" x="608.193" y="1636.88">10</text>
</g>
<g clip-path="url(#clip3700)">
<text style="fill:#000000; fill-opacity:1; font-family:Arial,Helvetica Neue,Helvetica,sans-serif; font-size:77px; text-anchor:start;" transform="rotate(0, 715.242, 1582.06)" x="715.242" y="1582.06">-</text>
</g>
<g clip-path="url(#clip3700)">
<text style="fill:#000000; fill-opacity:1; font-family:Arial,Helvetica Neue,Helvetica,sans-serif; font-size:77px; text-anchor:start;" transform="rotate(0, 760.921, 1582.06)" x="760.921" y="1582.06">1.04 </text>
</g>
<g clip-path="url(#clip3700)">
<text style="fill:#000000; fill-opacity:1; font-family:Arial,Helvetica Neue,Helvetica,sans-serif; font-size:95px; text-anchor:start;" transform="rotate(0, 608.193, 1307.12)" x="608.193" y="1307.12">10</text>
</g>
<g clip-path="url(#clip3700)">
<text style="fill:#000000; fill-opacity:1; font-family:Arial,Helvetica Neue,Helvetica,sans-serif; font-size:77px; text-anchor:start;" transform="rotate(0, 715.242, 1252.3)" x="715.242" y="1252.3">-</text>
</g>
<g clip-path="url(#clip3700)">
<text style="fill:#000000; fill-opacity:1; font-family:Arial,Helvetica Neue,Helvetica,sans-serif; font-size:77px; text-anchor:start;" transform="rotate(0, 760.921, 1252.3)" x="760.921" y="1252.3">1.02 </text>
</g>
<g clip-path="url(#clip3700)">
<text style="fill:#000000; fill-opacity:1; font-family:Arial,Helvetica Neue,Helvetica,sans-serif; font-size:95px; text-anchor:start;" transform="rotate(0, 608.193, 977.363)" x="608.193" y="977.363">10</text>
</g>
<g clip-path="url(#clip3700)">
<text style="fill:#000000; fill-opacity:1; font-family:Arial,Helvetica Neue,Helvetica,sans-serif; font-size:77px; text-anchor:start;" transform="rotate(0, 715.242, 922.543)" x="715.242" y="922.543">-</text>
</g>
<g clip-path="url(#clip3700)">
<text style="fill:#000000; fill-opacity:1; font-family:Arial,Helvetica Neue,Helvetica,sans-serif; font-size:77px; text-anchor:start;" transform="rotate(0, 760.921, 922.543)" x="760.921" y="922.543">1.00 </text>
</g>
<g clip-path="url(#clip3700)">
<text style="fill:#000000; fill-opacity:1; font-family:Arial,Helvetica Neue,Helvetica,sans-serif; font-size:95px; text-anchor:start;" transform="rotate(0, 608.193, 647.607)" x="608.193" y="647.607">10</text>
</g>
<g clip-path="url(#clip3700)">
<text style="fill:#000000; fill-opacity:1; font-family:Arial,Helvetica Neue,Helvetica,sans-serif; font-size:77px; text-anchor:start;" transform="rotate(0, 715.242, 592.786)" x="715.242" y="592.786">-</text>
</g>
<g clip-path="url(#clip3700)">
<text style="fill:#000000; fill-opacity:1; font-family:Arial,Helvetica Neue,Helvetica,sans-serif; font-size:77px; text-anchor:start;" transform="rotate(0, 760.921, 592.786)" x="760.921" y="592.786">0.98 </text>
</g>
<g clip-path="url(#clip3700)">
<text style="fill:#000000; fill-opacity:1; font-family:Arial,Helvetica Neue,Helvetica,sans-serif; font-size:166px; text-anchor:middle;" transform="rotate(0, 2844.19, 145.2)" x="2844.19" y="145.2">wp_L2_ROCK2_Overall</text>
</g>
<g clip-path="url(#clip3700)">
<text style="fill:#000000; fill-opacity:1; font-family:Arial,Helvetica Neue,Helvetica,sans-serif; font-size:130px; text-anchor:middle;" transform="rotate(0, 2844.19, 3015.87)" x="2844.19" y="3015.87">Error</text>
</g>
<g clip-path="url(#clip3700)">
<text style="fill:#000000; fill-opacity:1; font-family:Arial,Helvetica Neue,Helvetica,sans-serif; font-size:130px; text-anchor:middle;" transform="rotate(-90, 466.797, 1527.34)" x="466.797" y="1527.34">Time (s)</text>
</g>
<polyline clip-path="url(#clip3702)" style="stroke:#009af9; stroke-width:8; stroke-opacity:1; fill:none" points="
  3989.7,2489.09 4203.8,2425.04 3586.78,2312.88 3329.95,1869.84 
  "/>
<circle clip-path="url(#clip3702)" style="fill:#000000; stroke:none; fill-opacity:1" cx="3989.7" cy="2489.09" r="36"/>
<circle clip-path="url(#clip3702)" style="fill:#009af9; stroke:none; fill-opacity:1" cx="3989.7" cy="2489.09" r="28"/>
<circle clip-path="url(#clip3702)" style="fill:#000000; stroke:none; fill-opacity:1" cx="4203.8" cy="2425.04" r="36"/>
<circle clip-path="url(#clip3702)" style="fill:#009af9; stroke:none; fill-opacity:1" cx="4203.8" cy="2425.04" r="28"/>
<circle clip-path="url(#clip3702)" style="fill:#000000; stroke:none; fill-opacity:1" cx="3586.78" cy="2312.88" r="36"/>
<circle clip-path="url(#clip3702)" style="fill:#009af9; stroke:none; fill-opacity:1" cx="3586.78" cy="2312.88" r="28"/>
<circle clip-path="url(#clip3702)" style="fill:#000000; stroke:none; fill-opacity:1" cx="3329.95" cy="1869.84" r="36"/>
<circle clip-path="url(#clip3702)" style="fill:#009af9; stroke:none; fill-opacity:1" cx="3329.95" cy="1869.84" r="28"/>
<polyline clip-path="url(#clip3702)" style="stroke:#e26f46; stroke-width:8; stroke-opacity:1; fill:none" points="
  4600.15,2388.88 4217.09,2413.23 3559.16,1999.39 3247.15,1809.12 
  "/>
<polygon clip-path="url(#clip3702)" style="fill:#000000; fill-opacity:1" points="
  4560.15,2348.88 4560.15,2428.88 4640.15,2428.88 4640.15,2348.88 4560.15,2348.88 
  "/>
<polygon clip-path="url(#clip3702)" style="fill:#e26f46; fill-opacity:1" points="
  4568.15,2356.88 4568.15,2420.88 4632.15,2420.88 4632.15,2356.88 4568.15,2356.88 
  "/>
<polygon clip-path="url(#clip3702)" style="fill:#000000; fill-opacity:1" points="
  4177.09,2373.23 4177.09,2453.23 4257.09,2453.23 4257.09,2373.23 4177.09,2373.23 
  "/>
<polygon clip-path="url(#clip3702)" style="fill:#e26f46; fill-opacity:1" points="
  4185.09,2381.23 4185.09,2445.23 4249.09,2445.23 4249.09,2381.23 4185.09,2381.23 
  "/>
<polygon clip-path="url(#clip3702)" style="fill:#000000; fill-opacity:1" points="
  3519.16,1959.39 3519.16,2039.39 3599.16,2039.39 3599.16,1959.39 3519.16,1959.39 
  "/>
<polygon clip-path="url(#clip3702)" style="fill:#e26f46; fill-opacity:1" points="
  3527.16,1967.39 3527.16,2031.39 3591.16,2031.39 3591.16,1967.39 3527.16,1967.39 
  "/>
<polygon clip-path="url(#clip3702)" style="fill:#000000; fill-opacity:1" points="
  3207.15,1769.12 3207.15,1849.12 3287.15,1849.12 3287.15,1769.12 3207.15,1769.12 
  "/>
<polygon clip-path="url(#clip3702)" style="fill:#e26f46; fill-opacity:1" points="
  3215.15,1777.12 3215.15,1841.12 3279.15,1841.12 3279.15,1777.12 3215.15,1777.12 
  "/>
<polyline clip-path="url(#clip3702)" style="stroke:#3da44d; stroke-width:8; stroke-opacity:1; fill:none" points="
  3903.24,2354.08 3626.7,2223.31 3582.12,2294.24 3363.54,1762.42 
  "/>
<polygon clip-path="url(#clip3702)" style="fill:#000000; fill-opacity:1" points="
  3903.24,2314.08 3893.84,2341.12 3865.2,2341.72 3888.04,2359.04 3879.72,2386.44 3903.24,2370.08 3926.76,2386.44 3918.44,2359.04 3941.28,2341.72 3912.64,2341.12 
  3903.24,2314.08 
  "/>
<polygon clip-path="url(#clip3702)" style="fill:#3da44d; fill-opacity:1" points="
  3903.24,2322.08 3895.72,2343.71 3872.8,2344.19 3891.08,2358.05 3884.42,2379.97 3903.24,2366.88 3922.05,2379.97 3915.4,2358.05 3933.67,2344.19 3910.76,2343.71 
  3903.24,2322.08 
  "/>
<polygon clip-path="url(#clip3702)" style="fill:#000000; fill-opacity:1" points="
  3626.7,2183.31 3617.3,2210.35 3588.66,2210.95 3611.5,2228.27 3603.18,2255.67 3626.7,2239.31 3650.22,2255.67 3641.9,2228.27 3664.74,2210.95 3636.1,2210.35 
  3626.7,2183.31 
  "/>
<polygon clip-path="url(#clip3702)" style="fill:#3da44d; fill-opacity:1" points="
  3626.7,2191.31 3619.18,2212.94 3596.27,2213.42 3614.54,2227.28 3607.89,2249.2 3626.7,2236.11 3645.52,2249.2 3638.86,2227.28 3657.14,2213.42 3634.22,2212.94 
  3626.7,2191.31 
  "/>
<polygon clip-path="url(#clip3702)" style="fill:#000000; fill-opacity:1" points="
  3582.12,2254.24 3572.72,2281.28 3544.08,2281.88 3566.92,2299.2 3558.6,2326.6 3582.12,2310.24 3605.64,2326.6 3597.32,2299.2 3620.16,2281.88 3591.52,2281.28 
  3582.12,2254.24 
  "/>
<polygon clip-path="url(#clip3702)" style="fill:#3da44d; fill-opacity:1" points="
  3582.12,2262.24 3574.6,2283.88 3551.69,2284.36 3569.96,2298.21 3563.3,2320.13 3582.12,2307.04 3600.93,2320.13 3594.28,2298.21 3612.55,2284.36 3589.64,2283.88 
  3582.12,2262.24 
  "/>
<polygon clip-path="url(#clip3702)" style="fill:#000000; fill-opacity:1" points="
  3363.54,1722.42 3354.14,1749.46 3325.5,1750.06 3348.34,1767.38 3340.02,1794.78 3363.54,1778.42 3387.06,1794.78 3378.74,1767.38 3401.58,1750.06 3372.94,1749.46 
  3363.54,1722.42 
  "/>
<polygon clip-path="url(#clip3702)" style="fill:#3da44d; fill-opacity:1" points="
  3363.54,1730.42 3356.02,1752.05 3333.1,1752.53 3351.38,1766.39 3344.72,1788.31 3363.54,1775.22 3382.35,1788.31 3375.7,1766.39 3393.97,1752.53 3371.06,1752.05 
  3363.54,1730.42 
  "/>
<polyline clip-path="url(#clip3702)" style="stroke:#c271d2; stroke-width:8; stroke-opacity:1; fill:none" points="
  4384.92,2272.31 3962.1,2239.38 3439.75,2142.29 2419.87,1518.94 
  "/>
<polygon clip-path="url(#clip3702)" style="fill:#000000; fill-opacity:1" points="
  4384.92,2232.31 4344.92,2272.31 4384.92,2312.31 4424.92,2272.31 4384.92,2232.31 
  "/>
<polygon clip-path="url(#clip3702)" style="fill:#c271d2; fill-opacity:1" points="
  4384.92,2240.31 4352.92,2272.31 4384.92,2304.31 4416.92,2272.31 4384.92,2240.31 
  "/>
<polygon clip-path="url(#clip3702)" style="fill:#000000; fill-opacity:1" points="
  3962.1,2199.38 3922.1,2239.38 3962.1,2279.38 4002.1,2239.38 3962.1,2199.38 
  "/>
<polygon clip-path="url(#clip3702)" style="fill:#c271d2; fill-opacity:1" points="
  3962.1,2207.38 3930.1,2239.38 3962.1,2271.38 3994.1,2239.38 3962.1,2207.38 
  "/>
<polygon clip-path="url(#clip3702)" style="fill:#000000; fill-opacity:1" points="
  3439.75,2102.29 3399.75,2142.29 3439.75,2182.29 3479.75,2142.29 3439.75,2102.29 
  "/>
<polygon clip-path="url(#clip3702)" style="fill:#c271d2; fill-opacity:1" points="
  3439.75,2110.29 3407.75,2142.29 3439.75,2174.29 3471.75,2142.29 3439.75,2110.29 
  "/>
<polygon clip-path="url(#clip3702)" style="fill:#000000; fill-opacity:1" points="
  2419.87,1478.94 2379.87,1518.94 2419.87,1558.94 2459.87,1518.94 2419.87,1478.94 
  "/>
<polygon clip-path="url(#clip3702)" style="fill:#c271d2; fill-opacity:1" points="
  2419.87,1486.94 2387.87,1518.94 2419.87,1550.94 2451.87,1518.94 2419.87,1486.94 
  "/>
<polyline clip-path="url(#clip3702)" style="stroke:#ac8d18; stroke-width:8; stroke-opacity:1; fill:none" points="
  3996.36,2142.53 3882.14,2319.82 3536.01,1708.6 1707.21,1219.22 
  "/>
<polygon clip-path="url(#clip3702)" style="fill:#000000; fill-opacity:1" points="
  3996.36,2182.53 3961.72,2162.53 3961.72,2122.53 3996.36,2102.53 4031,2122.53 4031,2162.53 
  "/>
<polygon clip-path="url(#clip3702)" style="fill:#ac8d18; fill-opacity:1" points="
  3996.36,2174.53 3968.65,2158.53 3968.65,2126.53 3996.36,2110.53 4024.07,2126.53 4024.07,2158.53 
  "/>
<polygon clip-path="url(#clip3702)" style="fill:#000000; fill-opacity:1" points="
  3882.14,2359.82 3847.5,2339.82 3847.5,2299.82 3882.14,2279.82 3916.78,2299.82 3916.78,2339.82 
  "/>
<polygon clip-path="url(#clip3702)" style="fill:#ac8d18; fill-opacity:1" points="
  3882.14,2351.82 3854.43,2335.82 3854.43,2303.82 3882.14,2287.82 3909.85,2303.82 3909.85,2335.82 
  "/>
<polygon clip-path="url(#clip3702)" style="fill:#000000; fill-opacity:1" points="
  3536.01,1748.6 3501.37,1728.6 3501.37,1688.6 3536.01,1668.6 3570.65,1688.6 3570.65,1728.6 
  "/>
<polygon clip-path="url(#clip3702)" style="fill:#ac8d18; fill-opacity:1" points="
  3536.01,1740.6 3508.29,1724.6 3508.29,1692.6 3536.01,1676.6 3563.72,1692.6 3563.72,1724.6 
  "/>
<polygon clip-path="url(#clip3702)" style="fill:#000000; fill-opacity:1" points="
  1707.21,1259.22 1672.57,1239.22 1672.57,1199.22 1707.21,1179.22 1741.85,1199.22 1741.85,1239.22 
  "/>
<polygon clip-path="url(#clip3702)" style="fill:#ac8d18; fill-opacity:1" points="
  1707.21,1251.22 1679.5,1235.22 1679.5,1203.22 1707.21,1187.22 1734.93,1203.22 1734.93,1235.22 
  "/>
<polyline clip-path="url(#clip3702)" style="stroke:#00a9ad; stroke-width:8; stroke-opacity:1; fill:none" points="
  3948.45,2302.42 3725.93,2172.47 2666.26,1542.79 1088.23,375.819 
  "/>
<line clip-path="url(#clip3702)" x1="3948.45" y1="2302.42" x2="3948.45" y2="2342.42" style="stroke:#000000; stroke-width:4; stroke-opacity:1"/>
<line clip-path="url(#clip3702)" x1="3948.45" y1="2302.42" x2="3908.45" y2="2302.42" style="stroke:#000000; stroke-width:4; stroke-opacity:1"/>
<line clip-path="url(#clip3702)" x1="3948.45" y1="2302.42" x2="3948.45" y2="2262.42" style="stroke:#000000; stroke-width:4; stroke-opacity:1"/>
<line clip-path="url(#clip3702)" x1="3948.45" y1="2302.42" x2="3988.45" y2="2302.42" style="stroke:#000000; stroke-width:4; stroke-opacity:1"/>
<line clip-path="url(#clip3702)" x1="3948.45" y1="2302.42" x2="3948.45" y2="2334.42" style="stroke:#00a9ad; stroke-width:4; stroke-opacity:1"/>
<line clip-path="url(#clip3702)" x1="3948.45" y1="2302.42" x2="3916.45" y2="2302.42" style="stroke:#00a9ad; stroke-width:4; stroke-opacity:1"/>
<line clip-path="url(#clip3702)" x1="3948.45" y1="2302.42" x2="3948.45" y2="2270.42" style="stroke:#00a9ad; stroke-width:4; stroke-opacity:1"/>
<line clip-path="url(#clip3702)" x1="3948.45" y1="2302.42" x2="3980.45" y2="2302.42" style="stroke:#00a9ad; stroke-width:4; stroke-opacity:1"/>
<line clip-path="url(#clip3702)" x1="3725.93" y1="2172.47" x2="3725.93" y2="2212.47" style="stroke:#000000; stroke-width:4; stroke-opacity:1"/>
<line clip-path="url(#clip3702)" x1="3725.93" y1="2172.47" x2="3685.93" y2="2172.47" style="stroke:#000000; stroke-width:4; stroke-opacity:1"/>
<line clip-path="url(#clip3702)" x1="3725.93" y1="2172.47" x2="3725.93" y2="2132.47" style="stroke:#000000; stroke-width:4; stroke-opacity:1"/>
<line clip-path="url(#clip3702)" x1="3725.93" y1="2172.47" x2="3765.93" y2="2172.47" style="stroke:#000000; stroke-width:4; stroke-opacity:1"/>
<line clip-path="url(#clip3702)" x1="3725.93" y1="2172.47" x2="3725.93" y2="2204.47" style="stroke:#00a9ad; stroke-width:4; stroke-opacity:1"/>
<line clip-path="url(#clip3702)" x1="3725.93" y1="2172.47" x2="3693.93" y2="2172.47" style="stroke:#00a9ad; stroke-width:4; stroke-opacity:1"/>
<line clip-path="url(#clip3702)" x1="3725.93" y1="2172.47" x2="3725.93" y2="2140.47" style="stroke:#00a9ad; stroke-width:4; stroke-opacity:1"/>
<line clip-path="url(#clip3702)" x1="3725.93" y1="2172.47" x2="3757.93" y2="2172.47" style="stroke:#00a9ad; stroke-width:4; stroke-opacity:1"/>
<line clip-path="url(#clip3702)" x1="2666.26" y1="1542.79" x2="2666.26" y2="1582.79" style="stroke:#000000; stroke-width:4; stroke-opacity:1"/>
<line clip-path="url(#clip3702)" x1="2666.26" y1="1542.79" x2="2626.26" y2="1542.79" style="stroke:#000000; stroke-width:4; stroke-opacity:1"/>
<line clip-path="url(#clip3702)" x1="2666.26" y1="1542.79" x2="2666.26" y2="1502.79" style="stroke:#000000; stroke-width:4; stroke-opacity:1"/>
<line clip-path="url(#clip3702)" x1="2666.26" y1="1542.79" x2="2706.26" y2="1542.79" style="stroke:#000000; stroke-width:4; stroke-opacity:1"/>
<line clip-path="url(#clip3702)" x1="2666.26" y1="1542.79" x2="2666.26" y2="1574.79" style="stroke:#00a9ad; stroke-width:4; stroke-opacity:1"/>
<line clip-path="url(#clip3702)" x1="2666.26" y1="1542.79" x2="2634.26" y2="1542.79" style="stroke:#00a9ad; stroke-width:4; stroke-opacity:1"/>
<line clip-path="url(#clip3702)" x1="2666.26" y1="1542.79" x2="2666.26" y2="1510.79" style="stroke:#00a9ad; stroke-width:4; stroke-opacity:1"/>
<line clip-path="url(#clip3702)" x1="2666.26" y1="1542.79" x2="2698.26" y2="1542.79" style="stroke:#00a9ad; stroke-width:4; stroke-opacity:1"/>
<line clip-path="url(#clip3702)" x1="1088.23" y1="375.819" x2="1088.23" y2="415.819" style="stroke:#000000; stroke-width:4; stroke-opacity:1"/>
<line clip-path="url(#clip3702)" x1="1088.23" y1="375.819" x2="1048.23" y2="375.819" style="stroke:#000000; stroke-width:4; stroke-opacity:1"/>
<line clip-path="url(#clip3702)" x1="1088.23" y1="375.819" x2="1088.23" y2="335.819" style="stroke:#000000; stroke-width:4; stroke-opacity:1"/>
<line clip-path="url(#clip3702)" x1="1088.23" y1="375.819" x2="1128.23" y2="375.819" style="stroke:#000000; stroke-width:4; stroke-opacity:1"/>
<line clip-path="url(#clip3702)" x1="1088.23" y1="375.819" x2="1088.23" y2="407.819" style="stroke:#00a9ad; stroke-width:4; stroke-opacity:1"/>
<line clip-path="url(#clip3702)" x1="1088.23" y1="375.819" x2="1056.23" y2="375.819" style="stroke:#00a9ad; stroke-width:4; stroke-opacity:1"/>
<line clip-path="url(#clip3702)" x1="1088.23" y1="375.819" x2="1088.23" y2="343.819" style="stroke:#00a9ad; stroke-width:4; stroke-opacity:1"/>
<line clip-path="url(#clip3702)" x1="1088.23" y1="375.819" x2="1120.23" y2="375.819" style="stroke:#00a9ad; stroke-width:4; stroke-opacity:1"/>
<polyline clip-path="url(#clip3702)" style="stroke:#ed5d92; stroke-width:8; stroke-opacity:1; fill:none" points="
  3910.35,2560.02 3809.42,2542.81 3620.59,2094.54 3411.65,1963.65 
  "/>
<line clip-path="url(#clip3702)" x1="3910.35" y1="2560.02" x2="3870.35" y2="2600.02" style="stroke:#000000; stroke-width:4; stroke-opacity:1"/>
<line clip-path="url(#clip3702)" x1="3910.35" y1="2560.02" x2="3870.35" y2="2520.02" style="stroke:#000000; stroke-width:4; stroke-opacity:1"/>
<line clip-path="url(#clip3702)" x1="3910.35" y1="2560.02" x2="3950.35" y2="2520.02" style="stroke:#000000; stroke-width:4; stroke-opacity:1"/>
<line clip-path="url(#clip3702)" x1="3910.35" y1="2560.02" x2="3950.35" y2="2600.02" style="stroke:#000000; stroke-width:4; stroke-opacity:1"/>
<line clip-path="url(#clip3702)" x1="3910.35" y1="2560.02" x2="3878.35" y2="2592.02" style="stroke:#ed5d92; stroke-width:4; stroke-opacity:1"/>
<line clip-path="url(#clip3702)" x1="3910.35" y1="2560.02" x2="3878.35" y2="2528.02" style="stroke:#ed5d92; stroke-width:4; stroke-opacity:1"/>
<line clip-path="url(#clip3702)" x1="3910.35" y1="2560.02" x2="3942.35" y2="2528.02" style="stroke:#ed5d92; stroke-width:4; stroke-opacity:1"/>
<line clip-path="url(#clip3702)" x1="3910.35" y1="2560.02" x2="3942.35" y2="2592.02" style="stroke:#ed5d92; stroke-width:4; stroke-opacity:1"/>
<line clip-path="url(#clip3702)" x1="3809.42" y1="2542.81" x2="3769.42" y2="2582.81" style="stroke:#000000; stroke-width:4; stroke-opacity:1"/>
<line clip-path="url(#clip3702)" x1="3809.42" y1="2542.81" x2="3769.42" y2="2502.81" style="stroke:#000000; stroke-width:4; stroke-opacity:1"/>
<line clip-path="url(#clip3702)" x1="3809.42" y1="2542.81" x2="3849.42" y2="2502.81" style="stroke:#000000; stroke-width:4; stroke-opacity:1"/>
<line clip-path="url(#clip3702)" x1="3809.42" y1="2542.81" x2="3849.42" y2="2582.81" style="stroke:#000000; stroke-width:4; stroke-opacity:1"/>
<line clip-path="url(#clip3702)" x1="3809.42" y1="2542.81" x2="3777.42" y2="2574.81" style="stroke:#ed5d92; stroke-width:4; stroke-opacity:1"/>
<line clip-path="url(#clip3702)" x1="3809.42" y1="2542.81" x2="3777.42" y2="2510.81" style="stroke:#ed5d92; stroke-width:4; stroke-opacity:1"/>
<line clip-path="url(#clip3702)" x1="3809.42" y1="2542.81" x2="3841.42" y2="2510.81" style="stroke:#ed5d92; stroke-width:4; stroke-opacity:1"/>
<line clip-path="url(#clip3702)" x1="3809.42" y1="2542.81" x2="3841.42" y2="2574.81" style="stroke:#ed5d92; stroke-width:4; stroke-opacity:1"/>
<line clip-path="url(#clip3702)" x1="3620.59" y1="2094.54" x2="3580.59" y2="2134.54" style="stroke:#000000; stroke-width:4; stroke-opacity:1"/>
<line clip-path="url(#clip3702)" x1="3620.59" y1="2094.54" x2="3580.59" y2="2054.54" style="stroke:#000000; stroke-width:4; stroke-opacity:1"/>
<line clip-path="url(#clip3702)" x1="3620.59" y1="2094.54" x2="3660.59" y2="2054.54" style="stroke:#000000; stroke-width:4; stroke-opacity:1"/>
<line clip-path="url(#clip3702)" x1="3620.59" y1="2094.54" x2="3660.59" y2="2134.54" style="stroke:#000000; stroke-width:4; stroke-opacity:1"/>
<line clip-path="url(#clip3702)" x1="3620.59" y1="2094.54" x2="3588.59" y2="2126.54" style="stroke:#ed5d92; stroke-width:4; stroke-opacity:1"/>
<line clip-path="url(#clip3702)" x1="3620.59" y1="2094.54" x2="3588.59" y2="2062.54" style="stroke:#ed5d92; stroke-width:4; stroke-opacity:1"/>
<line clip-path="url(#clip3702)" x1="3620.59" y1="2094.54" x2="3652.59" y2="2062.54" style="stroke:#ed5d92; stroke-width:4; stroke-opacity:1"/>
<line clip-path="url(#clip3702)" x1="3620.59" y1="2094.54" x2="3652.59" y2="2126.54" style="stroke:#ed5d92; stroke-width:4; stroke-opacity:1"/>
<line clip-path="url(#clip3702)" x1="3411.65" y1="1963.65" x2="3371.65" y2="2003.65" style="stroke:#000000; stroke-width:4; stroke-opacity:1"/>
<line clip-path="url(#clip3702)" x1="3411.65" y1="1963.65" x2="3371.65" y2="1923.65" style="stroke:#000000; stroke-width:4; stroke-opacity:1"/>
<line clip-path="url(#clip3702)" x1="3411.65" y1="1963.65" x2="3451.65" y2="1923.65" style="stroke:#000000; stroke-width:4; stroke-opacity:1"/>
<line clip-path="url(#clip3702)" x1="3411.65" y1="1963.65" x2="3451.65" y2="2003.65" style="stroke:#000000; stroke-width:4; stroke-opacity:1"/>
<line clip-path="url(#clip3702)" x1="3411.65" y1="1963.65" x2="3379.65" y2="1995.65" style="stroke:#ed5d92; stroke-width:4; stroke-opacity:1"/>
<line clip-path="url(#clip3702)" x1="3411.65" y1="1963.65" x2="3379.65" y2="1931.65" style="stroke:#ed5d92; stroke-width:4; stroke-opacity:1"/>
<line clip-path="url(#clip3702)" x1="3411.65" y1="1963.65" x2="3443.65" y2="1931.65" style="stroke:#ed5d92; stroke-width:4; stroke-opacity:1"/>
<line clip-path="url(#clip3702)" x1="3411.65" y1="1963.65" x2="3443.65" y2="1995.65" style="stroke:#ed5d92; stroke-width:4; stroke-opacity:1"/>
<polyline clip-path="url(#clip3702)" style="stroke:#c68125; stroke-width:8; stroke-opacity:1; fill:none" points="
  3961.15,2678.85 3794.09,2551.72 3602.36,2484.45 3374.23,2322.37 
  "/>
<polygon clip-path="url(#clip3702)" style="fill:#000000; fill-opacity:1" points="
  3961.15,2638.85 3921.15,2718.85 4001.15,2718.85 3961.15,2638.85 
  "/>
<polygon clip-path="url(#clip3702)" style="fill:#c68125; fill-opacity:1" points="
  3961.15,2646.85 3929.15,2710.85 3993.15,2710.85 3961.15,2646.85 
  "/>
<polygon clip-path="url(#clip3702)" style="fill:#000000; fill-opacity:1" points="
  3794.09,2511.72 3754.09,2591.72 3834.09,2591.72 3794.09,2511.72 
  "/>
<polygon clip-path="url(#clip3702)" style="fill:#c68125; fill-opacity:1" points="
  3794.09,2519.72 3762.09,2583.72 3826.09,2583.72 3794.09,2519.72 
  "/>
<polygon clip-path="url(#clip3702)" style="fill:#000000; fill-opacity:1" points="
  3602.36,2444.45 3562.36,2524.45 3642.36,2524.45 3602.36,2444.45 
  "/>
<polygon clip-path="url(#clip3702)" style="fill:#c68125; fill-opacity:1" points="
  3602.36,2452.45 3570.36,2516.45 3634.36,2516.45 3602.36,2452.45 
  "/>
<polygon clip-path="url(#clip3702)" style="fill:#000000; fill-opacity:1" points="
  3374.23,2282.37 3334.23,2362.37 3414.23,2362.37 3374.23,2282.37 
  "/>
<polygon clip-path="url(#clip3702)" style="fill:#c68125; fill-opacity:1" points="
  3374.23,2290.37 3342.23,2354.37 3406.23,2354.37 3374.23,2290.37 
  "/>
<polygon clip-path="url(#clip3700)" points="
3864.81,1078.57 4561.51,1078.57 4561.51,534.248 3864.81,534.248 
  " fill="#ffffff" fill-rule="evenodd" fill-opacity="1"/>
<polyline clip-path="url(#clip3700)" style="stroke:#000000; stroke-width:8; stroke-opacity:1; fill:none" points="
  3864.81,1078.57 4561.51,1078.57 4561.51,534.248 3864.81,534.248 3864.81,1078.57 
  "/>
<polyline clip-path="url(#clip3700)" style="stroke:#009af9; stroke-width:8; stroke-opacity:1; fill:none" points="
  3912.81,594.728 4200.81,594.728 
  "/>
<circle clip-path="url(#clip3700)" style="fill:#000000; stroke:none; fill-opacity:1" cx="4080.81" cy="594.728" r="50"/>
<circle clip-path="url(#clip3700)" style="fill:#009af9; stroke:none; fill-opacity:1" cx="4080.81" cy="594.728" r="43"/>
<g clip-path="url(#clip3700)">
<text style="fill:#000000; fill-opacity:1; font-family:Arial,Helvetica Neue,Helvetica,sans-serif; font-size:48px; text-anchor:start;" transform="rotate(0, 4248.81, 612.228)" x="4248.81" y="612.228">R2 Pred 6</text>
</g>
<polyline clip-path="url(#clip3700)" style="stroke:#e26f46; stroke-width:8; stroke-opacity:1; fill:none" points="
  3912.81,655.208 4200.81,655.208 
  "/>
<polygon clip-path="url(#clip3700)" style="fill:#000000; fill-opacity:1" points="
  4024.81,599.208 4024.81,711.208 4136.81,711.208 4136.81,599.208 4024.81,599.208 
  "/>
<polygon clip-path="url(#clip3700)" style="fill:#e26f46; fill-opacity:1" points="
  4032.81,607.208 4032.81,703.208 4128.81,703.208 4128.81,607.208 4032.81,607.208 
  "/>
<g clip-path="url(#clip3700)">
<text style="fill:#000000; fill-opacity:1; font-family:Arial,Helvetica Neue,Helvetica,sans-serif; font-size:48px; text-anchor:start;" transform="rotate(0, 4248.81, 672.708)" x="4248.81" y="672.708">R2 Pred 5</text>
</g>
<polyline clip-path="url(#clip3700)" style="stroke:#3da44d; stroke-width:8; stroke-opacity:1; fill:none" points="
  3912.81,715.688 4200.81,715.688 
  "/>
<polygon clip-path="url(#clip3700)" style="fill:#000000; fill-opacity:1" points="
  4080.81,659.688 4067.65,697.544 4027.56,698.384 4059.53,722.632 4047.89,760.992 4080.81,738.088 4113.74,760.992 4102.09,722.632 4134.07,698.384 4093.97,697.544 
  4080.81,659.688 
  "/>
<polygon clip-path="url(#clip3700)" style="fill:#3da44d; fill-opacity:1" points="
  4080.81,667.688 4069.53,700.136 4035.17,700.856 4062.57,721.64 4052.59,754.52 4080.81,734.888 4109.04,754.52 4099.05,721.64 4126.46,700.856 4092.09,700.136 
  4080.81,667.688 
  "/>
<g clip-path="url(#clip3700)">
<text style="fill:#000000; fill-opacity:1; font-family:Arial,Helvetica Neue,Helvetica,sans-serif; font-size:48px; text-anchor:start;" transform="rotate(0, 4248.81, 733.188)" x="4248.81" y="733.188">R2 PI 9</text>
</g>
<polyline clip-path="url(#clip3700)" style="stroke:#c271d2; stroke-width:8; stroke-opacity:1; fill:none" points="
  3912.81,776.168 4200.81,776.168 
  "/>
<polygon clip-path="url(#clip3700)" style="fill:#000000; fill-opacity:1" points="
  4080.81,720.168 4024.81,776.168 4080.81,832.168 4136.81,776.168 4080.81,720.168 
  "/>
<polygon clip-path="url(#clip3700)" style="fill:#c271d2; fill-opacity:1" points="
  4080.81,728.168 4032.81,776.168 4080.81,824.168 4128.81,776.168 4080.81,728.168 
  "/>
<g clip-path="url(#clip3700)">
<text style="fill:#000000; fill-opacity:1; font-family:Arial,Helvetica Neue,Helvetica,sans-serif; font-size:48px; text-anchor:start;" transform="rotate(0, 4248.81, 793.668)" x="4248.81" y="793.668">R2 PI 7</text>
</g>
<polyline clip-path="url(#clip3700)" style="stroke:#ac8d18; stroke-width:8; stroke-opacity:1; fill:none" points="
  3912.81,836.648 4200.81,836.648 
  "/>
<polygon clip-path="url(#clip3700)" style="fill:#000000; fill-opacity:1" points="
  4080.81,892.648 4032.32,864.648 4032.32,808.648 4080.81,780.648 4129.31,808.648 4129.31,864.648 
  "/>
<polygon clip-path="url(#clip3700)" style="fill:#ac8d18; fill-opacity:1" points="
  4080.81,884.648 4039.25,860.648 4039.25,812.648 4080.81,788.648 4122.38,812.648 4122.38,860.648 
  "/>
<g clip-path="url(#clip3700)">
<text style="fill:#000000; fill-opacity:1; font-family:Arial,Helvetica Neue,Helvetica,sans-serif; font-size:48px; text-anchor:start;" transform="rotate(0, 4248.81, 854.148)" x="4248.81" y="854.148">R2 PI 6</text>
</g>
<polyline clip-path="url(#clip3700)" style="stroke:#00a9ad; stroke-width:8; stroke-opacity:1; fill:none" points="
  3912.81,897.128 4200.81,897.128 
  "/>
<line clip-path="url(#clip3700)" x1="4080.81" y1="897.128" x2="4080.81" y2="953.128" style="stroke:#000000; stroke-width:4; stroke-opacity:1"/>
<line clip-path="url(#clip3700)" x1="4080.81" y1="897.128" x2="4024.81" y2="897.128" style="stroke:#000000; stroke-width:4; stroke-opacity:1"/>
<line clip-path="url(#clip3700)" x1="4080.81" y1="897.128" x2="4080.81" y2="841.128" style="stroke:#000000; stroke-width:4; stroke-opacity:1"/>
<line clip-path="url(#clip3700)" x1="4080.81" y1="897.128" x2="4136.81" y2="897.128" style="stroke:#000000; stroke-width:4; stroke-opacity:1"/>
<line clip-path="url(#clip3700)" x1="4080.81" y1="897.128" x2="4080.81" y2="945.128" style="stroke:#00a9ad; stroke-width:4; stroke-opacity:1"/>
<line clip-path="url(#clip3700)" x1="4080.81" y1="897.128" x2="4032.81" y2="897.128" style="stroke:#00a9ad; stroke-width:4; stroke-opacity:1"/>
<line clip-path="url(#clip3700)" x1="4080.81" y1="897.128" x2="4080.81" y2="849.128" style="stroke:#00a9ad; stroke-width:4; stroke-opacity:1"/>
<line clip-path="url(#clip3700)" x1="4080.81" y1="897.128" x2="4128.81" y2="897.128" style="stroke:#00a9ad; stroke-width:4; stroke-opacity:1"/>
<g clip-path="url(#clip3700)">
<text style="fill:#000000; fill-opacity:1; font-family:Arial,Helvetica Neue,Helvetica,sans-serif; font-size:48px; text-anchor:start;" transform="rotate(0, 4248.81, 914.628)" x="4248.81" y="914.628">R2 PI 5</text>
</g>
<polyline clip-path="url(#clip3700)" style="stroke:#ed5d92; stroke-width:8; stroke-opacity:1; fill:none" points="
  3912.81,957.608 4200.81,957.608 
  "/>
<line clip-path="url(#clip3700)" x1="4080.81" y1="957.608" x2="4024.81" y2="1013.61" style="stroke:#000000; stroke-width:4; stroke-opacity:1"/>
<line clip-path="url(#clip3700)" x1="4080.81" y1="957.608" x2="4024.81" y2="901.608" style="stroke:#000000; stroke-width:4; stroke-opacity:1"/>
<line clip-path="url(#clip3700)" x1="4080.81" y1="957.608" x2="4136.81" y2="901.608" style="stroke:#000000; stroke-width:4; stroke-opacity:1"/>
<line clip-path="url(#clip3700)" x1="4080.81" y1="957.608" x2="4136.81" y2="1013.61" style="stroke:#000000; stroke-width:4; stroke-opacity:1"/>
<line clip-path="url(#clip3700)" x1="4080.81" y1="957.608" x2="4032.81" y2="1005.61" style="stroke:#ed5d92; stroke-width:4; stroke-opacity:1"/>
<line clip-path="url(#clip3700)" x1="4080.81" y1="957.608" x2="4032.81" y2="909.608" style="stroke:#ed5d92; stroke-width:4; stroke-opacity:1"/>
<line clip-path="url(#clip3700)" x1="4080.81" y1="957.608" x2="4128.81" y2="909.608" style="stroke:#ed5d92; stroke-width:4; stroke-opacity:1"/>
<line clip-path="url(#clip3700)" x1="4080.81" y1="957.608" x2="4128.81" y2="1005.61" style="stroke:#ed5d92; stroke-width:4; stroke-opacity:1"/>
<g clip-path="url(#clip3700)">
<text style="fill:#000000; fill-opacity:1; font-family:Arial,Helvetica Neue,Helvetica,sans-serif; font-size:48px; text-anchor:start;" transform="rotate(0, 4248.81, 975.108)" x="4248.81" y="975.108">R2 Std 8</text>
</g>
<polyline clip-path="url(#clip3700)" style="stroke:#c68125; stroke-width:8; stroke-opacity:1; fill:none" points="
  3912.81,1018.09 4200.81,1018.09 
  "/>
<polygon clip-path="url(#clip3700)" style="fill:#000000; fill-opacity:1" points="
  4080.81,962.088 4024.81,1074.09 4136.81,1074.09 4080.81,962.088 
  "/>
<polygon clip-path="url(#clip3700)" style="fill:#c68125; fill-opacity:1" points="
  4080.81,970.088 4032.81,1066.09 4128.81,1066.09 4080.81,970.088 
  "/>
<g clip-path="url(#clip3700)">
<text style="fill:#000000; fill-opacity:1; font-family:Arial,Helvetica Neue,Helvetica,sans-serif; font-size:48px; text-anchor:start;" transform="rotate(0, 4248.81, 1035.59)" x="4248.81" y="1035.59">R2 Std 7</text>
</g>
</svg>
