<?xml version="1.0" encoding="utf-8"?>
<svg xmlns="http://www.w3.org/2000/svg" xmlns:xlink="http://www.w3.org/1999/xlink" width="1200" height="800" viewBox="0 0 4800 3200">
<defs>
  <clipPath id="clip1200">
    <rect x="0" y="0" width="4800" height="3200"/>
  </clipPath>
</defs>
<polygon clip-path="url(#clip1200)" points="
0,3200 4800,3200 4800,0 0,0 
  " fill="#ffffff" fill-rule="evenodd" fill-opacity="1"/>
<defs>
  <clipPath id="clip1201">
    <rect x="960" y="0" width="3361" height="3200"/>
  </clipPath>
</defs>
<polygon clip-path="url(#clip1200)" points="
982.876,2747.94 4705.51,2747.94 4705.51,306.728 982.876,306.728 
  " fill="#ffffff" fill-rule="evenodd" fill-opacity="1"/>
<defs>
  <clipPath id="clip1202">
    <rect x="982" y="306" width="3724" height="2442"/>
  </clipPath>
</defs>
<polyline clip-path="url(#clip1202)" style="stroke:#000000; stroke-width:4; stroke-opacity:0.1; fill:none" points="
  1587.66,2747.94 1587.66,306.728 
  "/>
<polyline clip-path="url(#clip1202)" style="stroke:#000000; stroke-width:4; stroke-opacity:0.1; fill:none" points="
  2293.5,2747.94 2293.5,306.728 
  "/>
<polyline clip-path="url(#clip1202)" style="stroke:#000000; stroke-width:4; stroke-opacity:0.1; fill:none" points="
  2999.33,2747.94 2999.33,306.728 
  "/>
<polyline clip-path="url(#clip1202)" style="stroke:#000000; stroke-width:4; stroke-opacity:0.1; fill:none" points="
  3705.17,2747.94 3705.17,306.728 
  "/>
<polyline clip-path="url(#clip1202)" style="stroke:#000000; stroke-width:4; stroke-opacity:0.1; fill:none" points="
  4411,2747.94 4411,306.728 
  "/>
<polyline clip-path="url(#clip1202)" style="stroke:#000000; stroke-width:4; stroke-opacity:0.1; fill:none" points="
  982.876,2565.27 4705.51,2565.27 
  "/>
<polyline clip-path="url(#clip1202)" style="stroke:#000000; stroke-width:4; stroke-opacity:0.1; fill:none" points="
  982.876,2079.61 4705.51,2079.61 
  "/>
<polyline clip-path="url(#clip1202)" style="stroke:#000000; stroke-width:4; stroke-opacity:0.1; fill:none" points="
  982.876,1593.95 4705.51,1593.95 
  "/>
<polyline clip-path="url(#clip1202)" style="stroke:#000000; stroke-width:4; stroke-opacity:0.1; fill:none" points="
  982.876,1108.29 4705.51,1108.29 
  "/>
<polyline clip-path="url(#clip1202)" style="stroke:#000000; stroke-width:4; stroke-opacity:0.1; fill:none" points="
  982.876,622.631 4705.51,622.631 
  "/>
<polyline clip-path="url(#clip1200)" style="stroke:#000000; stroke-width:8; stroke-opacity:1; fill:none" points="
  982.876,2747.94 4705.51,2747.94 
  "/>
<polyline clip-path="url(#clip1200)" style="stroke:#000000; stroke-width:8; stroke-opacity:1; fill:none" points="
  982.876,2747.94 982.876,306.728 
  "/>
<polyline clip-path="url(#clip1200)" style="stroke:#000000; stroke-width:8; stroke-opacity:1; fill:none" points="
  1587.66,2747.94 1587.66,2711.33 
  "/>
<polyline clip-path="url(#clip1200)" style="stroke:#000000; stroke-width:8; stroke-opacity:1; fill:none" points="
  2293.5,2747.94 2293.5,2711.33 
  "/>
<polyline clip-path="url(#clip1200)" style="stroke:#000000; stroke-width:8; stroke-opacity:1; fill:none" points="
  2999.33,2747.94 2999.33,2711.33 
  "/>
<polyline clip-path="url(#clip1200)" style="stroke:#000000; stroke-width:8; stroke-opacity:1; fill:none" points="
  3705.17,2747.94 3705.17,2711.33 
  "/>
<polyline clip-path="url(#clip1200)" style="stroke:#000000; stroke-width:8; stroke-opacity:1; fill:none" points="
  4411,2747.94 4411,2711.33 
  "/>
<polyline clip-path="url(#clip1200)" style="stroke:#000000; stroke-width:8; stroke-opacity:1; fill:none" points="
  982.876,2565.27 1038.72,2565.27 
  "/>
<polyline clip-path="url(#clip1200)" style="stroke:#000000; stroke-width:8; stroke-opacity:1; fill:none" points="
  982.876,2079.61 1038.72,2079.61 
  "/>
<polyline clip-path="url(#clip1200)" style="stroke:#000000; stroke-width:8; stroke-opacity:1; fill:none" points="
  982.876,1593.95 1038.72,1593.95 
  "/>
<polyline clip-path="url(#clip1200)" style="stroke:#000000; stroke-width:8; stroke-opacity:1; fill:none" points="
  982.876,1108.29 1038.72,1108.29 
  "/>
<polyline clip-path="url(#clip1200)" style="stroke:#000000; stroke-width:8; stroke-opacity:1; fill:none" points="
  982.876,622.631 1038.72,622.631 
  "/>
<g clip-path="url(#clip1200)">
<text style="fill:#000000; fill-opacity:1; font-family:Arial,Helvetica Neue,Helvetica,sans-serif; font-size:95px; text-anchor:start;" transform="rotate(0, 1424.32, 2897.96)" x="1424.32" y="2897.96">10</text>
</g>
<g clip-path="url(#clip1200)">
<text style="fill:#000000; fill-opacity:1; font-family:Arial,Helvetica Neue,Helvetica,sans-serif; font-size:77px; text-anchor:start;" transform="rotate(0, 1531.37, 2843.14)" x="1531.37" y="2843.14">-</text>
</g>
<g clip-path="url(#clip1200)">
<text style="fill:#000000; fill-opacity:1; font-family:Arial,Helvetica Neue,Helvetica,sans-serif; font-size:77px; text-anchor:start;" transform="rotate(0, 1577.05, 2843.14)" x="1577.05" y="2843.14">1.88 </text>
</g>
<g clip-path="url(#clip1200)">
<text style="fill:#000000; fill-opacity:1; font-family:Arial,Helvetica Neue,Helvetica,sans-serif; font-size:95px; text-anchor:start;" transform="rotate(0, 2130.16, 2897.96)" x="2130.16" y="2897.96">10</text>
</g>
<g clip-path="url(#clip1200)">
<text style="fill:#000000; fill-opacity:1; font-family:Arial,Helvetica Neue,Helvetica,sans-serif; font-size:77px; text-anchor:start;" transform="rotate(0, 2237.21, 2843.14)" x="2237.21" y="2843.14">-</text>
</g>
<g clip-path="url(#clip1200)">
<text style="fill:#000000; fill-opacity:1; font-family:Arial,Helvetica Neue,Helvetica,sans-serif; font-size:77px; text-anchor:start;" transform="rotate(0, 2282.89, 2843.14)" x="2282.89" y="2843.14">1.86 </text>
</g>
<g clip-path="url(#clip1200)">
<text style="fill:#000000; fill-opacity:1; font-family:Arial,Helvetica Neue,Helvetica,sans-serif; font-size:95px; text-anchor:start;" transform="rotate(0, 2835.99, 2897.96)" x="2835.99" y="2897.96">10</text>
</g>
<g clip-path="url(#clip1200)">
<text style="fill:#000000; fill-opacity:1; font-family:Arial,Helvetica Neue,Helvetica,sans-serif; font-size:77px; text-anchor:start;" transform="rotate(0, 2943.04, 2843.14)" x="2943.04" y="2843.14">-</text>
</g>
<g clip-path="url(#clip1200)">
<text style="fill:#000000; fill-opacity:1; font-family:Arial,Helvetica Neue,Helvetica,sans-serif; font-size:77px; text-anchor:start;" transform="rotate(0, 2988.72, 2843.14)" x="2988.72" y="2843.14">1.84 </text>
</g>
<g clip-path="url(#clip1200)">
<text style="fill:#000000; fill-opacity:1; font-family:Arial,Helvetica Neue,Helvetica,sans-serif; font-size:95px; text-anchor:start;" transform="rotate(0, 3541.83, 2897.96)" x="3541.83" y="2897.96">10</text>
</g>
<g clip-path="url(#clip1200)">
<text style="fill:#000000; fill-opacity:1; font-family:Arial,Helvetica Neue,Helvetica,sans-serif; font-size:77px; text-anchor:start;" transform="rotate(0, 3648.88, 2843.14)" x="3648.88" y="2843.14">-</text>
</g>
<g clip-path="url(#clip1200)">
<text style="fill:#000000; fill-opacity:1; font-family:Arial,Helvetica Neue,Helvetica,sans-serif; font-size:77px; text-anchor:start;" transform="rotate(0, 3694.55, 2843.14)" x="3694.55" y="2843.14">1.82 </text>
</g>
<g clip-path="url(#clip1200)">
<text style="fill:#000000; fill-opacity:1; font-family:Arial,Helvetica Neue,Helvetica,sans-serif; font-size:95px; text-anchor:start;" transform="rotate(0, 4247.66, 2897.96)" x="4247.66" y="2897.96">10</text>
</g>
<g clip-path="url(#clip1200)">
<text style="fill:#000000; fill-opacity:1; font-family:Arial,Helvetica Neue,Helvetica,sans-serif; font-size:77px; text-anchor:start;" transform="rotate(0, 4354.71, 2843.14)" x="4354.71" y="2843.14">-</text>
</g>
<g clip-path="url(#clip1200)">
<text style="fill:#000000; fill-opacity:1; font-family:Arial,Helvetica Neue,Helvetica,sans-serif; font-size:77px; text-anchor:start;" transform="rotate(0, 4400.39, 2843.14)" x="4400.39" y="2843.14">1.80 </text>
</g>
<g clip-path="url(#clip1200)">
<text style="fill:#000000; fill-opacity:1; font-family:Arial,Helvetica Neue,Helvetica,sans-serif; font-size:95px; text-anchor:start;" transform="rotate(0, 608.193, 2612.72)" x="608.193" y="2612.72">10</text>
</g>
<g clip-path="url(#clip1200)">
<text style="fill:#000000; fill-opacity:1; font-family:Arial,Helvetica Neue,Helvetica,sans-serif; font-size:77px; text-anchor:start;" transform="rotate(0, 715.242, 2557.9)" x="715.242" y="2557.9">-</text>
</g>
<g clip-path="url(#clip1200)">
<text style="fill:#000000; fill-opacity:1; font-family:Arial,Helvetica Neue,Helvetica,sans-serif; font-size:77px; text-anchor:start;" transform="rotate(0, 760.921, 2557.9)" x="760.921" y="2557.9">1.11 </text>
</g>
<g clip-path="url(#clip1200)">
<text style="fill:#000000; fill-opacity:1; font-family:Arial,Helvetica Neue,Helvetica,sans-serif; font-size:95px; text-anchor:start;" transform="rotate(0, 608.193, 2127.06)" x="608.193" y="2127.06">10</text>
</g>
<g clip-path="url(#clip1200)">
<text style="fill:#000000; fill-opacity:1; font-family:Arial,Helvetica Neue,Helvetica,sans-serif; font-size:77px; text-anchor:start;" transform="rotate(0, 715.242, 2072.24)" x="715.242" y="2072.24">-</text>
</g>
<g clip-path="url(#clip1200)">
<text style="fill:#000000; fill-opacity:1; font-family:Arial,Helvetica Neue,Helvetica,sans-serif; font-size:77px; text-anchor:start;" transform="rotate(0, 760.921, 2072.24)" x="760.921" y="2072.24">1.08 </text>
</g>
<g clip-path="url(#clip1200)">
<text style="fill:#000000; fill-opacity:1; font-family:Arial,Helvetica Neue,Helvetica,sans-serif; font-size:95px; text-anchor:start;" transform="rotate(0, 608.193, 1641.4)" x="608.193" y="1641.4">10</text>
</g>
<g clip-path="url(#clip1200)">
<text style="fill:#000000; fill-opacity:1; font-family:Arial,Helvetica Neue,Helvetica,sans-serif; font-size:77px; text-anchor:start;" transform="rotate(0, 715.242, 1586.58)" x="715.242" y="1586.58">-</text>
</g>
<g clip-path="url(#clip1200)">
<text style="fill:#000000; fill-opacity:1; font-family:Arial,Helvetica Neue,Helvetica,sans-serif; font-size:77px; text-anchor:start;" transform="rotate(0, 760.921, 1586.58)" x="760.921" y="1586.58">1.05 </text>
</g>
<g clip-path="url(#clip1200)">
<text style="fill:#000000; fill-opacity:1; font-family:Arial,Helvetica Neue,Helvetica,sans-serif; font-size:95px; text-anchor:start;" transform="rotate(0, 608.193, 1155.75)" x="608.193" y="1155.75">10</text>
</g>
<g clip-path="url(#clip1200)">
<text style="fill:#000000; fill-opacity:1; font-family:Arial,Helvetica Neue,Helvetica,sans-serif; font-size:77px; text-anchor:start;" transform="rotate(0, 715.242, 1100.92)" x="715.242" y="1100.92">-</text>
</g>
<g clip-path="url(#clip1200)">
<text style="fill:#000000; fill-opacity:1; font-family:Arial,Helvetica Neue,Helvetica,sans-serif; font-size:77px; text-anchor:start;" transform="rotate(0, 760.921, 1100.92)" x="760.921" y="1100.92">1.02 </text>
</g>
<g clip-path="url(#clip1200)">
<text style="fill:#000000; fill-opacity:1; font-family:Arial,Helvetica Neue,Helvetica,sans-serif; font-size:95px; text-anchor:start;" transform="rotate(0, 608.193, 670.087)" x="608.193" y="670.087">10</text>
</g>
<g clip-path="url(#clip1200)">
<text style="fill:#000000; fill-opacity:1; font-family:Arial,Helvetica Neue,Helvetica,sans-serif; font-size:77px; text-anchor:start;" transform="rotate(0, 715.242, 615.266)" x="715.242" y="615.266">-</text>
</g>
<g clip-path="url(#clip1200)">
<text style="fill:#000000; fill-opacity:1; font-family:Arial,Helvetica Neue,Helvetica,sans-serif; font-size:77px; text-anchor:start;" transform="rotate(0, 760.921, 615.266)" x="760.921" y="615.266">0.99 </text>
</g>
<g clip-path="url(#clip1200)">
<text style="fill:#000000; fill-opacity:1; font-family:Arial,Helvetica Neue,Helvetica,sans-serif; font-size:166px; text-anchor:middle;" transform="rotate(0, 2844.19, 145.2)" x="2844.19" y="145.2">wp_l2_ROCK2_Overall</text>
</g>
<g clip-path="url(#clip1200)">
<text style="fill:#000000; fill-opacity:1; font-family:Arial,Helvetica Neue,Helvetica,sans-serif; font-size:130px; text-anchor:middle;" transform="rotate(0, 2844.19, 3015.87)" x="2844.19" y="3015.87">Error</text>
</g>
<g clip-path="url(#clip1200)">
<text style="fill:#000000; fill-opacity:1; font-family:Arial,Helvetica Neue,Helvetica,sans-serif; font-size:130px; text-anchor:middle;" transform="rotate(-90, 466.797, 1527.34)" x="466.797" y="1527.34">Time (s)</text>
</g>
<polyline clip-path="url(#clip1202)" style="stroke:#009af9; stroke-width:8; stroke-opacity:1; fill:none" points="
  4204.22,2360.1 4348.63,2370.82 3922.13,2304.94 3606.46,1859.29 
  "/>
<circle clip-path="url(#clip1202)" style="fill:#000000; stroke:none; fill-opacity:1" cx="4204.22" cy="2360.1" r="36"/>
<circle clip-path="url(#clip1202)" style="fill:#009af9; stroke:none; fill-opacity:1" cx="4204.22" cy="2360.1" r="28"/>
<circle clip-path="url(#clip1202)" style="fill:#000000; stroke:none; fill-opacity:1" cx="4348.63" cy="2370.82" r="36"/>
<circle clip-path="url(#clip1202)" style="fill:#009af9; stroke:none; fill-opacity:1" cx="4348.63" cy="2370.82" r="28"/>
<circle clip-path="url(#clip1202)" style="fill:#000000; stroke:none; fill-opacity:1" cx="3922.13" cy="2304.94" r="36"/>
<circle clip-path="url(#clip1202)" style="fill:#009af9; stroke:none; fill-opacity:1" cx="3922.13" cy="2304.94" r="28"/>
<circle clip-path="url(#clip1202)" style="fill:#000000; stroke:none; fill-opacity:1" cx="3606.46" cy="1859.29" r="36"/>
<circle clip-path="url(#clip1202)" style="fill:#009af9; stroke:none; fill-opacity:1" cx="3606.46" cy="1859.29" r="28"/>
<polyline clip-path="url(#clip1202)" style="stroke:#e26f46; stroke-width:8; stroke-opacity:1; fill:none" points="
  4600.15,2457.79 4349.27,2360.3 3891.34,1985.01 3513.5,1785.06 
  "/>
<polygon clip-path="url(#clip1202)" style="fill:#000000; fill-opacity:1" points="
  4560.15,2417.79 4560.15,2497.79 4640.15,2497.79 4640.15,2417.79 4560.15,2417.79 
  "/>
<polygon clip-path="url(#clip1202)" style="fill:#e26f46; fill-opacity:1" points="
  4568.15,2425.79 4568.15,2489.79 4632.15,2489.79 4632.15,2425.79 4568.15,2425.79 
  "/>
<polygon clip-path="url(#clip1202)" style="fill:#000000; fill-opacity:1" points="
  4309.27,2320.3 4309.27,2400.3 4389.27,2400.3 4389.27,2320.3 4309.27,2320.3 
  "/>
<polygon clip-path="url(#clip1202)" style="fill:#e26f46; fill-opacity:1" points="
  4317.27,2328.3 4317.27,2392.3 4381.27,2392.3 4381.27,2328.3 4317.27,2328.3 
  "/>
<polygon clip-path="url(#clip1202)" style="fill:#000000; fill-opacity:1" points="
  3851.34,1945.01 3851.34,2025.01 3931.34,2025.01 3931.34,1945.01 3851.34,1945.01 
  "/>
<polygon clip-path="url(#clip1202)" style="fill:#e26f46; fill-opacity:1" points="
  3859.34,1953.01 3859.34,2017.01 3923.34,2017.01 3923.34,1953.01 3859.34,1953.01 
  "/>
<polygon clip-path="url(#clip1202)" style="fill:#000000; fill-opacity:1" points="
  3473.5,1745.06 3473.5,1825.06 3553.5,1825.06 3553.5,1745.06 3473.5,1745.06 
  "/>
<polygon clip-path="url(#clip1202)" style="fill:#e26f46; fill-opacity:1" points="
  3481.5,1753.06 3481.5,1817.06 3545.5,1817.06 3545.5,1753.06 3481.5,1753.06 
  "/>
<polyline clip-path="url(#clip1202)" style="stroke:#3da44d; stroke-width:8; stroke-opacity:1; fill:none" points="
  4151.49,2336.11 3999.19,2333.05 3923.38,2251.66 3650.51,1781.78 
  "/>
<polygon clip-path="url(#clip1202)" style="fill:#000000; fill-opacity:1" points="
  4151.49,2296.11 4142.09,2323.15 4113.45,2323.75 4136.29,2341.07 4127.97,2368.47 4151.49,2352.11 4175.01,2368.47 4166.69,2341.07 4189.53,2323.75 4160.89,2323.15 
  4151.49,2296.11 
  "/>
<polygon clip-path="url(#clip1202)" style="fill:#3da44d; fill-opacity:1" points="
  4151.49,2304.11 4143.97,2325.74 4121.06,2326.22 4139.33,2340.08 4132.67,2362 4151.49,2348.91 4170.31,2362 4163.65,2340.08 4181.92,2326.22 4159.01,2325.74 
  4151.49,2304.11 
  "/>
<polygon clip-path="url(#clip1202)" style="fill:#000000; fill-opacity:1" points="
  3999.19,2293.05 3989.79,2320.09 3961.15,2320.69 3983.99,2338.01 3975.67,2365.41 3999.19,2349.05 4022.71,2365.41 4014.39,2338.01 4037.23,2320.69 4008.59,2320.09 
  3999.19,2293.05 
  "/>
<polygon clip-path="url(#clip1202)" style="fill:#3da44d; fill-opacity:1" points="
  3999.19,2301.05 3991.67,2322.68 3968.76,2323.16 3987.03,2337.01 3980.37,2358.93 3999.19,2345.85 4018,2358.93 4011.35,2337.01 4029.62,2323.16 4006.71,2322.68 
  3999.19,2301.05 
  "/>
<polygon clip-path="url(#clip1202)" style="fill:#000000; fill-opacity:1" points="
  3923.38,2211.66 3913.98,2238.7 3885.34,2239.3 3908.18,2256.62 3899.86,2284.02 3923.38,2267.66 3946.9,2284.02 3938.58,2256.62 3961.42,2239.3 3932.78,2238.7 
  3923.38,2211.66 
  "/>
<polygon clip-path="url(#clip1202)" style="fill:#3da44d; fill-opacity:1" points="
  3923.38,2219.66 3915.86,2241.29 3892.94,2241.77 3911.22,2255.62 3904.56,2277.54 3923.38,2264.46 3942.19,2277.54 3935.54,2255.62 3953.81,2241.77 3930.9,2241.29 
  3923.38,2219.66 
  "/>
<polygon clip-path="url(#clip1202)" style="fill:#000000; fill-opacity:1" points="
  3650.51,1741.78 3641.11,1768.82 3612.47,1769.42 3635.31,1786.74 3626.99,1814.14 3650.51,1797.78 3674.03,1814.14 3665.71,1786.74 3688.55,1769.42 3659.91,1768.82 
  3650.51,1741.78 
  "/>
<polygon clip-path="url(#clip1202)" style="fill:#3da44d; fill-opacity:1" points="
  3650.51,1749.78 3642.99,1771.42 3620.08,1771.9 3638.35,1785.75 3631.7,1807.67 3650.51,1794.58 3669.33,1807.67 3662.67,1785.75 3680.94,1771.9 3658.03,1771.42 
  3650.51,1749.78 
  "/>
<polyline clip-path="url(#clip1202)" style="stroke:#c271d2; stroke-width:8; stroke-opacity:1; fill:none" points="
  4456.38,2237.34 4182.38,2278.37 3754.35,2143 2933.55,1508.16 
  "/>
<polygon clip-path="url(#clip1202)" style="fill:#000000; fill-opacity:1" points="
  4456.38,2197.34 4416.38,2237.34 4456.38,2277.34 4496.38,2237.34 4456.38,2197.34 
  "/>
<polygon clip-path="url(#clip1202)" style="fill:#c271d2; fill-opacity:1" points="
  4456.38,2205.34 4424.38,2237.34 4456.38,2269.34 4488.38,2237.34 4456.38,2205.34 
  "/>
<polygon clip-path="url(#clip1202)" style="fill:#000000; fill-opacity:1" points="
  4182.38,2238.37 4142.38,2278.37 4182.38,2318.37 4222.38,2278.37 4182.38,2238.37 
  "/>
<polygon clip-path="url(#clip1202)" style="fill:#c271d2; fill-opacity:1" points="
  4182.38,2246.37 4150.38,2278.37 4182.38,2310.37 4214.38,2278.37 4182.38,2246.37 
  "/>
<polygon clip-path="url(#clip1202)" style="fill:#000000; fill-opacity:1" points="
  3754.35,2103 3714.35,2143 3754.35,2183 3794.35,2143 3754.35,2103 
  "/>
<polygon clip-path="url(#clip1202)" style="fill:#c271d2; fill-opacity:1" points="
  3754.35,2111 3722.35,2143 3754.35,2175 3786.35,2143 3754.35,2111 
  "/>
<polygon clip-path="url(#clip1202)" style="fill:#000000; fill-opacity:1" points="
  2933.55,1468.16 2893.55,1508.16 2933.55,1548.16 2973.55,1508.16 2933.55,1468.16 
  "/>
<polygon clip-path="url(#clip1202)" style="fill:#c271d2; fill-opacity:1" points="
  2933.55,1476.16 2901.55,1508.16 2933.55,1540.16 2965.55,1508.16 2933.55,1476.16 
  "/>
<polyline clip-path="url(#clip1202)" style="stroke:#ac8d18; stroke-width:8; stroke-opacity:1; fill:none" points="
  4226.07,2312.41 4103.59,2181.35 3717.42,1772.34 2209.52,1207.12 
  "/>
<polygon clip-path="url(#clip1202)" style="fill:#000000; fill-opacity:1" points="
  4226.07,2352.41 4191.43,2332.41 4191.43,2292.41 4226.07,2272.41 4260.71,2292.41 4260.71,2332.41 
  "/>
<polygon clip-path="url(#clip1202)" style="fill:#ac8d18; fill-opacity:1" points="
  4226.07,2344.41 4198.36,2328.41 4198.36,2296.41 4226.07,2280.41 4253.78,2296.41 4253.78,2328.41 
  "/>
<polygon clip-path="url(#clip1202)" style="fill:#000000; fill-opacity:1" points="
  4103.59,2221.35 4068.95,2201.35 4068.95,2161.35 4103.59,2141.35 4138.23,2161.35 4138.23,2201.35 
  "/>
<polygon clip-path="url(#clip1202)" style="fill:#ac8d18; fill-opacity:1" points="
  4103.59,2213.35 4075.88,2197.35 4075.88,2165.35 4103.59,2149.35 4131.3,2165.35 4131.3,2197.35 
  "/>
<polygon clip-path="url(#clip1202)" style="fill:#000000; fill-opacity:1" points="
  3717.42,1812.34 3682.78,1792.34 3682.78,1752.34 3717.42,1732.34 3752.06,1752.34 3752.06,1792.34 
  "/>
<polygon clip-path="url(#clip1202)" style="fill:#ac8d18; fill-opacity:1" points="
  3717.42,1804.34 3689.7,1788.34 3689.7,1756.34 3717.42,1740.34 3745.13,1756.34 3745.13,1788.34 
  "/>
<polygon clip-path="url(#clip1202)" style="fill:#000000; fill-opacity:1" points="
  2209.52,1247.12 2174.88,1227.12 2174.88,1187.12 2209.52,1167.12 2244.16,1187.12 2244.16,1227.12 
  "/>
<polygon clip-path="url(#clip1202)" style="fill:#ac8d18; fill-opacity:1" points="
  2209.52,1239.12 2181.81,1223.12 2181.81,1191.12 2209.52,1175.12 2237.23,1191.12 2237.23,1223.12 
  "/>
<polyline clip-path="url(#clip1202)" style="stroke:#00a9ad; stroke-width:8; stroke-opacity:1; fill:none" points="
  4174.95,2242.04 3941.88,2148.84 3095.31,1501.67 1088.23,375.819 
  "/>
<line clip-path="url(#clip1202)" x1="4174.95" y1="2242.04" x2="4174.95" y2="2282.04" style="stroke:#000000; stroke-width:4; stroke-opacity:1"/>
<line clip-path="url(#clip1202)" x1="4174.95" y1="2242.04" x2="4134.95" y2="2242.04" style="stroke:#000000; stroke-width:4; stroke-opacity:1"/>
<line clip-path="url(#clip1202)" x1="4174.95" y1="2242.04" x2="4174.95" y2="2202.04" style="stroke:#000000; stroke-width:4; stroke-opacity:1"/>
<line clip-path="url(#clip1202)" x1="4174.95" y1="2242.04" x2="4214.95" y2="2242.04" style="stroke:#000000; stroke-width:4; stroke-opacity:1"/>
<line clip-path="url(#clip1202)" x1="4174.95" y1="2242.04" x2="4174.95" y2="2274.04" style="stroke:#00a9ad; stroke-width:4; stroke-opacity:1"/>
<line clip-path="url(#clip1202)" x1="4174.95" y1="2242.04" x2="4142.95" y2="2242.04" style="stroke:#00a9ad; stroke-width:4; stroke-opacity:1"/>
<line clip-path="url(#clip1202)" x1="4174.95" y1="2242.04" x2="4174.95" y2="2210.04" style="stroke:#00a9ad; stroke-width:4; stroke-opacity:1"/>
<line clip-path="url(#clip1202)" x1="4174.95" y1="2242.04" x2="4206.95" y2="2242.04" style="stroke:#00a9ad; stroke-width:4; stroke-opacity:1"/>
<line clip-path="url(#clip1202)" x1="3941.88" y1="2148.84" x2="3941.88" y2="2188.84" style="stroke:#000000; stroke-width:4; stroke-opacity:1"/>
<line clip-path="url(#clip1202)" x1="3941.88" y1="2148.84" x2="3901.88" y2="2148.84" style="stroke:#000000; stroke-width:4; stroke-opacity:1"/>
<line clip-path="url(#clip1202)" x1="3941.88" y1="2148.84" x2="3941.88" y2="2108.84" style="stroke:#000000; stroke-width:4; stroke-opacity:1"/>
<line clip-path="url(#clip1202)" x1="3941.88" y1="2148.84" x2="3981.88" y2="2148.84" style="stroke:#000000; stroke-width:4; stroke-opacity:1"/>
<line clip-path="url(#clip1202)" x1="3941.88" y1="2148.84" x2="3941.88" y2="2180.84" style="stroke:#00a9ad; stroke-width:4; stroke-opacity:1"/>
<line clip-path="url(#clip1202)" x1="3941.88" y1="2148.84" x2="3909.88" y2="2148.84" style="stroke:#00a9ad; stroke-width:4; stroke-opacity:1"/>
<line clip-path="url(#clip1202)" x1="3941.88" y1="2148.84" x2="3941.88" y2="2116.84" style="stroke:#00a9ad; stroke-width:4; stroke-opacity:1"/>
<line clip-path="url(#clip1202)" x1="3941.88" y1="2148.84" x2="3973.88" y2="2148.84" style="stroke:#00a9ad; stroke-width:4; stroke-opacity:1"/>
<line clip-path="url(#clip1202)" x1="3095.31" y1="1501.67" x2="3095.31" y2="1541.67" style="stroke:#000000; stroke-width:4; stroke-opacity:1"/>
<line clip-path="url(#clip1202)" x1="3095.31" y1="1501.67" x2="3055.31" y2="1501.67" style="stroke:#000000; stroke-width:4; stroke-opacity:1"/>
<line clip-path="url(#clip1202)" x1="3095.31" y1="1501.67" x2="3095.31" y2="1461.67" style="stroke:#000000; stroke-width:4; stroke-opacity:1"/>
<line clip-path="url(#clip1202)" x1="3095.31" y1="1501.67" x2="3135.31" y2="1501.67" style="stroke:#000000; stroke-width:4; stroke-opacity:1"/>
<line clip-path="url(#clip1202)" x1="3095.31" y1="1501.67" x2="3095.31" y2="1533.67" style="stroke:#00a9ad; stroke-width:4; stroke-opacity:1"/>
<line clip-path="url(#clip1202)" x1="3095.31" y1="1501.67" x2="3063.31" y2="1501.67" style="stroke:#00a9ad; stroke-width:4; stroke-opacity:1"/>
<line clip-path="url(#clip1202)" x1="3095.31" y1="1501.67" x2="3095.31" y2="1469.67" style="stroke:#00a9ad; stroke-width:4; stroke-opacity:1"/>
<line clip-path="url(#clip1202)" x1="3095.31" y1="1501.67" x2="3127.31" y2="1501.67" style="stroke:#00a9ad; stroke-width:4; stroke-opacity:1"/>
<line clip-path="url(#clip1202)" x1="1088.23" y1="375.819" x2="1088.23" y2="415.819" style="stroke:#000000; stroke-width:4; stroke-opacity:1"/>
<line clip-path="url(#clip1202)" x1="1088.23" y1="375.819" x2="1048.23" y2="375.819" style="stroke:#000000; stroke-width:4; stroke-opacity:1"/>
<line clip-path="url(#clip1202)" x1="1088.23" y1="375.819" x2="1088.23" y2="335.819" style="stroke:#000000; stroke-width:4; stroke-opacity:1"/>
<line clip-path="url(#clip1202)" x1="1088.23" y1="375.819" x2="1128.23" y2="375.819" style="stroke:#000000; stroke-width:4; stroke-opacity:1"/>
<line clip-path="url(#clip1202)" x1="1088.23" y1="375.819" x2="1088.23" y2="407.819" style="stroke:#00a9ad; stroke-width:4; stroke-opacity:1"/>
<line clip-path="url(#clip1202)" x1="1088.23" y1="375.819" x2="1056.23" y2="375.819" style="stroke:#00a9ad; stroke-width:4; stroke-opacity:1"/>
<line clip-path="url(#clip1202)" x1="1088.23" y1="375.819" x2="1088.23" y2="343.819" style="stroke:#00a9ad; stroke-width:4; stroke-opacity:1"/>
<line clip-path="url(#clip1202)" x1="1088.23" y1="375.819" x2="1120.23" y2="375.819" style="stroke:#00a9ad; stroke-width:4; stroke-opacity:1"/>
<polyline clip-path="url(#clip1202)" style="stroke:#ed5d92; stroke-width:8; stroke-opacity:1; fill:none" points="
  4160.18,2678.85 4097.88,2529.31 3959.6,2428.59 3712.2,1979.46 
  "/>
<line clip-path="url(#clip1202)" x1="4160.18" y1="2678.85" x2="4120.18" y2="2718.85" style="stroke:#000000; stroke-width:4; stroke-opacity:1"/>
<line clip-path="url(#clip1202)" x1="4160.18" y1="2678.85" x2="4120.18" y2="2638.85" style="stroke:#000000; stroke-width:4; stroke-opacity:1"/>
<line clip-path="url(#clip1202)" x1="4160.18" y1="2678.85" x2="4200.18" y2="2638.85" style="stroke:#000000; stroke-width:4; stroke-opacity:1"/>
<line clip-path="url(#clip1202)" x1="4160.18" y1="2678.85" x2="4200.18" y2="2718.85" style="stroke:#000000; stroke-width:4; stroke-opacity:1"/>
<line clip-path="url(#clip1202)" x1="4160.18" y1="2678.85" x2="4128.18" y2="2710.85" style="stroke:#ed5d92; stroke-width:4; stroke-opacity:1"/>
<line clip-path="url(#clip1202)" x1="4160.18" y1="2678.85" x2="4128.18" y2="2646.85" style="stroke:#ed5d92; stroke-width:4; stroke-opacity:1"/>
<line clip-path="url(#clip1202)" x1="4160.18" y1="2678.85" x2="4192.18" y2="2646.85" style="stroke:#ed5d92; stroke-width:4; stroke-opacity:1"/>
<line clip-path="url(#clip1202)" x1="4160.18" y1="2678.85" x2="4192.18" y2="2710.85" style="stroke:#ed5d92; stroke-width:4; stroke-opacity:1"/>
<line clip-path="url(#clip1202)" x1="4097.88" y1="2529.31" x2="4057.88" y2="2569.31" style="stroke:#000000; stroke-width:4; stroke-opacity:1"/>
<line clip-path="url(#clip1202)" x1="4097.88" y1="2529.31" x2="4057.88" y2="2489.31" style="stroke:#000000; stroke-width:4; stroke-opacity:1"/>
<line clip-path="url(#clip1202)" x1="4097.88" y1="2529.31" x2="4137.88" y2="2489.31" style="stroke:#000000; stroke-width:4; stroke-opacity:1"/>
<line clip-path="url(#clip1202)" x1="4097.88" y1="2529.31" x2="4137.88" y2="2569.31" style="stroke:#000000; stroke-width:4; stroke-opacity:1"/>
<line clip-path="url(#clip1202)" x1="4097.88" y1="2529.31" x2="4065.88" y2="2561.31" style="stroke:#ed5d92; stroke-width:4; stroke-opacity:1"/>
<line clip-path="url(#clip1202)" x1="4097.88" y1="2529.31" x2="4065.88" y2="2497.31" style="stroke:#ed5d92; stroke-width:4; stroke-opacity:1"/>
<line clip-path="url(#clip1202)" x1="4097.88" y1="2529.31" x2="4129.88" y2="2497.31" style="stroke:#ed5d92; stroke-width:4; stroke-opacity:1"/>
<line clip-path="url(#clip1202)" x1="4097.88" y1="2529.31" x2="4129.88" y2="2561.31" style="stroke:#ed5d92; stroke-width:4; stroke-opacity:1"/>
<line clip-path="url(#clip1202)" x1="3959.6" y1="2428.59" x2="3919.6" y2="2468.59" style="stroke:#000000; stroke-width:4; stroke-opacity:1"/>
<line clip-path="url(#clip1202)" x1="3959.6" y1="2428.59" x2="3919.6" y2="2388.59" style="stroke:#000000; stroke-width:4; stroke-opacity:1"/>
<line clip-path="url(#clip1202)" x1="3959.6" y1="2428.59" x2="3999.6" y2="2388.59" style="stroke:#000000; stroke-width:4; stroke-opacity:1"/>
<line clip-path="url(#clip1202)" x1="3959.6" y1="2428.59" x2="3999.6" y2="2468.59" style="stroke:#000000; stroke-width:4; stroke-opacity:1"/>
<line clip-path="url(#clip1202)" x1="3959.6" y1="2428.59" x2="3927.6" y2="2460.59" style="stroke:#ed5d92; stroke-width:4; stroke-opacity:1"/>
<line clip-path="url(#clip1202)" x1="3959.6" y1="2428.59" x2="3927.6" y2="2396.59" style="stroke:#ed5d92; stroke-width:4; stroke-opacity:1"/>
<line clip-path="url(#clip1202)" x1="3959.6" y1="2428.59" x2="3991.6" y2="2396.59" style="stroke:#ed5d92; stroke-width:4; stroke-opacity:1"/>
<line clip-path="url(#clip1202)" x1="3959.6" y1="2428.59" x2="3991.6" y2="2460.59" style="stroke:#ed5d92; stroke-width:4; stroke-opacity:1"/>
<line clip-path="url(#clip1202)" x1="3712.2" y1="1979.46" x2="3672.2" y2="2019.46" style="stroke:#000000; stroke-width:4; stroke-opacity:1"/>
<line clip-path="url(#clip1202)" x1="3712.2" y1="1979.46" x2="3672.2" y2="1939.46" style="stroke:#000000; stroke-width:4; stroke-opacity:1"/>
<line clip-path="url(#clip1202)" x1="3712.2" y1="1979.46" x2="3752.2" y2="1939.46" style="stroke:#000000; stroke-width:4; stroke-opacity:1"/>
<line clip-path="url(#clip1202)" x1="3712.2" y1="1979.46" x2="3752.2" y2="2019.46" style="stroke:#000000; stroke-width:4; stroke-opacity:1"/>
<line clip-path="url(#clip1202)" x1="3712.2" y1="1979.46" x2="3680.2" y2="2011.46" style="stroke:#ed5d92; stroke-width:4; stroke-opacity:1"/>
<line clip-path="url(#clip1202)" x1="3712.2" y1="1979.46" x2="3680.2" y2="1947.46" style="stroke:#ed5d92; stroke-width:4; stroke-opacity:1"/>
<line clip-path="url(#clip1202)" x1="3712.2" y1="1979.46" x2="3744.2" y2="1947.46" style="stroke:#ed5d92; stroke-width:4; stroke-opacity:1"/>
<line clip-path="url(#clip1202)" x1="3712.2" y1="1979.46" x2="3744.2" y2="2011.46" style="stroke:#ed5d92; stroke-width:4; stroke-opacity:1"/>
<polyline clip-path="url(#clip1202)" style="stroke:#c68125; stroke-width:8; stroke-opacity:1; fill:none" points="
  4188.84,2624.65 4087.19,2548.03 3940.66,2500.64 3663.61,2294.95 
  "/>
<polygon clip-path="url(#clip1202)" style="fill:#000000; fill-opacity:1" points="
  4188.84,2584.65 4148.84,2664.65 4228.84,2664.65 4188.84,2584.65 
  "/>
<polygon clip-path="url(#clip1202)" style="fill:#c68125; fill-opacity:1" points="
  4188.84,2592.65 4156.84,2656.65 4220.84,2656.65 4188.84,2592.65 
  "/>
<polygon clip-path="url(#clip1202)" style="fill:#000000; fill-opacity:1" points="
  4087.19,2508.03 4047.19,2588.03 4127.19,2588.03 4087.19,2508.03 
  "/>
<polygon clip-path="url(#clip1202)" style="fill:#c68125; fill-opacity:1" points="
  4087.19,2516.03 4055.19,2580.03 4119.19,2580.03 4087.19,2516.03 
  "/>
<polygon clip-path="url(#clip1202)" style="fill:#000000; fill-opacity:1" points="
  3940.66,2460.64 3900.66,2540.64 3980.66,2540.64 3940.66,2460.64 
  "/>
<polygon clip-path="url(#clip1202)" style="fill:#c68125; fill-opacity:1" points="
  3940.66,2468.64 3908.66,2532.64 3972.66,2532.64 3940.66,2468.64 
  "/>
<polygon clip-path="url(#clip1202)" style="fill:#000000; fill-opacity:1" points="
  3663.61,2254.95 3623.61,2334.95 3703.61,2334.95 3663.61,2254.95 
  "/>
<polygon clip-path="url(#clip1202)" style="fill:#c68125; fill-opacity:1" points="
  3663.61,2262.95 3631.61,2326.95 3695.61,2326.95 3663.61,2262.95 
  "/>
<polygon clip-path="url(#clip1200)" points="
3864.81,1078.57 4561.51,1078.57 4561.51,534.248 3864.81,534.248 
  " fill="#ffffff" fill-rule="evenodd" fill-opacity="1"/>
<polyline clip-path="url(#clip1200)" style="stroke:#000000; stroke-width:8; stroke-opacity:1; fill:none" points="
  3864.81,1078.57 4561.51,1078.57 4561.51,534.248 3864.81,534.248 3864.81,1078.57 
  "/>
<polyline clip-path="url(#clip1200)" style="stroke:#009af9; stroke-width:8; stroke-opacity:1; fill:none" points="
  3912.81,594.728 4200.81,594.728 
  "/>
<circle clip-path="url(#clip1200)" style="fill:#000000; stroke:none; fill-opacity:1" cx="4080.81" cy="594.728" r="50"/>
<circle clip-path="url(#clip1200)" style="fill:#009af9; stroke:none; fill-opacity:1" cx="4080.81" cy="594.728" r="43"/>
<g clip-path="url(#clip1200)">
<text style="fill:#000000; fill-opacity:1; font-family:Arial,Helvetica Neue,Helvetica,sans-serif; font-size:48px; text-anchor:start;" transform="rotate(0, 4248.81, 612.228)" x="4248.81" y="612.228">R2 Pred 6</text>
</g>
<polyline clip-path="url(#clip1200)" style="stroke:#e26f46; stroke-width:8; stroke-opacity:1; fill:none" points="
  3912.81,655.208 4200.81,655.208 
  "/>
<polygon clip-path="url(#clip1200)" style="fill:#000000; fill-opacity:1" points="
  4024.81,599.208 4024.81,711.208 4136.81,711.208 4136.81,599.208 4024.81,599.208 
  "/>
<polygon clip-path="url(#clip1200)" style="fill:#e26f46; fill-opacity:1" points="
  4032.81,607.208 4032.81,703.208 4128.81,703.208 4128.81,607.208 4032.81,607.208 
  "/>
<g clip-path="url(#clip1200)">
<text style="fill:#000000; fill-opacity:1; font-family:Arial,Helvetica Neue,Helvetica,sans-serif; font-size:48px; text-anchor:start;" transform="rotate(0, 4248.81, 672.708)" x="4248.81" y="672.708">R2 Pred 5</text>
</g>
<polyline clip-path="url(#clip1200)" style="stroke:#3da44d; stroke-width:8; stroke-opacity:1; fill:none" points="
  3912.81,715.688 4200.81,715.688 
  "/>
<polygon clip-path="url(#clip1200)" style="fill:#000000; fill-opacity:1" points="
  4080.81,659.688 4067.65,697.544 4027.56,698.384 4059.53,722.632 4047.89,760.992 4080.81,738.088 4113.74,760.992 4102.09,722.632 4134.07,698.384 4093.97,697.544 
  4080.81,659.688 
  "/>
<polygon clip-path="url(#clip1200)" style="fill:#3da44d; fill-opacity:1" points="
  4080.81,667.688 4069.53,700.136 4035.17,700.856 4062.57,721.64 4052.59,754.52 4080.81,734.888 4109.04,754.52 4099.05,721.64 4126.46,700.856 4092.09,700.136 
  4080.81,667.688 
  "/>
<g clip-path="url(#clip1200)">
<text style="fill:#000000; fill-opacity:1; font-family:Arial,Helvetica Neue,Helvetica,sans-serif; font-size:48px; text-anchor:start;" transform="rotate(0, 4248.81, 733.188)" x="4248.81" y="733.188">R2 PI 9</text>
</g>
<polyline clip-path="url(#clip1200)" style="stroke:#c271d2; stroke-width:8; stroke-opacity:1; fill:none" points="
  3912.81,776.168 4200.81,776.168 
  "/>
<polygon clip-path="url(#clip1200)" style="fill:#000000; fill-opacity:1" points="
  4080.81,720.168 4024.81,776.168 4080.81,832.168 4136.81,776.168 4080.81,720.168 
  "/>
<polygon clip-path="url(#clip1200)" style="fill:#c271d2; fill-opacity:1" points="
  4080.81,728.168 4032.81,776.168 4080.81,824.168 4128.81,776.168 4080.81,728.168 
  "/>
<g clip-path="url(#clip1200)">
<text style="fill:#000000; fill-opacity:1; font-family:Arial,Helvetica Neue,Helvetica,sans-serif; font-size:48px; text-anchor:start;" transform="rotate(0, 4248.81, 793.668)" x="4248.81" y="793.668">R2 PI 7</text>
</g>
<polyline clip-path="url(#clip1200)" style="stroke:#ac8d18; stroke-width:8; stroke-opacity:1; fill:none" points="
  3912.81,836.648 4200.81,836.648 
  "/>
<polygon clip-path="url(#clip1200)" style="fill:#000000; fill-opacity:1" points="
  4080.81,892.648 4032.32,864.648 4032.32,808.648 4080.81,780.648 4129.31,808.648 4129.31,864.648 
  "/>
<polygon clip-path="url(#clip1200)" style="fill:#ac8d18; fill-opacity:1" points="
  4080.81,884.648 4039.25,860.648 4039.25,812.648 4080.81,788.648 4122.38,812.648 4122.38,860.648 
  "/>
<g clip-path="url(#clip1200)">
<text style="fill:#000000; fill-opacity:1; font-family:Arial,Helvetica Neue,Helvetica,sans-serif; font-size:48px; text-anchor:start;" transform="rotate(0, 4248.81, 854.148)" x="4248.81" y="854.148">R2 PI 6</text>
</g>
<polyline clip-path="url(#clip1200)" style="stroke:#00a9ad; stroke-width:8; stroke-opacity:1; fill:none" points="
  3912.81,897.128 4200.81,897.128 
  "/>
<line clip-path="url(#clip1200)" x1="4080.81" y1="897.128" x2="4080.81" y2="953.128" style="stroke:#000000; stroke-width:4; stroke-opacity:1"/>
<line clip-path="url(#clip1200)" x1="4080.81" y1="897.128" x2="4024.81" y2="897.128" style="stroke:#000000; stroke-width:4; stroke-opacity:1"/>
<line clip-path="url(#clip1200)" x1="4080.81" y1="897.128" x2="4080.81" y2="841.128" style="stroke:#000000; stroke-width:4; stroke-opacity:1"/>
<line clip-path="url(#clip1200)" x1="4080.81" y1="897.128" x2="4136.81" y2="897.128" style="stroke:#000000; stroke-width:4; stroke-opacity:1"/>
<line clip-path="url(#clip1200)" x1="4080.81" y1="897.128" x2="4080.81" y2="945.128" style="stroke:#00a9ad; stroke-width:4; stroke-opacity:1"/>
<line clip-path="url(#clip1200)" x1="4080.81" y1="897.128" x2="4032.81" y2="897.128" style="stroke:#00a9ad; stroke-width:4; stroke-opacity:1"/>
<line clip-path="url(#clip1200)" x1="4080.81" y1="897.128" x2="4080.81" y2="849.128" style="stroke:#00a9ad; stroke-width:4; stroke-opacity:1"/>
<line clip-path="url(#clip1200)" x1="4080.81" y1="897.128" x2="4128.81" y2="897.128" style="stroke:#00a9ad; stroke-width:4; stroke-opacity:1"/>
<g clip-path="url(#clip1200)">
<text style="fill:#000000; fill-opacity:1; font-family:Arial,Helvetica Neue,Helvetica,sans-serif; font-size:48px; text-anchor:start;" transform="rotate(0, 4248.81, 914.628)" x="4248.81" y="914.628">R2 PI 5</text>
</g>
<polyline clip-path="url(#clip1200)" style="stroke:#ed5d92; stroke-width:8; stroke-opacity:1; fill:none" points="
  3912.81,957.608 4200.81,957.608 
  "/>
<line clip-path="url(#clip1200)" x1="4080.81" y1="957.608" x2="4024.81" y2="1013.61" style="stroke:#000000; stroke-width:4; stroke-opacity:1"/>
<line clip-path="url(#clip1200)" x1="4080.81" y1="957.608" x2="4024.81" y2="901.608" style="stroke:#000000; stroke-width:4; stroke-opacity:1"/>
<line clip-path="url(#clip1200)" x1="4080.81" y1="957.608" x2="4136.81" y2="901.608" style="stroke:#000000; stroke-width:4; stroke-opacity:1"/>
<line clip-path="url(#clip1200)" x1="4080.81" y1="957.608" x2="4136.81" y2="1013.61" style="stroke:#000000; stroke-width:4; stroke-opacity:1"/>
<line clip-path="url(#clip1200)" x1="4080.81" y1="957.608" x2="4032.81" y2="1005.61" style="stroke:#ed5d92; stroke-width:4; stroke-opacity:1"/>
<line clip-path="url(#clip1200)" x1="4080.81" y1="957.608" x2="4032.81" y2="909.608" style="stroke:#ed5d92; stroke-width:4; stroke-opacity:1"/>
<line clip-path="url(#clip1200)" x1="4080.81" y1="957.608" x2="4128.81" y2="909.608" style="stroke:#ed5d92; stroke-width:4; stroke-opacity:1"/>
<line clip-path="url(#clip1200)" x1="4080.81" y1="957.608" x2="4128.81" y2="1005.61" style="stroke:#ed5d92; stroke-width:4; stroke-opacity:1"/>
<g clip-path="url(#clip1200)">
<text style="fill:#000000; fill-opacity:1; font-family:Arial,Helvetica Neue,Helvetica,sans-serif; font-size:48px; text-anchor:start;" transform="rotate(0, 4248.81, 975.108)" x="4248.81" y="975.108">R2 Std 8</text>
</g>
<polyline clip-path="url(#clip1200)" style="stroke:#c68125; stroke-width:8; stroke-opacity:1; fill:none" points="
  3912.81,1018.09 4200.81,1018.09 
  "/>
<polygon clip-path="url(#clip1200)" style="fill:#000000; fill-opacity:1" points="
  4080.81,962.088 4024.81,1074.09 4136.81,1074.09 4080.81,962.088 
  "/>
<polygon clip-path="url(#clip1200)" style="fill:#c68125; fill-opacity:1" points="
  4080.81,970.088 4032.81,1066.09 4128.81,1066.09 4080.81,970.088 
  "/>
<g clip-path="url(#clip1200)">
<text style="fill:#000000; fill-opacity:1; font-family:Arial,Helvetica Neue,Helvetica,sans-serif; font-size:48px; text-anchor:start;" transform="rotate(0, 4248.81, 1035.59)" x="4248.81" y="1035.59">R2 Std 7</text>
</g>
</svg>
